<svg width="1646" height="344" viewBox="0 0 1646 344" fill="none" xmlns="http://www.w3.org/2000/svg">
<path d="M1203.06 188.846C1173.56 178.63 1142.92 162.737 1110.01 158.196C1063.48 151.385 1021.49 160.466 977.228 174.089C972.689 175.224 968.149 172.954 963.61 174.089C939.778 182.035 917.081 192.252 892.114 199.063C876.226 204.739 858.068 204.739 841.045 209.28C835.371 211.55 827.427 211.55 820.618 208.145C817.213 207.009 813.809 208.145 810.404 208.145L806.999 204.739C803.595 204.739 800.19 205.874 796.786 204.739C750.257 176.359 700.323 184.305 650.389 184.305C649.254 184.305 648.119 187.711 646.985 187.711C641.31 188.846 635.636 186.576 629.962 188.846C625.422 189.981 619.748 189.981 617.478 192.252C606.13 200.198 593.646 197.928 582.298 203.604C575.489 207.009 566.41 203.604 558.466 204.739C517.611 213.82 479.026 213.82 439.306 204.739C437.036 203.604 434.766 199.063 432.496 199.063C410.934 195.657 396.181 183.17 378.023 175.224C357.596 165.007 334.899 165.007 313.336 161.602C281.56 158.196 249.784 159.331 218.008 160.466C216.874 160.466 215.739 163.872 214.604 163.872C194.46 166.619 175.236 171.773 156.715 178.879C171.536 188.006 188.627 196.304 205.502 204.273C277.895 238.477 366.414 240.94 500.032 226.194C647.348 209.938 609.863 271.749 777.47 276.245C943.999 280.717 959.229 180.412 1117.93 194.511C1264.62 207.543 1330.57 300.254 1412.99 258.082C1424.52 252.179 1435.3 244.187 1444.79 234.878C1419.49 217.396 1392.6 204.115 1361.96 200.198C1307.48 192.252 1253.01 208.145 1203.08 188.846H1203.06Z" fill="#4B2056"/>
<path d="M1133.84 115.059C1197.42 113.98 1255.89 87.3034 1313.13 56.4262C1289.62 53.8947 1266.26 53.0434 1245.03 53.7358C1141.49 57.1073 1092.56 96.8504 1030.44 116.921C1064.96 116.921 1099.45 116.035 1133.85 115.047L1133.84 115.059Z" fill="#150718"/>
<path d="M1481.07 140.022C1468.26 90.8338 1389.79 64.679 1313.12 56.4375C1255.88 87.3147 1197.41 113.992 1133.83 115.07C1099.43 116.058 1064.94 116.932 1030.42 116.943C1001.28 126.365 969.216 131.451 927.249 126.411C893.816 122.392 874.035 114.344 857.33 105.841C829.912 101.732 802.528 96.26 775.201 88.9721C753.843 83.5459 732.689 80.5717 711.671 79.6976C629.372 94.7275 597.868 152.531 509.621 144.574C481.897 142.076 461.379 134.232 443.527 124.027C378.92 127.012 314.687 123.073 249.773 111.676C221.402 107.135 191.895 110.541 164.659 111.676C145.627 113.401 128.945 121.302 114.158 132.518C118.584 150.749 135.266 165.7 156.715 178.902C175.236 171.796 194.46 166.642 214.604 163.895C215.739 163.895 216.874 160.489 218.008 160.489C249.784 159.354 281.56 158.219 313.336 161.624C334.899 165.03 357.596 165.03 378.023 175.247C396.181 183.193 410.934 195.68 432.496 199.086C434.766 199.086 437.036 203.626 439.306 204.762C479.026 213.843 517.611 213.843 558.466 204.762C566.41 203.626 575.488 207.032 582.298 203.626C593.646 197.95 606.13 200.221 617.478 192.274C619.748 190.004 625.422 190.004 629.962 188.869C635.636 186.598 641.31 188.869 646.985 187.734C648.119 187.734 649.254 184.328 650.389 184.328C700.323 184.328 750.257 176.382 796.786 204.762C800.19 205.897 803.595 204.762 806.999 204.762L810.404 208.167C813.809 208.167 817.213 207.032 820.618 208.167C827.427 211.573 835.371 211.573 841.045 209.302C858.068 204.762 876.226 204.762 892.114 199.086C917.081 192.274 939.778 182.058 963.61 174.111C968.149 172.976 972.689 175.247 977.228 174.111C1021.49 160.489 1063.48 151.408 1110.01 158.219C1142.92 162.759 1173.56 178.652 1203.06 188.869C1253 208.167 1307.47 192.274 1361.94 200.221C1392.59 204.137 1419.48 217.419 1444.78 234.901C1472.29 207.929 1488.87 169.945 1481.07 140.044V140.022Z" fill="#290D30"/>
<path d="M249.784 111.653C314.698 123.062 378.931 127.001 443.539 124.004C398.689 98.3714 370.601 57.7996 287.201 49.1949C270.575 47.4807 151.801 35.232 119.242 99.1433C112.989 111.437 111.729 122.46 114.158 132.495C128.945 121.28 145.627 113.39 164.659 111.653C191.895 110.518 221.402 107.112 249.773 111.653H249.784Z" fill="#150718"/>
<path d="M857.353 105.83C831.728 92.7863 813.309 78.6872 763.852 76.4509C744.231 75.5654 727.071 76.8822 711.694 79.6861C732.712 80.5489 753.865 83.5344 775.223 88.9607C802.551 96.2486 829.935 101.732 857.353 105.83Z" fill="#150718"/>
<g opacity="0.5">
<path d="M304.382 72.6935C304.382 75.259 302.306 77.3364 299.741 77.3364C297.176 77.3364 295.099 75.259 295.099 72.6935C295.099 70.1279 297.176 68.0505 299.741 68.0505C302.306 68.0505 304.382 70.1279 304.382 72.6935Z" fill="white"/>
<path d="M490.884 199.53C492.696 197.716 492.696 194.777 490.884 192.964C489.071 191.15 486.132 191.15 484.32 192.964C482.507 194.777 482.507 197.716 484.32 199.53C486.132 201.343 489.071 201.343 490.884 199.53Z" fill="white"/>
<path d="M898.582 88.4839C901.146 88.4839 903.224 86.4051 903.224 83.8409C903.224 81.2767 901.146 79.198 898.582 79.198C896.019 79.198 893.941 81.2767 893.941 83.8409C893.941 86.4051 896.019 88.4839 898.582 88.4839Z" fill="white"/>
<path d="M1158.6 67.6305C1158.6 70.196 1156.52 72.2734 1153.96 72.2734C1151.39 72.2734 1149.32 70.196 1149.32 67.6305C1149.32 65.0649 1151.39 62.9875 1153.96 62.9875C1156.52 62.9875 1158.6 65.0649 1158.6 67.6305Z" fill="white"/>
<path d="M949.22 72.2167C949.22 74.7822 947.143 76.8596 944.578 76.8596C942.013 76.8596 939.937 74.7822 939.937 72.2167C939.937 69.6511 942.013 67.5737 944.578 67.5737C947.143 67.5737 949.22 69.6511 949.22 72.2167Z" fill="white"/>
</g>
<g style="mix-blend-mode:overlay">
<path d="M642.309 48.264C642.309 50.7274 640.312 52.7253 637.849 52.7253C635.386 52.7253 633.389 50.7274 633.389 48.264C633.389 45.8007 635.386 43.8027 637.849 43.8027C640.312 43.8027 642.309 45.8007 642.309 48.264Z" fill="white"/>
<path d="M653.283 100.188C655.746 100.188 657.743 98.1903 657.743 95.7264C657.743 93.2625 655.746 91.2651 653.283 91.2651C650.82 91.2651 648.823 93.2625 648.823 95.7264C648.823 98.1903 650.82 100.188 653.283 100.188Z" fill="white"/>
<path d="M763.092 167.078C763.658 164.68 762.173 162.278 759.776 161.712C757.379 161.146 754.977 162.631 754.411 165.029C753.845 167.427 755.33 169.83 757.727 170.396C760.124 170.962 762.526 169.476 763.092 167.078Z" fill="white"/>
<path d="M928.791 214.79C929.357 212.392 927.872 209.989 925.475 209.423C923.077 208.857 920.675 210.342 920.109 212.74C919.544 215.138 921.028 217.541 923.426 218.107C925.823 218.673 928.225 217.188 928.791 214.79Z" fill="white"/>
<path d="M1055.29 199.313C1055.65 198.677 1055.87 197.95 1055.87 197.167C1055.87 194.704 1053.88 192.706 1051.41 192.706C1048.95 192.706 1046.95 194.704 1046.95 197.167C1046.95 198.37 1047.43 199.449 1048.2 200.255C1050.56 199.914 1052.93 199.596 1055.31 199.313H1055.29Z" fill="white"/>
<path d="M1076.45 123.198C1076.45 125.661 1074.45 127.659 1071.99 127.659C1069.53 127.659 1067.53 125.661 1067.53 123.198C1067.53 120.735 1069.53 118.737 1071.99 118.737C1074.45 118.737 1076.45 120.735 1076.45 123.198Z" fill="white"/>
<path d="M1406.1 90.7429C1408.57 90.7429 1410.56 88.7455 1410.56 86.2816C1410.56 83.8177 1408.57 81.8203 1406.1 81.8203C1403.64 81.8203 1401.64 83.8177 1401.64 86.2816C1401.64 88.7455 1403.64 90.7429 1406.1 90.7429Z" fill="white"/>
<path d="M1389.97 212.381C1392.25 211.438 1393.33 208.828 1392.38 206.552C1391.44 204.275 1388.83 203.194 1386.56 204.137C1384.28 205.08 1383.2 207.69 1384.14 209.966C1385.09 212.243 1387.69 213.324 1389.97 212.381Z" fill="white"/>
<path d="M309.206 98.5303C311.669 98.5303 313.666 96.5329 313.666 94.069C313.666 91.6051 311.669 89.6077 309.206 89.6077C306.742 89.6077 304.746 91.6051 304.746 94.069C304.746 96.5329 306.742 98.5303 309.206 98.5303Z" fill="white"/>
<path d="M145.514 140.691C145.514 143.155 143.516 145.153 141.054 145.153C138.591 145.153 136.594 143.155 136.594 140.691C136.594 138.228 138.591 136.23 141.054 136.23C143.516 136.23 145.514 138.228 145.514 140.691Z" fill="white"/>
<path d="M680.084 167.205C680.287 164.749 678.462 162.594 676.007 162.391C673.552 162.188 671.397 164.013 671.194 166.469C670.991 168.924 672.816 171.08 675.271 171.283C677.726 171.486 679.881 169.66 680.084 167.205Z" fill="white"/>
<path d="M507.851 100.676C510.314 100.676 512.311 98.6786 512.311 96.2147C512.311 93.7508 510.314 91.7534 507.851 91.7534C505.388 91.7534 503.391 93.7508 503.391 96.2147C503.391 98.6786 505.388 100.676 507.851 100.676Z" fill="white"/>
<path d="M899.366 181.343C899.366 183.806 897.368 185.804 894.906 185.804C892.443 185.804 890.446 183.806 890.446 181.343C890.446 178.879 892.443 176.881 894.906 176.881C897.368 176.881 899.366 178.879 899.366 181.343Z" fill="white"/>
<path d="M1163.2 37.5825C1165.47 36.6396 1166.55 34.0299 1165.61 31.7535C1164.67 29.4772 1162.06 28.3962 1159.78 29.3391C1157.51 30.282 1156.43 32.8917 1157.37 35.1681C1158.31 37.4444 1160.92 38.5254 1163.2 37.5825Z" fill="white"/>
<path d="M1190.91 72.7274C1190.91 75.1908 1188.91 77.1887 1186.45 77.1887C1183.99 77.1887 1181.99 75.1908 1181.99 72.7274C1181.99 70.264 1183.99 68.2661 1186.45 68.2661C1188.91 68.2661 1190.91 70.264 1190.91 72.7274Z" fill="white"/>
<path d="M1260.85 174.089C1260.85 176.552 1258.85 178.55 1256.39 178.55C1253.93 178.55 1251.93 176.552 1251.93 174.089C1251.93 171.625 1253.93 169.627 1256.39 169.627C1258.85 169.627 1260.85 171.625 1260.85 174.089Z" fill="white"/>
<path d="M884.817 282C887.28 282 889.277 280.003 889.277 277.539C889.277 275.075 887.28 273.077 884.817 273.077C882.353 273.077 880.357 275.075 880.357 277.539C880.357 280.003 882.353 282 884.817 282Z" fill="white"/>
<path d="M695.908 245.969C698.371 245.969 700.368 243.972 700.368 241.508C700.368 239.044 698.371 237.046 695.908 237.046C693.445 237.046 691.448 239.044 691.448 241.508C691.448 243.972 693.445 245.969 695.908 245.969Z" fill="white"/>
</g>
<path d="M367.099 103.008C359.508 92.04 348.052 98.7267 338.863 103.588C336.811 106.673 333.324 108.7 329.345 108.7C323.592 108.7 318.846 104.444 318.053 98.903C310.5 91.1459 301.084 81.4118 292.259 84.9377C279.355 90.1007 287.098 113.334 284.517 118.497C281.936 123.66 276.775 126.242 274.194 133.986C271.613 141.731 262.713 174.673 289.678 179.169C299.107 180.743 306.61 170.367 312.502 161.413C312.313 160.544 312.212 159.638 312.212 158.706C312.212 151.603 317.965 145.849 325.065 145.849C328.817 145.849 332.191 147.473 334.545 150.042C339.454 150.81 345.421 151.352 352.912 149.488C368.396 145.609 378.719 119.794 367.112 103.021L367.099 103.008Z" fill="#657F93"/>
<path d="M360.604 97.7321C353.78 95.3521 345.698 99.9611 338.863 103.588C336.811 106.673 333.324 108.7 329.346 108.7C323.593 108.7 318.847 104.444 318.053 98.9033C310.5 91.1462 301.084 81.412 292.259 84.938C279.356 90.101 287.098 113.334 284.517 118.498C281.936 123.661 276.775 126.242 274.194 133.987C272.23 139.867 266.641 160.293 275.894 171.739C285.096 165.355 286.707 135.8 312.212 130.121C336.71 124.668 358.602 128.282 360.616 97.7195L360.604 97.7321Z" fill="#70A4BB"/>
<path d="M328.691 108.662C323.24 108.348 318.809 104.217 318.041 98.8906C310.488 91.1335 301.071 81.3993 292.246 84.9253C279.343 90.0883 287.085 113.322 284.504 118.485C281.924 123.648 276.762 126.229 274.182 133.974C272.507 138.998 268.189 154.601 272.696 166.186C276.636 130.763 292.523 122.64 299.334 115.828C306.472 108.688 310.765 115.828 322.195 112.969C324.776 112.327 326.916 110.728 328.678 108.65L328.691 108.662Z" fill="#79C7CF"/>
<path d="M356.487 134.415C346.492 142.99 326.488 134.415 315.057 138.696C303.627 142.978 300.769 160.129 293.631 168.704C290.824 172.079 285.36 174.119 279.784 175.353C282.364 177.142 285.6 178.476 289.678 179.156C299.107 180.73 306.61 170.354 312.502 161.401C312.313 160.532 312.212 159.625 312.212 158.693C312.212 151.591 317.965 145.836 325.065 145.836C328.817 145.836 332.191 147.461 334.545 150.029C339.454 150.798 345.421 151.339 352.912 149.475C367.855 145.735 377.989 121.57 368.245 104.809C368.522 115.072 363.587 128.332 356.5 134.415H356.487Z" fill="#5B5B7E"/>
<g style="mix-blend-mode:screen" opacity="0.7">
<path d="M289.338 112.982C288.722 112.982 288.155 112.579 287.966 111.962C287.777 111.345 283.497 96.6742 291.302 90.4282C297.307 85.6178 306.082 90.5541 311.772 96.246C312.326 96.8001 312.326 97.7068 311.772 98.2609C311.218 98.8149 310.311 98.8149 309.757 98.2609C304.521 93.0223 297.332 89.2571 293.09 92.6445C286.783 97.6816 290.673 110.992 290.711 111.131C290.937 111.886 290.509 112.68 289.754 112.906C289.615 112.944 289.477 112.969 289.338 112.969V112.982Z" fill="#79C7CF"/>
</g>
<g style="mix-blend-mode:screen" opacity="0.7">
<path d="M277.92 137.273C277.14 137.273 276.511 136.631 276.511 135.85C276.511 135.586 276.599 129.277 284.341 124.618C285.021 124.215 285.902 124.429 286.305 125.109C286.707 125.789 286.493 126.658 285.814 127.073C279.519 130.851 279.368 135.661 279.368 135.863C279.356 136.644 278.714 137.273 277.946 137.273H277.92Z" fill="#79C7CF"/>
</g>
<g opacity="0.7">
<path d="M307.668 126.594C307.114 126.594 306.585 126.267 306.359 125.738C306.044 125.008 306.371 124.177 307.101 123.862C311.759 121.847 316.404 121.066 320.924 121.57C321.704 121.658 322.271 122.363 322.183 123.144C322.094 123.925 321.389 124.504 320.609 124.403C316.593 123.963 312.426 124.655 308.234 126.468C308.045 126.544 307.857 126.582 307.668 126.582V126.594Z" fill="#79C7CF"/>
</g>
<g opacity="0.7">
<path d="M297.911 132.991C297.546 132.991 297.181 132.853 296.904 132.576C296.35 132.022 296.35 131.115 296.904 130.561C296.98 130.486 298.843 128.634 301.965 126.62C302.632 126.191 303.513 126.38 303.941 127.048C304.369 127.715 304.181 128.597 303.513 129.025C300.656 130.863 298.944 132.563 298.919 132.576C298.642 132.853 298.277 132.991 297.911 132.991Z" fill="#79C7CF"/>
</g>
<g opacity="0.7">
<path d="M336.483 121.557C336.118 121.557 335.753 121.419 335.476 121.142C334.922 120.588 334.922 119.681 335.476 119.127C335.552 119.051 337.415 117.2 340.537 115.186C341.204 114.757 342.085 114.946 342.513 115.614C342.942 116.281 342.753 117.163 342.085 117.591C339.228 119.429 337.516 121.129 337.491 121.142C337.214 121.419 336.849 121.557 336.483 121.557Z" fill="#79C7CF"/>
</g>
<g style="mix-blend-mode:screen" opacity="0.7">
<path d="M309.82 100.188C312.917 103.525 314.441 107.013 312.212 108.688C306.925 112.654 296.753 114.166 293.002 112.1C293.203 112.44 293.417 112.743 293.644 112.969C296.502 115.828 307.932 114.392 313.647 110.111C316.203 108.184 313.836 103.902 309.833 100.175L309.82 100.188Z" fill="#79C7CF"/>
</g>
<g style="mix-blend-mode:screen" opacity="0.7">
<path d="M280.778 135.85C280.652 135.724 280.552 135.56 280.489 135.384C280.287 136.177 280.35 136.857 280.778 137.273C284.605 141.101 290.685 133.558 289.93 129.856C289.288 133.735 284.152 139.225 280.778 135.85Z" fill="#79C7CF"/>
</g>
<g style="mix-blend-mode:screen" opacity="0.7">
<path d="M350.772 105.842C349.79 104.368 348.531 104.041 347.335 104.318C348.053 104.494 348.745 104.948 349.349 105.842C351.036 108.36 348.757 109.884 346.303 110.136C349.135 110.451 352.786 108.851 350.772 105.842Z" fill="#79C7CF"/>
</g>
<g style="mix-blend-mode:screen" opacity="0.7">
<path d="M330.768 121.557C330.768 122.351 330.126 122.98 329.346 122.98C328.565 122.98 327.923 122.338 327.923 121.557C327.923 120.777 328.565 120.135 329.346 120.135C330.126 120.135 330.768 120.777 330.768 121.557Z" fill="#79C7CF"/>
</g>
<path d="M353.629 142.99C353.629 143.783 352.987 144.413 352.207 144.413C351.426 144.413 350.784 143.771 350.784 142.99C350.784 142.209 351.426 141.567 352.207 141.567C352.987 141.567 353.629 142.209 353.629 142.99Z" fill="#657F93"/>
<g style="mix-blend-mode:screen" opacity="0.7">
<path d="M310.777 118.699C310.777 120.273 309.493 121.557 307.92 121.557C306.346 121.557 305.062 120.273 305.062 118.699C305.062 117.125 306.346 115.84 307.92 115.84C309.493 115.84 310.777 117.125 310.777 118.699Z" fill="#79C7CF"/>
</g>
<g style="mix-blend-mode:screen" opacity="0.7">
<path d="M299.347 122.98C299.347 123.774 298.705 124.403 297.924 124.403C297.144 124.403 296.502 123.761 296.502 122.98C296.502 122.2 297.144 121.557 297.924 121.557C298.705 121.557 299.347 122.2 299.347 122.98Z" fill="#79C7CF"/>
</g>
<g style="mix-blend-mode:screen" opacity="0.7">
<path d="M335.061 112.982C335.061 113.775 334.419 114.405 333.638 114.405C332.858 114.405 332.216 113.763 332.216 112.982C332.216 112.201 332.858 111.559 333.638 111.559C334.419 111.559 335.061 112.201 335.061 112.982Z" fill="#79C7CF"/>
</g>
<g style="mix-blend-mode:screen" opacity="0.7">
<path d="M292.196 141.567C292.196 142.361 291.554 142.99 290.774 142.99C289.993 142.99 289.351 142.348 289.351 141.567C289.351 140.787 289.993 140.144 290.774 140.144C291.554 140.144 292.196 140.787 292.196 141.567Z" fill="#79C7CF"/>
</g>
<g style="mix-blend-mode:screen" opacity="0.7">
<path d="M355.052 120.122C354.712 119.706 354.334 119.379 353.906 119.115C358.514 126.141 343.093 139.061 333.198 132.324C333.273 132.576 333.412 132.803 333.613 132.979C343.609 141.555 360.755 127.262 355.039 120.122H355.052Z" fill="#79C7CF"/>
</g>
<g style="mix-blend-mode:screen" opacity="0.7">
<path d="M310.777 135.85C310.374 135.447 310.123 135.044 309.984 134.629C309.732 135.485 309.909 136.404 310.777 137.273C314.378 140.875 317.953 135.422 317.323 132.727C316.807 135.485 313.798 138.872 310.777 135.837V135.85Z" fill="#79C7CF"/>
</g>
<g style="mix-blend-mode:screen" opacity="0.7">
<path d="M287.916 165.859C287.073 165.38 286.632 163.793 286.556 161.665C286.468 164.486 286.884 166.702 287.916 167.282C294.701 171.16 298.843 159.26 298.591 151.201C298.365 159.147 294.311 169.498 287.916 165.846V165.859Z" fill="#79C7CF"/>
</g>
<path d="M346.492 144.413C346.492 145.987 345.207 147.272 343.634 147.272C342.06 147.272 340.776 145.987 340.776 144.413C340.776 142.839 342.06 141.555 343.634 141.555C345.207 141.555 346.492 142.839 346.492 144.413Z" fill="#657F93"/>
<path d="M1363.69 215.109C1353.37 197.038 1332.72 216.393 1327.56 215.109C1322.39 213.824 1326.26 208.649 1323.68 206.08C1321.1 203.498 1315.94 209.958 1312.06 204.783C1308.19 199.62 1306.89 176.386 1290.12 178.98C1273.35 181.549 1278.5 200.917 1273.35 206.092C1268.18 211.255 1253.99 213.837 1248.83 216.406C1243.67 218.987 1237.21 222.652 1237.21 238.355C1237.21 244.815 1242.38 249.978 1248.83 251.262C1251.8 251.867 1256.43 250.822 1260.91 249.638C1262.5 246.225 1265.96 243.87 1269.97 243.87C1275.49 243.87 1279.96 248.341 1279.96 253.869V253.907C1282.32 256.728 1285.14 259.75 1288.84 261.588C1291.95 263.15 1295.07 262.621 1298.18 261.5C1300.75 257.748 1305.08 255.279 1309.96 255.279C1316.1 255.279 1321.34 259.17 1323.35 264.611C1326.26 266.852 1329.22 268.615 1332.7 268.036C1340.44 266.739 1374 233.179 1363.66 215.109H1363.69ZM1291.4 205.261C1285.88 205.261 1281.41 200.791 1281.41 195.263C1281.41 189.734 1285.88 185.264 1291.4 185.264C1296.93 185.264 1301.4 189.734 1301.4 195.263C1301.4 200.791 1296.93 205.261 1291.4 205.261Z" fill="#70A4BB"/>
<path d="M1332.72 268.048C1340.46 266.751 1374.02 233.192 1363.69 215.121C1359.84 208.384 1354.56 206.848 1349.17 207.503C1346.59 214.34 1341.66 222.752 1337.11 229.565C1328.54 242.422 1321.4 232.423 1314.25 229.565C1307.12 226.706 1302.82 236.705 1294.25 236.705C1285.68 236.705 1288.53 228.129 1278.54 225.271C1268.54 222.412 1268.54 232.411 1251.72 231.529C1246.22 231.24 1241.87 229.855 1238.46 228.129C1237.68 230.824 1237.2 234.149 1237.2 238.355C1237.2 244.815 1242.37 249.978 1248.82 251.262C1251.79 251.867 1256.42 250.821 1260.9 249.638C1262.49 246.225 1265.95 243.87 1269.95 243.87C1275.48 243.87 1279.95 248.341 1279.95 253.869V253.907C1282.3 256.727 1285.12 259.75 1288.82 261.588C1291.93 263.15 1295.06 262.621 1298.16 261.5C1300.73 257.747 1305.06 255.279 1309.95 255.279C1316.09 255.279 1321.33 259.17 1323.34 264.61C1326.25 266.852 1329.21 268.615 1332.68 268.036L1332.72 268.048Z" fill="#657F93"/>
<path d="M1287.1 204.405C1287.1 204.405 1281.41 198.134 1285.69 190.981C1289.97 183.841 1298.74 188.324 1298.74 188.324C1298.74 188.324 1289.97 178.111 1282.83 189.545C1275.69 200.979 1287.1 204.392 1287.1 204.392V204.405Z" fill="#657F93"/>
<path d="M1357.37 208.724C1356.5 224.44 1347.56 244.802 1335.69 249.562C1327.57 252.824 1316.07 242.951 1312.83 242.422C1304.26 240.999 1297.12 248.139 1292.83 248.139C1288.53 248.139 1281.4 238.141 1275.68 235.282C1269.97 232.424 1265.69 238.141 1249.96 238.141C1245.14 238.141 1240.87 237.461 1237.25 236.541C1237.22 237.133 1237.2 237.725 1237.2 238.367C1237.2 244.827 1242.37 249.99 1248.82 251.275C1251.79 251.879 1256.42 250.834 1260.9 249.65C1262.49 246.238 1265.95 243.883 1269.95 243.883C1275.48 243.883 1279.95 248.353 1279.95 253.882V253.919C1282.3 256.74 1285.12 259.762 1288.82 261.601C1291.93 263.162 1295.06 262.633 1298.16 261.513C1300.73 257.76 1305.06 255.292 1309.95 255.292C1316.09 255.292 1321.33 259.183 1323.34 264.623C1326.25 266.865 1329.21 268.628 1332.68 268.048C1340.43 266.751 1373.99 233.192 1363.65 215.121C1361.83 211.923 1359.66 209.908 1357.33 208.737L1357.37 208.724Z" fill="#5B5B7E"/>
<path d="M1342.78 209.14C1336.04 211.62 1330.03 215.726 1327.56 215.109C1322.39 213.824 1326.26 208.649 1323.68 206.08C1321.1 203.498 1315.94 209.958 1312.06 204.783C1308.19 199.62 1306.89 176.386 1290.12 178.98C1273.35 181.549 1278.5 200.917 1273.35 206.092C1268.18 211.255 1253.99 213.837 1248.83 216.406C1246.16 217.741 1243.14 219.39 1240.85 222.828C1244.45 222.022 1248.1 221.355 1251.4 220.989C1264.25 219.566 1275.68 213.849 1284.25 216.708C1292.83 219.566 1292.83 225.284 1299.97 222.425C1307.1 219.566 1308.54 213.849 1314.25 216.708C1319.96 219.566 1335.6 227.185 1342.78 209.152V209.14ZM1291.4 205.261C1285.88 205.261 1281.41 200.791 1281.41 195.263C1281.41 189.734 1285.88 185.264 1291.4 185.264C1296.93 185.264 1301.4 189.734 1301.4 195.263C1301.4 200.791 1296.93 205.261 1291.4 205.261Z" fill="#79C7CF"/>
<g style="mix-blend-mode:screen" opacity="0.7">
<path d="M1302.96 204.09C1303.6 204.531 1303.78 205.412 1303.34 206.067C1303.19 206.294 1299.57 211.469 1290.56 210.978C1289.77 210.94 1289.16 210.26 1289.21 209.48C1289.25 208.686 1289.93 208.082 1290.71 208.132C1298.04 208.535 1300.86 204.631 1300.97 204.468C1301.43 203.825 1302.31 203.662 1302.95 204.102L1302.96 204.09Z" fill="#79C7CF"/>
</g>
<g opacity="0.7">
<path d="M1297.12 233.846C1296.76 233.846 1296.39 233.708 1296.11 233.431C1295.56 232.877 1295.56 231.97 1296.11 231.416C1296.19 231.341 1298.05 229.489 1301.17 227.475C1301.84 227.046 1302.72 227.235 1303.15 227.903C1303.58 228.57 1303.39 229.452 1302.72 229.88C1299.86 231.718 1298.15 233.418 1298.13 233.431C1297.85 233.708 1297.49 233.846 1297.12 233.846Z" fill="#79C7CF"/>
</g>
<g style="mix-blend-mode:screen" opacity="0.7">
<path d="M1282.83 208.132C1282.83 208.926 1282.19 209.555 1281.41 209.555C1280.63 209.555 1279.99 208.913 1279.99 208.132C1279.99 207.351 1280.63 206.709 1281.41 206.709C1282.19 206.709 1282.83 207.351 1282.83 208.132Z" fill="#79C7CF"/>
</g>
<path d="M1327.12 256.715C1327.12 257.508 1326.48 258.138 1325.7 258.138C1324.92 258.138 1324.27 257.496 1324.27 256.715C1324.27 255.934 1324.92 255.292 1325.7 255.292C1326.48 255.292 1327.12 255.934 1327.12 256.715Z" fill="#657F93"/>
<g style="mix-blend-mode:screen" opacity="0.7">
<path d="M1312.83 209.555C1312.83 211.129 1311.55 212.414 1309.97 212.414C1308.4 212.414 1307.12 211.129 1307.12 209.555C1307.12 207.981 1308.4 206.697 1309.97 206.697C1311.55 206.697 1312.83 207.981 1312.83 209.555Z" fill="#79C7CF"/>
</g>
<g style="mix-blend-mode:screen" opacity="0.7">
<path d="M1301.4 216.695C1301.4 217.489 1300.76 218.118 1299.98 218.118C1299.2 218.118 1298.56 217.476 1298.56 216.695C1298.56 215.914 1299.2 215.272 1299.98 215.272C1300.76 215.272 1301.4 215.914 1301.4 216.695Z" fill="#79C7CF"/>
</g>
<g style="mix-blend-mode:screen" opacity="0.7">
<path d="M1279.97 220.989C1279.97 221.783 1279.33 222.412 1278.55 222.412C1277.77 222.412 1277.13 221.77 1277.13 220.989C1277.13 220.209 1277.77 219.566 1278.55 219.566C1279.33 219.566 1279.97 220.209 1279.97 220.989Z" fill="#79C7CF"/>
</g>
<path d="M1318.55 250.998C1318.55 252.572 1317.26 253.856 1315.69 253.856C1314.11 253.856 1312.83 252.572 1312.83 250.998C1312.83 249.424 1314.11 248.139 1315.69 248.139C1317.26 248.139 1318.55 249.424 1318.55 250.998Z" fill="#657F93"/>
<path d="M1251.41 235.282C1250.99 234.867 1250.76 234.313 1250.65 233.67C1250.5 234.942 1250.72 236.013 1251.41 236.705C1257.45 242.75 1273.69 227.349 1272.53 220.712C1271.58 227.865 1257.05 240.924 1251.41 235.282Z" fill="#79C7CF"/>
<path d="M1334.26 229.565C1333.85 229.162 1333.63 228.671 1333.53 228.104C1333.35 229.288 1333.55 230.295 1334.26 231.001C1341.63 238.38 1355.33 225.674 1354.47 218.332C1353.64 225.749 1341.17 236.478 1334.26 229.565Z" fill="#79C7CF"/>
<path d="M1289.97 245.281C1289.88 245.13 1289.83 244.979 1289.78 244.815C1289.63 245.533 1289.67 246.175 1289.97 246.716C1295.19 255.859 1314.74 248.278 1313.67 239.261C1312.69 247.61 1294.92 253.945 1289.97 245.281Z" fill="#79C7CF"/>
<path d="M1285.69 218.131C1284.27 222.425 1295.68 225.271 1295.68 219.566C1295.68 219.277 1295.65 219 1295.61 218.735C1294.89 223.004 1286.73 221.392 1285.69 218.131Z" fill="#79C7CF"/>
<path d="M1331.4 252.421C1330.22 252.181 1329.61 251.665 1329.37 251.01C1329.01 252.282 1329.44 253.453 1331.4 253.844C1335.68 254.7 1336.86 251.967 1336.54 249.638C1336.26 251.489 1334.81 253.088 1331.4 252.408V252.421Z" fill="#79C7CF"/>
<path d="M1321.4 228.129C1319.63 229.024 1317.85 227.147 1317.45 225.258C1316.93 227.412 1319.16 230.673 1321.4 229.552C1322.45 229.024 1322.69 227.941 1322.44 226.845C1322.3 227.374 1321.97 227.827 1321.4 228.117V228.129Z" fill="#79C7CF"/>
<path d="M689.12 230.786C689.12 230.786 695.427 240.042 689.12 247.938C683.405 255.078 671.974 249.361 670.552 246.515C670.552 246.515 681.982 262.23 694.835 252.232C707.689 242.233 689.12 230.799 689.12 230.799V230.786Z" fill="#70A4BB"/>
<path d="M717.181 164.297C711.377 156.842 700.803 157.358 692.255 158.353C689.498 160.746 685.91 162.194 681.982 162.194C674.517 162.194 668.273 156.98 666.674 149.991C665.932 149.991 665.151 149.991 664.282 150.092C652.663 151.389 619.655 172.167 622.991 188.815C625.572 201.722 652.676 205.601 657.837 215.927C662.998 226.253 662.998 266.272 682.36 266.272C701.722 266.272 708.167 233.997 710.748 228.834C713.328 223.671 708.167 212.048 708.167 206.885C708.167 201.722 726.232 175.907 717.206 164.284L717.181 164.297ZM683.405 253.655C677.098 253.655 671.974 248.542 671.974 242.22C671.974 235.899 677.085 230.786 683.405 230.786C689.724 230.786 694.835 235.899 694.835 242.22C694.835 248.542 689.724 253.655 683.405 253.655Z" fill="#657F93"/>
<path d="M692.255 158.341C689.498 160.733 685.91 162.181 681.982 162.181C674.517 162.181 668.273 156.968 666.674 149.979C665.932 149.979 665.151 149.979 664.282 150.08C652.663 151.377 619.655 172.155 622.991 188.802C625.572 201.71 652.676 205.588 657.837 215.914C658.97 218.168 659.851 221.846 660.745 226.215C674.945 226.492 685.96 216.582 689.145 196.471C691.059 184.37 695.805 169.989 700.488 157.774C697.693 157.774 694.886 158.026 692.28 158.328L692.255 158.341Z" fill="#70A4BB"/>
<path d="M675.575 160.821C671.131 158.832 667.782 154.84 666.674 149.991C665.932 149.991 665.151 149.991 664.282 150.092C652.663 151.389 619.655 172.167 622.991 188.815C624.338 195.577 632.433 199.871 640.578 203.901C641.837 202.553 643.247 201.458 644.845 200.778C654.841 196.496 669.129 217.929 679.125 197.919C687.358 181.448 672.377 174.661 675.575 160.821Z" fill="#79C7CF"/>
<path d="M717.181 164.297C716.312 163.176 715.317 162.244 714.247 161.464C708.771 172.936 702.741 187.354 701.973 196.497C700.815 210.374 703.396 229.88 694.571 239.828C694.735 240.596 694.823 241.402 694.823 242.221C694.823 248.53 689.712 253.655 683.392 253.655C677.715 253.655 673.019 249.512 672.125 244.072C669.243 243.064 666.36 241.704 663.54 240.105C666.536 253.227 671.269 266.273 682.322 266.273C701.684 266.273 708.129 233.998 710.71 228.835C713.291 223.672 708.129 212.048 708.129 206.885C708.129 201.722 726.194 175.907 717.168 164.284L717.181 164.297Z" fill="#5B5B7E"/>
<path d="M705.901 167.004C709.741 173.049 702.112 188.979 693.413 186.485C692.67 186.271 692.041 185.969 691.499 185.616C692.204 186.662 693.274 187.468 694.835 187.921C704.378 190.653 712.598 171.273 705.901 167.004Z" fill="#79C7CF"/>
<path d="M695.163 208.12C697.315 211.343 697.907 217.917 694.835 217.917C694.47 217.917 694.08 217.766 693.702 217.526C694.496 218.609 695.402 219.34 696.258 219.34C699.921 219.34 698.36 209.945 695.15 208.107L695.163 208.12Z" fill="#79C7CF"/>
<path d="M669.192 177.154C669.142 177.078 669.091 176.978 669.066 176.889C668.915 177.62 668.94 178.212 669.192 178.59C672.843 184.067 681.29 175.127 680.497 170.039C679.83 175.164 672.516 182.153 669.192 177.154Z" fill="#79C7CF"/>
<path d="M709.124 192.202C709.124 192.996 708.482 193.625 707.701 193.625C706.921 193.625 706.279 192.983 706.279 192.202C706.279 191.422 706.921 190.779 707.701 190.779C708.482 190.779 709.124 191.422 709.124 192.202Z" fill="#657F93"/>
<g style="mix-blend-mode:screen" opacity="0.7">
<path d="M632.181 192.492C631.627 193.046 630.733 193.046 630.18 192.492C629.991 192.303 625.572 187.795 627.737 179.018C627.926 178.25 628.694 177.784 629.462 177.973C630.23 178.162 630.696 178.93 630.507 179.698C628.757 186.825 632.055 190.326 632.194 190.465C632.735 191.019 632.735 191.925 632.194 192.467L632.181 192.492Z" fill="#79C7CF"/>
</g>
<path d="M672.39 194.129C676.204 200.073 672.44 217.677 667.681 216.494C666.637 216.229 665.73 215.776 664.95 215.184C665.969 216.506 667.342 217.488 669.104 217.929C674.354 219.239 678.382 197.68 672.377 194.141L672.39 194.129Z" fill="#79C7CF"/>
<path d="M709.124 225.069C709.124 226.643 707.84 227.928 706.266 227.928C704.692 227.928 703.408 226.643 703.408 225.069C703.408 223.495 704.692 222.211 706.266 222.211C707.84 222.211 709.124 223.495 709.124 225.069Z" fill="#657F93"/>
<g opacity="0.7">
<path d="M689.284 175.756C688.957 175.907 688.566 175.933 688.189 175.794C687.446 175.517 687.068 174.698 687.345 173.955C687.383 173.855 688.302 171.399 690.304 168.264C690.732 167.596 691.613 167.407 692.28 167.835C692.947 168.264 693.136 169.145 692.708 169.812C690.883 172.671 690.027 174.938 690.014 174.963C689.875 175.328 689.599 175.605 689.271 175.756H689.284Z" fill="#79C7CF"/>
</g>
<g style="mix-blend-mode:screen" opacity="0.7">
<path d="M647.69 165.052C647.69 165.846 647.048 166.475 646.268 166.475C645.487 166.475 644.845 165.833 644.845 165.052C644.845 164.272 645.487 163.629 646.268 163.629C647.048 163.629 647.69 164.272 647.69 165.052Z" fill="#79C7CF"/>
</g>
<g style="mix-blend-mode:screen" opacity="0.7">
<path d="M663.401 180.768C663.401 182.342 662.117 183.627 660.544 183.627C658.97 183.627 657.686 182.342 657.686 180.768C657.686 179.194 658.97 177.91 660.544 177.91C662.117 177.91 663.401 179.194 663.401 180.768Z" fill="#79C7CF"/>
</g>
<g style="mix-blend-mode:screen" opacity="0.7">
<path d="M651.983 192.202C651.983 192.996 651.341 193.625 650.561 193.625C649.78 193.625 649.138 192.983 649.138 192.202C649.138 191.422 649.78 190.779 650.561 190.779C651.341 190.779 651.983 191.422 651.983 192.202Z" fill="#79C7CF"/>
</g>
<g style="mix-blend-mode:screen" opacity="0.7">
<path d="M676.267 189.344C676.267 190.137 675.625 190.767 674.844 190.767C674.064 190.767 673.422 190.125 673.422 189.344C673.422 188.563 674.064 187.921 674.844 187.921C675.625 187.921 676.267 188.563 676.267 189.344Z" fill="#79C7CF"/>
</g>
<g style="mix-blend-mode:screen" opacity="0.7">
<path d="M681.982 206.495C681.982 207.288 681.34 207.918 680.56 207.918C679.779 207.918 679.137 207.276 679.137 206.495C679.137 205.714 679.779 205.072 680.56 205.072C681.34 205.072 681.982 205.714 681.982 206.495Z" fill="#79C7CF"/>
</g>
<path d="M895.148 44.276C895.148 38.3826 897.238 32.993 900.725 28.787C904.124 17.6173 907.007 4.13049 888.715 0.654909C877.436 -1.49844 871.531 1.95196 868.007 7.07719C868.007 7.08978 868.007 7.11496 868.007 7.12756C868.007 24.4929 853.932 38.5589 836.585 38.5589C833.337 38.5589 830.203 38.0678 827.269 37.1486C823.417 38.2063 820.043 39.3523 817.752 40.6619C808.714 45.8249 791.857 58.7576 799.687 80.6815C806.145 98.7521 824.21 79.3845 839.694 83.263C855.179 87.1416 874.54 110.375 893.889 92.3046C904.023 82.8349 904.955 71.9674 903.356 62.4473C898.333 58.0021 895.161 51.5168 895.161 44.2886L895.148 44.276Z" fill="#657F93"/>
<path d="M885.153 82.86C868.007 95.7172 858.011 78.5785 842.3 75.72C830.303 73.5414 811.634 82.1674 798.391 76.1985C798.705 77.6592 799.121 79.1452 799.675 80.6941C806.133 98.7646 824.198 79.397 839.682 83.2756C855.166 87.1541 874.528 110.388 893.877 92.3171C904.01 82.8474 904.942 71.9799 903.343 62.4599C898.32 58.0146 895.148 51.5294 895.148 44.3012C895.148 38.4078 897.238 33.0181 900.725 28.8122C902.462 23.1203 904.048 16.8365 902.777 11.5728C896.319 19.1913 888.803 29.7818 887.998 38.5841C886.575 54.2998 902.286 70.0155 885.14 82.8852L885.153 82.86Z" fill="#5B5B7E"/>
<path d="M899.05 5.18828C896.797 3.14826 893.474 1.56158 888.728 0.654909C877.448 -1.49844 871.544 1.95196 868.019 7.07719C868.019 7.08978 868.019 7.11496 868.019 7.12756C868.019 24.4929 853.945 38.5589 836.598 38.5589C833.35 38.5589 830.215 38.0678 827.282 37.1486C823.43 38.2063 820.056 39.3523 817.765 40.6619C810.262 44.9434 797.384 54.602 797.698 70.2925C804.081 71.0985 811.621 71.1237 818.029 68.5547C832.317 62.8377 840.89 61.4147 846.593 64.2732C852.308 67.1318 868.019 81.4245 875.157 68.5547C882.295 55.6976 868.019 45.6864 878.015 29.9707C883.743 20.9669 894.153 12.4291 899.05 5.1631V5.18828Z" fill="#657F93"/>
<path d="M897.829 4.20605C895.639 2.63196 892.681 1.41047 888.715 0.654909C877.436 -1.49844 871.531 1.95196 868.007 7.07719C868.007 7.08978 868.007 7.11496 868.007 7.12756C868.007 24.4929 853.932 38.5589 836.585 38.5589C833.337 38.5589 830.203 38.0678 827.269 37.1486C823.417 38.2063 820.043 39.3523 817.752 40.6619C811.382 44.3012 801.135 51.8191 798.378 63.6184C808.953 65.5829 822.775 64.9281 831.663 64.2606C851.012 62.8125 862.317 72.8489 870.877 69.9903C879.45 67.1318 875.157 49.9805 876.592 38.5589C877.876 28.2707 884.976 16.8113 897.842 4.19346L897.829 4.20605Z" fill="#70A4BB"/>
<path d="M868.007 7.06451C868.007 7.06451 868.007 7.10228 868.007 7.11488C868.007 24.4802 853.932 38.5463 836.585 38.5463C833.337 38.5463 830.203 38.0551 827.269 37.1359C823.417 38.1937 820.043 39.3396 817.752 40.6492C814.504 42.5004 810.262 45.3589 806.51 49.2752C826.275 56.3649 854.524 64.248 860.869 54.2619C866.509 45.3967 879.437 19.6824 882.433 0C875.132 0 870.814 2.98447 868.007 7.05191V7.06451Z" fill="#79C7CF"/>
<path d="M836.673 45.7744C841.054 53.3426 818.797 75.5058 811.898 72.2191C812.012 72.4458 812.138 72.6724 812.301 72.8613C817.991 79.9762 846.379 51.63 836.673 45.7744Z" fill="#79C7CF"/>
<path d="M859.446 61.4272C859.194 61.1753 858.917 60.9739 858.628 60.8228C860.982 65.2806 853.039 74.1962 847.613 70.8088C847.713 71.0354 847.839 71.2495 848.028 71.4258C853.744 77.1429 863.739 65.7087 859.459 61.4272H859.446Z" fill="#79C7CF"/>
<path d="M884.573 61.3264C889.508 67.0561 891.938 78.5155 885.153 81.4244C882.861 82.4066 880.658 81.7644 878.77 80.1903C880.935 82.7592 883.692 84.094 886.588 82.8473C894.002 79.674 890.415 66.2879 884.573 61.3264Z" fill="#79C7CF"/>
<path d="M885.958 11.8496C891.308 19.8208 879.538 45.0314 866.584 38.5587C865.967 38.2565 865.451 37.9039 864.985 37.5387C865.665 38.4832 866.66 39.3143 868.019 39.9943C881.892 46.9329 894.418 17.4785 885.958 11.8496Z" fill="#79C7CF"/>
<g style="mix-blend-mode:screen" opacity="0.7">
<path d="M860.869 44.276C860.869 45.8501 859.585 47.1346 858.011 47.1346C856.438 47.1346 855.153 45.8501 855.153 44.276C855.153 42.7019 856.438 41.4175 858.011 41.4175C859.585 41.4175 860.869 42.7019 860.869 44.276Z" fill="#79C7CF"/>
</g>
<g style="mix-blend-mode:screen" opacity="0.7">
<path d="M885.153 47.1344C885.153 48.7085 883.868 49.993 882.295 49.993C880.721 49.993 879.437 48.7085 879.437 47.1344C879.437 45.5603 880.721 44.2759 882.295 44.2759C883.868 44.2759 885.153 45.5603 885.153 47.1344Z" fill="#79C7CF"/>
</g>
<g style="mix-blend-mode:screen" opacity="0.7">
<path d="M850.873 49.993C850.873 50.7864 850.231 51.416 849.451 51.416C848.67 51.416 848.028 50.7738 848.028 49.993C848.028 49.2123 848.67 48.5701 849.451 48.5701C850.231 48.5701 850.873 49.2123 850.873 49.993Z" fill="#79C7CF"/>
</g>
<g style="mix-blend-mode:screen" opacity="0.7">
<path d="M866.584 67.1442C866.584 67.9375 865.942 68.5671 865.162 68.5671C864.381 68.5671 863.739 67.9249 863.739 67.1442C863.739 66.3634 864.381 65.7212 865.162 65.7212C865.942 65.7212 866.584 66.3634 866.584 67.1442Z" fill="#79C7CF"/>
</g>
<g style="mix-blend-mode:screen" opacity="0.7">
<path d="M883.73 55.7101C883.73 56.5034 883.088 57.1331 882.307 57.1331C881.527 57.1331 880.885 56.4908 880.885 55.7101C880.885 54.9293 881.527 54.2871 882.307 54.2871C883.088 54.2871 883.73 54.9293 883.73 55.7101Z" fill="#79C7CF"/>
</g>
<path d="M876.58 92.8585C876.58 93.6519 875.938 94.2815 875.157 94.2815C874.377 94.2815 873.734 93.6393 873.734 92.8585C873.734 92.0778 874.377 91.4355 875.157 91.4355C875.938 91.4355 876.58 92.0778 876.58 92.8585Z" fill="#657F93"/>
<path d="M869.442 57.851C869.442 59.0347 868.485 59.9917 867.302 59.9917C866.118 59.9917 865.162 59.0347 865.162 57.851C865.162 56.6672 866.118 55.7102 867.302 55.7102C868.485 55.7102 869.442 56.6672 869.442 57.851Z" fill="#657F93"/>
<path d="M898.006 62.8502C898.006 63.6436 897.364 64.2732 896.583 64.2732C895.803 64.2732 895.161 63.631 895.161 62.8502C895.161 62.0695 895.803 61.4272 896.583 61.4272C897.364 61.4272 898.006 62.0695 898.006 62.8502Z" fill="#657F93"/>
<path d="M872.299 47.1344C872.299 47.9277 871.657 48.5574 870.877 48.5574C870.096 48.5574 869.454 47.9151 869.454 47.1344C869.454 46.3537 870.096 45.7114 870.877 45.7114C871.657 45.7114 872.299 46.3537 872.299 47.1344Z" fill="#657F93"/>
<path d="M818.017 81.4244C818.017 82.2178 817.375 82.8474 816.594 82.8474C815.814 82.8474 815.172 82.2052 815.172 81.4244C815.172 80.6437 815.814 80.0015 816.594 80.0015C817.375 80.0015 818.017 80.6437 818.017 81.4244Z" fill="#657F93"/>
<path d="M888.01 90.7179C888.01 91.9016 887.053 92.8587 885.87 92.8587C884.687 92.8587 883.73 91.9016 883.73 90.7179C883.73 89.5342 884.687 88.5771 885.87 88.5771C887.053 88.5771 888.01 89.5342 888.01 90.7179Z" fill="#657F93"/>
<g opacity="0.7">
<path d="M830.039 67.8369C830.404 67.7865 830.782 67.8747 831.096 68.1139C831.726 68.5925 831.852 69.4866 831.373 70.1162C831.31 70.2043 829.724 72.2821 826.904 74.7125C826.3 75.2288 825.406 75.1533 824.89 74.5614C824.374 73.957 824.437 73.0629 825.041 72.5466C827.622 70.3303 829.082 68.4036 829.095 68.391C829.334 68.0762 829.674 67.8873 830.039 67.8369Z" fill="#79C7CF"/>
</g>
<path d="M805.969 67.3332C805.969 67.3332 805.969 67.3332 805.957 67.3332C804.937 67.2828 804.144 66.3006 804.194 65.1294C804.207 64.7265 804.735 55.2819 815.172 48.7463C816.078 48.1797 817.223 48.5574 817.702 49.59C818.193 50.6226 817.853 51.9323 816.934 52.499C808.462 57.8005 807.946 65.0035 807.933 65.3057C807.87 66.4769 806.989 67.3835 805.969 67.3332Z" fill="#79C7CF"/>
<g style="mix-blend-mode:screen" opacity="0.7">
<path d="M867.944 19.3047C867.339 19.0402 867.113 18.2469 867.415 17.5165C867.516 17.2646 870.084 11.409 877.864 9.59568C878.543 9.43198 879.135 9.92309 879.173 10.6912C879.211 11.4594 878.707 12.2024 878.027 12.3535C871.72 13.8268 869.694 18.2595 869.605 18.4484C869.291 19.1661 868.548 19.5565 867.956 19.3047H867.944Z" fill="#79C7CF"/>
</g>
<path d="M846.58 47.1344C844.201 43.5707 853.718 37.1358 856.576 42.8529C859.434 48.57 849.438 51.4285 846.58 47.1344Z" fill="#79C7CF"/>
<path d="M848.016 48.5575C845.636 44.9938 855.153 38.5589 858.011 44.276C860.869 49.9931 850.873 52.8516 848.016 48.5575Z" fill="#5C809B"/>
<path d="M140.388 192.971C137.027 182.884 188.238 166.488 191.297 175.656C194.356 184.823 144.454 205.198 140.388 192.971Z" fill="#5B5B7E"/>
<path d="M140.3 191.371C148.634 191.56 159.485 190.616 170.337 186.271C181.188 181.927 187.332 177.847 190.794 174.787C185.015 168.024 142.113 181.637 140.3 191.371Z" fill="#657F93"/>
<path d="M144.819 185.881C150.572 186.233 158.831 185.579 169.204 181.763C177.525 178.69 182.611 175.63 185.72 173.024C175.473 172.331 154.173 179.005 144.819 185.881Z" fill="#70A4BB"/>
<path d="M1123.45 280.943C1132.66 280.943 1136.68 291.131 1134.65 296.218C1132.61 301.306 1113.26 314.553 1105.12 305.386C1096.97 296.218 1112.24 290.111 1114.28 288.071C1116.32 286.031 1117.34 280.943 1123.45 280.943Z" fill="#5B5B7E"/>
<path d="M1123.45 280.943C1117.34 280.943 1116.32 286.031 1114.28 288.071C1112.34 290.01 1098.39 295.651 1104.13 304.114C1112.06 304.114 1122.02 302.162 1128.69 293.662C1130.7 291.105 1132.04 288.587 1132.91 286.156C1130.97 283.222 1127.79 280.943 1123.45 280.943Z" fill="#657F93"/>
<path d="M1131.14 284.028C1129.22 282.19 1126.66 280.943 1123.43 280.943C1117.33 280.943 1116.31 286.031 1114.27 288.071C1112.64 289.695 1102.6 293.926 1102.75 300.223C1110.62 298.925 1120.79 296.86 1120.79 294.782C1120.79 292.528 1127.78 288.285 1131.12 284.028H1131.14Z" fill="#70A4BB"/>
<path d="M17.4714 133.344C26.0947 131.619 23.2496 144.904 24.6973 149.249C26.145 153.58 29.0279 165.153 21.8019 170.933C14.576 176.713 1.57175 176.713 0.124046 163.705C-1.32366 150.697 10.2328 134.792 17.4588 133.357L17.4714 133.344Z" fill="#5B5B7E"/>
<path d="M17.4712 133.344C10.2452 134.792 -1.31127 150.684 0.136436 163.693C0.312678 165.267 0.665164 166.652 1.14354 167.861C17.3453 173.376 21.7388 153.883 20.7317 147.838C20.1903 144.602 20.4295 138.772 20.8198 133.583C19.9638 133.18 18.8685 133.054 17.4712 133.344Z" fill="#657F93"/>
<path d="M15.0921 152.359C16.5272 145.886 17.9624 138.041 18.8184 133.206C18.403 133.206 17.9624 133.243 17.4714 133.344C10.2454 134.792 -1.31106 150.684 0.136649 163.693C0.249948 164.738 0.451369 165.682 0.703144 166.564C7.13601 164.901 13.7829 158.252 15.0921 152.346V152.359Z" fill="#70A4BB"/>
<path d="M1598.03 260.858C1591.19 255.38 1600.07 237.435 1611.26 231.315C1622.46 225.208 1641.8 223.168 1644.86 227.235C1647.92 231.315 1603.12 264.925 1598.02 260.845L1598.03 260.858Z" fill="#5B5B7E"/>
<path d="M1611.26 231.315C1604.14 235.207 1597.97 243.87 1596.17 251.073C1599.29 251.665 1603.13 251.741 1607.74 250.759C1618.74 248.404 1633.57 234.527 1638.87 225.208C1631.47 224.667 1619.28 226.946 1611.26 231.315Z" fill="#657F93"/>
<path d="M1611.26 231.316C1606.75 233.771 1602.64 238.141 1599.75 242.85C1604.99 243.19 1612.12 241.843 1620.12 234.98C1624.44 231.278 1627.06 228.255 1628.61 225.812C1622.63 226.757 1616.17 228.646 1611.26 231.316Z" fill="#70A4BB"/>
<path d="M440.139 85.2401C433.002 91.3475 428.935 87.2801 424.869 88.3001C420.79 89.3201 415.705 98.4876 409.599 96.4476C406.792 95.5157 405.81 93.4127 405.885 90.8816C406.049 85.1645 411.55 77.1807 413.678 75.0652C416.737 72.0051 423.862 70.9977 427.941 67.9377C432.007 64.8777 433.027 59.7902 439.132 60.7976C439.749 60.8984 440.328 61.1754 440.87 61.591C445.553 65.2303 446.56 79.7496 440.165 85.2401H440.139Z" fill="#5B5B7E"/>
<path d="M440.857 61.591C439.309 67.5347 437.03 73.4281 436.086 76.2363C433.832 82.9986 431.579 76.2363 420.299 85.2526C414.899 89.5719 409.763 90.7934 405.873 90.8816C406.036 85.1645 411.538 77.1807 413.665 75.0652C416.724 72.0051 423.85 70.9977 427.928 67.9377C431.994 64.8777 433.014 59.7902 439.12 60.7976C439.737 60.8984 440.316 61.1754 440.857 61.591Z" fill="#70A4BB"/>
<path d="M1313.74 169.611C1304.67 170.253 1300.13 163.075 1299.59 156.968C1299.3 153.48 1300.31 150.344 1302.53 149.236C1310.04 145.483 1309.66 155.344 1312.72 154.336C1315.78 153.316 1318.82 146.189 1323.92 148.229C1325.29 148.783 1326.24 150.521 1326.57 152.787C1327.48 158.907 1324.14 168.881 1313.74 169.624V169.611Z" fill="#5B5B7E"/>
<path d="M1326.57 152.775C1323.61 158.127 1319.68 163 1314.98 163.932C1309.82 164.964 1304.18 161.275 1299.6 156.968C1299.31 153.48 1300.32 150.344 1302.55 149.236C1310.05 145.483 1309.67 155.344 1312.73 154.336C1315.79 153.316 1318.84 146.189 1323.93 148.229C1325.31 148.783 1326.25 150.521 1326.58 152.787L1326.57 152.775Z" fill="#70A4BB"/>
<path d="M1075.04 196.585C1071.89 195.615 1069.78 192.681 1068.61 189.205C1066.75 183.652 1067.31 176.676 1070.02 173.968C1072.91 171.072 1084.46 168.591 1090.65 172.797C1092.63 174.132 1094.05 176.122 1094.5 178.993C1096.39 190.918 1083.2 199.091 1075.04 196.585Z" fill="#5B5B7E"/>
<path d="M1090.65 172.797C1089.58 177.62 1087.28 182.544 1083.84 185.994C1078.59 191.245 1072.69 190.754 1068.6 189.205C1066.73 183.652 1067.3 176.676 1070.01 173.968C1072.9 171.072 1084.45 168.591 1090.64 172.797H1090.65Z" fill="#70A4BB"/>
<path d="M53.5256 120.197C42.7496 115.223 45.3807 100.842 47.4201 96.7749C49.4594 92.6949 55.565 90.6674 57.6044 86.5874C59.6437 82.5074 57.6044 73.3525 64.7296 68.2524C71.8549 63.165 79.9998 68.2524 90.1841 65.1924C100.368 62.1324 107.494 50.9375 125.823 62.1324C144.152 73.3399 113.599 96.7623 108.513 99.8223C103.427 102.882 102.408 114.077 90.1841 115.097C77.9604 116.117 76.9533 107.97 70.8352 110.01C64.7296 112.05 66.7564 126.305 53.5256 120.197Z" fill="#5B5B7E"/>
<path d="M125.823 62.1451C107.494 50.9375 100.368 62.1451 90.1841 65.2051C79.9998 68.2651 71.8549 63.1651 64.7296 68.2651C57.6044 73.3526 59.6438 82.52 57.6044 86.6001C55.565 90.6801 49.4595 92.7075 47.4201 96.7876C45.9724 99.6839 44.2225 107.781 47.2061 114.014C50.7183 115.261 54.432 115.765 57.0882 113.989C63.8484 109.481 63.8484 102.719 71.7416 102.719C79.6347 102.719 90.9017 110.614 102.169 94.8231C109.369 84.7364 125.307 73.277 128.542 64.248C127.787 63.5177 126.893 62.8125 125.823 62.1576V62.1451Z" fill="#657F93"/>
<path d="M90.1841 65.2051C79.9998 68.2651 71.8549 63.1651 64.7296 68.2651C57.6044 73.3526 59.6438 82.5201 57.6044 86.6001C55.565 90.6801 49.4594 92.7076 47.4201 96.7876C46.3374 98.9409 45.1037 103.991 45.7709 109.003C53.085 114.594 60.5627 99.5328 63.861 97.0646C68.3678 93.6772 80.7677 98.198 89.7813 97.0646C98.7948 95.9313 105.568 73.3904 112.328 67.7488C114.745 65.734 118.295 62.8629 121.883 60.0043C106.424 52.5998 99.6131 62.3843 90.1967 65.2051H90.1841Z" fill="#70A4BB"/>
<path d="M66.1144 85.7816C71.7541 85.7816 80.7677 93.6772 94.288 74.5111C100.885 65.1547 107.758 60.1051 113.058 57.385C103.39 56.4658 97.5989 62.9888 90.1841 65.2051C79.9998 68.2651 71.8549 63.1651 64.7296 68.2651C57.6044 73.3526 59.6438 82.5201 57.6044 86.6001C55.565 90.6801 49.4594 92.7076 47.4201 96.7876C46.7025 98.2358 45.9094 100.968 45.6576 104.117C47.5208 104.469 49.5476 104.242 51.4485 102.719C57.0882 98.2106 60.462 85.8068 66.1018 85.8068L66.1144 85.7816Z" fill="#79C7CF"/>
<path d="M1130.56 144.564C1132.75 133.583 1144.81 136.417 1150.93 130.309C1157.03 124.202 1164.16 101.787 1172.31 92.6193C1180.46 83.4518 1191.3 80.9207 1192.68 83.4518C1198.79 94.6593 1186.58 116.042 1189.62 126.229C1192.68 136.417 1214.06 150.672 1211.01 160.859C1207.95 171.047 1190.64 165.947 1178.43 163.919C1166.21 161.879 1149.92 164.939 1139.74 159.839C1129.55 154.752 1129.55 149.652 1130.57 144.564H1130.56Z" fill="#5B5B7E"/>
<path d="M1182.9 119.568C1185.39 110.199 1191.7 95.9815 1193.56 85.5548C1193.33 84.8244 1193.04 84.1192 1192.67 83.4518C1191.29 80.9207 1180.45 83.4518 1172.3 92.6193C1164.16 101.787 1157.03 124.189 1150.91 130.309C1144.81 136.417 1132.75 133.583 1130.55 144.564C1130.29 145.836 1130.1 147.108 1130.12 148.38C1134.54 151.49 1140.96 154.109 1150.21 154.525C1175.01 155.658 1203.18 163.541 1198.68 153.392C1194.17 143.242 1178.38 136.48 1182.89 119.568H1182.9Z" fill="#657F93"/>
<path d="M1178.4 148.884C1181.78 136.48 1169.38 131.972 1176.14 118.447C1180.86 109.002 1188.33 91.8512 1188.18 82.7593C1183.95 83.5652 1177.56 86.7008 1172.3 92.632C1164.16 101.799 1157.03 124.202 1150.91 130.322C1146.66 134.578 1139.53 134.503 1134.84 137.764C1150.75 145.912 1176.08 157.358 1178.38 148.909L1178.4 148.884Z" fill="#70A4BB"/>
<path d="M1178.42 87.1793C1176.34 88.6275 1174.24 90.4283 1172.3 92.6194C1164.16 101.787 1157.03 124.189 1150.91 130.309C1148.33 132.891 1144.7 133.873 1141.18 134.981C1148.12 140.711 1163.64 141.857 1167.12 140.988C1171.62 139.855 1169.37 126.33 1169.37 122.943C1169.37 119.555 1171.62 115.047 1176.13 103.777C1178.29 98.3491 1178.63 92.1535 1178.41 87.1667L1178.42 87.1793Z" fill="#79C7CF"/>
<path d="M530.275 190.112C515.773 188.664 521.11 151.402 532.314 134.087C543.518 116.772 574.059 119.832 579.157 137.147C584.243 154.462 555.742 169.737 547.597 173.817C539.452 177.897 540.472 191.132 530.288 190.112H530.275Z" fill="#5B5B7E"/>
<path d="M532.314 134.087C524.258 146.529 519.235 169.284 522.445 181.637C525.882 182.292 529.117 182.179 530.98 182.179C536.62 182.179 544.5 167.521 561.407 153.996C568.847 148.04 573.669 139.678 576.74 132.186C567.84 119.442 542.335 118.611 532.314 134.1V134.087Z" fill="#657F93"/>
<path d="M560.287 140.447C564.73 134.792 566.996 129.566 568.079 125.197C556.661 119.946 539.968 122.25 532.314 134.087C524.572 146.063 519.65 167.546 522.13 180.151C536.318 174.107 551.613 151.49 560.274 140.447H560.287Z" fill="#70A4BB"/>
<path d="M532.314 134.087C525.831 144.111 521.35 160.771 521.501 173.338C532.377 174.195 538.118 153.757 539.994 147.221C542.247 139.326 545.633 142.713 553.514 137.071C557.983 133.873 560.274 127.791 561.432 123.119C550.895 121.104 538.584 124.403 532.302 134.1L532.314 134.087Z" fill="#79C7CF"/>
<path d="M983.911 260.077C973.84 258.579 969.359 240.445 976.346 227.651C983.345 214.857 1008.67 201.143 1020 213.018C1031.35 224.893 1042.32 263.666 1029.27 268.275C1016.21 272.884 1016.57 245.998 1006.99 246.767C997.407 247.535 991.024 261.147 983.899 260.09L983.911 260.077Z" fill="#5B5B7E"/>
<path d="M1020.02 213.018C1008.67 201.143 983.345 214.857 976.358 227.651C971.411 236.692 972.204 248.391 976.648 255.015C979.291 254.498 982.187 253.428 985.271 251.476C998.615 242.976 1003.85 234.892 1009.92 237.41C1015.94 239.904 1021.04 263.276 1035.2 254.171C1034.85 240.458 1027.52 220.876 1020.03 213.031L1020.02 213.018Z" fill="#657F93"/>
<path d="M1020.02 213.018C1008.67 201.143 983.345 214.857 976.358 227.651C973.639 232.638 972.657 238.418 973.073 243.719C984.39 239.866 995.531 229.414 1004.54 230.144C1011.44 230.698 1024.07 243.404 1034.74 248.794C1033.01 235.748 1026.57 219.894 1020.02 213.018Z" fill="#70A4BB"/>
<path d="M976.358 227.638C974.999 230.132 974.08 232.814 973.538 235.547C978.763 234.501 985.044 231.97 992.17 226.681C1007.18 215.549 1019.83 222.903 1028.16 226.152C1025.73 220.712 1022.89 216.003 1020.03 212.993C1008.69 201.118 983.358 214.832 976.371 227.626L976.358 227.638Z" fill="#79C7CF"/>
<path d="M373.142 203.435C383.339 196.635 389.432 213.623 394.53 216.67C399.616 219.73 423.044 220.75 425.071 239.073C427.11 257.408 412.847 265.555 390.452 261.475C368.056 257.395 354.813 215.638 373.142 203.423V203.435Z" fill="#5B5B7E"/>
<path d="M373.142 203.435C362.857 210.298 362.517 226.442 368.144 240.03C380.292 251.59 395.474 261.362 406.477 252.673C415.239 245.759 417.014 235.068 415.982 224.843C408.164 219.717 397.715 218.597 394.518 216.683C389.432 213.623 383.339 196.635 373.129 203.448L373.142 203.435Z" fill="#657F93"/>
<path d="M373.142 203.435C363.423 209.92 362.593 224.692 367.276 237.763C377.397 244.651 390.867 251.099 399.717 244.777C405.835 240.407 407.371 230.786 406.968 220.649C401.58 218.823 396.557 217.917 394.518 216.683C389.432 213.623 383.339 196.635 373.129 203.448L373.142 203.435Z" fill="#70A4BB"/>
<path d="M394.53 216.683C389.444 213.623 383.351 196.635 373.142 203.448C365.702 208.409 363.486 218.244 364.959 228.457C375.672 236.68 390.263 245.457 396.343 238.015C400.447 233.003 402.146 225.951 402.726 219.34C399.087 218.307 396.016 217.577 394.53 216.683Z" fill="#79C7CF"/>
<path d="M1069.38 108.625C1055.84 103.21 1069.38 61.7672 1082.61 54.6397C1095.84 47.5123 1098.9 53.6197 1107.04 50.5597C1115.19 47.4997 1121.29 36.3048 1134.54 38.3322C1147.77 40.3722 1157.37 72.6095 1131.48 89.2571C1117.23 98.4245 1102.96 91.2971 1093.8 95.3645C1084.63 99.4446 1074.45 110.639 1069.36 108.599L1069.38 108.625Z" fill="#5B5B7E"/>
<path d="M1144.67 47.2227C1142.22 42.3493 1138.55 38.9619 1134.55 38.3448C1121.32 36.3048 1115.2 47.5123 1107.05 50.5723C1098.91 53.6323 1095.85 47.5123 1082.62 54.6524C1071.35 60.722 1059.88 91.6245 1065.06 104.041C1067.44 103.361 1069.89 102.165 1072.21 100.137C1081.22 92.2416 1083.48 84.3459 1095.88 85.4793C1107.05 86.4993 1147.57 79.2585 1144.67 47.2353V47.2227Z" fill="#657F93"/>
<path d="M1134.55 38.3448C1121.32 36.3048 1115.2 47.5123 1107.05 50.5723C1098.91 53.6323 1095.85 47.5123 1082.62 54.6524C1074.1 59.2487 1065.46 78.0496 1064 92.3171C1067.94 90.6297 1071.72 88.1238 1074.46 84.346C1083.48 71.9421 1086.86 69.688 1092.5 71.9421C1098.14 74.1962 1119.56 77.5837 1127.45 66.3006C1131.72 60.1931 1138.63 50.119 1140.86 41.8078C1138.97 39.9315 1136.81 38.6974 1134.56 38.3448H1134.55Z" fill="#70A4BB"/>
<path d="M1107.05 50.5724C1098.91 53.6324 1095.85 47.5124 1082.62 54.6524C1076.07 58.1784 1069.46 70.0911 1066.09 81.8904C1071.69 77.9615 1078.47 68.9451 1083.49 65.1799C1092.5 58.4176 1103.78 65.1799 1117.3 62.9258C1125.37 61.5784 1131.04 48.5827 1134.3 38.3197C1121.24 36.4686 1115.16 47.5375 1107.07 50.5724H1107.05Z" fill="#79C7CF"/>
<path d="M1344.21 104.708C1348.19 92.7577 1358.47 98.6008 1365.6 95.5407C1372.73 92.4807 1372.73 88.4133 1375.79 88.4133C1378.85 88.4133 1384.95 92.4933 1389.02 89.4333C1393.08 86.3732 1395.12 77.2058 1408.37 74.1583C1421.6 71.0983 1435.86 84.3458 1436.88 95.5533C1437.9 106.761 1424.66 131.203 1402.26 132.223C1379.87 133.243 1373.75 121.016 1366.62 118.988C1359.5 116.948 1350.33 116.948 1347.27 114.908C1344.21 112.868 1342.19 110.828 1344.21 104.721V104.708Z" fill="#5B5B7E"/>
<path d="M1408.35 74.1585C1395.12 77.2185 1393.08 86.386 1389.01 89.4334C1384.93 92.4935 1378.82 88.4134 1375.77 88.4134C1372.73 88.4134 1372.72 92.4935 1365.59 95.5409C1358.47 98.6009 1348.19 92.7579 1344.2 104.708C1343.99 105.363 1343.82 105.955 1343.7 106.522C1346.52 107.806 1349.94 109.003 1354.07 109.884C1369.86 113.271 1366.47 107.63 1375.49 111.017C1384.5 114.405 1393.52 130.183 1410.43 118.913C1419.17 113.083 1427.89 97.6187 1431.19 83.4015C1425.61 76.8659 1416.79 72.2066 1408.35 74.1585Z" fill="#657F93"/>
<path d="M1420.58 87.3432C1421.6 83.5024 1422.33 79.8253 1422.61 76.4631C1418.19 74.1082 1413.21 73.0379 1408.35 74.1586C1395.12 77.2186 1393.08 86.3861 1389.01 89.4336C1384.93 92.4936 1378.82 88.4136 1375.77 88.4136C1372.73 88.4136 1372.72 92.4936 1365.59 95.541C1359.33 98.2233 1350.66 94.0551 1345.94 101.082C1348.16 103.172 1352.25 104.96 1359.71 105.376C1380 106.509 1386.76 100.868 1393.52 108.763C1400.29 116.659 1416.07 104.255 1420.58 87.3432Z" fill="#70A4BB"/>
<path d="M1408.35 74.1586C1395.12 77.2186 1393.08 86.3861 1389.01 89.4336C1384.93 92.4936 1378.82 88.4136 1375.77 88.4136C1372.73 88.4136 1372.72 92.4936 1365.59 95.541C1360.43 97.7573 1353.61 95.3018 1348.73 98.3366C1358.48 103.071 1377.22 95.7803 1382.26 94.1055C1389.02 91.8514 1395.78 105.376 1404.8 98.6136C1409.55 95.0499 1411.17 83.7039 1411.64 73.7305C1410.54 73.7682 1409.45 73.8942 1408.35 74.146V74.1586Z" fill="#79C7CF"/>
<path d="M235.597 239.966C221.221 243.568 222.19 269.698 230.511 276.636C242.735 286.824 282.44 287.844 285.499 266.449C288.558 245.054 267.17 257.281 258.005 252.194C248.84 247.107 247.821 236.919 235.61 239.966H235.597Z" fill="#5B5B7E"/>
<path d="M257.992 252.194C248.828 247.107 247.808 236.919 235.597 239.966C227.389 242.019 224.179 251.426 224.494 260.404C233.029 271.234 245.19 279.91 261.077 275.302C277.706 270.466 282.087 262.067 282.1 254.574C276.095 251.124 264.224 255.644 257.992 252.181V252.194Z" fill="#657F93"/>
<path d="M277.82 253.34C271.513 252.635 262.952 254.952 257.992 252.194C248.828 247.107 247.808 236.919 235.597 239.966C227.842 241.906 224.557 250.406 224.481 258.906C235.156 265.794 250.061 273.148 259.956 268.539C269.926 263.88 275.189 257.659 277.832 253.34H277.82Z" fill="#70A4BB"/>
<path d="M256.57 262.898C263.431 260.228 267.585 256.778 270.078 253.39C265.596 253.655 261.102 253.907 257.992 252.182C248.828 247.094 247.808 236.907 235.597 239.954C229.177 241.553 225.841 247.648 224.821 254.511C232.626 260.808 244.598 267.545 256.57 262.885V262.898Z" fill="#79C7CF"/>
<path d="M1504.1 98.689C1512.98 86.26 1527.52 101.749 1535.66 103.776C1543.81 105.816 1557.05 100.716 1562.14 108.864C1567.22 117.011 1553.99 145.534 1538.72 145.534C1523.45 145.534 1525.49 129.239 1519.37 124.139C1513.27 119.051 1493.92 112.931 1504.1 98.6764V98.689Z" fill="#5B5B7E"/>
<path d="M1562.63 109.896C1562.49 109.531 1562.33 109.191 1562.14 108.876C1557.05 100.729 1543.81 105.816 1535.66 103.789C1527.52 101.749 1512.98 86.2599 1504.1 98.7015C1501.83 101.9 1501.03 104.683 1501.23 107.139C1506.01 110.69 1511.86 114.279 1517.63 116.205C1531.15 120.714 1524.39 138.759 1537.92 137.626C1546.28 136.933 1558.49 122.464 1562.63 109.909V109.896Z" fill="#657F93"/>
<path d="M1556.91 104.91C1550.67 102.87 1541.76 105.313 1535.68 103.789C1527.53 101.749 1512.99 86.2599 1504.12 98.7015C1503.15 100.049 1502.47 101.333 1502 102.542C1503.66 103.927 1505.49 105.149 1507.5 106.056C1519.9 111.697 1521.02 109.443 1525.54 116.205C1530.05 122.968 1532.3 134.251 1539.06 131.997C1543.56 130.498 1556.98 116.092 1556.93 104.922L1556.91 104.91Z" fill="#70A4BB"/>
<path d="M1536.79 122.955C1541.69 124.592 1550.76 112.553 1552.34 104.116C1546.79 103.764 1540.37 104.96 1535.66 103.789C1527.76 101.812 1513.85 87.1792 1504.91 97.6563C1506.75 99.6585 1509.35 101.535 1513.12 102.668C1524.39 106.056 1530.02 120.714 1536.79 122.968V122.955Z" fill="#79C7CF"/>
<path d="M206.618 118.258C195.023 112.466 215.782 81.5882 231.052 80.5682C246.323 79.5482 256.507 95.8431 256.507 103.991C256.507 112.138 252.428 115.198 244.283 114.178C236.138 113.158 235.119 111.118 229.013 111.118C222.908 111.118 212.723 121.306 206.618 118.246V118.258Z" fill="#5B5B7E"/>
<path d="M231.052 80.5806C218.854 81.3991 203.168 101.245 203.256 112.163C205.686 113.057 208.556 113.334 211.766 112.264C221.913 108.876 218.526 104.368 226.42 104.368C234.313 104.368 245.58 112.264 250.086 105.502C251.308 103.676 253.259 100.943 255.122 97.8074C251.849 89.597 243.012 79.7872 231.052 80.5806Z" fill="#657F93"/>
<path d="M251.698 91.5868C247.279 85.3785 240.053 79.9763 231.065 80.5807C220.755 81.2733 207.977 95.5409 204.301 106.534C207.033 107.882 210.155 108.461 212.912 106.635C219.672 102.127 219.672 97.6187 223.059 98.7394C226.445 99.8727 237.712 103.248 243.352 100.993C245.655 100.074 249.08 96.1453 251.711 91.5868H251.698Z" fill="#70A4BB"/>
<path d="M231.052 80.5809C222.555 81.1476 212.371 90.9447 207.008 100.528C214.435 105.703 219.786 94.181 223.046 93.0854C226.432 91.9521 237.699 96.4729 241.086 95.3395C242.999 94.6973 245.265 90.1261 246.877 86.2476C242.685 82.6209 237.309 80.1527 231.065 80.5683L231.052 80.5809Z" fill="#79C7CF"/>
<path d="M923.145 118.459C930.434 109.707 945.541 120.499 957.765 118.459C969.988 116.419 979.153 108.272 987.298 113.372C995.443 118.459 996.462 145.962 962.863 152.082C929.264 158.189 918.06 124.579 923.158 118.472L923.145 118.459Z" fill="#5B5B7E"/>
<path d="M987.285 113.372C979.14 108.284 969.976 116.432 957.752 118.459C945.528 120.499 930.422 109.707 923.133 118.459C921.144 120.839 921.66 127.413 924.996 134.188C936.124 144.476 954.63 148.77 966.564 144.476C983.232 138.482 986.605 126.531 990.458 117.187C989.639 115.487 988.557 114.165 987.285 113.372Z" fill="#657F93"/>
<path d="M957.765 118.459C945.541 120.499 930.434 109.707 923.145 118.459C921.735 120.159 921.584 123.988 922.831 128.496C933.871 134.83 951.218 142.776 962.07 137.701C971.574 133.268 982.854 122.766 987.915 113.825C987.713 113.662 987.512 113.498 987.298 113.359C979.153 108.272 969.988 116.419 957.765 118.447V118.459Z" fill="#70A4BB"/>
<path d="M956.418 132.072C966.073 128.357 980.613 119.744 985.221 112.377C977.579 109.607 968.956 116.608 957.752 118.472C945.528 120.512 930.422 109.72 923.133 118.472C922.012 119.807 921.71 122.477 922.226 125.751C933.909 130.574 948.474 135.145 956.418 132.085V132.072Z" fill="#79C7CF"/>
<path d="M546.212 272.229C541.278 269.27 552.318 237.599 574.726 231.492C597.134 225.384 615.451 237.599 614.431 247.786C613.411 257.974 604.247 261.021 597.121 260.014C589.996 258.994 587.957 249.826 579.812 251.866C571.667 253.907 551.298 275.289 546.212 272.241V272.229Z" fill="#5B5B7E"/>
<path d="M574.726 231.491C552.33 237.599 541.277 269.269 546.212 272.229C546.338 272.304 546.489 272.355 546.628 272.405C554.521 264.157 567.601 250.96 576.022 248.668C588.422 245.28 597.436 256.563 604.196 252.055C606.651 250.418 609.685 245.532 611.598 239.853C605.694 232.524 591.33 226.958 574.713 231.491H574.726Z" fill="#657F93"/>
<path d="M574.726 231.491C556.434 236.478 545.721 258.503 545.092 268.035C551.701 260.858 568.054 243.92 576.035 243.026C586.182 241.893 597.449 252.043 601.955 245.28C603.63 242.775 603.126 237.926 601.83 232.839C594.704 229.779 585.162 228.645 574.713 231.491H574.726Z" fill="#70A4BB"/>
<path d="M574.726 231.491C562.88 234.728 554.219 245.092 549.41 254.586C556.8 248.038 566.959 239.651 570.395 239.651C576.035 239.651 594.062 246.414 596.316 240.785C597.184 238.619 598.38 235.118 598.695 231.693C592.01 229.565 583.702 229.061 574.726 231.504V231.491Z" fill="#79C7CF"/>
<path d="M531.332 51.7434C526.448 40.1329 542.536 28.321 553.728 27.3009C564.932 26.2809 583.261 36.4684 582.241 46.6559C581.222 56.8434 539.477 71.0984 531.332 51.7434Z" fill="#5B5B7E"/>
<path d="M553.728 27.2885C542.813 28.2833 527.279 39.516 530.993 50.8368C538.042 55.5339 548.957 58.4932 564.554 51.8064C573.14 48.1294 577.634 43.6086 579.636 38.9871C574.311 31.9729 562.049 26.5329 553.728 27.2885Z" fill="#657F93"/>
<path d="M575.318 34.7182C569.187 29.9204 560.261 26.7093 553.74 27.3011C544.878 28.1071 532.969 35.6753 530.791 44.5405C535.575 48.3057 544.626 51.9954 560.06 47.2983C569.048 44.5657 573.429 39.7931 575.318 34.7182Z" fill="#70A4BB"/>
<path d="M554.42 45.0315C566.896 42.3997 570.194 36.33 570.761 31.721C565.247 28.661 558.776 26.8351 553.728 27.2884C546.326 27.9558 536.809 33.3581 532.604 40.2841C536.658 44.0493 543.481 47.336 554.408 45.0315H554.42Z" fill="#79C7CF"/>
<path d="M875.107 223.873C889.282 217.577 908.706 242.208 902.6 251.375C896.495 260.543 876.126 256.463 873.067 253.415C870.008 250.368 865.942 227.953 875.107 223.873Z" fill="#5B5B7E"/>
<path d="M875.107 223.873C870.21 226.051 869.102 233.443 869.58 240.344C875.95 245.583 886.008 252.169 893.826 249.323C898.698 247.547 900.435 242.825 900.75 237.725C895.475 228.545 884.208 219.831 875.107 223.873Z" fill="#657F93"/>
<path d="M891.573 242.548C894.166 239.954 895.916 236.214 897.112 232.575C891.233 225.661 882.471 220.586 875.107 223.861C870.486 225.913 869.228 232.638 869.517 239.198C876.378 242.674 887.129 246.981 891.573 242.548Z" fill="#70A4BB"/>
<path d="M875.107 223.873C871.569 225.447 870.008 229.767 869.593 234.64C874.54 238.518 881.363 242.435 885.933 239.173C889.408 236.693 891.346 232.235 892.441 228.029C887.104 223.722 880.696 221.38 875.107 223.873Z" fill="#79C7CF"/>
<path d="M1473.34 175.34C1487.51 169.044 1506.94 193.675 1500.83 202.843C1494.73 212.01 1474.36 207.93 1471.3 204.883C1468.24 201.835 1464.17 179.42 1473.34 175.34Z" fill="#5B5B7E"/>
<path d="M1473.34 175.34C1468.44 177.519 1467.33 184.911 1467.81 191.812C1474.18 197.05 1484.24 203.636 1492.06 200.79C1496.93 199.015 1498.67 194.292 1498.98 189.192C1493.71 180.012 1482.44 171.298 1473.34 175.34Z" fill="#657F93"/>
<path d="M1489.8 194.016C1492.4 191.422 1494.15 187.681 1495.34 184.042C1489.46 177.129 1480.7 172.054 1473.34 175.328C1468.72 177.381 1467.46 184.105 1467.75 190.666C1474.61 194.142 1485.36 198.448 1489.8 194.016Z" fill="#70A4BB"/>
<path d="M1473.34 175.341C1469.8 176.915 1468.24 181.234 1467.82 186.107C1472.77 189.986 1479.59 193.902 1484.16 190.641C1487.64 188.16 1489.58 183.702 1490.67 179.496C1485.33 175.19 1478.93 172.847 1473.34 175.341Z" fill="#79C7CF"/>
<path d="M1227.29 59.7649C1234.82 50.0812 1250.71 61.805 1258.85 68.9324C1267 76.0599 1275.14 81.1599 1273.1 89.3074C1271.06 97.4549 1254.77 104.582 1238.48 99.4949C1222.19 94.4075 1220.15 68.945 1227.28 59.7775L1227.29 59.7649Z" fill="#5B5B7E"/>
<path d="M1258.85 68.9324C1250.71 61.805 1234.82 50.0812 1227.29 59.7649C1223 65.2805 1222.04 76.7021 1225.5 86.0333C1234.6 91.2971 1245.66 95.3897 1255.8 92.8586C1263.96 90.8185 1268.42 85.6807 1270.8 79.951C1268.03 76.3244 1263.45 72.9495 1258.85 68.9324Z" fill="#657F93"/>
<path d="M1252.42 86.0963C1260.31 84.2326 1264.38 79.8881 1266.43 75.4177C1264.12 73.3525 1261.49 71.2495 1258.85 68.9324C1250.71 61.805 1234.82 50.0812 1227.29 59.7649C1224.23 63.7065 1222.87 70.645 1223.6 77.6844C1228.25 82.0037 1238.57 89.3578 1252.43 86.0963H1252.42Z" fill="#70A4BB"/>
<path d="M1259.3 69.3228C1259.15 69.1969 1259 69.071 1258.85 68.9324C1250.71 61.805 1234.82 50.0812 1227.29 59.7649C1224.95 62.7872 1223.6 67.5598 1223.43 72.7984C1230.12 77.4955 1242.32 84.7111 1250.16 81.5755C1255.54 79.4222 1258.09 74.1962 1259.29 69.3102L1259.3 69.3228Z" fill="#79C7CF"/>
<path d="M1410.66 309.101C1413.94 302.527 1424.91 295.866 1431.03 294.846C1437.13 293.826 1448.34 300.953 1450.38 304.013C1452.42 307.073 1453.43 322.348 1451.4 326.415C1449.36 330.496 1437.14 337.623 1433.07 337.623C1428.99 337.623 1411.68 330.496 1410.67 328.455C1409.65 326.415 1409.65 311.141 1410.67 309.101H1410.66Z" fill="#5B5B7E"/>
<path d="M1447.3 321.063C1448.12 318.608 1448.94 307.841 1446.31 300.399C1441.93 297.339 1435.26 294.14 1431.01 294.845C1424.91 295.865 1413.93 302.539 1410.65 309.1C1409.88 310.637 1409.69 319.691 1410.08 324.929C1417.53 327.851 1428.95 331.943 1432.64 331.2C1438.28 330.067 1446.16 324.438 1447.29 321.051L1447.3 321.063Z" fill="#657F93"/>
<path d="M1431.01 294.845C1424.91 295.865 1413.93 302.54 1410.65 309.1C1410.02 310.372 1409.78 316.757 1409.93 321.895C1420.33 326.491 1437.2 324.388 1440.53 321.063C1443.59 318.003 1441.98 305.096 1440.63 297.1C1437.25 295.488 1433.66 294.405 1431.01 294.845Z" fill="#70A4BB"/>
<path d="M1431.01 294.846C1424.91 295.866 1413.93 302.54 1410.65 309.101C1410.18 310.032 1409.93 313.747 1409.89 317.701C1418.3 322.071 1432.24 320.333 1436.02 316.555C1439.7 312.878 1436.67 302.036 1434.11 294.909C1432.99 294.732 1431.93 294.682 1431 294.846H1431.01Z" fill="#79C7CF"/>
<path d="M461.88 166.009C468.187 163.718 480.071 189.306 467.709 193.676C455.334 198.045 453.886 168.918 461.88 166.009Z" fill="#5B5B7E"/>
<path d="M464.536 184.445C468.074 185.805 470.881 184.949 473.046 183.236C472.354 174.686 465.959 164.524 461.893 166.01C459.287 166.954 457.688 170.669 457.134 175.114C458.167 179.056 460.294 182.821 464.536 184.445Z" fill="#70A4BB"/>
<path d="M461.88 166.009C468.187 163.718 480.071 189.306 467.709 193.676C455.334 198.045 453.886 168.918 461.88 166.009Z" fill="#70A4BB"/>
<path d="M468.376 170.316C470.793 177.116 470.856 184.974 464.486 187.228C461.691 188.21 459.451 187.493 457.751 185.742C459.186 191.371 462.472 195.527 467.709 193.676C476.307 190.641 473.185 177.368 468.376 170.316Z" fill="#5B5B7E"/>
<path d="M728.233 312.349C728.233 294.996 756.42 304.869 762.752 301.419C769.084 297.968 768.505 287.604 778.286 287.604C788.068 287.604 784.039 296.243 794.967 295.664C805.894 295.085 820.862 277.82 830.064 290.488C839.266 303.144 819.703 326.163 810.501 327.901C801.299 329.626 801.865 326.755 798.416 329.047C794.966 331.339 790.359 344.586 779.432 342.861C768.505 341.136 766.201 329.047 759.869 326.176C753.537 323.292 738.002 325.597 734.553 323.292C731.104 320.988 728.221 318.683 728.221 312.362L728.233 312.349Z" fill="#5B5B7E"/>
<path d="M829.371 289.607C820.119 278.664 805.629 295.085 794.966 295.651C784.039 296.231 788.068 287.592 778.286 287.592C768.505 287.592 769.084 297.956 762.752 301.406C756.42 304.857 728.233 294.984 728.233 312.337C728.233 312.916 728.271 313.457 728.309 313.986C733.042 315.56 738.833 316.845 745.669 317.197C767.082 318.331 767.082 320.585 769.336 322.839C771.589 325.093 773.842 338.63 780.603 335.243C787.363 331.855 788.496 323.972 796.389 320.585C802.318 318.041 827.319 302.149 829.371 289.607Z" fill="#657F93"/>
<path d="M770.469 317.198C775.101 323.872 776.285 335.004 788.508 322.839C798.24 313.155 827.433 296.533 822.272 285.892C813.661 285.401 803.187 295.223 794.967 295.664C784.039 296.243 788.068 287.605 778.286 287.605C768.505 287.605 769.084 297.968 762.752 301.419C757.15 304.466 734.477 297.125 729.304 307.375C731.418 309.44 734.478 311.015 738.921 311.569C756.961 313.823 766.843 311.972 770.481 317.21L770.469 317.198Z" fill="#70A4BB"/>
<path d="M794.967 295.651C784.039 296.231 788.068 287.592 778.286 287.592C768.505 287.592 769.084 297.956 762.752 301.406C757.641 304.189 738.304 298.321 731.041 305.071C742.673 307.791 757.326 309.302 762.588 309.302C772.735 309.302 776.109 314.943 780.628 314.943C785.147 314.943 797.535 302.54 807.681 295.777C811.03 293.548 812.528 290.828 813.044 288.184C806.825 290.979 800.405 295.362 794.979 295.651H794.967Z" fill="#79C7CF"/>
<path d="M737.423 48.2552C739.966 49.9552 749.496 44.5781 754.745 54.0352C759.995 63.4924 747.394 71.3628 745.82 74.511C744.246 77.6591 747.922 87.1163 742.673 90.2644C737.423 93.4126 732.174 86.0585 726.396 87.1163C720.617 88.1615 717.999 92.3674 710.647 90.2644C703.295 88.1615 703.295 80.291 700.677 77.1428C698.058 73.9947 689.133 77.6717 688.075 67.6857C687.03 57.7123 691.751 56.6545 693.854 54.0352C695.956 51.416 697.529 45.6359 701.721 44.5781C705.926 43.5329 705.926 45.6233 712.221 44.0492C718.515 42.4751 724.822 36.6951 731.116 38.7981C737.411 40.901 732.69 45.0944 737.411 48.2552H737.423Z" fill="#5B5B7E"/>
<path d="M753.373 52.0078C747.985 45.4218 739.765 49.8167 737.423 48.2552C732.702 45.107 737.423 40.901 731.129 38.7981C724.834 36.6951 718.527 42.4751 712.233 44.0492C705.939 45.6233 705.939 43.5203 701.734 44.5781C697.529 45.6233 695.956 51.4034 693.866 54.0352C691.764 56.6545 687.043 57.7123 688.088 67.6857C688.151 68.2524 688.239 68.7687 688.34 69.2472C690.165 70.5695 692.179 71.5895 694.269 71.8917C702.162 73.025 703.282 71.8917 705.536 74.1458C707.789 76.3999 705.536 84.2955 711.175 85.4162C716.815 86.537 719.069 78.654 724.696 78.654C730.323 78.654 735.963 87.6703 739.349 84.2955C742.736 80.9081 737.096 74.1458 740.482 70.7709C742.95 68.3028 753.763 60.4575 753.373 52.0204V52.0078Z" fill="#657F93"/>
<path d="M737.423 48.2552C732.702 45.107 737.423 40.901 731.129 38.7981C724.835 36.6951 718.528 42.4751 712.233 44.0492C705.939 45.6233 705.939 43.5203 701.734 44.5781C697.529 45.6233 695.956 51.4034 693.866 54.0352C692.167 56.1634 688.73 57.259 688.063 62.9383C690.052 65.482 693.098 68.5043 697.668 68.5043C705.561 68.5043 708.935 68.5042 710.068 70.7583C711.201 73.0124 710.068 78.654 712.321 78.654C714.575 78.654 717.961 70.7583 721.335 69.6376C724.721 68.5042 729.228 75.2791 732.602 73.025C735.988 70.7709 730.348 65.1294 734.855 61.7546C737.385 59.8657 746.626 55.8486 752.089 50.6982C746.764 46.0892 739.589 49.7159 737.436 48.2804L737.423 48.2552Z" fill="#70A4BB"/>
<path d="M745.228 48.2552C741.804 48.167 738.707 49.1115 737.423 48.2552C732.703 45.107 737.423 40.901 731.129 38.7981C724.835 36.6951 718.528 42.4751 712.233 44.0492C705.939 45.6233 705.939 43.5203 701.734 44.5781C697.529 45.6233 695.956 51.4034 693.866 54.0352C692.683 55.5086 690.681 56.4908 689.334 58.8205C691.008 60.7094 693.602 62.422 697.655 62.8627C707.802 63.9961 710.055 65.1168 713.442 66.2502C716.828 67.3835 717.948 67.3835 721.335 63.9961C724.721 60.6086 725.842 58.3545 730.348 57.2338C734.377 56.2264 744.725 54.3123 745.241 48.2678L745.228 48.2552Z" fill="#79C7CF"/>
</svg>
