<svg width="71" height="809" viewBox="0 0 71 809" fill="none" xmlns="http://www.w3.org/2000/svg">
<g clip-path="url(#clip0_13_1765)">
<path d="M39.2434 763.136L43.9207 768.707L45.802 770.95C52.7456 766.469 55.2146 760.938 55.0665 756.039C54.9961 753.666 54.314 751.442 53.229 749.555C49.7107 743.428 43.2625 740.426 40.5161 745.456C37.5567 750.877 41.4673 753.485 42.5928 755.165C44.1756 757.525 43.4051 761.793 39.2434 763.136Z" fill="white"/>
<g opacity="0.35">
<path d="M43.9207 768.707L45.802 770.949C52.7456 766.468 55.2146 760.938 55.0665 756.038C53.9552 759.585 50.9609 766.382 43.9203 768.707H43.9207Z" fill="#371A45"/>
</g>
<path d="M45.8024 771.652C45.5715 771.652 45.3452 771.539 45.2109 771.33C45.0003 771.004 45.0941 770.569 45.4207 770.358C55.6249 763.774 55.6764 755.225 52.6195 749.905C50.489 746.196 47.1506 743.619 44.4846 743.619C44.4695 743.619 44.4552 743.619 44.44 743.619C43.0252 743.635 41.9125 744.366 41.1334 745.793C38.9251 749.838 40.8928 752.086 42.3293 753.728C42.6512 754.095 42.9548 754.443 43.1765 754.773C44.1075 756.162 44.3158 758.092 43.7197 759.81C43.0597 761.713 41.5464 763.131 39.4596 763.805C39.0898 763.924 38.6937 763.721 38.5742 763.351C38.455 762.981 38.6579 762.585 39.0277 762.466C40.6845 761.931 41.879 760.824 42.3909 759.349C42.8453 758.04 42.6986 756.587 42.0082 755.557C41.8367 755.301 41.5745 755.001 41.2709 754.654C39.7558 752.923 37.2196 750.025 39.8988 745.119C40.9255 743.238 42.4903 742.234 44.4249 742.213C47.6308 742.18 51.4167 744.987 53.8393 749.204C55.7477 752.526 56.2688 756.397 55.3071 760.105C54.176 764.464 51.0211 768.419 46.1833 771.54C46.0655 771.616 45.9335 771.652 45.8029 771.652L45.8024 771.652Z" fill="#371A45"/>
<path d="M49.5613 762.199C49.4454 762.199 49.3294 762.197 49.2135 762.194C46.5674 762.115 44.2782 761.151 42.7677 759.481C42.5519 759.242 42.5708 758.875 42.8086 758.659C43.0468 758.443 43.4144 758.462 43.6301 758.7C45.3788 760.634 47.9008 760.991 49.2485 761.031C51.5225 761.101 53.4719 760.429 54.1517 759.763C54.3812 759.538 54.7492 759.542 54.9741 759.771C55.199 760.001 55.1953 760.369 54.9658 760.594C53.9829 761.557 51.7962 762.199 49.5613 762.199V762.199Z" fill="#371A45"/>
<path d="M11.6131 768.136C9.26823 771.518 10.1173 783.622 13.0537 790.029C15.9901 796.435 27.9045 793.021 34.5513 790.568C41.1987 788.115 36.1175 772.93 34.6751 768.889C32.4222 762.58 15.0881 763.124 11.6136 768.136L11.6131 768.136Z" fill="white"/>
<g opacity="0.35">
<path d="M34.5513 790.569C27.9044 793.021 15.9901 796.434 13.0528 790.029C12.6692 789.19 12.3196 788.253 12.0105 787.252C14.3517 788.093 16.5048 785.934 16.2228 784.046C14.4819 772.393 17.1759 766.801 18.6776 764.694C25.0044 763.529 33.1765 764.692 34.6741 768.891C36.118 772.93 41.1987 788.116 34.5513 790.569Z" fill="#371A45"/>
</g>
<path d="M20.575 794.413C16.8401 794.413 13.7865 793.317 12.4139 790.322C9.30874 783.547 8.5613 771.304 11.035 767.735C13.4075 764.313 21.0893 763.018 26.8461 763.78C31.4154 764.385 34.4309 766.115 35.337 768.653C37.9735 776.037 41.4089 788.788 34.7947 791.229C30.1859 792.929 24.9198 794.413 20.5755 794.413H20.575ZM12.1909 768.537C10.0185 771.67 10.8606 783.558 13.6926 789.736C16.3461 795.525 27.7476 792.329 34.3076 789.909C40.1496 787.753 35.5587 773.457 34.0123 769.127C33.3031 767.14 30.6233 765.699 26.6612 765.175C20.6339 764.376 14.0077 765.917 12.1909 768.538V768.537Z" fill="#371A45"/>
<path d="M15.9855 779.07L12.608 778.874C11.8445 778.83 11.213 779.463 11.265 780.227C11.443 782.852 12.1458 788.182 14.9184 788.398C18.2789 788.66 18.192 784.912 17.1548 780.069C17.0352 779.511 16.555 779.103 15.9855 779.07Z" fill="white"/>
<g opacity="0.35">
<path d="M17.1459 780.063C18.1942 784.904 18.2899 788.652 14.9289 788.397C13.549 788.294 12.6783 786.921 12.131 785.244C12.5362 785.641 13.0118 785.895 13.5734 785.937C16.582 786.164 16.8221 783.183 16.0834 779.08C16.6059 779.15 17.0346 779.542 17.1459 780.063Z" fill="#371A45"/>
</g>
<path d="M15.2417 788.991C15.1258 788.991 15.0071 788.987 14.8852 788.977C11.7372 788.74 10.8974 783.423 10.677 780.275C10.6398 779.746 10.8325 779.226 11.2051 778.848C11.5786 778.469 12.0956 778.267 12.6296 778.298L16.0075 778.486C16.8378 778.532 17.5401 779.13 17.7154 779.94C18.6693 784.348 18.5971 786.78 17.4725 788.072C16.9403 788.683 16.191 788.991 15.2421 788.991H15.2417ZM12.5242 779.458C12.338 779.458 12.165 779.53 12.033 779.664C11.8927 779.807 11.8228 779.994 11.8371 780.194C12.1632 784.843 13.3352 787.694 14.9726 787.817C15.7164 787.873 16.2472 787.707 16.5949 787.308C17.8161 785.905 16.8842 781.601 16.5783 780.186C16.5135 779.886 16.2522 779.665 15.9427 779.648L12.5647 779.459C12.5514 779.458 12.5376 779.458 12.5242 779.458V779.458Z" fill="#371A45"/>
<path d="M11.1352 768.576C11.5542 768.619 11.9567 768.671 12.3647 768.726C12.7713 768.782 13.1765 768.842 13.5804 768.909C14.388 769.042 15.1921 769.197 15.9791 769.398C15.1677 769.428 14.365 769.507 13.5661 769.606C13.1664 769.657 12.7681 769.712 12.3711 769.773C11.9756 769.834 11.5745 769.899 11.1904 769.971C10.8077 770.042 10.4393 769.79 10.3675 769.407C10.2958 769.024 10.5483 768.656 10.9314 768.584C10.9986 768.571 11.0653 768.569 11.1301 768.575H11.1347L11.1352 768.576Z" fill="#371A45"/>
<path d="M41.5519 764.716L39.9167 759.838C40.3592 761.558 40.9204 763.189 41.5519 764.716Z" fill="white"/>
<path d="M59.6933 796.277C59.6933 796.277 56.4045 793.987 52.8072 792.47C50.4485 791.475 47.9574 790.812 46.1732 791.346C46.1732 791.346 32.0837 800.519 23.9548 782.729C21.3762 777.086 20.6495 772.803 21.1228 769.554C21.189 769.097 21.2796 768.662 21.3919 768.246C21.5087 767.806 21.6527 767.389 21.8178 766.992C22.2713 765.899 22.8927 764.965 23.6374 764.166C24.2032 763.561 24.8397 763.034 25.5265 762.575C31.8955 758.327 42.7147 759.941 42.7147 759.941C42.8297 760.748 42.9627 761.529 43.1112 762.284C43.3913 763.717 43.7239 765.055 44.0942 766.299C44.2013 766.658 44.3099 767.008 44.423 767.35C45.7445 771.387 47.4312 774.365 48.8244 776.367C50.3225 778.52 51.4816 779.545 51.4816 779.545C61.2567 777.527 63.3674 785.73 63.3674 785.73C63.3674 785.73 70.2963 781.023 70.3869 787.539C70.455 792.359 63.596 798.7 59.6937 796.277H59.6933Z" fill="white"/>
<g opacity="0.35">
<path d="M59.6932 796.277C59.6932 796.277 50.6794 789.999 46.1727 791.346C46.1727 791.346 32.0832 800.519 23.9543 782.729C21.3757 777.086 20.649 772.803 21.1223 769.554C21.2589 768.615 21.4953 767.764 21.8173 766.992C21.9443 766.686 22.0832 766.394 22.235 766.113C22.1779 766.374 22.1287 766.641 22.0891 766.915C21.6158 770.164 22.3426 774.448 24.9211 780.091C33.05 797.88 46.6584 786.975 46.6584 786.975C54.3241 784.484 57.0213 792.63 60.1973 794.087C63.3734 795.545 68.2434 792.298 70.3041 788.558C69.5185 793.195 63.3246 798.531 59.6928 796.276L59.6932 796.277Z" fill="#371A45"/>
</g>
<path d="M45.0651 768.327C45.5324 769.308 45.9767 770.291 46.4808 771.243L46.8534 771.958C46.9785 772.195 47.117 772.426 47.2439 772.662C47.4951 773.136 47.7834 773.588 48.0502 774.052C48.6123 774.963 49.2093 775.849 49.8395 776.706C50.155 777.134 50.4857 777.551 50.8265 777.955C50.9931 778.161 51.1678 778.358 51.3426 778.554C51.5165 778.744 51.7037 778.947 51.8665 779.109L51.3638 778.975C52.6153 778.716 53.9097 778.591 55.2104 778.674C56.5084 778.75 57.8157 779.065 59.0023 779.652C60.1955 780.229 61.2396 781.095 62.0703 782.111C62.487 782.62 62.8518 783.168 63.1613 783.744C63.3191 784.031 63.4589 784.328 63.5882 784.63C63.653 784.781 63.7133 784.934 63.7698 785.09C63.8283 785.25 63.8775 785.395 63.9299 785.585L63.0399 785.249C63.7956 784.758 64.5522 784.362 65.3806 784.032C65.7927 783.87 66.2205 783.731 66.669 783.634C67.1174 783.539 67.5889 783.482 68.0838 783.519C68.5746 783.554 69.1017 783.699 69.5479 784.008C69.9973 784.313 70.3215 784.761 70.5225 785.211C70.7281 785.664 70.8413 786.13 70.8965 786.584L70.9383 786.924L70.9549 787.261C70.9724 787.482 70.9645 787.716 70.9553 787.949C70.9006 788.876 70.6398 789.752 70.2939 790.57C69.9361 791.385 69.4812 792.144 68.9619 792.849C68.4426 793.556 67.8548 794.207 67.2067 794.797C66.559 795.386 65.8539 795.918 65.0835 796.361C64.308 796.791 63.4709 797.153 62.5532 797.308C62.0983 797.395 61.6191 797.404 61.1425 797.363C60.6623 797.318 60.1909 797.174 59.7447 796.964L59.4126 796.783C59.3873 796.771 59.3538 796.749 59.3298 796.731L59.2673 796.689L59.1403 796.603L58.6238 796.263C58.277 796.039 57.926 795.82 57.5728 795.604C56.8654 795.175 56.1474 794.762 55.4197 794.372C53.9635 793.594 52.4649 792.892 50.9222 792.378C50.1518 792.124 49.3689 791.92 48.5884 791.811C47.8097 791.698 47.0305 791.713 46.3406 791.903L46.3166 791.909C46.0071 791.994 45.6869 791.812 45.6019 791.502C45.5168 791.193 45.6975 790.873 46.0071 790.788C46.9353 790.531 47.8681 790.535 48.7438 790.658C49.6237 790.781 50.4678 791.004 51.2874 791.274C52.9254 791.82 54.4713 792.547 55.9694 793.346C56.7177 793.748 57.4532 794.17 58.1776 794.61C58.5396 794.831 58.8989 795.056 59.2558 795.286L59.7893 795.636L59.9227 795.726L59.9899 795.772C60.0083 795.786 60.0184 795.792 60.0405 795.803L60.2613 795.92C60.5722 796.063 60.9112 796.173 61.2672 796.205C61.6232 796.233 61.9898 796.233 62.3587 796.16C63.0969 796.038 63.8246 795.73 64.509 795.349C65.8709 794.557 67.0806 793.442 68.0277 792.157C68.501 791.514 68.9117 790.827 69.2282 790.107C69.5336 789.386 69.753 788.63 69.7958 787.881C69.8018 787.695 69.8105 787.51 69.7944 787.313L69.7806 787.022L69.7452 786.74C69.701 786.362 69.6072 786.005 69.4669 785.697C69.328 785.386 69.1357 785.133 68.8892 784.966C68.644 784.796 68.3377 784.703 67.996 784.678C67.3079 784.629 66.5356 784.828 65.8061 785.114C65.077 785.401 64.3425 785.789 63.6944 786.21L63.0201 786.649L62.8044 785.874C62.774 785.766 62.7257 785.617 62.6774 785.486C62.6287 785.351 62.5758 785.216 62.5183 785.083C62.4042 784.816 62.2796 784.552 62.1388 784.296C61.8628 783.782 61.5381 783.295 61.1701 782.846C60.4351 781.948 59.5276 781.196 58.4881 780.695C57.4541 780.184 56.3065 779.903 55.1355 779.835C53.9639 779.759 52.7713 779.871 51.5993 780.114L51.3196 780.173L51.0961 779.98C50.8574 779.774 50.6646 779.585 50.4646 779.379C50.2691 779.175 50.0745 778.97 49.891 778.759C49.7024 778.551 49.5267 778.333 49.3528 778.114C49.1748 777.898 49.0083 777.674 48.8404 777.451C48.1684 776.56 47.5774 775.615 47.0287 774.649C46.7656 774.161 46.4979 773.675 46.2642 773.172C46.0167 772.676 45.7987 772.167 45.5871 771.656C45.479 771.401 45.3797 771.143 45.2872 770.883L45.0016 770.105C44.9064 769.846 44.8365 769.578 44.7528 769.316C44.6714 769.052 44.5927 768.789 44.5182 768.524C44.4745 768.369 44.5651 768.208 44.7201 768.165C44.859 768.126 45.0021 768.194 45.0619 768.32L45.0655 768.327H45.0651Z" fill="#371A45"/>
<path d="M57.8792 804.407C56.6626 807.466 52.396 809.389 48.6529 807.648C46.1792 806.498 44.6834 804.433 43.8421 802.691C42.8597 800.654 42.1867 798.567 40.3915 797.618C38.3442 796.536 34.6089 800.258 27.6529 796.3C25.4833 795.067 22.9604 792.428 21.0667 788.52C20.4554 787.26 19.9104 785.869 19.4642 784.349C18.4983 781.066 17.9923 777.185 18.2784 772.752C18.4035 770.83 18.6777 768.802 19.1284 766.675C19.3368 765.687 19.5843 764.679 19.8722 763.649C20.259 762.265 20.7181 760.843 21.259 759.383L23.0335 762.954L23.637 764.167L24.0716 765.039L26.7872 770.502L30.9379 778.852L35.7836 788.598L36.1194 789.274C36.6281 788.758 37.1796 788.287 37.7642 787.867C39.5452 786.589 41.6389 785.784 43.8361 785.607C43.8831 785.602 43.9281 785.599 43.9746 785.596C45.0026 785.526 46.0679 785.59 47.0812 785.885C49.9711 786.729 52.2314 789.811 52.8081 792.471C52.9714 793.219 53.0013 793.933 52.8739 794.554C52.6444 795.669 52.413 796.897 52.413 796.897C53.2276 797.304 59.2697 800.915 57.8806 804.408L57.8792 804.407Z" fill="white"/>
<g opacity="0.35">
<path d="M57.8791 804.407C56.6625 807.466 52.3959 809.389 48.6528 807.648C46.1791 806.498 44.6833 804.433 43.8421 802.691C42.8596 800.654 42.1867 798.567 40.3914 797.618C38.3441 796.536 34.6088 800.258 27.6528 796.3C25.4832 795.067 22.9603 792.428 21.0666 788.52C20.9815 788.344 20.8969 788.165 20.8141 787.982C20.7493 787.84 20.6844 787.696 20.6219 787.55C20.5855 787.467 20.5492 787.384 20.5133 787.3C20.3974 787.026 20.2856 786.746 20.1748 786.461C20.1481 786.391 20.1219 786.319 20.0957 786.248C20.0648 786.166 20.0345 786.086 20.006 786.006C19.9738 785.916 19.9416 785.827 19.9108 785.737C19.8146 785.466 19.7226 785.189 19.6352 784.909C19.5759 784.724 19.5198 784.537 19.4641 784.349C17.6225 778.09 17.4523 769.663 21.2594 759.384L21.4236 759.714C18.2641 770.486 19.5501 778.987 22.2437 784.804C26.037 784.859 29.8629 782.946 30.9438 782.358L30.545 781.287C30.2277 780.436 30.4075 779.517 30.9379 778.853C31.1113 778.633 31.3228 778.443 31.5666 778.29C31.7055 778.202 31.8564 778.129 32.0169 778.069L42.9051 774.016C44.1958 773.534 45.6442 774.196 46.1239 775.488L46.537 776.598C46.6096 776.565 46.6837 776.538 46.7614 776.514C47.9233 776.159 49.1518 776.812 49.506 777.974C49.8593 779.127 49.2167 780.349 48.0682 780.712L48.2816 781.284C48.7613 782.574 48.0971 784.021 46.8083 784.501L43.8352 785.607L37.7632 787.867L35.9183 788.554C35.8732 788.571 35.8282 788.586 35.7826 788.599C34.5292 788.988 33.1654 788.327 32.7009 787.082L32.3766 786.211C29.0405 787.676 26.3428 788.28 24.3646 788.498C25.8718 790.633 27.5309 792.145 29.0235 792.994C35.9795 796.952 39.7148 793.23 41.7607 794.312C43.5573 795.261 44.2303 797.348 45.2127 799.385C46.054 801.127 47.5493 803.192 50.0235 804.342C52.9497 805.704 56.1975 804.825 58.0553 802.915C58.1248 803.409 58.0778 803.911 57.8791 804.409V804.407Z" fill="#371A45"/>
</g>
<path d="M35.9533 789.11C37.2462 787.328 39.1974 786.008 41.3537 785.344C41.8928 785.175 42.4447 785.041 43.0063 784.959C43.567 784.871 44.1323 784.818 44.7041 784.82C45.2758 784.82 45.8535 784.865 46.4275 784.968C46.7145 785.02 47.0011 785.084 47.2831 785.17C47.5627 785.273 47.8488 785.368 48.1202 785.487C49.2025 785.981 50.1274 786.712 50.908 787.546C51.6867 788.386 52.3228 789.34 52.8127 790.371C53.2966 791.403 53.6425 792.527 53.6406 793.751C53.6572 794.053 53.5965 794.369 53.5578 794.679L53.4047 795.463L53.0979 797.025L52.7244 796.271C52.9663 796.396 53.1623 796.513 53.3693 796.638C53.5735 796.761 53.7722 796.89 53.97 797.02C54.3641 797.282 54.7487 797.557 55.124 797.847C55.8724 798.429 56.5908 799.064 57.2274 799.81C57.8543 800.555 58.4376 801.416 58.6846 802.488C58.8046 803.019 58.8175 803.603 58.6846 804.155C58.6197 804.43 58.519 804.703 58.4063 804.926L58.2398 805.277C58.1772 805.39 58.1064 805.497 58.0392 805.607C57.4942 806.481 56.7477 807.199 55.9055 807.744C55.0614 808.289 54.1171 808.665 53.1351 808.856C52.1536 809.047 51.1325 809.05 50.1481 808.856C49.1629 808.661 48.2205 808.267 47.3875 807.76C45.7017 806.731 44.3839 805.203 43.4769 803.507C43.0201 802.648 42.6798 801.808 42.2906 801.005C41.9089 800.207 41.488 799.462 40.9411 798.901C40.673 798.624 40.3542 798.386 40.0396 798.225C39.817 798.11 39.4807 798.088 39.0838 798.133C38.2848 798.232 37.3723 798.494 36.4413 798.651C35.5067 798.815 34.5339 798.903 33.5638 798.855C32.5933 798.814 31.631 798.644 30.707 798.373C29.7815 798.104 28.8934 797.737 28.0484 797.304C27.8364 797.197 27.6308 797.08 27.4219 796.968C27.2136 796.856 27.0048 796.717 26.7969 796.592C26.5917 796.461 26.3985 796.316 26.1994 796.177C26.0043 796.034 25.8208 795.88 25.6313 795.731C24.1585 794.499 22.9405 793.028 21.9171 791.45C20.8983 789.866 20.0621 788.175 19.42 786.416C18.7719 784.66 18.2972 782.844 17.9845 781.005C17.3562 777.323 17.3847 773.561 17.8667 769.884L18.0636 768.506C18.134 768.048 18.2241 767.593 18.2991 767.135C18.3713 766.677 18.4679 766.223 18.5705 765.771L18.7255 765.093C18.7747 764.866 18.8331 764.642 18.9012 764.421C19.0272 763.975 19.1638 763.532 19.3009 763.09C19.4448 762.651 19.6109 762.218 19.7861 761.788C19.8749 761.575 19.9563 761.358 20.052 761.147C20.1513 760.937 20.2489 760.727 20.3579 760.521C20.5672 760.106 20.7916 759.698 21.0418 759.302C21.1117 759.191 21.2589 759.158 21.3698 759.228C21.4503 759.279 21.4898 759.371 21.4788 759.459V759.464C21.2387 761.311 20.7456 763.037 20.339 764.792C20.2217 765.226 20.1371 765.668 20.0276 766.103C19.9218 766.54 19.8105 766.976 19.7259 767.417C19.6357 767.856 19.5355 768.295 19.4619 768.738L19.2507 770.069C18.7848 773.626 18.7595 777.248 19.3611 780.77C19.6606 782.53 20.1141 784.262 20.7295 785.931C21.3394 787.603 22.1324 789.202 23.0891 790.69C24.0486 792.173 25.1907 793.542 26.5209 794.655C26.6911 794.787 26.8567 794.927 27.0296 795.054C27.2058 795.175 27.3773 795.305 27.5563 795.42C27.7398 795.529 27.9104 795.645 28.1041 795.749C28.2973 795.852 28.4886 795.961 28.6836 796.06C29.4628 796.459 30.27 796.791 31.098 797.032C32.7556 797.531 34.4823 797.592 36.2003 797.275C36.6322 797.2 37.0655 797.105 37.5126 797.006C37.9606 796.909 38.4205 796.805 38.9311 796.744C39.19 796.72 39.4573 796.698 39.7535 796.728C40.0442 796.757 40.3616 796.819 40.6564 796.971C41.155 797.226 41.5703 797.548 41.9392 797.924C42.6696 798.677 43.1429 799.557 43.5486 800.398C43.9552 801.239 44.3053 802.092 44.7068 802.845C45.5186 804.362 46.6764 805.69 48.1165 806.568C48.3005 806.67 48.4776 806.786 48.6685 806.875L48.9509 807.016L49.2379 807.13C49.4283 807.208 49.6178 807.29 49.8188 807.336C50.0175 807.387 50.2112 807.46 50.4163 807.484C51.2217 807.643 52.0597 807.642 52.8693 807.484C54.4837 807.174 56.0085 806.226 56.8558 804.868C56.9073 804.783 56.9638 804.7 57.0121 804.614L57.1372 804.346C57.2311 804.162 57.2863 804.002 57.3268 803.834C57.4063 803.498 57.4022 803.146 57.3226 802.788C57.1625 802.069 56.7122 801.356 56.1667 800.715C55.618 800.071 54.9621 799.488 54.2708 798.951C53.924 798.682 53.5657 798.426 53.1995 798.183C53.016 798.062 52.8311 797.943 52.6448 797.83C52.4618 797.719 52.2644 797.603 52.1002 797.519L51.6269 797.275L51.7272 796.766L52.0367 795.189L52.1904 794.402C52.2097 794.183 52.2621 793.974 52.2456 793.74C52.263 793.286 52.1637 792.809 52.0597 792.341C51.9843 792.109 51.9241 791.873 51.8362 791.644C51.7387 791.417 51.6674 791.181 51.5492 790.962C51.1288 790.066 50.5561 789.232 49.8768 788.517C49.1988 787.801 48.4003 787.207 47.5305 786.834C46.6768 786.466 45.6911 786.316 44.7068 786.32C43.7161 786.331 42.7143 786.451 41.746 786.71C39.7999 787.22 37.9872 788.184 36.2845 789.437L36.2831 789.438C36.1782 789.515 36.031 789.493 35.9542 789.388C35.8921 789.303 35.8949 789.191 35.9533 789.11V789.11Z" fill="#371A45"/>
<path d="M41.068 798.65C40.8422 798.65 40.6274 798.517 40.5326 798.296C38.9274 794.534 40.6062 790.598 42.9815 788.366C45.1396 786.338 47.8023 785.744 49.931 786.813C50.218 786.958 50.3339 787.307 50.1895 787.594C50.0451 787.881 49.6955 787.997 49.4085 787.853C47.7025 786.995 45.5972 787.505 43.7776 789.214C41.7644 791.106 40.2249 794.612 41.6025 797.84C41.7285 798.135 41.591 798.477 41.2957 798.603C41.2212 798.635 41.1439 798.65 41.0676 798.65H41.068Z" fill="#371A45"/>
<path d="M52.8513 797.188C52.4695 797.661 52.0781 798.058 51.6494 798.447C51.223 798.83 50.7686 799.183 50.2783 799.482C49.7903 799.781 49.2631 800.028 48.7075 800.165C48.1542 800.306 47.57 800.316 47.0342 800.177C47.5875 800.229 48.1335 800.127 48.6252 799.914C49.1192 799.705 49.5649 799.401 49.9696 799.055C50.3753 798.709 50.7415 798.316 51.0768 797.901C51.4079 797.49 51.7258 797.037 51.9732 796.603L51.9788 796.593C52.1236 796.339 52.447 796.25 52.7014 796.395C52.9557 796.54 53.044 796.863 52.8991 797.118C52.8853 797.142 52.8679 797.167 52.8513 797.188V797.188Z" fill="#371A45"/>
<path d="M54.7546 793.953C54.5582 793.953 54.3664 793.854 54.2569 793.673C52.3486 790.535 51.7538 787.581 52.4902 784.894C53.5458 781.042 56.945 779.194 57.0889 779.117C57.3723 778.966 57.7246 779.073 57.8755 779.357C58.0263 779.64 57.9192 779.992 57.6363 780.143C57.6055 780.16 54.5237 781.849 53.6079 785.214C52.9649 787.577 53.5178 790.22 55.2505 793.069C55.4174 793.343 55.33 793.701 55.0559 793.868C54.9616 793.925 54.8572 793.953 54.7542 793.953L54.7546 793.953Z" fill="#371A45"/>
<path d="M49.5322 777.378C49.943 776.236 49.35 774.977 48.2076 774.566C47.0652 774.155 45.8061 774.748 45.3952 775.89C44.9844 777.033 45.5774 778.292 46.7198 778.703C47.8622 779.114 49.1213 778.521 49.5322 777.378Z" fill="white"/>
<g opacity="0.35">
<path d="M49.5649 775.989C49.92 777.15 49.2678 778.38 48.1073 778.735C46.9464 779.09 45.7164 778.436 45.3613 777.275C45.2634 776.955 45.2418 776.627 45.2887 776.315C45.8434 776.921 46.7187 777.192 47.5572 776.936C48.3957 776.679 48.9697 775.965 49.0884 775.152C49.3018 775.384 49.4674 775.668 49.5654 775.989L49.5649 775.989Z" fill="#371A45"/>
</g>
<path d="M47.4652 779.412C46.2753 779.412 45.1714 778.641 44.8057 777.445C44.3573 775.979 45.1852 774.422 46.6506 773.974C48.1161 773.526 49.6735 774.353 50.122 775.819C50.5704 777.284 49.7425 778.842 48.2771 779.29C48.0071 779.373 47.7343 779.412 47.4657 779.412L47.4652 779.412ZM47.4625 775.016C47.3061 775.016 47.1474 775.039 46.9905 775.086C46.1382 775.347 45.6571 776.253 45.9175 777.105C46.1783 777.958 47.0844 778.44 47.9362 778.178C48.7885 777.917 49.2696 777.012 49.0088 776.16C48.7963 775.464 48.1542 775.016 47.462 775.016H47.4625Z" fill="#371A45"/>
<path d="M46.8677 782.518L35.9777 786.571C34.6889 787.051 33.2409 786.389 32.7602 785.099L30.6039 779.303C30.1835 778.173 30.6394 776.923 31.6255 776.307C31.7649 776.219 31.9157 776.145 32.0763 776.085L42.9649 772.032C44.2556 771.551 45.7035 772.213 46.1823 773.504L47.8916 778.094L48.3405 779.299C48.8211 780.59 48.157 782.037 46.8682 782.517L46.8677 782.518Z" fill="white"/>
<g opacity="0.35">
<path d="M46.8677 782.518L35.9777 786.571C34.6889 787.051 33.2409 786.389 32.7602 785.099L30.6039 779.303C30.1835 778.173 30.6394 776.923 31.6255 776.307C32.3969 776.487 32.8872 776.604 32.8872 776.604C35.1488 781.059 36.2279 784.584 43.2671 781.419C45.6939 780.328 47.0889 778.976 47.8916 778.094L48.3405 779.3C48.8211 780.591 48.157 782.038 46.8682 782.518H46.8677Z" fill="#371A45"/>
</g>
<path d="M35.1097 787.31C34.6718 787.31 34.2349 787.216 33.8237 787.027C33.073 786.684 32.5017 786.071 32.2152 785.302L30.058 779.505C29.7714 778.735 29.8032 777.898 30.1467 777.147C30.4903 776.397 31.103 775.825 31.8725 775.539L42.7616 771.485C44.3554 770.893 46.1345 771.706 46.7274 773.3L48.8846 779.096C49.4775 780.69 48.6638 782.47 47.0701 783.063L36.181 787.116C35.8328 787.246 35.4708 787.31 35.1093 787.31H35.1097ZM43.8352 772.455C43.613 772.455 43.3876 772.494 43.1673 772.576L32.2782 776.629C31.7998 776.807 31.4185 777.163 31.2047 777.632C30.9903 778.1 30.9705 778.621 31.1485 779.1L33.3058 784.896C33.4838 785.375 33.8398 785.756 34.3075 785.97C34.7758 786.184 35.2969 786.204 35.7753 786.026L46.6644 781.972C47.657 781.603 48.1639 780.495 47.7945 779.502L45.6373 773.706C45.3498 772.933 44.6148 772.455 43.8352 772.455V772.455Z" fill="#371A45"/>
<path d="M47.2885 782.312C47.1584 782.394 47.0185 782.462 46.8672 782.518L35.9772 786.571C35.0324 786.922 34.003 786.662 33.331 785.987C33.0863 785.742 32.8885 785.443 32.7616 785.098L31.8026 782.524L31.4861 781.674L30.6034 779.303C30.1228 778.012 30.787 776.565 32.0758 776.085L34.4289 775.209C33.4202 775.817 32.9502 777.081 33.3743 778.223L34.5384 781.354L35.5315 784.02C36.0117 785.309 37.4601 785.973 38.7489 785.493L47.2885 782.312Z" fill="white"/>
<g opacity="0.35">
<path d="M47.2886 782.312C47.1584 782.394 47.0186 782.462 46.8673 782.518L35.9772 786.571C34.6884 787.051 33.2405 786.389 32.7612 785.098L31.4857 781.674C31.9848 782.178 32.7534 782.737 33.5698 782.522C34.0178 782.405 34.3274 781.936 34.5385 781.354L35.5315 784.02C36.0117 785.309 37.4601 785.973 38.749 785.493L47.2886 782.312Z" fill="#371A45"/>
</g>
<path d="M35.1097 787.31C34.6723 787.31 34.2353 787.216 33.8241 787.027C33.073 786.684 32.5018 786.071 32.2157 785.301L30.0589 779.505C29.7723 778.736 29.8036 777.899 30.1472 777.147C30.4908 776.397 31.1035 775.825 31.8725 775.539L34.2252 774.663L34.7289 775.706C33.9387 776.183 33.5988 777.157 33.9203 778.02L36.0775 783.817C36.255 784.295 36.611 784.676 37.0793 784.891C37.5475 785.105 38.0682 785.125 38.5456 784.947L47.0866 781.767L47.5954 782.807C47.4284 782.91 47.2509 782.996 47.0673 783.064L36.1805 787.116C35.8328 787.246 35.4713 787.31 35.1097 787.31ZM32.7736 776.444L32.2787 776.628C31.8008 776.806 31.419 777.163 31.2051 777.631C30.9908 778.1 30.971 778.621 31.149 779.099L33.3062 784.896C33.4838 785.374 33.8398 785.756 34.308 785.97C34.7763 786.184 35.2969 786.204 35.7744 786.026L36.3378 785.816C35.7137 785.458 35.2394 784.901 34.9869 784.222L32.8297 778.426C32.5859 777.77 32.579 777.076 32.7736 776.444Z" fill="#371A45"/>
<path d="M38.7645 779.57C38.8432 779.785 39.1753 781.629 39.1753 781.629C39.1753 781.629 38.6261 781.83 37.9518 782.077C37.1091 782.385 36.1073 781.762 35.7136 780.686C35.3199 779.61 35.6842 778.488 36.5268 778.18C37.0953 777.972 37.7503 777.732 37.7503 777.732C37.7503 777.732 38.6367 779.22 38.7645 779.57Z" fill="#22A7F0"/>
<g opacity="0.35">
<path d="M38.7645 779.57C38.8432 779.785 39.1753 781.629 39.1753 781.629C39.1753 781.629 38.6261 781.83 37.9518 782.077C37.1091 782.385 36.1073 781.762 35.7136 780.686C35.3199 779.61 35.6842 778.488 36.5268 778.18C37.0953 777.972 37.7503 777.732 37.7503 777.732C37.7503 777.732 38.6367 779.22 38.7645 779.57Z" fill="#371A45"/>
</g>
<path d="M37.5006 782.506C37.1583 782.506 36.8092 782.402 36.4799 782.197C35.9914 781.893 35.6028 781.399 35.3857 780.806C35.1686 780.212 35.1469 779.584 35.3245 779.037C35.5117 778.459 35.8962 778.038 36.4068 777.852L37.9021 777.305L38.0502 777.553C38.1427 777.708 38.9572 779.08 39.0925 779.45C39.1748 779.676 39.4393 781.128 39.5189 781.567L39.5708 781.856L38.0718 782.404C37.8874 782.472 37.6951 782.506 37.501 782.506H37.5006ZM37.5971 778.159L36.6459 778.507C36.3414 778.618 36.1078 778.883 35.9882 779.252C35.8585 779.652 35.8774 780.119 36.0411 780.566C36.2048 781.014 36.4914 781.382 36.8479 781.604C37.1777 781.809 37.5272 781.86 37.8313 781.749L38.7788 781.402C38.6334 780.609 38.477 779.811 38.4361 779.689C38.3616 779.487 37.9297 778.726 37.5971 778.159Z" fill="#371A45"/>
<path d="M39.1792 781.625C40.0216 781.316 40.3854 780.194 39.9919 779.118C39.5984 778.042 38.5965 777.42 37.7541 777.728C36.9117 778.036 36.5478 779.158 36.9413 780.234C37.3348 781.31 38.3368 781.933 39.1792 781.625Z" fill="#22A7F0"/>
<g opacity="0.35">
<path d="M36.9371 780.239C37.3299 781.314 38.3322 781.937 39.1748 781.63C40.0184 781.321 40.3822 780.199 39.9876 779.122C39.9351 778.977 39.8698 778.839 39.7953 778.711C39.8487 779.53 39.4834 780.261 38.8289 780.499C38.1013 780.765 37.254 780.338 36.7839 779.52C36.7991 779.756 36.8502 779.998 36.9371 780.239Z" fill="#371A45"/>
</g>
<path d="M36.9372 780.239C36.9638 780.312 36.9937 780.383 37.0269 780.452C36.8861 779.547 37.2568 778.705 37.9684 778.445C38.7536 778.158 39.6785 778.679 40.1169 779.625C40.0916 779.457 40.0483 779.29 39.9876 779.122C39.5948 778.046 38.5926 777.423 37.7499 777.731C36.9077 778.04 36.5439 779.162 36.9372 780.239Z" fill="white"/>
<path d="M38.7324 782.056C37.8644 782.056 36.9859 781.389 36.6092 780.358C36.1502 779.103 36.6083 777.778 37.6303 777.404C38.6519 777.031 39.857 777.748 40.316 779.003C40.7751 780.258 40.3169 781.583 39.2949 781.957C39.1118 782.024 38.9223 782.056 38.7324 782.056V782.056ZM38.2025 778.002C38.0898 778.002 37.978 778.02 37.87 778.06C37.2095 778.302 36.9381 779.225 37.2651 780.119C37.5917 781.013 38.3943 781.544 39.0557 781.302C39.7162 781.06 39.9876 780.137 39.6606 779.243C39.3874 778.495 38.7807 778.002 38.203 778.002H38.2025Z" fill="#371A45"/>
<path d="M43.4668 784.201C43.2741 784.201 43.0933 784.08 43.0271 783.888L42.0055 780.93C41.7171 780.096 41.8652 779.178 42.4024 778.476C42.7575 778.012 42.8491 777.407 42.6471 776.858L41.1233 772.719C41.0345 772.478 41.1578 772.21 41.3993 772.122C41.6398 772.033 41.9075 772.156 41.9967 772.398L43.5206 776.537C43.8334 777.387 43.6917 778.323 43.1416 779.041C42.7948 779.494 42.6991 780.087 42.8854 780.626L43.907 783.584C43.9907 783.827 43.8619 784.092 43.619 784.175C43.5689 784.193 43.5174 784.201 43.4672 784.201H43.4668Z" fill="#371A45"/>
<path d="M19.0557 782.189C19.0557 782.189 18.1846 783.335 18.6616 784.626C19.213 786.119 20.5405 786.436 20.5405 786.436C20.5405 786.436 25.0946 787.633 33.125 783.916C33.125 783.916 34.3522 780.919 31.3036 780.206C31.3036 780.206 24.2657 784.374 19.0557 782.189Z" fill="white"/>
<g opacity="0.35">
<path d="M18.6514 784.597C19.1964 786.115 20.5418 786.436 20.5418 786.436C20.5418 786.436 25.0954 787.633 33.1259 783.916C33.1259 783.916 34.0637 781.626 32.2634 780.573C32.2657 780.583 32.2676 780.592 32.2699 780.602C32.4759 781.588 31.936 782.583 31.0091 782.978C23.647 786.111 19.4968 785.021 19.4968 785.021C19.4968 785.021 19.0998 784.927 18.6518 784.597H18.6514Z" fill="#371A45"/>
</g>
<path d="M22.5831 787.205C21.217 787.205 20.4677 787.018 20.3932 786.999C20.3394 786.986 18.7682 786.592 18.1164 784.827C17.8832 784.196 17.8791 783.499 18.104 782.81C18.3482 782.063 19.1499 781.643 19.8919 781.875C24.1911 783.22 29.6683 780.437 30.7226 779.865C31.0749 779.674 31.4902 779.636 31.8623 779.76C33.5463 780.325 34.2785 781.773 33.8204 783.633C33.7146 784.062 33.4124 784.427 33.0113 784.607C28.2245 786.765 24.6782 787.205 22.5826 787.205L22.5831 787.205ZM19.4733 782.975C19.3597 782.975 19.2484 783.053 19.2097 783.172C19.0649 783.615 19.0639 784.036 19.2074 784.424C19.638 785.59 20.6388 785.86 20.6812 785.871C20.7295 785.884 25.0453 786.923 32.5339 783.547C32.6116 783.512 32.67 783.44 32.6912 783.355C33.0067 782.074 32.6033 781.236 31.493 780.863C31.4268 780.841 31.3476 780.85 31.2777 780.888C29.6945 781.746 24.1713 784.433 19.5451 782.985C19.5216 782.978 19.4977 782.975 19.4738 782.975H19.4733Z" fill="#371A45"/>
<g opacity="0.35">
<path d="M44.4782 785.116C44.4391 784.956 44.2427 784.187 43.9396 782.962C44.2427 784.187 44.4377 784.957 44.4782 785.116Z" fill="#371A45"/>
</g>
<g opacity="0.35">
<path d="M44.4857 785.148L44.4872 785.147C44.4872 785.147 44.4834 785.137 44.4791 785.117C44.4824 785.138 44.4857 785.148 44.4857 785.148Z" fill="#371A45"/>
</g>
<path d="M63.7226 786.119C63.4898 786.276 63.246 786.459 63.0142 786.641C62.7815 786.825 62.551 787.015 62.3307 787.215C61.8905 787.616 61.4692 788.044 61.1495 788.563C61.3078 787.972 61.6026 787.412 61.9237 786.88C62.0846 786.613 62.259 786.354 62.4383 786.098C62.621 785.842 62.8013 785.595 63.0105 785.341L63.0128 785.338C63.1996 785.11 63.5358 785.077 63.7635 785.264C63.9912 785.451 64.0243 785.787 63.8371 786.015C63.804 786.055 63.7635 786.091 63.7226 786.119V786.119Z" fill="#371A45"/>
<g opacity="0.35">
<path d="M14.7855 784.44C14.7896 784.514 14.7809 784.578 14.7611 784.638C14.7735 784.575 14.7813 784.508 14.7855 784.44Z" fill="#371A45"/>
</g>
<path d="M61.2295 796.789C60.9645 796.478 60.8265 796.003 60.9158 795.294C61.3463 791.875 67.0526 784.163 70.2194 786.094C70.3201 786.499 70.379 786.977 70.3864 787.539C70.4462 791.773 65.1594 797.182 61.2295 796.789Z" fill="#848484"/>
<g opacity="0.35">
<path d="M68.4127 792.619C66.5269 795.112 63.625 797.029 61.2299 796.79C60.965 796.478 60.827 796.004 60.9163 795.295C61.1127 793.735 62.407 791.281 64.0592 789.258C63.4732 790.53 62.4603 793.739 63.8342 794.441C65.2081 795.143 67.0278 793.405 68.4127 792.619Z" fill="#371A45"/>
</g>
<g opacity="0.7">
<path d="M69.1739 791.483C69.5718 790.554 69.7953 789.612 69.7829 788.722C69.7829 788.695 69.782 788.669 69.7815 788.644C69.7581 787.57 68.7222 786.797 67.6906 787.096C65.5536 787.713 63.067 790.544 61.5883 793.171C63.2708 789.465 67.6091 784.502 70.2194 786.095C70.3202 786.499 70.379 786.977 70.3864 787.539C70.4039 788.811 69.9398 790.189 69.1739 791.484V791.483Z" fill="white"/>
</g>
<path d="M61.6407 797.275C61.4862 797.275 61.3335 797.268 61.183 797.253L60.9963 797.234L60.8749 797.091C60.4968 796.645 60.3551 796.022 60.4545 795.236C60.8054 792.449 64.3057 787.253 67.4049 785.76C68.5594 785.204 69.6164 785.182 70.4618 785.697L70.6251 785.797L70.6711 785.982C70.7833 786.435 70.8441 786.956 70.8519 787.533C70.8845 789.824 69.4674 792.568 67.1543 794.692C65.3452 796.352 63.3637 797.276 61.6407 797.276V797.275ZM61.4852 796.341C62.9861 796.399 64.8531 795.541 66.5246 794.006C68.6165 792.085 69.9494 789.55 69.9214 787.545C69.9159 787.124 69.8791 786.741 69.8119 786.404C69.2682 786.154 68.5953 786.219 67.8088 786.598C64.9943 787.954 61.6945 792.835 61.3776 795.352C61.3247 795.772 61.361 796.104 61.4852 796.341V796.341Z" fill="#371A45"/>
<path d="M69.0788 788.433C67.6184 788.433 65.8931 787.987 65.6323 787.918C65.3839 787.851 65.2367 787.596 65.303 787.348C65.3692 787.099 65.6245 786.953 65.8724 787.018C67.1184 787.351 69.3888 787.731 70.1753 787.335C70.4049 787.219 70.6845 787.311 70.8004 787.541C70.9159 787.77 70.8239 788.05 70.5944 788.166C70.2057 788.362 69.6634 788.433 69.0783 788.433H69.0788Z" fill="#371A45"/>
<path d="M67.7237 790.804C65.5992 790.804 63.8334 789.841 63.7336 789.785C63.5091 789.661 63.4282 789.377 63.5528 789.153C63.6774 788.928 63.9603 788.848 64.1852 788.972C64.2147 788.989 67.1607 790.588 69.7522 789.478C69.9881 789.377 70.2618 789.486 70.363 789.723C70.4642 789.959 70.3547 790.232 70.1183 790.334C69.3147 790.678 68.4955 790.805 67.7237 790.805V790.804Z" fill="#371A45"/>
<path d="M66.5595 792.99C63.5509 792.99 62.3182 791.677 62.2571 791.61C62.0846 791.419 62.0988 791.125 62.2888 790.952C62.4779 790.781 62.7704 790.794 62.9433 790.981C62.9709 791.009 64.5284 792.582 68.5406 791.875C68.7931 791.83 69.0346 791.999 69.0797 792.252C69.1243 792.505 68.9555 792.747 68.702 792.791C67.9054 792.932 67.1929 792.99 66.5595 792.99Z" fill="#371A45"/>
<path d="M64.9419 795.568C62.5202 795.568 61.0943 794.093 61.0258 794.02C60.8492 793.833 60.8575 793.539 61.0442 793.362C61.231 793.186 61.5244 793.194 61.701 793.38C61.7714 793.453 63.3514 795.057 65.9961 794.53C66.2491 794.48 66.4934 794.643 66.5435 794.896C66.5936 795.148 66.4303 795.393 66.1783 795.443C65.7418 795.53 65.3292 795.568 64.9419 795.568Z" fill="#371A45"/>
<path d="M7.1201 754.433C7.35744 754.385 7.51061 754.154 7.46277 753.916L4.95691 741.538C4.90907 741.3 4.67771 741.147 4.44037 741.195C1.95061 741.699 0.341203 744.126 0.84532 746.616L1.69993 750.837C2.20404 753.327 4.6308 754.937 7.12056 754.433H7.1201Z" fill="white"/>
<path d="M6.19793 754.661C5.27709 754.661 4.37602 754.391 3.59087 753.871C2.5371 753.171 1.81818 752.104 1.5675 750.865L0.712897 746.643C0.461758 745.404 0.708757 744.141 1.4079 743.087C2.10704 742.033 3.17461 741.314 4.41374 741.063C4.56415 741.033 4.71686 741.063 4.84472 741.147C4.97259 741.232 5.05953 741.361 5.08988 741.512L7.59575 753.89C7.62611 754.04 7.59621 754.193 7.51158 754.321C7.42694 754.448 7.29769 754.535 7.14729 754.566C6.83129 754.63 6.51346 754.661 6.19793 754.661V754.661ZM4.52827 741.322C4.50803 741.322 4.48779 741.323 4.46756 741.328C3.2988 741.564 2.2924 742.242 1.63328 743.236C0.974155 744.229 0.741415 745.421 0.978294 746.589L1.8329 750.81C2.32138 753.223 4.68236 754.788 7.09393 754.3C7.17351 754.284 7.24204 754.238 7.28666 754.171C7.33127 754.103 7.34737 754.022 7.33127 753.943L4.82541 741.565C4.80931 741.485 4.76331 741.417 4.6957 741.372C4.64556 741.339 4.58761 741.322 4.52873 741.322H4.52827Z" fill="#371A45"/>
<g opacity="0.35">
<path d="M0.86377 749.035L1.26394 751.015C1.76805 753.504 4.1948 755.114 6.68503 754.611C6.92237 754.563 7.07554 754.331 7.0277 754.093L6.3626 750.802C6.32626 750.966 6.19701 751.1 6.02315 751.136L5.72969 751.195C3.76244 751.594 1.83291 750.671 0.86377 749.035Z" fill="#371A45"/>
</g>
<path d="M6.20572 755.277C3.7132 755.277 1.47595 753.522 0.962633 750.986L0.108026 746.765C-0.17577 745.364 0.103426 743.937 0.893179 742.745C1.68339 741.554 2.88987 740.741 4.29091 740.458C4.6023 740.395 4.92013 740.457 5.18553 740.633C5.45047 740.809 5.63123 741.077 5.69425 741.389L8.20012 753.767C8.26313 754.079 8.20103 754.396 8.02533 754.661C7.84962 754.926 7.58101 755.107 7.26961 755.17C6.91268 755.242 6.55667 755.277 6.20618 755.277L6.20572 755.277ZM4.28447 742.007C3.40778 742.259 2.65667 742.808 2.14703 743.577C1.57898 744.434 1.37844 745.46 1.5822 746.467L2.43681 750.688C2.83697 752.664 4.69383 753.981 6.66109 753.746L4.28447 742.007Z" fill="#371A45"/>
<path d="M45.2937 732.923C45.0563 732.971 44.9032 733.202 44.951 733.44L47.4569 745.818C47.5047 746.056 47.7361 746.209 47.9734 746.161C50.4632 745.657 52.0726 743.23 51.5685 740.74L50.7139 736.519C50.2097 734.029 47.783 732.419 45.2932 732.923H45.2937Z" fill="white"/>
<path d="M47.8851 746.304C47.7738 746.304 47.6643 746.272 47.5691 746.209C47.4412 746.124 47.3543 745.995 47.3239 745.844L44.8181 733.466C44.7877 733.316 44.8176 733.163 44.9023 733.035C44.9869 732.907 45.1161 732.821 45.2665 732.79C47.8258 732.272 50.3284 733.932 50.8463 736.491L51.7009 740.712C51.9521 741.952 51.7051 743.215 51.0064 744.269C50.3073 745.323 49.2397 746.042 48.0005 746.293C47.9624 746.301 47.9237 746.304 47.8856 746.304H47.8851ZM45.3204 733.055C45.2408 733.071 45.1722 733.117 45.1276 733.185C45.083 733.252 45.0669 733.333 45.083 733.413L47.5889 745.791C47.605 745.871 47.651 745.939 47.7186 745.984C47.7862 746.028 47.8672 746.044 47.9463 746.028C49.115 745.792 50.1214 745.114 50.7806 744.12C51.4397 743.126 51.6724 741.935 51.4355 740.766L50.5809 736.545C50.0925 734.132 47.7324 732.567 45.3199 733.055H45.3204Z" fill="#371A45"/>
<g opacity="0.35">
<path d="M46.7605 742.384L47.4559 745.818C47.5038 746.056 47.736 746.209 47.9734 746.161C49.2801 745.896 50.3454 745.101 50.9894 744.045C51.5707 743.092 51.8072 741.923 51.568 740.741L51.2078 738.962C50.8169 740.666 49.4627 742.072 47.6372 742.442L47.1855 742.533C47.0203 742.566 46.8621 742.503 46.76 742.385L46.7605 742.384Z" fill="#371A45"/>
</g>
<path d="M47.8837 746.922C47.6524 746.922 47.4256 746.854 47.2283 746.723C46.9633 746.547 46.7826 746.279 46.7196 745.967L44.2137 733.589C44.1507 733.277 44.2128 732.959 44.3885 732.694C44.5642 732.43 44.8328 732.249 45.1442 732.186C48.036 731.6 50.8656 733.477 51.4512 736.369L52.3058 740.59C52.5896 741.991 52.3104 743.419 51.5206 744.61C50.7304 745.802 49.5239 746.614 48.1229 746.897C48.0433 746.913 47.9633 746.921 47.8842 746.921L47.8837 746.922ZM45.7527 733.61L48.1289 745.349C49.0056 745.097 49.7567 744.548 50.2663 743.778C50.8344 742.922 51.0349 741.896 50.8311 740.888L49.9765 736.667C49.5764 734.691 47.72 733.376 45.7523 733.609L45.7527 733.61Z" fill="#371A45"/>
<path d="M41.4205 758.896C49.8243 750.492 49.8243 736.865 41.4205 728.46C33.0167 720.055 19.3915 720.055 10.9877 728.46C2.58386 736.865 2.58386 750.492 10.9877 758.896C19.3915 767.301 33.0167 767.301 41.4205 758.896Z" fill="white"/>
<path d="M26.1708 765.345C22.4842 765.345 18.8418 764.394 15.5453 762.53C10.5106 759.682 6.8856 755.045 5.33876 749.471C3.79191 743.897 4.50761 738.054 7.35476 733.018C10.2019 727.983 14.8392 724.358 20.4126 722.811C31.918 719.617 43.8761 726.38 47.0696 737.886C48.6165 743.46 47.9008 749.303 45.0536 754.339C42.2064 759.374 37.5691 762.999 31.9958 764.546C30.0713 765.08 28.1151 765.345 26.1708 765.345ZM26.2371 722.283C24.3172 722.283 22.3849 722.544 20.4848 723.071C14.9809 724.599 10.4015 728.179 7.5898 733.151C4.77806 738.124 4.0711 743.894 5.59863 749.398C7.12616 754.902 10.706 759.482 15.6778 762.294C20.6495 765.106 26.4188 765.814 31.9226 764.286C37.4265 762.758 42.0059 759.178 44.8176 754.206C47.6294 749.233 48.3363 743.463 46.8088 737.959C45.2813 732.454 41.7014 727.874 36.7297 725.062C33.4746 723.221 29.8772 722.283 26.2371 722.283Z" fill="#371A45"/>
<g opacity="0.35">
<path d="M4.87094 746.509C4.99927 747.483 5.19844 748.46 5.46843 749.435C8.6486 760.887 20.5082 767.594 31.9599 764.416C43.4111 761.236 50.1173 749.375 46.9399 737.922C46.8488 737.593 46.7494 737.265 46.6437 736.945C48.0475 747.428 41.5436 757.604 31.0657 760.513C19.9434 763.6 8.43794 757.362 4.87048 746.509H4.87094Z" fill="#371A45"/>
</g>
<path d="M26.1699 765.962C22.3779 765.962 18.6325 764.985 15.2416 763.067C10.0634 760.139 6.33543 755.369 4.74442 749.636C3.15342 743.903 3.88982 737.894 6.81793 732.715C9.74604 727.536 14.5154 723.808 20.2479 722.217C25.9794 720.626 31.9884 721.362 37.1666 724.29C42.3448 727.219 46.0728 731.989 47.6638 737.722C49.2548 743.455 48.5184 749.464 45.5903 754.643C42.6622 759.821 37.8929 763.55 32.1604 765.141C30.1816 765.69 28.1688 765.962 26.1699 765.962ZM26.2361 722.9C24.3719 722.9 22.4952 723.153 20.6499 723.666C15.3047 725.15 10.8573 728.626 8.12697 733.455C5.39665 738.285 4.70993 743.888 6.1933 749.233C7.67713 754.579 11.1531 759.027 15.9817 761.758C20.8104 764.488 26.4132 765.175 31.7579 763.692C37.1031 762.208 41.5505 758.731 44.2808 753.902C47.0111 749.073 47.6979 743.469 46.2145 738.124C44.7306 732.778 41.2547 728.33 36.4261 725.6C33.2647 723.812 29.7713 722.9 26.2361 722.9V722.9Z" fill="#371A45"/>
<path d="M5.68316 749.949C6.74796 754.023 9.05927 757.46 12.1387 759.999C14.4477 761.902 22.4915 764.187 31.119 762.014C39.1186 760 45.2683 753.846 46.3506 751.056C47.7944 747.335 48.1283 743.207 47.0635 739.132C44.2458 728.35 33.8148 726.301 22.3871 729.288C10.9598 732.275 2.86498 739.166 5.6827 749.949H5.68316Z" fill="#371A45"/>
<g opacity="0.5">
<path d="M13.6308 750.179C15.0128 749.537 15.4148 747.47 14.5286 745.562C13.6425 743.655 11.8038 742.629 10.4217 743.271C9.03968 743.913 8.63768 745.98 9.52383 747.888C10.41 749.795 12.2487 750.821 13.6308 750.179Z" fill="white"/>
</g>
<g opacity="0.5">
<path d="M18.1512 754.639C18.847 754.189 18.9865 753.168 18.4628 752.357C17.939 751.546 16.9503 751.253 16.2544 751.702C15.5586 752.152 15.4191 753.174 15.9429 753.984C16.4666 754.795 17.4553 755.088 18.1512 754.639Z" fill="white"/>
</g>
<g opacity="0.35">
<path d="M7.07877 738.837C5.18005 741.913 4.5522 745.617 5.68371 749.948C6.74852 754.023 9.06074 757.46 12.1388 759.999C14.4483 761.902 22.4925 764.186 31.1205 762.015C34.1672 761.248 36.944 759.881 39.276 758.326C28.6137 760.77 18.805 757.949 15.9418 755.588C12.0325 752.366 9.09983 748.003 7.74939 742.833C7.3874 741.451 7.16938 740.119 7.07923 738.837L7.07877 738.837Z" fill="#111A28"/>
</g>
<path d="M4.99103 740.648C4.86638 740.648 4.74035 740.611 4.63134 740.533C4.38572 740.357 4.30523 740.037 4.42482 739.772C6.7927 733.595 13.1162 728.754 21.7805 726.489C30.5129 724.206 38.4302 725.439 43.5031 729.87C43.7464 730.077 43.7961 730.441 43.607 730.706C43.4074 730.986 43.0206 731.051 42.7409 730.852L42.6899 730.812C37.932 726.652 30.4255 725.515 22.0947 727.693C13.8094 729.858 7.78805 734.434 5.57472 740.246L5.5462 740.321L5.49975 740.387C5.37832 740.557 5.18606 740.649 4.99103 740.649V740.648Z" fill="#371A45"/>
<g opacity="0.5">
<path d="M44.0936 746.761C44.0936 746.761 44.653 735.251 37.8133 732.511C30.9737 729.771 22.7312 731.943 23.0624 732.422C23.0624 732.422 32.7699 732.246 38.2282 738.53C42.4373 743.376 44.0936 746.761 44.0936 746.761Z" fill="white"/>
</g>
<path d="M51.787 747.416C51.787 747.416 48.7475 743.173 43.6668 743.422C40.0727 743.598 38.4348 750.35 42.3219 753.978C44.1493 755.684 45.7969 756.194 46.284 759.856" fill="white"/>
<path d="M46.2831 760.56C45.9358 760.56 45.6336 760.303 45.5867 759.949C45.2358 757.309 44.2823 756.531 42.9626 755.453C42.6029 755.159 42.2313 754.856 41.8422 754.492C39.208 752.033 38.9398 748.443 39.8432 745.976C40.5598 744.018 41.9765 742.801 43.6328 742.719C49.0332 742.454 52.2258 746.82 52.3592 747.006C52.5855 747.322 52.5128 747.761 52.1968 747.988C51.8817 748.213 51.4429 748.141 51.2162 747.827C51.1876 747.788 48.3221 743.897 43.7018 744.125C42.6287 744.178 41.6803 745.05 41.1642 746.459C40.4448 748.425 40.6504 751.456 42.8021 753.464C43.1572 753.795 43.5109 754.084 43.8527 754.363C45.2436 755.499 46.5572 756.572 46.9813 759.764C47.0324 760.149 46.7619 760.503 46.3769 760.554C46.3456 760.558 46.3144 760.56 46.2835 760.56L46.2831 760.56Z" fill="#371A45"/>
<g opacity="0.35">
<path d="M21.3808 767.756L22.0271 774.683C37.3645 785.73 43.3283 769.97 44.9221 766.939C45.2505 766.314 46.3259 764.458 46.9905 764.022C47.7099 763.549 48.4169 761.921 48.496 760.737C48.496 760.737 48.0484 756.457 46.5927 755.17C45.0996 753.851 41.7116 754.351 40.0198 755.33C37.6814 756.685 36.032 759.88 33.2414 762.683C29.8142 766.122 22.4443 764.856 21.3804 767.756H21.3808Z" fill="#371A45"/>
</g>
<path d="M20.5188 766.305L21.9677 774.347L22.0275 774.683C36.4845 779.793 42.7055 767.666 45.2762 764.358C45.7085 763.801 46.9767 763.069 47.6413 762.633C48.3607 762.16 48.7245 761.167 48.8036 759.983V759.981C48.9582 757.693 48.0493 754.698 46.5935 753.411C45.1005 752.092 41.7124 752.592 40.0207 753.571C37.6822 754.926 36.0328 758.121 33.2422 760.924C29.8151 764.363 21.5827 763.405 20.5188 766.305Z" fill="white"/>
<g opacity="0.35">
<path d="M21.9678 774.347L22.0276 774.683C36.4846 779.793 42.7056 767.666 45.2763 764.358C45.7086 763.801 46.9768 763.069 47.6414 762.633C48.3608 762.16 48.7246 761.166 48.8037 759.983C48.4013 760.54 47.8769 761.022 47.244 761.084C45.6456 761.238 43.4125 761.177 42.7759 762.014C42.1393 762.852 40.972 767.054 36.8328 770.601C32.655 774.179 25.4791 775.344 21.9678 774.347Z" fill="#371A45"/>
</g>
<path d="M20.2451 766.205C20.3564 765.776 20.6264 765.394 20.9429 765.111C21.2589 764.822 21.6153 764.608 21.9746 764.425C22.6981 764.071 23.4441 763.842 24.1828 763.647C25.663 763.264 27.1372 763.01 28.5515 762.616C29.9567 762.225 31.3398 761.719 32.395 760.858C32.5325 760.757 32.6457 760.634 32.7708 760.522C32.895 760.401 33.0228 760.261 33.1489 760.131C33.4018 759.867 33.6451 759.592 33.8871 759.314C34.371 758.761 34.8323 758.18 35.2946 757.593C36.2223 756.422 37.116 755.189 38.2788 754.091C38.8583 753.549 39.5326 753.039 40.31 752.709C41.0662 752.375 41.8462 752.178 42.6434 752.059C43.44 751.943 44.2587 751.917 45.0949 752.067C45.5117 752.136 45.9348 752.265 46.3433 752.47L46.6464 752.636L46.933 752.85C47.1202 752.995 47.2664 753.15 47.4113 753.312C47.9771 753.963 48.3648 754.69 48.6638 755.434C48.9641 756.18 49.1716 756.95 49.3064 757.735C49.4351 758.521 49.494 759.322 49.4246 760.14C49.3896 760.549 49.3234 760.962 49.1992 761.376C49.0745 761.788 48.8915 762.207 48.5939 762.587C48.5198 762.681 48.4416 762.774 48.3492 762.858C48.2641 762.948 48.1638 763.025 48.0608 763.099L47.9844 763.156L47.9228 763.196L47.8004 763.274L47.559 763.427C47.2411 763.626 46.9288 763.822 46.6326 764.025C46.3405 764.225 46.0452 764.441 45.8474 764.644C45.7725 764.715 45.6556 764.882 45.5476 765.022L45.2247 765.469C44.3701 766.688 43.4993 767.948 42.5311 769.132C42.0496 769.727 41.5381 770.301 41.01 770.86C40.4719 771.41 39.919 771.949 39.3261 772.446C38.1541 773.455 36.8396 774.312 35.4321 774.98C34.0255 775.652 32.5017 776.072 30.9622 776.275C29.4186 776.464 27.8584 776.415 26.341 776.179C24.8231 775.934 23.3471 775.51 21.9304 774.958C21.7809 774.899 21.7069 774.73 21.7648 774.581C21.82 774.439 21.975 774.365 22.1185 774.408L22.1241 774.409C23.5481 774.838 24.9933 775.174 26.4541 775.332C27.9122 775.5 29.3845 775.486 30.8173 775.253C32.2505 775.031 33.6456 774.597 34.9455 773.96C35.2661 773.792 35.5949 773.641 35.9031 773.448L36.3718 773.173L36.8258 772.872C37.134 772.681 37.4182 772.452 37.7149 772.242C37.9987 772.015 38.2889 771.794 38.5626 771.553C39.1187 771.081 39.6403 770.566 40.1499 770.04C40.6499 769.503 41.1365 768.952 41.5974 768.376C42.5256 767.226 43.3586 766.007 44.2215 764.761L44.5563 764.292C44.6782 764.135 44.7698 763.986 44.957 763.789C45.2854 763.454 45.6055 763.23 45.9293 763.002C46.2522 762.778 46.576 762.574 46.8929 762.372L47.1275 762.222L47.242 762.148L47.2982 762.111L47.334 762.082C47.3828 762.045 47.4329 762.01 47.4762 761.961C47.524 761.92 47.5654 761.868 47.6068 761.814C47.9439 761.383 48.1114 760.709 48.1624 760.035C48.2172 759.355 48.1643 758.646 48.0456 757.95C47.9223 757.255 47.7319 756.567 47.4665 755.92C47.2052 755.273 46.8612 754.661 46.4357 754.179C46.3309 754.063 46.2154 753.943 46.105 753.861C46.0494 753.82 45.9951 753.778 45.9413 753.735L45.7499 753.632C45.4878 753.5 45.1865 753.401 44.8618 753.348C44.2173 753.229 43.5141 753.242 42.8255 753.342C42.1379 753.442 41.447 753.616 40.8279 753.89C40.2166 754.145 39.6688 754.552 39.1513 755.032C38.1187 755.996 37.2296 757.203 36.283 758.377C35.8106 758.967 35.3318 759.559 34.8222 760.133C34.5678 760.419 34.3103 760.706 34.0416 760.982C33.905 761.121 33.7781 761.258 33.6332 761.398C33.4782 761.536 33.3315 761.687 33.1659 761.809C32.5201 762.325 31.8062 762.716 31.0786 763.022C30.3495 763.329 29.6062 763.562 28.8634 763.761C27.3768 764.158 25.8856 764.421 24.4409 764.727C23.7187 764.88 23.0081 765.045 22.3485 765.282C21.7009 765.528 21.0855 765.843 20.7915 766.406L20.7874 766.414C20.7129 766.557 20.5363 766.613 20.3932 766.538C20.2704 766.474 20.212 766.334 20.2456 766.205H20.2451Z" fill="#371A45"/>
<path d="M37.1303 773.955C37.0117 773.955 36.8916 773.919 36.7881 773.843C30.9278 769.571 32.7759 760.974 32.8573 760.61C32.9277 760.297 33.2377 760.099 33.5514 760.17C33.8646 760.24 34.0619 760.551 33.9925 760.864C33.9741 760.946 32.234 769.084 37.4735 772.903C37.7329 773.092 37.7899 773.456 37.6009 773.716C37.4868 773.873 37.3102 773.955 37.1303 773.955V773.955Z" fill="#371A45"/>
<path d="M46.6823 744.334C46.3613 744.334 46.101 744.074 46.101 743.753V700.581C46.101 700.26 46.3613 700 46.6823 700C47.0034 700 47.2637 700.26 47.2637 700.581V743.753C47.2637 744.074 47.0034 744.334 46.6823 744.334Z" fill="#371A45"/>
<path d="M59.9205 773.955C59.8777 773.955 59.835 773.95 59.7917 773.941C58.0954 773.557 57.2431 772.427 56.4193 771.334C55.3195 769.875 54.28 768.497 51.1219 768.576C49.3745 768.616 48.0531 768.131 47.2026 767.126C45.8204 765.493 46.2574 763.128 46.2767 763.029C46.3379 762.713 46.6437 762.507 46.9579 762.568C47.273 762.628 47.479 762.933 47.4188 763.248C47.4119 763.286 47.0766 765.183 48.0945 766.38C48.7062 767.099 49.7154 767.448 51.0934 767.413C54.8481 767.325 56.1769 769.081 57.348 770.634C58.1096 771.644 58.7678 772.516 60.0484 772.807C60.3616 772.878 60.558 773.189 60.4872 773.502C60.426 773.772 60.1864 773.956 59.9205 773.956V773.955Z" fill="#371A45"/>
<g clip-path="url(#clip1_13_1765)">
<path d="M61.9993 773.991C61.9927 774.205 61.9384 774.404 61.8489 774.568C61.8236 774.56 61.7984 774.552 61.7737 774.545C61.6894 774.806 61.4585 774.979 61.2052 774.979C61.1614 774.979 61.1167 774.974 61.0719 774.963C61.0072 774.947 60.9438 774.93 60.8819 774.912C59.2514 774.445 58.403 773.239 57.5813 772.071C56.4429 770.453 55.367 768.924 52.0982 769.012C50.2895 769.057 48.9217 768.518 48.0415 767.404C46.6108 765.593 47.0631 762.969 47.0831 762.859C47.146 762.509 47.463 762.281 47.7882 762.347C47.9029 762.371 48.0039 762.428 48.0834 762.508C48.1529 762.166 48.4652 761.945 48.7851 762.012C49.1117 762.079 49.325 762.417 49.2626 762.766C49.2555 762.808 48.9084 764.912 49.962 766.24C50.5952 767.038 51.6397 767.424 53.0661 767.386C56.9523 767.288 58.3278 769.235 59.5399 770.958C60.1331 771.801 60.6653 772.558 61.4571 773.017C61.5161 773.052 61.577 773.085 61.6394 773.115C61.8713 773.29 62.0107 773.619 61.9993 773.991Z" fill="#371A45"/>
<path d="M61.6396 773.116C61.5772 773.085 61.5163 773.052 61.4573 773.018C61.523 773.04 61.5839 773.073 61.6396 773.116Z" fill="#371A45"/>
<path d="M61.8491 774.568C61.7073 774.829 61.4754 775 61.2059 775C61.0907 775 60.9812 774.969 60.8822 774.912C60.9441 774.93 61.0074 774.947 61.0722 774.963C61.1169 774.974 61.1617 774.979 61.2055 774.979C61.4587 774.979 61.6896 774.806 61.7739 774.545C61.7987 774.552 61.8239 774.56 61.8491 774.568Z" fill="#371A45"/>
</g>
</g>
<path d="M46 -18L46 743" stroke="#D1D3D4" stroke-width="3"/>
<defs>
<clipPath id="clip0_13_1765">
<rect width="70.966" height="109" fill="white" transform="translate(0 700)"/>
</clipPath>
<clipPath id="clip1_13_1765">
<rect width="15" height="13" fill="white" transform="translate(47 762)"/>
</clipPath>
</defs>
</svg>
