<svg width="1728" height="1378" viewBox="0 0 1728 1378" fill="none" xmlns="http://www.w3.org/2000/svg">
<rect width="1728" height="1117" fill="url(#paint0_linear_142_6)"/>
<mask id="mask0_142_6" style="mask-type:alpha" maskUnits="userSpaceOnUse" x="-4" y="0" width="1728" height="1117">
<rect x="-4" width="1728" height="1117" fill="#D9D9D9"/>
</mask>
<g mask="url(#mask0_142_6)">
<path d="M1949.97 536.603C1938.23 507.034 2007.54 283.056 1865 239.458C1685.57 184.583 1370.01 413.781 1343.23 437.362C1184.16 577.506 1202.47 671.508 1071 731.458C936.379 792.852 875.957 711.334 736.497 782.449C615.499 844.158 631.547 959.063 524.478 976.419C413.776 994.373 365.7 900.274 235.77 906.5C94.6416 913.266 -59.6028 1046 -48.4266 1141.07C-30.6079 1292.57 408.025 1354.58 684.62 1393.68C1199.4 1466.46 1456.79 1502.86 1677.05 1339.55C1921.08 1158.64 2052.33 794.561 1949.97 536.603Z" fill="#4B2056" fill-opacity="0.7"/>
<path d="M1965.87 997.641C1953.76 974.841 2025.25 802.139 1878.22 768.522C1693.15 726.209 1367.66 902.937 1340.04 921.119C1175.96 1029.18 1194.85 1101.66 1059.24 1147.89C920.384 1195.23 858.06 1132.37 714.213 1187.2C589.408 1234.79 605.961 1323.39 495.522 1336.77C381.337 1350.61 331.748 1278.06 197.73 1282.86C52.1612 1288.07 -106.936 1390.42 -95.4086 1463.73C-77.0292 1580.54 375.405 1628.36 660.703 1658.51C1191.68 1714.63 1457.17 1742.69 1684.36 1616.77C1936.07 1477.27 2071.45 1196.54 1965.87 997.641Z" fill="#532160"/>
<path d="M461.212 628.594C563.212 612.048 547.924 502.587 663.194 443.795C796.051 376.032 874.448 478.638 1002.7 420.158C1132.45 360.99 1101.63 233.403 1241.21 115.025C1409.7 -27.8937 1608.93 27.1592 1612.94 -9.60723C1621.1 -84.6979 803.55 -440.78 194.477 -93.2502C106.099 -42.8173 -95.0343 75.7764 -166.512 304.282C-234.445 521.464 -164.74 772.232 -84.5699 785.458C-7.49439 798.168 30.8392 583.307 186.172 561.98C302.312 546.036 350.218 646.59 461.212 628.594Z" fill="#150718" fill-opacity="0.5"/>
</g>
<g opacity="0.5">
<path d="M291.514 145.657C294.882 145.657 297.612 142.927 297.612 139.56C297.612 136.193 294.882 133.464 291.514 133.464C288.146 133.464 285.416 136.193 285.416 139.56C285.416 142.927 288.146 145.657 291.514 145.657Z" fill="white"/>
<path d="M210.144 328.529C210.82 325.231 208.694 322.009 205.395 321.333C202.096 320.657 198.873 322.783 198.197 326.082C197.521 329.38 199.647 332.602 202.947 333.278C206.246 333.954 209.468 331.828 210.144 328.529Z" fill="white"/>
<path d="M207.223 552.845C207.223 556.207 204.488 558.942 201.126 558.942C197.763 558.942 195.028 556.207 195.028 552.845C195.028 549.483 197.763 546.749 201.126 546.749C204.488 546.749 207.223 549.483 207.223 552.845Z" fill="white"/>
<path d="M277.957 694.62C277.957 697.982 275.222 700.717 271.859 700.717C268.497 700.717 265.762 697.982 265.762 694.62C265.762 691.258 268.497 688.523 271.859 688.523C275.222 688.523 277.957 691.258 277.957 694.62Z" fill="white"/>
<path d="M523.112 861.267C525.493 858.886 525.493 855.026 523.112 852.645C520.731 850.264 516.87 850.264 514.488 852.645C512.107 855.026 512.107 858.886 514.488 861.267C516.87 863.648 520.731 863.648 523.112 861.267Z" fill="white"/>
<path d="M608.286 1015.85C610.668 1013.47 610.668 1009.61 608.286 1007.23C605.905 1004.85 602.044 1004.85 599.663 1007.23C597.282 1009.61 597.282 1013.47 599.663 1015.85C602.044 1018.23 605.905 1018.23 608.286 1015.85Z" fill="white"/>
<path d="M568.269 1079.02C569.04 1075.75 567.008 1072.46 563.73 1071.69C560.452 1070.92 557.169 1072.95 556.397 1076.23C555.626 1079.51 557.658 1082.79 560.937 1083.56C564.215 1084.33 567.497 1082.3 568.269 1079.02Z" fill="white"/>
<path d="M542.859 1142.5C546.227 1142.5 548.957 1139.77 548.957 1136.4C548.957 1133.03 546.227 1130.3 542.859 1130.3C539.491 1130.3 536.761 1133.03 536.761 1136.4C536.761 1139.77 539.491 1142.5 542.859 1142.5Z" fill="white"/>
<path d="M738.11 1179.57C741.453 1179.16 743.829 1176.12 743.417 1172.78C743.005 1169.43 739.962 1167.06 736.62 1167.47C733.277 1167.88 730.901 1170.92 731.313 1174.27C731.725 1177.61 734.768 1179.98 738.11 1179.57Z" fill="white"/>
<path d="M968.931 1094.71C968.931 1098.07 966.196 1100.8 962.833 1100.8C959.471 1100.8 956.735 1098.07 956.735 1094.71C956.735 1091.34 959.471 1088.61 962.833 1088.61C966.196 1088.61 968.931 1091.34 968.931 1094.71Z" fill="white"/>
<path d="M1059.01 715.361C1062.38 715.361 1065.11 712.631 1065.11 709.264C1065.11 705.897 1062.38 703.167 1059.01 703.167C1055.64 703.167 1052.91 705.897 1052.91 709.264C1052.91 712.631 1055.64 715.361 1059.01 715.361Z" fill="white"/>
<path d="M1090.38 344.256C1092.76 341.875 1092.76 338.015 1090.38 335.634C1088 333.253 1084.14 333.253 1081.76 335.634C1079.37 338.015 1079.37 341.875 1081.76 344.256C1084.14 346.637 1088 346.637 1090.38 344.256Z" fill="white"/>
<path d="M1195.99 320.153C1195.99 323.515 1193.26 326.249 1189.89 326.249C1186.53 326.249 1183.8 323.515 1183.8 320.153C1183.8 316.791 1186.53 314.056 1189.89 314.056C1193.26 314.056 1195.99 316.791 1195.99 320.153Z" fill="white"/>
<path d="M1419.21 391.872C1419.45 388.513 1416.92 385.597 1413.56 385.358C1410.2 385.119 1407.28 387.648 1407.04 391.006C1406.81 394.365 1409.33 397.281 1412.69 397.52C1416.05 397.759 1418.97 395.23 1419.21 391.872Z" fill="white"/>
<path d="M1438.65 583.992C1438.65 587.354 1435.91 590.088 1432.55 590.088C1429.19 590.088 1426.45 587.354 1426.45 583.992C1426.45 580.63 1429.19 577.895 1432.55 577.895C1435.91 577.895 1438.65 580.63 1438.65 583.992Z" fill="white"/>
<path d="M648.836 508.592C651.217 506.211 651.217 502.351 648.836 499.97C646.455 497.589 642.594 497.589 640.212 499.97C637.831 502.351 637.831 506.211 640.212 508.592C642.594 510.973 646.455 510.973 648.836 508.592Z" fill="white"/>
<path d="M600.509 453.949C600.509 457.311 597.774 460.045 594.412 460.045C591.049 460.045 588.314 457.311 588.314 453.949C588.314 450.586 591.049 447.852 594.412 447.852C597.774 447.852 600.509 450.586 600.509 453.949Z" fill="white"/>
<path d="M897.87 387.878C900.251 385.497 900.251 381.637 897.87 379.256C895.488 376.875 891.628 376.875 889.246 379.256C886.865 381.637 886.865 385.497 889.246 387.878C891.628 390.259 895.488 390.259 897.87 387.878Z" fill="white"/>
<path d="M1254.06 365.008C1254.06 368.37 1251.32 371.105 1247.96 371.105C1244.6 371.105 1241.86 368.37 1241.86 365.008C1241.86 361.646 1244.6 358.911 1247.96 358.911C1251.32 358.911 1254.06 361.646 1254.06 365.008Z" fill="white"/>
<path d="M1558.74 455.476C1558.74 458.838 1556.01 461.572 1552.64 461.572C1549.28 461.572 1546.55 458.838 1546.55 455.476C1546.55 452.114 1549.28 449.379 1552.64 449.379C1556.01 449.379 1558.74 452.114 1558.74 455.476Z" fill="white"/>
<path d="M1623.33 421.512C1623.33 424.874 1620.59 427.608 1617.23 427.608C1613.87 427.608 1611.13 424.874 1611.13 421.512C1611.13 418.15 1613.87 415.415 1617.23 415.415C1620.59 415.415 1623.33 418.15 1623.33 421.512Z" fill="white"/>
<path d="M1614.38 398.732C1616.76 396.351 1616.76 392.491 1614.38 390.11C1612 387.729 1608.14 387.729 1605.76 390.11C1603.38 392.491 1603.38 396.351 1605.76 398.732C1608.14 401.113 1612 401.113 1614.38 398.732Z" fill="white"/>
<path d="M1503.49 491.405C1503.49 494.767 1500.76 497.501 1497.4 497.501C1494.03 497.501 1491.3 494.767 1491.3 491.405C1491.3 488.043 1494.03 485.308 1497.4 485.308C1500.76 485.308 1503.49 488.043 1503.49 491.405Z" fill="white"/>
<path d="M1400.79 687.967C1400.79 691.329 1398.06 694.064 1394.69 694.064C1391.33 694.064 1388.6 691.329 1388.6 687.967C1388.6 684.605 1391.33 681.87 1394.69 681.87C1398.06 681.87 1400.79 684.605 1400.79 687.967Z" fill="white"/>
<path d="M1125.59 693.993C1125.59 697.355 1122.85 700.089 1119.49 700.089C1116.13 700.089 1113.39 697.355 1113.39 693.993C1113.39 690.631 1116.13 687.896 1119.49 687.896C1122.85 687.896 1125.59 690.631 1125.59 693.993Z" fill="white"/>
</g>
<g style="mix-blend-mode:overlay">
<path d="M900.695 585.211C903.939 585.211 906.568 582.582 906.568 579.339C906.568 576.096 903.939 573.467 900.695 573.467C897.452 573.467 894.823 576.096 894.823 579.339C894.823 582.582 897.452 585.211 900.695 585.211Z" fill="white"/>
<path d="M776.954 474.772C780.111 474.027 782.066 470.865 781.321 467.708C780.576 464.552 777.413 462.598 774.256 463.342C771.1 464.087 769.145 467.25 769.89 470.406C770.635 473.562 773.798 475.517 776.954 474.772Z" fill="white"/>
<path d="M760.815 510.63C760.815 513.874 758.186 516.502 754.942 516.502C751.698 516.502 749.069 513.874 749.069 510.63C749.069 507.386 751.698 504.758 754.942 504.758C758.186 504.758 760.815 507.386 760.815 510.63Z" fill="white"/>
<path d="M722.156 662.515C722.156 665.758 719.528 668.386 716.283 668.386C713.039 668.386 710.411 665.758 710.411 662.515C710.411 659.271 713.039 656.643 716.283 656.643C719.528 656.643 722.156 659.271 722.156 662.515Z" fill="white"/>
<path d="M736.578 730.75C739.821 730.75 742.45 728.121 742.45 724.878C742.45 721.636 739.821 719.007 736.578 719.007C733.334 719.007 730.705 721.636 730.705 724.878C730.705 728.121 733.334 730.75 736.578 730.75Z" fill="white"/>
<path d="M880.938 818.6C881.683 815.444 879.728 812.281 876.571 811.536C873.414 810.792 870.252 812.746 869.506 815.902C868.761 819.059 870.716 822.221 873.873 822.966C877.03 823.711 880.193 821.756 880.938 818.6Z" fill="white"/>
<path d="M1098.74 881.287C1099.49 878.13 1097.53 874.968 1094.38 874.223C1091.22 873.478 1088.06 875.433 1087.31 878.589C1086.57 881.745 1088.52 884.908 1091.68 885.653C1094.84 886.398 1098 884.443 1098.74 881.287Z" fill="white"/>
<path d="M1265.75 859.135C1266.26 855.934 1264.09 852.918 1260.89 852.399C1257.69 851.879 1254.67 854.053 1254.15 857.254C1253.63 860.455 1255.81 863.471 1259.01 863.99C1262.21 864.51 1265.23 862.336 1265.75 859.135Z" fill="white"/>
<path d="M1292.81 760.973C1292.81 764.217 1290.18 766.845 1286.94 766.845C1283.69 766.845 1281.06 764.217 1281.06 760.973C1281.06 757.73 1283.69 755.102 1286.94 755.102C1290.18 755.102 1292.81 757.73 1292.81 760.973Z" fill="white"/>
<path d="M1086.01 562.184C1086.53 558.983 1084.35 555.967 1081.15 555.447C1077.95 554.928 1074.93 557.101 1074.41 560.302C1073.89 563.503 1076.07 566.52 1079.27 567.039C1082.47 567.559 1085.49 565.385 1086.01 562.184Z" fill="white"/>
<path d="M920.137 444.075C923.381 444.075 926.01 441.447 926.01 438.204C926.01 434.961 923.381 432.332 920.137 432.332C916.894 432.332 914.264 434.961 914.264 438.204C914.264 441.447 916.894 444.075 920.137 444.075Z" fill="white"/>
<path d="M927.49 384.884C927.49 388.128 924.861 390.756 921.617 390.756C918.373 390.756 915.744 388.128 915.744 384.884C915.744 381.641 918.373 379.012 921.617 379.012C924.861 379.012 927.49 381.641 927.49 384.884Z" fill="white"/>
<path d="M1007.99 319.178C1008.74 316.022 1006.78 312.859 1003.63 312.114C1000.47 311.369 997.308 313.324 996.563 316.48C995.818 319.636 997.773 322.799 1000.93 323.544C1004.09 324.289 1007.25 322.334 1007.99 319.178Z" fill="white"/>
<path d="M1044.61 283.099C1047.86 283.099 1050.49 280.47 1050.49 277.227C1050.49 273.984 1047.86 271.355 1044.61 271.355C1041.37 271.355 1038.74 273.984 1038.74 277.227C1038.74 280.47 1041.37 283.099 1044.61 283.099Z" fill="white"/>
<path d="M1076.71 264.596C1076.71 267.839 1074.08 270.468 1070.84 270.468C1067.6 270.468 1064.97 267.839 1064.97 264.596C1064.97 261.352 1067.6 258.724 1070.84 258.724C1074.08 258.724 1076.71 261.352 1076.71 264.596Z" fill="white"/>
<path d="M1081.83 276.6C1085.07 276.6 1087.7 273.971 1087.7 270.728C1087.7 267.485 1085.07 264.856 1081.83 264.856C1078.58 264.856 1075.95 267.485 1075.95 270.728C1075.95 273.971 1078.58 276.6 1081.83 276.6Z" fill="white"/>
<path d="M1349.68 188.535C1349.68 191.779 1347.05 194.407 1343.81 194.407C1340.56 194.407 1337.93 191.779 1337.93 188.535C1337.93 185.291 1340.56 182.663 1343.81 182.663C1347.05 182.663 1349.68 185.291 1349.68 188.535V188.535Z" fill="white"/>
<path d="M1503 302.845C1506.24 302.845 1508.87 300.216 1508.87 296.973C1508.87 293.731 1506.24 291.102 1503 291.102C1499.75 291.102 1497.12 293.731 1497.12 296.973C1497.12 300.216 1499.75 302.845 1503 302.845Z" fill="white"/>
<path d="M1671.59 531.785C1671.59 535.029 1668.96 537.657 1665.72 537.657C1662.47 537.657 1659.85 535.029 1659.85 531.785C1659.85 528.541 1662.47 525.913 1665.72 525.913C1668.96 525.913 1671.59 528.541 1671.59 531.785Z" fill="white"/>
<path d="M1726.14 718.344C1729.38 718.344 1732.01 715.715 1732.01 712.472C1732.01 709.229 1729.38 706.6 1726.14 706.6C1722.9 706.6 1720.27 709.229 1720.27 712.472C1720.27 715.715 1722.9 718.344 1726.14 718.344Z" fill="white"/>
<path d="M1704.93 878.146C1707.93 876.905 1709.35 873.47 1708.11 870.474C1706.87 867.478 1703.43 866.055 1700.44 867.296C1697.44 868.537 1696.02 871.972 1697.26 874.968C1698.5 877.964 1701.93 879.387 1704.93 878.146Z" fill="white"/>
<path d="M1569.5 1024.45C1569.5 1027.69 1566.88 1030.32 1563.63 1030.32C1560.39 1030.32 1557.76 1027.69 1557.76 1024.45C1557.76 1021.2 1560.39 1018.57 1563.63 1018.57C1566.88 1018.57 1569.5 1021.2 1569.5 1024.45Z" fill="white"/>
<path d="M1431.36 1114.57C1434.61 1114.57 1437.24 1111.94 1437.24 1108.7C1437.24 1105.46 1434.61 1102.83 1431.36 1102.83C1428.12 1102.83 1425.49 1105.46 1425.49 1108.7C1425.49 1111.94 1428.12 1114.57 1431.36 1114.57Z" fill="white"/>
<path d="M1336.46 1132.67C1336.46 1135.91 1333.84 1138.54 1330.59 1138.54C1327.35 1138.54 1324.72 1135.91 1324.72 1132.67C1324.72 1129.43 1327.35 1126.8 1330.59 1126.8C1333.84 1126.8 1336.46 1129.43 1336.46 1132.67Z" fill="white"/>
<path d="M1212.8 1165.28C1212.8 1168.53 1210.18 1171.16 1206.93 1171.16C1203.69 1171.16 1201.06 1168.53 1201.06 1165.28C1201.06 1162.04 1203.69 1159.41 1206.93 1159.41C1210.18 1159.41 1212.8 1162.04 1212.8 1165.28Z" fill="white"/>
<path d="M1120.35 1177.29C1120.87 1174.09 1118.7 1171.07 1115.5 1170.55C1112.29 1170.03 1109.28 1172.21 1108.76 1175.41C1108.24 1178.61 1110.41 1181.63 1113.61 1182.15C1116.81 1182.67 1119.83 1180.49 1120.35 1177.29Z" fill="white"/>
<path d="M966.48 1184.23C966.48 1187.47 963.851 1190.1 960.607 1190.1C957.363 1190.1 954.734 1187.47 954.734 1184.23C954.734 1180.98 957.363 1178.35 960.607 1178.35C963.851 1178.35 966.48 1180.98 966.48 1184.23Z" fill="white"/>
<path d="M866.347 1173.48C866.347 1176.72 863.718 1179.35 860.474 1179.35C857.23 1179.35 854.601 1176.72 854.601 1173.48C854.601 1170.23 857.23 1167.61 860.474 1167.61C863.718 1167.61 866.347 1170.23 866.347 1173.48Z" fill="white"/>
<path d="M722.118 1143.3C722.863 1140.14 720.908 1136.98 717.751 1136.23C714.595 1135.49 711.432 1137.44 710.687 1140.6C709.942 1143.76 711.897 1146.92 715.053 1147.66C718.21 1148.41 721.373 1146.45 722.118 1143.3Z" fill="white"/>
<path d="M620.295 1024.22C620.295 1027.46 617.666 1030.09 614.422 1030.09C611.178 1030.09 608.549 1027.46 608.549 1024.22C608.549 1020.98 611.178 1018.35 614.422 1018.35C617.666 1018.35 620.295 1020.98 620.295 1024.22Z" fill="white"/>
<path d="M498.944 917.629C498.944 920.872 496.315 923.501 493.071 923.501C489.827 923.501 487.198 920.872 487.198 917.629C487.198 914.385 489.827 911.757 493.071 911.757C496.315 911.757 498.944 914.385 498.944 917.629Z" fill="white"/>
<path d="M284.303 728.572C287.547 728.572 290.176 725.943 290.176 722.7C290.176 719.457 287.547 716.828 284.303 716.828C281.06 716.828 278.431 719.457 278.431 722.7C278.431 725.943 281.06 728.572 284.303 728.572Z" fill="white"/>
<path d="M176.178 483.982C179.422 483.982 182.051 481.353 182.051 478.11C182.051 474.867 179.422 472.239 176.178 472.239C172.935 472.239 170.305 474.867 170.305 478.11C170.305 481.353 172.935 483.982 176.178 483.982Z" fill="white"/>
<path d="M140.681 266.727C140.681 269.97 138.053 272.598 134.808 272.598C131.564 272.598 128.936 269.97 128.936 266.727C128.936 263.483 131.564 260.855 134.808 260.855C138.053 260.855 140.681 263.483 140.681 266.727Z" fill="white"/>
<path d="M172.873 110.061C176.03 109.318 177.987 106.157 177.244 103.001C176.501 99.844 173.34 97.8871 170.183 98.6298C167.025 99.3725 165.068 102.534 165.811 105.69C166.554 108.847 169.715 110.804 172.873 110.061Z" fill="white"/>
<path d="M243.027 59.1506C246.026 57.9154 247.456 54.4833 246.22 51.4849C244.985 48.4865 241.552 47.0572 238.553 48.2924C235.554 49.5277 234.125 52.9597 235.36 55.9581C236.596 58.9565 240.028 60.3859 243.027 59.1506Z" fill="white"/>
<path d="M473.511 118.903C473.511 122.146 470.882 124.774 467.638 124.774C464.394 124.774 461.765 122.146 461.765 118.903C461.765 115.659 464.394 113.031 467.638 113.031C470.882 113.031 473.511 115.659 473.511 118.903Z" fill="white"/>
<path d="M702.272 173.259C705.269 172.018 706.692 168.584 705.45 165.588C704.209 162.592 700.774 161.169 697.777 162.41C694.781 163.651 693.358 167.086 694.599 170.082C695.84 173.078 699.276 174.5 702.272 173.259Z" fill="white"/>
<path d="M605.041 341.665C608.04 340.429 609.469 336.997 608.234 333.999C606.998 331 603.566 329.571 600.567 330.806C597.568 332.042 596.138 335.474 597.374 338.472C598.609 341.47 602.042 342.9 605.041 341.665Z" fill="white"/>
<path d="M199.669 620.536C202.913 620.536 205.542 617.907 205.542 614.664C205.542 611.422 202.913 608.793 199.669 608.793C196.426 608.793 193.797 611.422 193.797 614.664C193.797 617.907 196.426 620.536 199.669 620.536Z" fill="white"/>
<path d="M69.1305 783.951C69.1305 787.195 66.5019 789.823 63.2577 789.823C60.0135 789.823 57.3849 787.195 57.3849 783.951C57.3849 780.708 60.0135 778.08 63.2577 778.08C66.5019 778.08 69.1305 780.708 69.1305 783.951Z" fill="white"/>
<path d="M104.462 880.978C104.462 884.221 101.833 886.849 98.589 886.849C95.3448 886.849 92.7162 884.221 92.7162 880.978C92.7162 877.734 95.3448 875.106 98.589 875.106C101.833 875.106 104.462 877.734 104.462 880.978Z" fill="white"/>
<path d="M258.297 976.06C260.59 973.767 260.59 970.049 258.297 967.756C256.003 965.463 252.285 965.463 249.991 967.756C247.698 970.049 247.698 973.767 249.991 976.06C252.285 978.353 256.003 978.353 258.297 976.06Z" fill="white"/>
<path d="M212.165 1061.68C212.428 1058.45 210.02 1055.62 206.787 1055.35C203.554 1055.09 200.721 1057.5 200.458 1060.73C200.195 1063.96 202.602 1066.79 205.835 1067.06C209.068 1067.32 211.902 1064.91 212.165 1061.68Z" fill="white"/>
<path d="M74.847 1291.7C75.6619 1288.56 73.7773 1285.36 70.6379 1284.54C67.4985 1283.73 64.293 1285.61 63.4781 1288.75C62.6633 1291.89 64.5477 1295.1 67.6871 1295.91C70.8265 1296.72 74.0322 1294.84 74.847 1291.7Z" fill="white"/>
<path d="M124.022 1328.08C124.022 1331.33 121.393 1333.96 118.149 1333.96C114.905 1333.96 112.276 1331.33 112.276 1328.08C112.276 1324.84 114.905 1322.21 118.149 1322.21C121.393 1322.21 124.022 1324.84 124.022 1328.08Z" fill="white"/>
<path d="M424.326 1275.74C424.326 1278.98 421.698 1281.61 418.454 1281.61C415.209 1281.61 412.581 1278.98 412.581 1275.74C412.581 1272.49 415.209 1269.86 418.454 1269.86C421.698 1269.86 424.326 1272.49 424.326 1275.74Z" fill="white"/>
<path d="M672.461 1287.54C672.857 1284.32 670.569 1281.39 667.35 1280.99C664.131 1280.59 661.2 1282.88 660.803 1286.1C660.407 1289.32 662.695 1292.25 665.914 1292.65C669.133 1293.04 672.064 1290.75 672.461 1287.54Z" fill="white"/>
<path d="M853.607 1334.34C853.607 1337.58 850.978 1340.21 847.734 1340.21C844.49 1340.21 841.861 1337.58 841.861 1334.34C841.861 1331.09 844.49 1328.46 847.734 1328.46C850.978 1328.46 853.607 1331.09 853.607 1334.34Z" fill="white"/>
<path d="M1135.74 1377.01C1138.98 1377.01 1141.61 1374.38 1141.61 1371.14C1141.61 1367.9 1138.98 1365.27 1135.74 1365.27C1132.49 1365.27 1129.86 1367.9 1129.86 1371.14C1129.86 1374.38 1132.49 1377.01 1135.74 1377.01Z" fill="white"/>
<path d="M1342.46 1276.53C1342.46 1279.77 1339.83 1282.4 1336.58 1282.4C1333.34 1282.4 1330.71 1279.77 1330.71 1276.53C1330.71 1273.29 1333.34 1270.66 1336.58 1270.66C1339.83 1270.66 1342.46 1273.29 1342.46 1276.53Z" fill="white"/>
<path d="M1354.5 1284.22C1354.5 1287.47 1351.87 1290.1 1348.62 1290.1C1345.38 1290.1 1342.75 1287.47 1342.75 1284.22C1342.75 1280.98 1345.38 1278.35 1348.62 1278.35C1351.87 1278.35 1354.5 1280.98 1354.5 1284.22Z" fill="white"/>
<path d="M1360.58 1282.21C1363.83 1282.21 1366.46 1279.58 1366.46 1276.34C1366.46 1273.1 1363.83 1270.47 1360.58 1270.47C1357.34 1270.47 1354.71 1273.1 1354.71 1276.34C1354.71 1279.58 1357.34 1282.21 1360.58 1282.21Z" fill="white"/>
<path d="M1507.76 1299.48C1510.75 1298.24 1512.18 1294.8 1510.94 1291.81C1509.7 1288.81 1506.26 1287.39 1503.26 1288.63C1500.27 1289.87 1498.84 1293.3 1500.08 1296.3C1501.33 1299.3 1504.76 1300.72 1507.76 1299.48Z" fill="white"/>
<path d="M1554.11 1310.9C1557.36 1310.9 1559.98 1308.27 1559.98 1305.02C1559.98 1301.78 1557.36 1299.15 1554.11 1299.15C1550.87 1299.15 1548.24 1301.78 1548.24 1305.02C1548.24 1308.27 1550.87 1310.9 1554.11 1310.9Z" fill="white"/>
<path d="M1616.53 1313.99C1619.78 1313.99 1622.41 1311.36 1622.41 1308.11C1622.41 1304.87 1619.78 1302.24 1616.53 1302.24C1613.29 1302.24 1610.66 1304.87 1610.66 1308.11C1610.66 1311.36 1613.29 1313.99 1616.53 1313.99Z" fill="white"/>
<path d="M1646.37 1305.37C1649.61 1305.37 1652.24 1302.74 1652.24 1299.5C1652.24 1296.25 1649.61 1293.62 1646.37 1293.62C1643.13 1293.62 1640.5 1296.25 1640.5 1299.5C1640.5 1302.74 1643.13 1305.37 1646.37 1305.37Z" fill="white"/>
<path d="M1670.79 1264.63C1670.79 1267.88 1668.16 1270.5 1664.91 1270.5C1661.67 1270.5 1659.04 1267.88 1659.04 1264.63C1659.04 1261.39 1661.67 1258.76 1664.91 1258.76C1668.16 1258.76 1670.79 1261.39 1670.79 1264.63Z" fill="white"/>
<path d="M1563.82 1161.6C1564.22 1158.38 1561.93 1155.45 1558.71 1155.06C1555.49 1154.66 1552.56 1156.95 1552.16 1160.17C1551.77 1163.39 1554.05 1166.32 1557.27 1166.71C1560.49 1167.11 1563.42 1164.82 1563.82 1161.6Z" fill="white"/>
<path d="M1154.36 926.046C1157.6 926.046 1160.23 923.417 1160.23 920.174C1160.23 916.931 1157.6 914.302 1154.36 914.302C1151.12 914.302 1148.49 916.931 1148.49 920.174C1148.49 923.417 1151.12 926.046 1154.36 926.046Z" fill="white"/>
<path d="M771.813 818.787C772.081 815.555 769.677 812.718 766.445 812.451C763.212 812.183 760.375 814.587 760.108 817.818C759.84 821.05 762.244 823.887 765.476 824.154C768.708 824.422 771.546 822.019 771.813 818.787Z" fill="white"/>
<path d="M545.417 731.39C548.66 731.39 551.289 728.761 551.289 725.518C551.289 722.275 548.66 719.646 545.417 719.646C542.173 719.646 539.544 722.275 539.544 725.518C539.544 728.761 542.173 731.39 545.417 731.39Z" fill="white"/>
<path d="M373.493 557.365C373.655 554.126 371.159 551.369 367.92 551.208C364.68 551.047 361.924 553.542 361.762 556.781C361.601 560.02 364.096 562.776 367.336 562.937C370.575 563.098 373.332 560.603 373.493 557.365Z" fill="white"/>
<path d="M472.99 472.831C472.99 476.074 470.361 478.702 467.117 478.702C463.873 478.702 461.244 476.074 461.244 472.831C461.244 469.587 463.873 466.959 467.117 466.959C470.361 466.959 472.99 469.587 472.99 472.831Z" fill="white"/>
<path d="M820.655 333.116C820.655 336.359 818.027 338.987 814.783 338.987C811.538 338.987 808.91 336.359 808.91 333.116C808.91 329.872 811.538 327.244 814.783 327.244C818.027 327.244 820.655 329.872 820.655 333.116Z" fill="white"/>
<path d="M972.116 261.968C975.359 261.968 977.989 259.339 977.989 256.096C977.989 252.853 975.359 250.224 972.116 250.224C968.872 250.224 966.243 252.853 966.243 256.096C966.243 259.339 968.872 261.968 972.116 261.968Z" fill="white"/>
<path d="M964.68 122.572C967.924 122.572 970.553 119.944 970.553 116.701C970.553 113.458 967.924 110.829 964.68 110.829C961.437 110.829 958.807 113.458 958.807 116.701C958.807 119.944 961.437 122.572 964.68 122.572Z" fill="white"/>
<path d="M850.294 44.342C850.562 41.1101 848.158 38.2734 844.926 38.006C841.694 37.7386 838.856 40.1417 838.589 43.3736C838.321 46.6054 840.725 49.4422 843.957 49.7096C847.19 49.977 850.027 47.5738 850.294 44.342Z" fill="white"/>
<path d="M975.384 101.808C978.627 101.808 981.257 99.1792 981.257 95.9363C981.257 92.6935 978.627 90.0646 975.384 90.0646C972.14 90.0646 969.511 92.6935 969.511 95.9363C969.511 99.1792 972.14 101.808 975.384 101.808Z" fill="white"/>
<path d="M1249.06 248.625C1251.35 246.332 1251.35 242.615 1249.06 240.322C1246.76 238.029 1243.05 238.028 1240.75 240.322C1238.46 242.615 1238.46 246.332 1240.75 248.625C1243.05 250.919 1246.76 250.919 1249.06 248.625Z" fill="white"/>
<path d="M1208.57 544.878C1211.81 544.878 1214.44 542.249 1214.44 539.006C1214.44 535.763 1211.81 533.135 1208.57 533.135C1205.32 533.135 1202.69 535.763 1202.69 539.006C1202.69 542.249 1205.32 544.878 1208.57 544.878Z" fill="white"/>
<path d="M1060.04 837.365C1060.04 840.609 1057.41 843.237 1054.17 843.237C1050.92 843.237 1048.3 840.609 1048.3 837.365C1048.3 834.122 1050.92 831.494 1054.17 831.494C1057.41 831.494 1060.04 834.122 1060.04 837.365Z" fill="white"/>
<path d="M1191.87 937.612C1191.87 940.855 1189.24 943.484 1186 943.484C1182.75 943.484 1180.13 940.855 1180.13 937.612C1180.13 934.368 1182.75 931.74 1186 931.74C1189.24 931.74 1191.87 934.368 1191.87 937.612Z" fill="white"/>
<path d="M1406.85 648.504C1409.84 647.263 1411.27 643.828 1410.03 640.832C1408.78 637.836 1405.35 636.414 1402.35 637.655C1399.36 638.896 1397.93 642.33 1399.17 645.326C1400.42 648.322 1403.85 649.745 1406.85 648.504Z" fill="white"/>
<path d="M1455.64 266.277C1458.88 266.277 1461.51 263.648 1461.51 260.405C1461.51 257.162 1458.88 254.533 1455.64 254.533C1452.39 254.533 1449.76 257.162 1449.76 260.405C1449.76 263.648 1452.39 266.277 1455.64 266.277Z" fill="white"/>
<path d="M1468.14 234.408C1468.14 237.652 1465.51 240.28 1462.27 240.28C1459.02 240.28 1456.39 237.652 1456.39 234.408C1456.39 231.165 1459.02 228.537 1462.27 228.537C1465.51 228.537 1468.14 231.165 1468.14 234.408Z" fill="white"/>
<path d="M1545.21 166.45C1545.95 163.294 1544 160.132 1540.84 159.387C1537.68 158.642 1534.52 160.597 1533.77 163.753C1533.03 166.909 1534.98 170.071 1538.14 170.816C1541.3 171.561 1544.46 169.607 1545.21 166.45Z" fill="white"/>
<path d="M1573.48 159.622C1573.75 156.39 1571.34 153.553 1568.11 153.286C1564.88 153.019 1562.04 155.422 1561.77 158.654C1561.51 161.886 1563.91 164.722 1567.14 164.99C1570.38 165.257 1573.21 162.854 1573.48 159.622Z" fill="white"/>
<path d="M1616.65 246.27C1619.9 246.27 1622.53 243.641 1622.53 240.398C1622.53 237.156 1619.9 234.527 1616.65 234.527C1613.41 234.527 1610.78 237.156 1610.78 240.398C1610.78 243.641 1613.41 246.27 1616.65 246.27Z" fill="white"/>
<path d="M1672.47 425.288C1674.76 422.995 1674.76 419.277 1672.47 416.984C1670.17 414.691 1666.46 414.691 1664.16 416.984C1661.87 419.277 1661.87 422.995 1664.16 425.288C1666.46 427.581 1670.17 427.581 1672.47 425.288Z" fill="white"/>
<path d="M1513.3 586.655C1516.54 586.655 1519.17 584.026 1519.17 580.783C1519.17 577.541 1516.54 574.912 1513.3 574.912C1510.06 574.912 1507.43 577.541 1507.43 580.783C1507.43 584.026 1510.06 586.655 1513.3 586.655Z" fill="white"/>
<path d="M1443.26 694.667C1443.26 697.911 1440.64 700.539 1437.39 700.539C1434.15 700.539 1431.52 697.911 1431.52 694.667C1431.52 691.424 1434.15 688.796 1437.39 688.796C1440.64 688.796 1443.26 691.424 1443.26 694.667Z" fill="white"/>
<path d="M1535.21 827.836C1535.21 831.079 1532.59 833.708 1529.34 833.708C1526.1 833.708 1523.47 831.079 1523.47 827.836C1523.47 824.592 1526.1 821.964 1529.34 821.964C1532.59 821.964 1535.21 824.592 1535.21 827.836Z" fill="white"/>
<path d="M1445.3 932.959C1445.3 936.203 1442.67 938.831 1439.43 938.831C1436.18 938.831 1433.55 936.203 1433.55 932.959C1433.55 929.716 1436.18 927.088 1439.43 927.088C1442.67 927.088 1445.3 929.716 1445.3 932.959Z" fill="white"/>
<path d="M1040.92 969.622C1044.16 969.622 1046.79 966.993 1046.79 963.751C1046.79 960.508 1044.16 957.879 1040.92 957.879C1037.68 957.879 1035.05 960.508 1035.05 963.751C1035.05 966.993 1037.68 969.622 1040.92 969.622Z" fill="white"/>
<path d="M792.606 922.281C795.849 922.281 798.479 919.652 798.479 916.409C798.479 913.167 795.849 910.538 792.606 910.538C789.362 910.538 786.733 913.167 786.733 916.409C786.733 919.652 789.362 922.281 792.606 922.281Z" fill="white"/>
<path d="M586.064 949.367C586.064 952.611 583.436 955.239 580.192 955.239C576.947 955.239 574.319 952.611 574.319 949.367C574.319 946.123 576.947 943.495 580.192 943.495C583.436 943.495 586.064 946.123 586.064 949.367Z" fill="white"/>
<path d="M302.407 1052.76C302.407 1056.01 299.779 1058.63 296.534 1058.63C293.29 1058.63 290.662 1056.01 290.662 1052.76C290.662 1049.52 293.29 1046.89 296.534 1046.89C299.779 1046.89 302.407 1049.52 302.407 1052.76Z" fill="white"/>
<path d="M134.56 1003.04C134.56 1006.29 131.931 1008.91 128.687 1008.91C125.443 1008.91 122.814 1006.29 122.814 1003.04C122.814 999.798 125.443 997.17 128.687 997.17C131.931 997.17 134.56 999.798 134.56 1003.04Z" fill="white"/>
<path d="M80.1892 990.055C83.4327 990.055 86.062 987.426 86.062 984.183C86.062 980.941 83.4327 978.312 80.1892 978.312C76.9458 978.312 74.3165 980.941 74.3165 984.183C74.3165 987.426 76.9458 990.055 80.1892 990.055Z" fill="white"/>
<path d="M79.3742 965.452C79.8922 962.251 77.7166 959.236 74.5148 958.718C71.313 958.2 68.2975 960.375 67.7795 963.577C67.2615 966.778 69.4372 969.793 72.639 970.311C75.8408 970.829 78.8562 968.653 79.3742 965.452Z" fill="white"/>
<path d="M17.7201 950.054C20.9635 950.054 23.5928 947.425 23.5928 944.182C23.5928 940.939 20.9635 938.31 17.7201 938.31C14.4766 938.31 11.8473 940.939 11.8473 944.182C11.8473 947.425 14.4766 950.054 17.7201 950.054Z" fill="white"/>
</g>
<defs>
<linearGradient id="paint0_linear_142_6" x1="864" y1="0" x2="864" y2="1117" gradientUnits="userSpaceOnUse">
<stop offset="0.723958" stop-color="#290D30"/>
<stop offset="1" stop-color="#4B2056"/>
</linearGradient>
</defs>
</svg>
