<svg width="428" height="191" viewBox="0 0 428 191" fill="none" xmlns="http://www.w3.org/2000/svg">
<path d="M165.398 130.5C162.224 130.5 159.407 132.021 157.63 134.37C156.997 134.239 156.34 134.172 155.667 134.172C152.156 134.172 149.077 136.034 147.367 138.82C144.683 136.958 141.425 135.866 137.91 135.866C129.139 135.866 121.958 142.666 121.34 151.278C120.093 150.904 118.769 150.7 117.397 150.7C110.229 150.7 104.347 156.2 103.739 163.209C102.105 160.131 98.8675 158.032 95.1403 158.032C91.696 158.032 88.6717 159.823 86.9434 162.522C85.1635 160.584 82.6107 159.367 79.772 159.367C79.063 159.367 78.3754 159.443 77.7091 159.589C76.1482 156.298 72.7983 154.022 68.9128 154.022C65.9067 154.022 63.2201 155.385 61.4341 157.53C59.9888 156.681 58.3093 156.191 56.5111 156.191C53.8883 156.191 51.5121 157.228 49.7625 158.917C48.083 155.993 44.9339 154.025 41.3193 154.025C41.2767 154.025 41.2371 154.025 41.1975 154.028C41.2767 153.526 41.3193 153.009 41.3193 152.486C41.3193 147.113 36.9622 142.757 31.5889 142.757C30.8922 142.757 30.2137 142.83 29.5595 142.97C29.7055 142.297 29.7877 141.598 29.7877 140.88C29.7877 135.507 25.4307 131.151 20.0574 131.151C15.7034 131.151 12.0188 134.011 10.7743 137.953C10.4761 137.926 10.1749 137.911 9.86762 137.911C4.49434 137.911 0.137299 142.267 0.137299 147.639C0.137299 150.733 1.58559 153.49 3.83713 155.272C0.873615 156.939 -1.13148 160.112 -1.13148 163.757C-1.13148 165.677 -0.571633 167.465 0.386795 168.974C-1.26231 170.717 -2.27246 173.066 -2.27246 175.655C-2.27246 181.027 2.08458 185.384 7.45786 185.384C9.76113 185.384 11.8758 184.581 13.5431 183.245C15.1527 186.4 18.4296 188.563 22.2146 188.563C24.3018 188.563 26.2309 187.906 27.8161 186.786C29.2948 187.693 31.0352 188.219 32.8973 188.219C36.7279 188.219 40.0413 186.004 41.6266 182.789C43.1205 183.723 44.8852 184.264 46.7747 184.264C48.6642 184.264 50.5232 183.692 52.0415 182.716C53.8184 184.632 56.3559 185.831 59.1764 185.831C60.646 185.831 62.0395 185.502 63.287 184.921C64.5375 185.505 65.928 185.831 67.3976 185.831C71.9828 185.831 75.8226 182.661 76.8541 178.393C77.773 178.682 78.7496 178.837 79.7628 178.837C83.2071 178.837 86.2315 177.045 87.9597 174.347C89.7396 176.285 92.2924 177.501 95.1311 177.501C99.8807 177.501 103.833 174.097 104.688 169.595C106.73 174.602 111.647 178.134 117.391 178.134C123.908 178.134 129.361 173.589 130.754 167.496C132.921 168.53 135.343 169.108 137.901 169.108C146.719 169.108 153.93 162.242 154.484 153.563C154.87 153.608 155.26 153.636 155.658 153.636C158.832 153.636 161.649 152.115 163.426 149.766C164.059 149.897 164.716 149.964 165.388 149.964C170.762 149.964 175.119 145.607 175.119 140.235C175.119 134.862 170.762 130.506 165.388 130.506L165.398 130.5Z" fill="#D8D8D8"/>
<path d="M261.864 130.5C265.037 130.5 267.855 132.021 269.632 134.37C270.265 134.239 270.922 134.172 271.594 134.172C275.106 134.172 278.185 136.034 279.895 138.82C282.578 136.958 285.837 135.866 289.351 135.866C298.123 135.866 305.304 142.666 305.921 151.278C307.169 150.904 308.492 150.7 309.864 150.7C317.033 150.7 322.914 156.2 323.523 163.209C325.157 160.131 328.394 158.032 332.121 158.032C335.566 158.032 338.59 159.823 340.318 162.522C342.098 160.584 344.651 159.367 347.49 159.367C348.199 159.367 348.886 159.443 349.553 159.589C351.113 156.298 354.463 154.022 358.349 154.022C361.355 154.022 364.042 155.385 365.828 157.53C367.273 156.681 368.952 156.191 370.75 156.191C373.373 156.191 375.75 157.228 377.499 158.917C379.179 155.993 382.328 154.025 385.942 154.025C385.985 154.025 386.024 154.025 386.064 154.028C385.985 153.526 385.942 153.009 385.942 152.486C385.942 147.113 390.299 142.757 395.673 142.757C396.369 142.757 397.048 142.83 397.702 142.97C397.556 142.297 397.474 141.598 397.474 140.88C397.474 135.507 401.831 131.151 407.204 131.151C411.558 131.151 415.243 134.011 416.487 137.953C416.785 137.926 417.087 137.911 417.394 137.911C422.767 137.911 427.124 142.267 427.124 147.639C427.124 150.733 425.676 153.49 423.424 155.272C426.388 156.939 428.393 160.112 428.393 163.757C428.393 165.677 427.833 167.465 426.875 168.974C428.524 170.717 429.534 173.066 429.534 175.655C429.534 181.027 425.177 185.384 419.804 185.384C417.5 185.384 415.386 184.581 413.718 183.245C412.109 186.4 408.832 188.563 405.047 188.563C402.96 188.563 401.031 187.906 399.446 186.786C397.967 187.693 396.226 188.219 394.364 188.219C390.534 188.219 387.22 186.004 385.635 182.789C384.141 183.723 382.376 184.264 380.487 184.264C378.546 184.264 376.738 183.692 375.22 182.716C373.443 184.632 370.906 185.831 368.085 185.831C366.616 185.831 365.222 185.502 363.975 184.921C362.724 185.505 361.334 185.831 359.864 185.831C355.279 185.831 351.439 182.661 350.408 178.393C349.489 178.682 348.512 178.837 347.499 178.837C344.054 178.837 341.03 177.045 339.302 174.347C337.522 176.285 334.969 177.501 332.13 177.501C327.381 177.501 323.429 174.097 322.574 169.595C320.532 174.602 315.615 178.134 309.871 178.134C303.353 178.134 297.901 173.589 296.507 167.496C294.341 168.53 291.919 169.108 289.36 169.108C280.543 169.108 273.332 162.242 272.778 153.563C272.392 153.608 272.002 153.636 271.603 153.636C268.43 153.636 265.613 152.115 263.836 149.766C263.203 149.897 262.546 149.964 261.873 149.964C256.5 149.964 252.143 145.607 252.143 140.235C252.143 134.862 256.5 130.506 261.873 130.506L261.864 130.5Z" fill="#D8D8D8"/>
<path d="M166.834 132.429C163.66 132.429 160.843 133.95 159.066 136.298C158.433 136.167 157.776 136.101 157.103 136.101C153.592 136.101 150.513 137.962 148.803 140.749C146.119 138.887 142.861 137.795 139.347 137.795C130.575 137.795 123.394 144.594 122.776 153.207C121.529 152.832 120.205 152.629 118.833 152.629C111.665 152.629 105.783 158.129 105.175 165.138C103.541 162.059 100.304 159.96 96.5763 159.96C93.1321 159.96 90.1077 161.752 88.3795 164.451C86.5995 162.513 84.0468 161.296 81.208 161.296C80.4991 161.296 79.8114 161.372 79.1451 161.518C77.5842 158.226 74.2343 155.951 70.3489 155.951C67.3428 155.951 64.6561 157.314 62.8701 159.458C61.4248 158.61 59.7453 158.12 57.9471 158.12C55.3244 158.12 52.9481 159.157 51.1986 160.846C49.519 157.922 46.3699 155.954 42.7553 155.954C42.7127 155.954 42.6731 155.954 42.6336 155.957C42.7127 155.455 42.7553 154.938 42.7553 154.414C42.7553 149.042 38.3982 144.686 33.025 144.686C32.3282 144.686 31.6497 144.759 30.9955 144.898C31.1416 144.226 31.2237 143.526 31.2237 142.809C31.2237 137.436 26.8667 133.08 21.4934 133.08C17.1394 133.08 13.4548 135.939 12.2104 139.882C11.9122 139.855 11.611 139.839 11.3037 139.839C5.93038 139.839 1.57333 144.196 1.57333 149.568C1.57333 152.662 3.02162 155.418 5.27317 157.201C2.30965 158.868 0.304559 162.041 0.304559 165.686C0.304559 167.605 0.864402 169.394 1.82283 170.903C0.173726 172.646 -0.836426 174.995 -0.836426 177.584C-0.836426 182.956 3.52062 187.312 8.89389 187.312C11.1972 187.312 13.3118 186.509 14.9791 185.174C16.5887 188.329 19.8656 190.492 23.6506 190.492C25.7379 190.492 27.6669 189.834 29.2521 188.715C30.7308 189.621 32.4712 190.148 34.3333 190.148C38.164 190.148 41.4774 187.933 43.0626 184.718C44.5565 185.651 46.3212 186.193 48.2107 186.193C50.1002 186.193 51.9592 185.621 53.4775 184.644C55.2544 186.561 57.7919 187.76 60.6125 187.76C62.082 187.76 63.4756 187.431 64.7231 186.85C65.9736 187.434 67.364 187.76 68.8336 187.76C73.4189 187.76 77.2587 184.59 78.2901 180.322C79.209 180.611 80.1857 180.766 81.1989 180.766C84.6431 180.766 87.6675 178.974 89.3957 176.275C91.1756 178.213 93.7284 179.43 96.5672 179.43C101.317 179.43 105.269 176.026 106.124 171.524C108.166 176.531 113.083 180.063 118.827 180.063C125.344 180.063 130.797 175.518 132.19 169.424C134.357 170.459 136.779 171.037 139.337 171.037C148.155 171.037 155.366 164.171 155.92 155.491C156.306 155.537 156.696 155.564 157.094 155.564C160.268 155.564 163.085 154.043 164.862 151.695C165.495 151.826 166.152 151.892 166.824 151.892C172.198 151.892 176.555 147.536 176.555 142.164C176.555 136.791 172.198 132.435 166.824 132.435L166.834 132.429Z" fill="white"/>
<path d="M263.303 132.429C266.477 132.429 269.294 133.95 271.071 136.298C271.704 136.167 272.361 136.101 273.034 136.101C276.545 136.101 279.624 137.962 281.334 140.749C284.017 138.887 287.276 137.795 290.79 137.795C299.562 137.795 306.743 144.594 307.36 153.207C308.608 152.832 309.931 152.629 311.304 152.629C318.472 152.629 324.354 158.129 324.962 165.138C326.596 162.059 329.833 159.96 333.561 159.96C337.005 159.96 340.029 161.752 341.757 164.451C343.537 162.513 346.09 161.296 348.929 161.296C349.638 161.296 350.325 161.372 350.992 161.518C352.553 158.226 355.903 155.951 359.788 155.951C362.794 155.951 365.481 157.314 367.267 159.458C368.712 158.61 370.391 158.12 372.19 158.12C374.812 158.12 377.189 159.157 378.938 160.846C380.618 157.922 383.767 155.954 387.382 155.954C387.424 155.954 387.464 155.954 387.503 155.957C387.424 155.455 387.382 154.938 387.382 154.414C387.382 149.042 391.739 144.686 397.112 144.686C397.809 144.686 398.487 144.759 399.141 144.898C398.995 144.226 398.913 143.526 398.913 142.809C398.913 137.436 403.27 133.08 408.643 133.08C412.997 133.08 416.682 135.939 417.926 139.882C418.225 139.855 418.526 139.839 418.833 139.839C424.206 139.839 428.563 144.196 428.563 149.568C428.563 152.662 427.115 155.418 424.864 157.201C427.827 158.868 429.832 162.041 429.832 165.686C429.832 167.605 429.272 169.394 428.314 170.903C429.963 172.646 430.973 174.995 430.973 177.584C430.973 182.956 426.616 187.312 421.243 187.312C418.94 187.312 416.825 186.509 415.158 185.174C413.548 188.329 410.271 190.492 406.486 190.492C404.399 190.492 402.47 189.834 400.885 188.715C399.406 189.621 397.666 190.148 395.804 190.148C391.973 190.148 388.659 187.933 387.074 184.718C385.58 185.651 383.816 186.193 381.926 186.193C379.985 186.193 378.178 185.621 376.659 184.644C374.882 186.561 372.345 187.76 369.524 187.76C368.055 187.76 366.661 187.431 365.414 186.85C364.163 187.434 362.773 187.76 361.303 187.76C356.718 187.76 352.878 184.59 351.847 180.322C350.928 180.611 349.951 180.766 348.938 180.766C345.494 180.766 342.469 178.974 340.741 176.275C338.961 178.213 336.408 179.43 333.57 179.43C328.82 179.43 324.868 176.026 324.013 171.524C321.971 176.531 317.054 180.063 311.31 180.063C304.792 180.063 299.34 175.518 297.947 169.424C295.78 170.459 293.358 171.037 290.799 171.037C281.982 171.037 274.771 164.171 274.217 155.491C273.831 155.537 273.441 155.564 273.043 155.564C269.869 155.564 267.052 154.043 265.275 151.695C264.642 151.826 263.985 151.892 263.312 151.892C257.939 151.892 253.582 147.536 253.582 142.164C253.582 136.791 257.939 132.435 263.312 132.435L263.303 132.429Z" fill="white"/>
<g clip-path="url(#clip0_142_5)">
<path d="M230.648 24.0959C230.648 33.5447 223.399 41.2033 214.456 41.2033C214.274 41.2033 214.095 41.2004 213.916 41.1919C205.223 40.8935 198.263 33.3543 198.263 24.0959C198.263 14.8375 207.911 1.25963 213.947 0.51225C214.12 0.489516 214.291 0.478149 214.456 0.478149C221.276 0.478149 230.648 14.6471 230.648 24.0959V24.0959Z" fill="#FD8982"/>
<path d="M214.689 0.645815C214.438 0.586138 214.191 0.54067 213.947 0.512253C210.196 0.975458 205.055 6.42025 201.696 12.6806C203.893 9.92412 206.51 7.37508 208.772 4.54469C210.318 2.55831 212.378 1.25963 214.689 0.645815V0.645815Z" fill="#BD514A"/>
<path d="M214.689 0.645813C212.381 1.25963 210.318 2.55831 208.772 4.54469C206.507 7.37507 203.893 9.92412 201.696 12.6806C199.647 16.4971 198.263 20.6176 198.263 24.0959C198.263 33.3543 205.223 40.8935 213.916 41.1919C222.606 40.8935 229.568 33.3543 229.568 24.0959C229.568 14.8375 221.336 2.24288 214.689 0.645813Z" fill="#FC6C63"/>
<path d="M260.915 83.2469C259.333 85.5971 257.994 86.7195 256.761 86.9639C256.121 87.0918 255.508 86.981 254.905 86.6826H254.902C253.947 86.2109 253.013 85.2731 252.021 84.0568C249.094 80.4762 245.661 74.5029 239.705 71.0956C239.261 70.8427 238.807 70.604 238.36 70.388L235.416 48.1457L235.391 47.9581C235.715 47.8956 236.042 47.8387 236.368 47.7848C237.312 47.6398 238.267 47.5404 239.222 47.4949C244.064 47.2533 248.989 48.3162 253.371 50.8283C265.093 57.5433 268.469 72.0476 260.915 83.2469V83.2469Z" fill="white"/>
<path opacity="0.36" d="M259.955 83.6078C258.773 85.3612 257.727 86.4325 256.761 86.9639C256.121 87.0918 255.507 86.981 254.905 86.6826H254.902C253.947 86.2109 253.012 85.2731 252.021 84.0568C249.094 80.4762 245.661 74.5029 239.704 71.0956C239.261 70.8427 238.806 70.604 238.36 70.388L235.416 48.1457C236.357 48.0007 237.309 47.9013 238.261 47.8558C243.103 47.6142 248.028 48.6771 252.41 51.1892C264.132 57.9042 267.508 72.4085 259.955 83.6078V83.6078Z" fill="#EFD8D6"/>
<path opacity="0.36" d="M252.595 83.2469C252.402 83.5339 252.211 83.8039 252.021 84.0568C249.094 80.4762 245.661 74.5028 239.705 71.0956C239.261 70.8427 238.807 70.604 238.36 70.388L235.391 47.9581C235.715 47.8956 236.042 47.8387 236.368 47.7847C239.372 48.2593 242.316 49.2624 245.05 50.8282C256.772 57.5433 260.148 72.0476 252.595 83.2469Z" fill="#EFD8D6"/>
<path d="M193.563 47.9581L190.596 70.388C190.147 70.604 189.696 70.8427 189.252 71.0956C181.56 75.4975 178.076 84.179 174.455 86.4553C172.563 87.6488 170.63 87.089 168.041 83.2469C160.488 72.0476 163.864 57.5433 175.583 50.8283C180.085 48.2479 185.154 47.1965 190.122 47.5176C191.278 47.5887 192.426 47.7364 193.563 47.9581Z" fill="white"/>
<path opacity="0.36" d="M179.05 50.8282C167.328 57.5433 163.952 72.0476 171.505 83.2469C172.588 84.8554 173.557 85.8869 174.455 86.4552C176.285 85.3043 178.078 82.5223 180.397 79.4788C181.781 68.5409 183.952 57.7195 188.63 47.6569C185.316 48.0632 182.06 49.1033 179.05 50.8254V50.8282Z" fill="#EFD8D6"/>
<path opacity="0.79" d="M190.122 47.5176C189.624 47.5489 189.124 47.5972 188.63 47.6597C183.955 57.7223 181.784 68.5409 180.397 79.4816C182.671 76.5006 185.444 73.2752 189.252 71.0984C189.695 70.8455 190.147 70.6068 190.596 70.3908L193.563 47.9609C192.426 47.7393 191.278 47.5915 190.122 47.5204V47.5176Z" fill="#EFD8D6"/>
<path d="M214.51 10.3305C206.544 10.3305 199.59 15.727 197.613 23.4423L182.96 80.6268H246.533L231.372 23.3116C229.349 15.6588 222.427 10.3305 214.51 10.3305V10.3305Z" fill="white"/>
<path opacity="0.36" d="M211.367 15.3831C205.763 15.2183 200.727 19.9299 199.133 26.8325L187.311 77.9812L232.038 79.2969L222.887 27.4123C221.665 20.4841 216.937 15.5479 211.367 15.3831V15.3831Z" fill="#EFD8D6"/>
<path opacity="0.36" d="M208.573 18.4323C204.262 18.097 200.122 22.6438 198.51 29.4867L186.572 80.1864L220.974 82.8747L216.786 30.7968C216.226 23.843 212.853 18.7676 208.57 18.4352L208.573 18.4323Z" fill="#EFD8D6"/>
<path d="M214.456 118.095C232.114 118.095 246.428 103.781 246.428 86.1228C246.428 68.4649 232.114 54.1503 214.456 54.1503C196.798 54.1503 182.483 68.4649 182.483 86.1228C182.483 103.781 196.798 118.095 214.456 118.095Z" fill="#3A1643"/>
<path d="M214.748 113.861C232.097 113.861 246.161 100.866 246.161 84.8355C246.161 68.8051 232.097 55.8098 214.748 55.8098C197.4 55.8098 183.336 68.8051 183.336 84.8355C183.336 100.866 197.4 113.861 214.748 113.861Z" fill="#FC6C63"/>
<path d="M214.455 125.478C233.402 125.478 248.761 110.119 248.761 91.1726C248.761 72.2261 233.402 56.867 214.455 56.867C195.509 56.867 180.15 72.2261 180.15 91.1726C180.15 110.119 195.509 125.478 214.455 125.478Z" fill="white"/>
<path d="M214.456 123.375C232.241 123.375 246.658 108.958 246.658 91.1726C246.658 73.3875 232.241 58.9699 214.456 58.9699C196.671 58.9699 182.253 73.3875 182.253 91.1726C182.253 108.958 196.671 123.375 214.456 123.375Z" fill="#290D30"/>
<path opacity="0.36" d="M211.932 38.3217C209.704 36.2984 206.695 33.1156 206.593 30.5723C206.439 26.5171 209.605 23.1042 213.654 22.9564C217.709 22.8029 221.117 25.9601 221.27 30.0181C221.372 32.5615 218.605 35.9602 216.536 38.1512C215.302 39.4527 213.262 39.5266 211.932 38.3189V38.3217Z" fill="#EFD8D6"/>
<path d="M212.722 37.7704C210.489 35.7357 207.473 32.5388 207.348 30.0068C207.161 25.9658 210.278 22.5926 214.299 22.4818C218.329 22.3653 221.742 25.5395 221.927 29.5805C222.049 32.1153 219.329 35.4771 217.294 37.6425C216.081 38.927 214.052 38.9838 212.722 37.7704Z" fill="#DDDDDD"/>
<path d="M217.297 37.6425C219.332 35.4771 222.055 32.1153 221.929 29.5805C221.742 25.5395 218.332 22.3653 214.302 22.4818C214.271 22.4818 214.24 22.4846 214.208 22.4875C214.243 27.8101 213.595 33.3771 214.572 38.6201C215.555 38.7366 216.57 38.4126 217.295 37.6454L217.297 37.6425Z" fill="#BCBCBC"/>
<path d="M214.208 22.4847C210.233 22.6438 207.166 25.9942 207.351 30.0039C207.473 32.5359 210.491 35.7357 212.725 37.7676C213.262 38.2564 213.91 38.5348 214.575 38.6144C213.597 33.3742 214.242 27.8044 214.211 22.4818L214.208 22.4847Z" fill="#999999"/>
<path d="M221.997 28.9496C221.722 31.4134 219.204 34.4854 217.286 36.5144C217.002 36.8127 216.678 37.0458 216.328 37.2163C216.402 37.1538 216.47 37.0856 216.538 37.0145C218.457 34.9855 220.974 31.9136 221.25 29.4498C221.273 29.2565 221.281 29.0661 221.273 28.8814C221.119 24.8263 217.712 21.6691 213.657 21.8197C212.421 21.8652 211.267 22.2147 210.264 22.7944C211.421 21.9163 212.847 21.3764 214.404 21.3195C218.46 21.1689 221.867 24.3261 222.02 28.3813C222.029 28.566 222.02 28.7564 221.997 28.9496Z" fill="#BD514A"/>
<path d="M221.25 29.4498C220.975 31.9136 218.457 34.9855 216.539 37.0145C216.47 37.0856 216.402 37.1538 216.328 37.2163H216.325C215.152 37.7818 213.705 37.6113 212.682 36.6849C210.506 34.7099 207.584 31.6266 207.354 29.1145C207.348 29.0548 207.346 28.9951 207.343 28.9354C207.249 26.4432 208.408 24.1925 210.258 22.7972C210.261 22.7972 210.264 22.7944 210.264 22.7944C211.267 22.2147 212.421 21.8652 213.657 21.8197C217.712 21.6691 221.119 24.8263 221.273 28.8814C221.281 29.0661 221.273 29.2565 221.25 29.4498V29.4498Z" fill="#FC6C63"/>
<path d="M221.25 29.4498C220.975 31.9136 218.457 34.9855 216.539 37.0145C216.47 37.0856 216.402 37.1538 216.328 37.2163H216.325C215.152 37.7818 213.705 37.6113 212.682 36.6849C210.506 34.7099 207.584 31.6266 207.354 29.1145C207.348 29.0548 207.346 28.9951 207.343 28.9354C207.249 26.4432 208.408 24.1925 210.258 22.7972C210.261 22.7972 210.264 22.7944 210.264 22.7944C211.267 22.2147 212.421 21.8652 213.657 21.8197C217.712 21.6691 221.119 24.8263 221.273 28.8814C221.281 29.0661 221.273 29.2565 221.25 29.4498V29.4498Z" fill="#FC6C63"/>
</g>
<path d="M387.012 184.478H42.0117C63.0426 181.913 82.6963 177.305 100.261 171.045C148.426 154.982 181.463 126.092 184.474 93.3162H184.527C185.431 78.3484 198.507 66.4781 214.512 66.4781C230.516 66.4781 243.593 78.3484 244.497 93.3162H244.549C247.561 126.092 280.597 154.982 328.763 171.045C346.327 177.305 365.981 181.913 387.012 184.478Z" fill="white"/>
<path opacity="0.25" d="M213.914 127.786C229.876 127.786 242.816 114.957 242.816 99.132C242.816 83.3069 229.876 70.4781 213.914 70.4781C197.952 70.4781 185.012 83.3069 185.012 99.132C185.012 114.957 197.952 127.786 213.914 127.786Z" fill="url(#paint0_radial_142_5)"/>
<path d="M231.365 96.9098C231.365 96.9703 231.365 97.0342 231.362 97.0947C231.237 89.9068 223.687 84.1108 214.396 84.1108C205.104 84.1108 197.554 89.9068 197.43 97.0947C197.426 97.0342 197.426 96.9703 197.426 96.9098C197.426 89.6379 205.023 83.741 214.396 83.741C223.768 83.741 231.365 89.6379 231.365 96.9098Z" fill="white"/>
<path d="M231.365 97.2796C231.365 104.555 223.768 110.448 214.396 110.448C205.023 110.448 197.426 104.555 197.426 97.2796C197.426 97.2191 197.426 97.1552 197.43 97.0947C197.554 89.9068 205.104 84.1108 214.396 84.1108C223.687 84.1108 231.237 89.9068 231.362 97.0947C231.365 97.1552 231.365 97.2191 231.365 97.2796V97.2796Z" fill="#3A1643"/>
<path opacity="0.7" d="M230.378 100.847C230.378 109.251 216.363 147.675 214.396 147.675C212.644 147.675 198.413 109.251 198.413 100.847C198.413 92.4417 205.569 85.6271 214.396 85.6271C223.222 85.6271 230.378 92.4417 230.378 100.847Z" fill="#F29271"/>
<path opacity="0.8" d="M230.86 98.0226C231.894 105.92 222.707 143.5 220.753 143.708C219.014 143.893 200.148 109.295 199.114 101.398C198.08 93.5007 204.346 86.3432 213.112 85.4085C221.878 84.4773 229.825 90.122 230.86 98.0192V98.0226Z" fill="#E43E0C"/>
<path opacity="0.8" d="M229.92 100.352C228.757 107.416 209.581 137.852 207.634 137.593C205.903 137.361 197.137 103.193 198.299 96.1298C199.461 89.0663 207.483 84.2857 216.215 85.4523C224.947 86.6189 231.085 93.2889 229.923 100.352H229.92Z" fill="#FB5C25"/>
<defs>
<radialGradient id="paint0_radial_142_5" cx="0" cy="0" r="1" gradientUnits="userSpaceOnUse" gradientTransform="translate(213.914 99.132) scale(28.8077 28.748)">
<stop stop-color="#FB5C25" stop-opacity="0.8"/>
<stop offset="0.44" stop-color="#FA5E27" stop-opacity="0.79"/>
<stop offset="0.6" stop-color="#FA6532" stop-opacity="0.77"/>
<stop offset="0.71" stop-color="#F87244" stop-opacity="0.72"/>
<stop offset="0.8" stop-color="#F7845E" stop-opacity="0.66"/>
<stop offset="0.88" stop-color="#F49C80" stop-opacity="0.57"/>
<stop offset="0.94" stop-color="#F2B8A9" stop-opacity="0.47"/>
<stop offset="1" stop-color="#EFD8D6" stop-opacity="0.36"/>
</radialGradient>
<clipPath id="clip0_142_5">
<rect width="100.933" height="125" fill="white" transform="translate(164.012 0.478149)"/>
</clipPath>
</defs>
</svg>
