<svg width="1728" height="1117" viewBox="0 0 1728 1117" fill="none" xmlns="http://www.w3.org/2000/svg">
<rect width="1728" height="1117" fill="url(#paint0_linear_142_6)"/>
<mask id="mask0_142_6" style="mask-type:alpha" maskUnits="userSpaceOnUse" x="-4" y="0" width="1728" height="1117">
<rect x="-4" width="1728" height="1117" fill="#D9D9D9"/>
</mask>
<g mask="url(#mask0_142_6)">
<path d="M1949.97 536.603C1938.23 507.034 2007.54 283.056 1865 239.458C1685.57 184.583 1370.01 413.781 1343.23 437.362C1184.16 577.506 1202.47 671.508 1071 731.458C936.379 792.852 875.957 711.334 736.497 782.449C615.499 844.158 631.547 959.063 524.478 976.419C413.776 994.373 365.7 900.274 235.77 906.5C94.6416 913.266 -59.6028 1046 -48.4266 1141.07C-30.6079 1292.57 408.025 1354.58 684.62 1393.68C1199.4 1466.46 1456.79 1502.86 1677.05 1339.55C1921.08 1158.64 2052.33 794.561 1949.97 536.603Z" fill="#4B2056" fill-opacity="0.7"/>
<path d="M1965.87 997.641C1953.76 974.841 2025.25 802.139 1878.22 768.522C1693.15 726.209 1367.66 902.937 1340.04 921.119C1175.96 1029.18 1194.85 1101.66 1059.24 1147.89C920.384 1195.23 858.06 1132.37 714.213 1187.2C589.408 1234.79 605.961 1323.39 495.522 1336.77C381.337 1350.61 331.748 1278.06 197.73 1282.86C52.1612 1288.07 -106.936 1390.42 -95.4086 1463.73C-77.0292 1580.54 375.405 1628.36 660.703 1658.51C1191.68 1714.63 1457.17 1742.69 1684.36 1616.77C1936.07 1477.27 2071.45 1196.54 1965.87 997.641Z" fill="#532160"/>
<path d="M461.212 628.594C563.212 612.048 547.924 502.587 663.194 443.795C796.051 376.032 874.448 478.638 1002.7 420.158C1132.45 360.99 1101.63 233.403 1241.21 115.025C1409.7 -27.8937 1608.93 27.1592 1612.94 -9.60723C1621.1 -84.6979 803.55 -440.78 194.477 -93.2502C106.099 -42.8173 -95.0343 75.7764 -166.512 304.282C-234.445 521.464 -164.74 772.232 -84.5699 785.458C-7.49439 798.168 30.8392 583.307 186.172 561.98C302.312 546.036 350.218 646.59 461.212 628.594Z" fill="#150718" fill-opacity="0.5"/>
<g opacity="0.5">
<path d="M293.514 148.657C296.882 148.657 299.612 145.927 299.612 142.56C299.612 139.193 296.882 136.464 293.514 136.464C290.146 136.464 287.416 139.193 287.416 142.56C287.416 145.927 290.146 148.657 293.514 148.657Z" fill="white"/>
<path d="M212.144 331.529C212.82 328.231 210.694 325.009 207.395 324.333C204.096 323.657 200.873 325.783 200.197 329.082C199.521 332.38 201.647 335.602 204.947 336.278C208.246 336.954 211.468 334.828 212.144 331.529Z" fill="white"/>
<path d="M209.223 555.845C209.223 559.207 206.488 561.942 203.126 561.942C199.763 561.942 197.028 559.207 197.028 555.845C197.028 552.483 199.763 549.749 203.126 549.749C206.488 549.749 209.223 552.483 209.223 555.845Z" fill="white"/>
<path d="M279.957 697.62C279.957 700.982 277.222 703.717 273.859 703.717C270.497 703.717 267.762 700.982 267.762 697.62C267.762 694.258 270.497 691.523 273.859 691.523C277.222 691.523 279.957 694.258 279.957 697.62Z" fill="white"/>
<path d="M525.112 864.267C527.493 861.886 527.493 858.026 525.112 855.645C522.731 853.264 518.87 853.264 516.488 855.645C514.107 858.026 514.107 861.886 516.488 864.267C518.87 866.648 522.731 866.648 525.112 864.267Z" fill="white"/>
<path d="M610.286 1018.85C612.668 1016.47 612.668 1012.61 610.286 1010.23C607.905 1007.85 604.044 1007.85 601.663 1010.23C599.282 1012.61 599.282 1016.47 601.663 1018.85C604.044 1021.23 607.905 1021.23 610.286 1018.85Z" fill="white"/>
<path d="M570.269 1082.02C571.04 1078.75 569.008 1075.46 565.73 1074.69C562.452 1073.92 559.169 1075.95 558.397 1079.23C557.626 1082.51 559.658 1085.79 562.937 1086.56C566.215 1087.33 569.497 1085.3 570.269 1082.02Z" fill="white"/>
<path d="M970.931 1097.71C970.931 1101.07 968.196 1103.8 964.833 1103.8C961.471 1103.8 958.735 1101.07 958.735 1097.71C958.735 1094.34 961.471 1091.61 964.833 1091.61C968.196 1091.61 970.931 1094.34 970.931 1097.71Z" fill="white"/>
<path d="M1061.01 718.361C1064.38 718.361 1067.11 715.631 1067.11 712.264C1067.11 708.897 1064.38 706.167 1061.01 706.167C1057.64 706.167 1054.91 708.897 1054.91 712.264C1054.91 715.631 1057.64 718.361 1061.01 718.361Z" fill="white"/>
<path d="M1092.38 347.256C1094.76 344.875 1094.76 341.015 1092.38 338.634C1090 336.253 1086.14 336.253 1083.76 338.634C1081.37 341.015 1081.37 344.875 1083.76 347.256C1086.14 349.637 1090 349.637 1092.38 347.256Z" fill="white"/>
<path d="M1197.99 323.153C1197.99 326.515 1195.26 329.249 1191.89 329.249C1188.53 329.249 1185.8 326.515 1185.8 323.153C1185.8 319.791 1188.53 317.056 1191.89 317.056C1195.26 317.056 1197.99 319.791 1197.99 323.153Z" fill="white"/>
<path d="M1421.21 394.872C1421.45 391.513 1418.92 388.597 1415.56 388.358C1412.2 388.119 1409.28 390.648 1409.04 394.006C1408.81 397.365 1411.33 400.281 1414.69 400.52C1418.05 400.759 1420.97 398.23 1421.21 394.872Z" fill="white"/>
<path d="M1440.65 586.992C1440.65 590.354 1437.91 593.088 1434.55 593.088C1431.19 593.088 1428.45 590.354 1428.45 586.992C1428.45 583.63 1431.19 580.895 1434.55 580.895C1437.91 580.895 1440.65 583.63 1440.65 586.992Z" fill="white"/>
<path d="M650.836 511.592C653.217 509.211 653.217 505.351 650.836 502.97C648.455 500.589 644.594 500.589 642.212 502.97C639.831 505.351 639.831 509.211 642.212 511.592C644.594 513.973 648.455 513.973 650.836 511.592Z" fill="white"/>
<path d="M602.509 456.949C602.509 460.311 599.774 463.045 596.412 463.045C593.049 463.045 590.314 460.311 590.314 456.949C590.314 453.586 593.049 450.852 596.412 450.852C599.774 450.852 602.509 453.586 602.509 456.949Z" fill="white"/>
<path d="M899.87 390.878C902.251 388.497 902.251 384.637 899.87 382.256C897.488 379.875 893.628 379.875 891.246 382.256C888.865 384.637 888.865 388.497 891.246 390.878C893.628 393.259 897.488 393.259 899.87 390.878Z" fill="white"/>
<path d="M1256.06 368.008C1256.06 371.37 1253.32 374.105 1249.96 374.105C1246.6 374.105 1243.86 371.37 1243.86 368.008C1243.86 364.646 1246.6 361.911 1249.96 361.911C1253.32 361.911 1256.06 364.646 1256.06 368.008Z" fill="white"/>
<path d="M1560.74 458.476C1560.74 461.838 1558.01 464.572 1554.64 464.572C1551.28 464.572 1548.55 461.838 1548.55 458.476C1548.55 455.114 1551.28 452.379 1554.64 452.379C1558.01 452.379 1560.74 455.114 1560.74 458.476Z" fill="white"/>
<path d="M1625.33 424.512C1625.33 427.874 1622.59 430.608 1619.23 430.608C1615.87 430.608 1613.13 427.874 1613.13 424.512C1613.13 421.15 1615.87 418.415 1619.23 418.415C1622.59 418.415 1625.33 421.15 1625.33 424.512Z" fill="white"/>
<path d="M1616.38 401.732C1618.76 399.351 1618.76 395.491 1616.38 393.11C1614 390.729 1610.14 390.729 1607.76 393.11C1605.38 395.491 1605.38 399.351 1607.76 401.732C1610.14 404.113 1614 404.113 1616.38 401.732Z" fill="white"/>
<path d="M1505.49 494.405C1505.49 497.767 1502.76 500.501 1499.4 500.501C1496.03 500.501 1493.3 497.767 1493.3 494.405C1493.3 491.043 1496.03 488.308 1499.4 488.308C1502.76 488.308 1505.49 491.043 1505.49 494.405Z" fill="white"/>
<path d="M1402.79 690.967C1402.79 694.329 1400.06 697.064 1396.69 697.064C1393.33 697.064 1390.6 694.329 1390.6 690.967C1390.6 687.605 1393.33 684.87 1396.69 684.87C1400.06 684.87 1402.79 687.605 1402.79 690.967Z" fill="white"/>
<path d="M1127.59 696.993C1127.59 700.355 1124.85 703.089 1121.49 703.089C1118.13 703.089 1115.39 700.355 1115.39 696.993C1115.39 693.631 1118.13 690.896 1121.49 690.896C1124.85 690.896 1127.59 693.631 1127.59 696.993Z" fill="white"/>
</g>
<g style="mix-blend-mode:overlay">
<path d="M900.695 588.211C903.939 588.211 906.568 585.582 906.568 582.339C906.568 579.096 903.939 576.467 900.695 576.467C897.452 576.467 894.823 579.096 894.823 582.339C894.823 585.582 897.452 588.211 900.695 588.211Z" fill="white"/>
<path d="M776.954 477.772C780.111 477.027 782.066 473.865 781.321 470.708C780.576 467.552 777.413 465.598 774.256 466.342C771.1 467.087 769.145 470.25 769.89 473.406C770.635 476.562 773.798 478.517 776.954 477.772Z" fill="white"/>
<path d="M760.815 513.63C760.815 516.874 758.186 519.502 754.942 519.502C751.698 519.502 749.069 516.874 749.069 513.63C749.069 510.386 751.698 507.758 754.942 507.758C758.186 507.758 760.815 510.386 760.815 513.63Z" fill="white"/>
<path d="M722.156 665.515C722.156 668.758 719.528 671.386 716.283 671.386C713.039 671.386 710.411 668.758 710.411 665.515C710.411 662.271 713.039 659.643 716.283 659.643C719.528 659.643 722.156 662.271 722.156 665.515Z" fill="white"/>
<path d="M736.578 733.75C739.821 733.75 742.45 731.121 742.45 727.878C742.45 724.636 739.821 722.007 736.578 722.007C733.334 722.007 730.705 724.636 730.705 727.878C730.705 731.121 733.334 733.75 736.578 733.75Z" fill="white"/>
<path d="M880.938 821.6C881.683 818.444 879.728 815.281 876.571 814.536C873.414 813.792 870.252 815.746 869.506 818.902C868.761 822.059 870.716 825.221 873.873 825.966C877.03 826.711 880.193 824.756 880.938 821.6Z" fill="white"/>
<path d="M1098.74 884.287C1099.49 881.13 1097.53 877.968 1094.38 877.223C1091.22 876.478 1088.06 878.433 1087.31 881.589C1086.57 884.745 1088.52 887.908 1091.68 888.653C1094.84 889.398 1098 887.443 1098.74 884.287Z" fill="white"/>
<path d="M1265.75 862.135C1266.26 858.934 1264.09 855.918 1260.89 855.399C1257.69 854.879 1254.67 857.053 1254.15 860.254C1253.63 863.455 1255.81 866.471 1259.01 866.99C1262.21 867.51 1265.23 865.336 1265.75 862.135Z" fill="white"/>
<path d="M1292.81 763.973C1292.81 767.217 1290.18 769.845 1286.94 769.845C1283.69 769.845 1281.06 767.217 1281.06 763.973C1281.06 760.73 1283.69 758.102 1286.94 758.102C1290.18 758.102 1292.81 760.73 1292.81 763.973Z" fill="white"/>
<path d="M1086.01 565.184C1086.53 561.983 1084.35 558.967 1081.15 558.447C1077.95 557.928 1074.93 560.101 1074.41 563.302C1073.89 566.503 1076.07 569.52 1079.27 570.039C1082.47 570.559 1085.49 568.385 1086.01 565.184Z" fill="white"/>
<path d="M920.137 447.075C923.381 447.075 926.01 444.447 926.01 441.204C926.01 437.961 923.381 435.332 920.137 435.332C916.894 435.332 914.264 437.961 914.264 441.204C914.264 444.447 916.894 447.075 920.137 447.075Z" fill="white"/>
<path d="M927.49 387.884C927.49 391.128 924.861 393.756 921.617 393.756C918.373 393.756 915.744 391.128 915.744 387.884C915.744 384.641 918.373 382.012 921.617 382.012C924.861 382.012 927.49 384.641 927.49 387.884Z" fill="white"/>
<path d="M1007.99 322.178C1008.74 319.022 1006.78 315.859 1003.63 315.114C1000.47 314.369 997.308 316.324 996.563 319.48C995.818 322.636 997.773 325.799 1000.93 326.544C1004.09 327.289 1007.25 325.334 1007.99 322.178Z" fill="white"/>
<path d="M1044.61 286.099C1047.86 286.099 1050.49 283.47 1050.49 280.227C1050.49 276.984 1047.86 274.355 1044.61 274.355C1041.37 274.355 1038.74 276.984 1038.74 280.227C1038.74 283.47 1041.37 286.099 1044.61 286.099Z" fill="white"/>
<path d="M1076.71 267.596C1076.71 270.839 1074.08 273.468 1070.84 273.468C1067.6 273.468 1064.97 270.839 1064.97 267.596C1064.97 264.352 1067.6 261.724 1070.84 261.724C1074.08 261.724 1076.71 264.352 1076.71 267.596Z" fill="white"/>
<path d="M1081.83 279.6C1085.07 279.6 1087.7 276.971 1087.7 273.728C1087.7 270.485 1085.07 267.856 1081.83 267.856C1078.58 267.856 1075.95 270.485 1075.95 273.728C1075.95 276.971 1078.58 279.6 1081.83 279.6Z" fill="white"/>
<path d="M1349.68 191.535C1349.68 194.779 1347.05 197.407 1343.81 197.407C1340.56 197.407 1337.93 194.779 1337.93 191.535C1337.93 188.291 1340.56 185.663 1343.81 185.663C1347.05 185.663 1349.68 188.291 1349.68 191.535V191.535Z" fill="white"/>
<path d="M1503 305.845C1506.24 305.845 1508.87 303.216 1508.87 299.973C1508.87 296.731 1506.24 294.102 1503 294.102C1499.75 294.102 1497.12 296.731 1497.12 299.973C1497.12 303.216 1499.75 305.845 1503 305.845Z" fill="white"/>
<path d="M1671.59 534.785C1671.59 538.029 1668.96 540.657 1665.72 540.657C1662.47 540.657 1659.85 538.029 1659.85 534.785C1659.85 531.541 1662.47 528.913 1665.72 528.913C1668.96 528.913 1671.59 531.541 1671.59 534.785Z" fill="white"/>
<path d="M1726.14 721.344C1729.38 721.344 1732.01 718.715 1732.01 715.472C1732.01 712.229 1729.38 709.6 1726.14 709.6C1722.9 709.6 1720.27 712.229 1720.27 715.472C1720.27 718.715 1722.9 721.344 1726.14 721.344Z" fill="white"/>
<path d="M1704.93 881.146C1707.93 879.905 1709.35 876.47 1708.11 873.474C1706.87 870.478 1703.43 869.055 1700.44 870.296C1697.44 871.537 1696.02 874.972 1697.26 877.968C1698.5 880.964 1701.93 882.387 1704.93 881.146Z" fill="white"/>
<path d="M1569.5 1027.45C1569.5 1030.69 1566.88 1033.32 1563.63 1033.32C1560.39 1033.32 1557.76 1030.69 1557.76 1027.45C1557.76 1024.2 1560.39 1021.57 1563.63 1021.57C1566.88 1021.57 1569.5 1024.2 1569.5 1027.45Z" fill="white"/>
<path d="M1431.36 1117.57C1434.61 1117.57 1437.24 1114.94 1437.24 1111.7C1437.24 1108.46 1434.61 1105.83 1431.36 1105.83C1428.12 1105.83 1425.49 1108.46 1425.49 1111.7C1425.49 1114.94 1428.12 1117.57 1431.36 1117.57Z" fill="white"/>
<path d="M620.295 1027.22C620.295 1030.46 617.666 1033.09 614.422 1033.09C611.178 1033.09 608.549 1030.46 608.549 1027.22C608.549 1023.98 611.178 1021.35 614.422 1021.35C617.666 1021.35 620.295 1023.98 620.295 1027.22Z" fill="white"/>
<path d="M498.944 920.629C498.944 923.872 496.315 926.501 493.071 926.501C489.827 926.501 487.198 923.872 487.198 920.629C487.198 917.385 489.827 914.757 493.071 914.757C496.315 914.757 498.944 917.385 498.944 920.629Z" fill="white"/>
<path d="M284.303 731.572C287.547 731.572 290.176 728.943 290.176 725.7C290.176 722.457 287.547 719.828 284.303 719.828C281.06 719.828 278.431 722.457 278.431 725.7C278.431 728.943 281.06 731.572 284.303 731.572Z" fill="white"/>
<path d="M176.178 486.982C179.422 486.982 182.051 484.353 182.051 481.11C182.051 477.867 179.422 475.239 176.178 475.239C172.935 475.239 170.305 477.867 170.305 481.11C170.305 484.353 172.935 486.982 176.178 486.982Z" fill="white"/>
<path d="M140.681 269.727C140.681 272.97 138.053 275.598 134.808 275.598C131.564 275.598 128.936 272.97 128.936 269.727C128.936 266.483 131.564 263.855 134.808 263.855C138.053 263.855 140.681 266.483 140.681 269.727Z" fill="white"/>
<path d="M172.873 113.061C176.03 112.318 177.987 109.157 177.244 106.001C176.501 102.844 173.34 100.887 170.183 101.63C167.025 102.373 165.068 105.534 165.811 108.69C166.554 111.847 169.715 113.804 172.873 113.061Z" fill="white"/>
<path d="M243.027 62.1506C246.026 60.9154 247.456 57.4833 246.22 54.4849C244.985 51.4865 241.552 50.0572 238.553 51.2924C235.554 52.5277 234.125 55.9597 235.36 58.9581C236.596 61.9565 240.028 63.3859 243.027 62.1506Z" fill="white"/>
<path d="M473.511 121.903C473.511 125.146 470.882 127.774 467.638 127.774C464.394 127.774 461.765 125.146 461.765 121.903C461.765 118.659 464.394 116.031 467.638 116.031C470.882 116.031 473.511 118.659 473.511 121.903Z" fill="white"/>
<path d="M702.272 176.259C705.269 175.018 706.692 171.584 705.45 168.588C704.209 165.592 700.774 164.169 697.777 165.41C694.781 166.651 693.358 170.086 694.599 173.082C695.84 176.078 699.276 177.5 702.272 176.259Z" fill="white"/>
<path d="M605.041 344.665C608.04 343.429 609.469 339.997 608.234 336.999C606.998 334 603.566 332.571 600.567 333.806C597.568 335.042 596.138 338.474 597.374 341.472C598.609 344.47 602.042 345.9 605.041 344.665Z" fill="white"/>
<path d="M199.669 623.536C202.913 623.536 205.542 620.907 205.542 617.664C205.542 614.422 202.913 611.793 199.669 611.793C196.426 611.793 193.797 614.422 193.797 617.664C193.797 620.907 196.426 623.536 199.669 623.536Z" fill="white"/>
<path d="M69.1305 786.951C69.1305 790.195 66.5019 792.823 63.2577 792.823C60.0135 792.823 57.3849 790.195 57.3849 786.951C57.3849 783.708 60.0135 781.08 63.2577 781.08C66.5019 781.08 69.1305 783.708 69.1305 786.951Z" fill="white"/>
<path d="M104.462 883.978C104.462 887.221 101.833 889.849 98.589 889.849C95.3448 889.849 92.7162 887.221 92.7162 883.978C92.7162 880.734 95.3448 878.106 98.589 878.106C101.833 878.106 104.462 880.734 104.462 883.978Z" fill="white"/>
<path d="M258.297 979.06C260.59 976.767 260.59 973.049 258.297 970.756C256.003 968.463 252.285 968.463 249.991 970.756C247.698 973.049 247.698 976.767 249.991 979.06C252.285 981.353 256.003 981.353 258.297 979.06Z" fill="white"/>
<path d="M212.165 1064.68C212.428 1061.45 210.02 1058.62 206.787 1058.35C203.554 1058.09 200.721 1060.5 200.458 1063.73C200.195 1066.96 202.602 1069.79 205.835 1070.06C209.068 1070.32 211.902 1067.91 212.165 1064.68Z" fill="white"/>
<path d="M1154.36 929.046C1157.6 929.046 1160.23 926.417 1160.23 923.174C1160.23 919.931 1157.6 917.302 1154.36 917.302C1151.12 917.302 1148.49 919.931 1148.49 923.174C1148.49 926.417 1151.12 929.046 1154.36 929.046Z" fill="white"/>
<path d="M771.813 821.787C772.081 818.555 769.677 815.718 766.445 815.451C763.212 815.183 760.375 817.587 760.108 820.818C759.84 824.05 762.244 826.887 765.476 827.154C768.708 827.422 771.546 825.019 771.813 821.787Z" fill="white"/>
<path d="M545.417 734.39C548.66 734.39 551.289 731.761 551.289 728.518C551.289 725.275 548.66 722.646 545.417 722.646C542.173 722.646 539.544 725.275 539.544 728.518C539.544 731.761 542.173 734.39 545.417 734.39Z" fill="white"/>
<path d="M373.493 560.365C373.655 557.126 371.159 554.369 367.92 554.208C364.68 554.047 361.924 556.542 361.762 559.781C361.601 563.02 364.096 565.776 367.336 565.937C370.575 566.098 373.332 563.603 373.493 560.365Z" fill="white"/>
<path d="M472.99 475.831C472.99 479.074 470.361 481.702 467.117 481.702C463.873 481.702 461.244 479.074 461.244 475.831C461.244 472.587 463.873 469.959 467.117 469.959C470.361 469.959 472.99 472.587 472.99 475.831Z" fill="white"/>
<path d="M820.655 336.116C820.655 339.359 818.027 341.987 814.783 341.987C811.538 341.987 808.91 339.359 808.91 336.116C808.91 332.872 811.538 330.244 814.783 330.244C818.027 330.244 820.655 332.872 820.655 336.116Z" fill="white"/>
<path d="M972.116 264.968C975.359 264.968 977.989 262.339 977.989 259.096C977.989 255.853 975.359 253.224 972.116 253.224C968.872 253.224 966.243 255.853 966.243 259.096C966.243 262.339 968.872 264.968 972.116 264.968Z" fill="white"/>
<path d="M964.68 125.572C967.924 125.572 970.553 122.944 970.553 119.701C970.553 116.458 967.924 113.829 964.68 113.829C961.437 113.829 958.807 116.458 958.807 119.701C958.807 122.944 961.437 125.572 964.68 125.572Z" fill="white"/>
<path d="M850.294 47.342C850.562 44.1101 848.158 41.2734 844.926 41.006C841.694 40.7386 838.856 43.1417 838.589 46.3736C838.321 49.6054 840.725 52.4422 843.957 52.7096C847.19 52.977 850.027 50.5738 850.294 47.342Z" fill="white"/>
<path d="M975.384 104.808C978.627 104.808 981.257 102.179 981.257 98.9363C981.257 95.6935 978.627 93.0646 975.384 93.0646C972.14 93.0646 969.511 95.6935 969.511 98.9363C969.511 102.179 972.14 104.808 975.384 104.808Z" fill="white"/>
<path d="M1249.06 251.625C1251.35 249.332 1251.35 245.615 1249.06 243.322C1246.76 241.029 1243.05 241.028 1240.75 243.322C1238.46 245.615 1238.46 249.332 1240.75 251.625C1243.05 253.919 1246.76 253.919 1249.06 251.625Z" fill="white"/>
<path d="M1208.57 547.878C1211.81 547.878 1214.44 545.249 1214.44 542.006C1214.44 538.763 1211.81 536.135 1208.57 536.135C1205.32 536.135 1202.69 538.763 1202.69 542.006C1202.69 545.249 1205.32 547.878 1208.57 547.878Z" fill="white"/>
<path d="M1060.04 840.365C1060.04 843.609 1057.41 846.237 1054.17 846.237C1050.92 846.237 1048.3 843.609 1048.3 840.365C1048.3 837.122 1050.92 834.494 1054.17 834.494C1057.41 834.494 1060.04 837.122 1060.04 840.365Z" fill="white"/>
<path d="M1191.87 940.612C1191.87 943.855 1189.24 946.484 1186 946.484C1182.75 946.484 1180.13 943.855 1180.13 940.612C1180.13 937.368 1182.75 934.74 1186 934.74C1189.24 934.74 1191.87 937.368 1191.87 940.612Z" fill="white"/>
<path d="M1406.85 651.504C1409.84 650.263 1411.27 646.828 1410.03 643.832C1408.78 640.836 1405.35 639.414 1402.35 640.655C1399.36 641.896 1397.93 645.33 1399.17 648.326C1400.42 651.322 1403.85 652.745 1406.85 651.504Z" fill="white"/>
<path d="M1455.64 269.277C1458.88 269.277 1461.51 266.648 1461.51 263.405C1461.51 260.162 1458.88 257.533 1455.64 257.533C1452.39 257.533 1449.76 260.162 1449.76 263.405C1449.76 266.648 1452.39 269.277 1455.64 269.277Z" fill="white"/>
<path d="M1468.14 237.408C1468.14 240.652 1465.51 243.28 1462.27 243.28C1459.02 243.28 1456.39 240.652 1456.39 237.408C1456.39 234.165 1459.02 231.537 1462.27 231.537C1465.51 231.537 1468.14 234.165 1468.14 237.408Z" fill="white"/>
<path d="M1545.21 169.45C1545.95 166.294 1544 163.132 1540.84 162.387C1537.68 161.642 1534.52 163.597 1533.77 166.753C1533.03 169.909 1534.98 173.071 1538.14 173.816C1541.3 174.561 1544.46 172.607 1545.21 169.45Z" fill="white"/>
<path d="M1573.48 162.622C1573.75 159.39 1571.34 156.553 1568.11 156.286C1564.88 156.019 1562.04 158.422 1561.77 161.654C1561.51 164.886 1563.91 167.722 1567.14 167.99C1570.38 168.257 1573.21 165.854 1573.48 162.622Z" fill="white"/>
<path d="M1616.65 249.27C1619.9 249.27 1622.53 246.641 1622.53 243.398C1622.53 240.156 1619.9 237.527 1616.65 237.527C1613.41 237.527 1610.78 240.156 1610.78 243.398C1610.78 246.641 1613.41 249.27 1616.65 249.27Z" fill="white"/>
<path d="M1672.47 428.288C1674.76 425.995 1674.76 422.277 1672.47 419.984C1670.17 417.691 1666.46 417.691 1664.16 419.984C1661.87 422.277 1661.87 425.995 1664.16 428.288C1666.46 430.581 1670.17 430.581 1672.47 428.288Z" fill="white"/>
<path d="M1513.3 589.655C1516.54 589.655 1519.17 587.026 1519.17 583.783C1519.17 580.541 1516.54 577.912 1513.3 577.912C1510.06 577.912 1507.43 580.541 1507.43 583.783C1507.43 587.026 1510.06 589.655 1513.3 589.655Z" fill="white"/>
<path d="M1443.26 697.667C1443.26 700.911 1440.64 703.539 1437.39 703.539C1434.15 703.539 1431.52 700.911 1431.52 697.667C1431.52 694.424 1434.15 691.796 1437.39 691.796C1440.64 691.796 1443.26 694.424 1443.26 697.667Z" fill="white"/>
<path d="M1535.21 830.836C1535.21 834.079 1532.59 836.708 1529.34 836.708C1526.1 836.708 1523.47 834.079 1523.47 830.836C1523.47 827.592 1526.1 824.964 1529.34 824.964C1532.59 824.964 1535.21 827.592 1535.21 830.836Z" fill="white"/>
<path d="M1445.3 935.959C1445.3 939.203 1442.67 941.831 1439.43 941.831C1436.18 941.831 1433.55 939.203 1433.55 935.959C1433.55 932.716 1436.18 930.088 1439.43 930.088C1442.67 930.088 1445.3 932.716 1445.3 935.959Z" fill="white"/>
<path d="M1040.92 972.622C1044.16 972.622 1046.79 969.993 1046.79 966.751C1046.79 963.508 1044.16 960.879 1040.92 960.879C1037.68 960.879 1035.05 963.508 1035.05 966.751C1035.05 969.993 1037.68 972.622 1040.92 972.622Z" fill="white"/>
<path d="M792.606 925.281C795.849 925.281 798.479 922.652 798.479 919.409C798.479 916.167 795.849 913.538 792.606 913.538C789.362 913.538 786.733 916.167 786.733 919.409C786.733 922.652 789.362 925.281 792.606 925.281Z" fill="white"/>
<path d="M586.064 952.367C586.064 955.611 583.436 958.239 580.192 958.239C576.947 958.239 574.319 955.611 574.319 952.367C574.319 949.123 576.947 946.495 580.192 946.495C583.436 946.495 586.064 949.123 586.064 952.367Z" fill="white"/>
<path d="M302.407 1055.76C302.407 1059.01 299.779 1061.63 296.534 1061.63C293.29 1061.63 290.662 1059.01 290.662 1055.76C290.662 1052.52 293.29 1049.89 296.534 1049.89C299.779 1049.89 302.407 1052.52 302.407 1055.76Z" fill="white"/>
<path d="M134.56 1006.04C134.56 1009.29 131.931 1011.91 128.687 1011.91C125.443 1011.91 122.814 1009.29 122.814 1006.04C122.814 1002.8 125.443 1000.17 128.687 1000.17C131.931 1000.17 134.56 1002.8 134.56 1006.04Z" fill="white"/>
<path d="M80.1892 993.055C83.4327 993.055 86.062 990.426 86.062 987.183C86.062 983.941 83.4327 981.312 80.1892 981.312C76.9458 981.312 74.3165 983.941 74.3165 987.183C74.3165 990.426 76.9458 993.055 80.1892 993.055Z" fill="white"/>
<path d="M79.3742 968.452C79.8922 965.251 77.7166 962.236 74.5148 961.718C71.313 961.2 68.2975 963.375 67.7795 966.577C67.2615 969.778 69.4372 972.793 72.639 973.311C75.8408 973.829 78.8562 971.653 79.3742 968.452Z" fill="white"/>
<path d="M17.7201 953.054C20.9635 953.054 23.5928 950.425 23.5928 947.182C23.5928 943.939 20.9635 941.31 17.7201 941.31C14.4766 941.31 11.8473 943.939 11.8473 947.182C11.8473 950.425 14.4766 953.054 17.7201 953.054Z" fill="white"/>
</g>
</g>
<defs>
<linearGradient id="paint0_linear_142_6" x1="864" y1="0" x2="864" y2="1117" gradientUnits="userSpaceOnUse">
<stop offset="0.723958" stop-color="#290D30"/>
<stop offset="1" stop-color="#4B2056"/>
</linearGradient>
</defs>
</svg>
