<svg width="1543" height="7852" viewBox="0 0 1543 7852" fill="none" xmlns="http://www.w3.org/2000/svg">
<path d="M1266 4656.04C1266 4654.3 1270.1 4652.78 1276.17 4651.98C1279.19 4651.58 1281.58 4649.2 1281.97 4646.18C1282.77 4640.11 1284.29 4636 1286.03 4636C1287.78 4636 1289.29 4640.1 1290.09 4646.18C1290.49 4649.2 1292.88 4651.58 1295.89 4651.98C1301.96 4652.78 1306.07 4654.3 1306.07 4656.04C1306.07 4657.78 1301.97 4659.3 1295.89 4660.1C1292.88 4660.5 1290.49 4662.89 1290.09 4665.9C1289.29 4671.98 1287.78 4676.08 1286.03 4676.08C1284.29 4676.08 1282.78 4671.98 1281.97 4665.9C1281.57 4662.89 1279.19 4660.5 1276.17 4660.1C1270.1 4659.3 1266 4657.78 1266 4656.04Z" fill="#FFD400"/>
<path d="M1341 2631.13C1341 2629.99 1343.69 2628.99 1347.67 2628.47C1349.64 2628.21 1351.21 2626.65 1351.47 2624.67C1351.99 2620.69 1352.99 2618 1354.13 2618C1355.27 2618 1356.26 2620.69 1356.79 2624.67C1357.05 2626.65 1358.61 2628.21 1360.59 2628.47C1364.57 2628.99 1367.25 2629.99 1367.25 2631.13C1367.25 2632.27 1364.57 2633.27 1360.59 2633.79C1358.61 2634.05 1357.05 2635.61 1356.79 2637.59C1356.26 2641.58 1355.27 2644.26 1354.13 2644.26C1352.99 2644.26 1351.99 2641.58 1351.47 2637.59C1351.21 2635.61 1349.64 2634.05 1347.67 2633.79C1343.69 2633.27 1341 2632.27 1341 2631.13V2631.13Z" fill="#FFD400"/>
<path d="M777 7250.13C777 7248.99 779.686 7247.99 783.667 7247.47C785.644 7247.21 787.206 7245.65 787.467 7243.67C787.989 7239.69 788.986 7237 790.126 7237C791.267 7237 792.263 7239.69 792.786 7243.67C793.047 7245.65 794.608 7247.21 796.585 7247.47C800.566 7247.99 803.252 7248.99 803.252 7250.13C803.252 7251.27 800.566 7252.27 796.585 7252.79C794.608 7253.05 793.047 7254.61 792.786 7256.59C792.263 7260.58 791.267 7263.26 790.126 7263.26C788.986 7263.26 787.989 7260.58 787.467 7256.59C787.206 7254.61 785.644 7253.05 783.667 7252.79C779.686 7252.27 777 7251.27 777 7250.13Z" fill="#FFD400"/>
<path d="M156.02 6972.37C156.02 6971.23 158.706 6970.23 162.687 6969.71C164.664 6969.45 166.226 6967.88 166.487 6965.91C167.009 6961.92 168.006 6959.24 169.146 6959.24C170.287 6959.24 171.283 6961.92 171.806 6965.91C172.067 6967.88 173.628 6969.45 175.605 6969.71C179.586 6970.23 182.272 6971.23 182.272 6972.37C182.272 6973.51 179.586 6974.5 175.605 6975.03C173.628 6975.29 172.067 6976.85 171.806 6978.83C171.283 6982.81 170.287 6985.5 169.146 6985.5C168.006 6985.5 167.009 6982.81 166.487 6978.83C166.226 6976.85 164.664 6975.29 162.687 6975.03C158.706 6974.5 156.02 6973.51 156.02 6972.37Z" fill="#FFD400"/>
<path d="M1502.25 6838.13C1502.25 6836.99 1499.57 6835.99 1495.59 6835.47C1493.61 6835.21 1492.05 6833.65 1491.79 6831.67C1491.26 6827.69 1490.27 6825 1489.13 6825C1487.99 6825 1486.99 6827.69 1486.47 6831.67C1486.21 6833.65 1484.64 6835.21 1482.67 6835.47C1478.69 6835.99 1476 6836.99 1476 6838.13C1476 6839.27 1478.69 6840.27 1482.67 6840.79C1484.64 6841.05 1486.21 6842.61 1486.47 6844.59C1486.99 6848.58 1487.99 6851.26 1489.13 6851.26C1490.27 6851.26 1491.26 6848.58 1491.79 6844.59C1492.05 6842.61 1493.61 6841.05 1495.59 6840.79C1499.57 6840.27 1502.25 6839.27 1502.25 6838.13Z" fill="#FFD400"/>
<path d="M1426.31 7166.42C1429.43 7166.42 1431.97 7163.88 1431.97 7160.76C1431.97 7157.63 1429.43 7155.09 1426.31 7155.09C1423.18 7155.09 1420.65 7157.63 1420.65 7160.76C1420.65 7163.88 1423.18 7166.42 1426.31 7166.42Z" fill="#FFD400"/>
<path d="M549.66 5494.32C552.785 5494.32 555.32 5491.79 555.32 5488.66C555.32 5485.53 552.785 5483 549.66 5483C546.534 5483 544 5485.53 544 5488.66C544 5491.79 546.534 5494.32 549.66 5494.32Z" fill="#FFD400"/>
<path d="M950.66 7802.32C953.786 7802.32 956.32 7799.79 956.32 7796.66C956.32 7793.53 953.786 7791 950.66 7791C947.534 7791 945 7793.53 945 7796.66C945 7799.79 947.534 7802.32 950.66 7802.32Z" fill="#FFD400"/>
<path d="M292.105 6968.33C295.231 6968.33 297.765 6965.8 297.765 6962.67C297.765 6959.54 295.231 6957.01 292.105 6957.01C288.979 6957.01 286.445 6959.54 286.445 6962.67C286.445 6965.8 288.979 6968.33 292.105 6968.33Z" fill="#FFD400"/>
<path d="M1393 5801.04C1393 5799.3 1397.1 5797.78 1403.17 5796.98C1406.19 5796.58 1408.58 5794.2 1408.97 5791.18C1409.77 5785.11 1411.29 5781 1413.03 5781C1414.78 5781 1416.29 5785.1 1417.09 5791.18C1417.49 5794.2 1419.88 5796.58 1422.89 5796.98C1428.96 5797.78 1433.07 5799.3 1433.07 5801.04C1433.07 5802.78 1428.97 5804.3 1422.89 5805.1C1419.88 5805.5 1417.49 5807.89 1417.09 5810.9C1416.29 5816.98 1414.78 5821.08 1413.03 5821.08C1411.29 5821.08 1409.78 5816.98 1408.97 5810.9C1408.57 5807.89 1406.19 5805.5 1403.17 5805.1C1397.1 5804.3 1393 5802.78 1393 5801.04Z" fill="#FFD400"/>
<path d="M20 7836.47C20 7835.13 23.1656 7833.96 27.8554 7833.34C30.1844 7833.03 32.0283 7831.19 32.332 7828.86C32.9502 7824.17 34.1228 7821 35.4658 7821C36.8088 7821 37.9812 7824.17 38.5994 7828.86C38.9085 7831.19 40.7472 7833.03 43.0761 7833.34C47.7659 7833.96 50.9315 7835.13 50.9315 7836.47C50.9315 7837.82 47.7659 7838.99 43.0761 7839.61C40.7472 7839.92 38.9031 7841.75 38.5994 7844.08C37.9812 7848.78 36.8088 7851.94 35.4658 7851.94C34.1228 7851.94 32.9502 7848.78 32.332 7844.08C32.0229 7841.75 30.1844 7839.91 27.8554 7839.61C23.1656 7838.99 20 7837.82 20 7836.47Z" fill="#FFD400"/>
<path d="M0 6274.04C0 6272.3 4.09831 6270.78 10.1738 6269.98C13.1902 6269.58 15.5777 6267.2 15.972 6264.18C16.7714 6258.11 18.2904 6254 20.033 6254C21.7757 6254 23.2893 6258.1 24.0941 6264.18C24.4938 6267.2 26.8759 6269.58 29.8923 6269.98C35.9625 6270.78 40.0661 6272.3 40.0661 6274.04C40.0661 6275.78 35.9678 6277.3 29.8923 6278.1C26.8759 6278.5 24.4884 6280.89 24.0941 6283.9C23.2947 6289.98 21.7757 6294.08 20.033 6294.08C18.2904 6294.08 16.7768 6289.98 15.972 6283.9C15.5723 6280.89 13.1902 6278.5 10.1738 6278.1C4.10364 6277.3 0 6275.78 0 6274.04Z" fill="#FFD400"/>
<path d="M178 2939.04C178 2937.3 182.098 2935.78 188.174 2934.98C191.19 2934.58 193.578 2932.2 193.972 2929.18C194.771 2923.11 196.29 2919 198.033 2919C199.776 2919 201.289 2923.1 202.094 2929.18C202.494 2932.2 204.876 2934.58 207.892 2934.98C213.962 2935.78 218.066 2937.3 218.066 2939.04C218.066 2940.78 213.968 2942.3 207.892 2943.1C204.876 2943.5 202.488 2945.89 202.094 2948.9C201.295 2954.98 199.776 2959.08 198.033 2959.08C196.29 2959.08 194.777 2954.98 193.972 2948.9C193.572 2945.89 191.19 2943.5 188.174 2943.1C182.104 2942.3 178 2940.78 178 2939.04Z" fill="#FFD400"/>
<path d="M1024 3351.13C1024 3349.99 1026.69 3348.99 1030.67 3348.47C1032.64 3348.21 1034.21 3346.65 1034.47 3344.67C1034.99 3340.69 1035.99 3338 1037.13 3338C1038.27 3338 1039.26 3340.69 1039.79 3344.67C1040.05 3346.65 1041.61 3348.21 1043.59 3348.47C1047.57 3348.99 1050.25 3349.99 1050.25 3351.13C1050.25 3352.27 1047.57 3353.27 1043.59 3353.79C1041.61 3354.05 1040.05 3355.61 1039.79 3357.59C1039.26 3361.58 1038.27 3364.26 1037.13 3364.26C1035.99 3364.26 1034.99 3361.58 1034.47 3357.59C1034.21 3355.61 1032.64 3354.05 1030.67 3353.79C1026.69 3353.27 1024 3352.27 1024 3351.13Z" fill="#FFD400"/>
<path d="M481.66 1171.32C484.786 1171.32 487.32 1168.79 487.32 1165.66C487.32 1162.53 484.786 1160 481.66 1160C478.534 1160 476 1162.53 476 1165.66C476 1168.79 478.534 1171.32 481.66 1171.32Z" fill="#FFD400"/>
<path d="M1536.66 1168.32C1539.79 1168.32 1542.32 1165.79 1542.32 1162.66C1542.32 1159.53 1539.79 1157 1536.66 1157C1533.53 1157 1531 1159.53 1531 1162.66C1531 1165.79 1533.53 1168.32 1536.66 1168.32Z" fill="#FFD400"/>
<path d="M1338.66 2285.32C1341.79 2285.32 1344.32 2282.79 1344.32 2279.66C1344.32 2276.53 1341.79 2274 1338.66 2274C1335.53 2274 1333 2276.53 1333 2279.66C1333 2282.79 1335.53 2285.32 1338.66 2285.32Z" fill="#FFD400"/>
<path d="M295 2056.04C295 2054.3 299.098 2052.78 305.174 2051.98C308.19 2051.58 310.578 2049.2 310.972 2046.18C311.771 2040.11 313.29 2036 315.033 2036C316.776 2036 318.289 2040.1 319.094 2046.18C319.494 2049.2 321.876 2051.58 324.892 2051.98C330.962 2052.78 335.066 2054.3 335.066 2056.04C335.066 2057.78 330.968 2059.3 324.892 2060.1C321.876 2060.5 319.488 2062.89 319.094 2065.9C318.295 2071.98 316.776 2076.08 315.033 2076.08C313.29 2076.08 311.777 2071.98 310.972 2065.9C310.572 2062.89 308.19 2060.5 305.174 2060.1C299.104 2059.3 295 2057.78 295 2056.04Z" fill="#FFD400"/>
<path d="M1363 20.0406C1363 18.2973 1367.1 16.7832 1373.17 15.9781C1376.19 15.5783 1378.58 13.1952 1378.97 10.1776C1379.77 4.10519 1381.29 0 1383.03 0C1384.78 0 1386.29 4.09986 1387.09 10.1776C1387.49 13.1952 1389.88 15.5836 1392.89 15.9781C1398.96 16.7778 1403.07 18.2973 1403.07 20.0406C1403.07 21.784 1398.97 23.2981 1392.89 24.1031C1389.88 24.503 1387.49 26.8861 1387.09 29.9036C1386.29 35.976 1384.78 40.0812 1383.03 40.0812C1381.29 40.0812 1379.78 35.9814 1378.97 29.9036C1378.57 26.8861 1376.19 24.4976 1373.17 24.1031C1367.1 23.3034 1363 21.784 1363 20.0406Z" fill="#FFD400"/>
</svg>
