<svg width="522" height="672" viewBox="0 0 522 672" fill="none" xmlns="http://www.w3.org/2000/svg">
<path d="M40.9482 619.212C40.9482 619.212 30.0513 602.303 39.2999 595.632C43.3994 592.675 48.9712 592.34 53.9079 592.881C58.2966 593.363 61.7307 589.357 60.7215 585.067C58.9478 577.534 60.7721 568.954 79.1661 570.284C111.157 572.599 111.036 609.523 111.036 609.523C111.036 609.523 69.5211 626.097 63.5387 625.367C57.5564 624.636 40.9502 619.212 40.9502 619.212H40.9482Z" fill="#371A45"/>
<path d="M242.585 672C376.561 672 485.169 654.54 485.169 633.002C485.169 611.465 376.561 594.005 242.585 594.005C108.609 594.005 0 611.465 0 633.002C0 654.54 108.609 672 242.585 672Z" fill="#371A45"/>
<path d="M328.999 501.899C328.999 501.899 261.1 509.356 211.648 529.829L140.953 500.577L115.663 89.809L110.514 6.2251C110.514 6.2251 127.759 71.5618 157.068 157.023C157.068 157.023 157.078 157.033 157.088 157.063C172.133 200.941 190.366 250.124 211.083 298.495C244.811 377.257 285.119 453.857 329.001 501.899H328.999Z" fill="#F74D66"/>
<path d="M328.999 501.899C328.999 501.899 261.1 509.356 211.648 529.829L140.953 500.577L115.663 89.809L110.514 6.2251C110.514 6.2251 127.759 71.5618 157.068 157.023C157.068 157.023 157.078 157.033 157.088 157.063C172.133 200.941 190.366 250.124 211.083 298.495C244.811 377.257 285.119 453.857 329.001 501.899H328.999Z" fill="#FF0031"/>
<g opacity="0.5">
<path d="M149.988 164.086C149.988 164.086 149.998 164.096 150.008 164.126C165.053 208.004 183.285 257.187 204.003 305.558C236.305 380.991 274.644 454.42 316.377 502.701C324.861 501.455 330.01 500.89 330.01 500.89C286.128 452.846 245.823 376.248 212.093 297.486C191.375 249.115 173.143 199.932 158.098 156.054C158.088 156.024 158.077 156.014 158.077 156.014C128.768 70.5506 111.523 5.21387 111.523 5.21387L114.419 52.2146C122.406 79.4623 134.514 118.966 149.988 164.086Z" fill="white"/>
</g>
<g opacity="0.35">
<path d="M328.999 501.899C328.999 501.899 261.1 509.355 211.648 529.829L140.953 500.577L115.663 89.8088C118.201 81.0082 119.671 75.9316 119.671 75.9316C119.671 75.9316 147.079 473.14 222.409 478.269C263.341 481.058 240.485 385.936 211.083 298.495C244.811 377.257 285.119 453.857 329.001 501.899H328.999Z" fill="#371A45"/>
</g>
<path d="M211.646 532.693C211.271 532.693 210.897 532.621 210.545 532.475L139.849 503.227C138.834 502.808 138.148 501.847 138.08 500.753L107.642 6.40068C107.551 4.92919 108.595 3.62726 110.055 3.39312C111.511 3.16099 112.912 4.06729 113.291 5.49437C113.529 6.39462 137.509 96.789 176.227 202.486C211.906 299.888 267.742 430.566 331.119 499.97C331.847 500.767 332.065 501.905 331.683 502.915C331.301 503.924 330.383 504.634 329.309 504.753C328.633 504.828 261.242 512.397 212.748 532.473C212.396 532.619 212.022 532.693 211.648 532.693H211.646ZM143.708 498.613L211.65 526.721C252.628 510.008 306.117 501.986 323.195 499.733C260.706 428.703 205.983 300.435 170.809 204.409C144.491 132.559 124.966 67.7549 115.05 33.2104L143.706 498.613H143.708Z" fill="#371A45"/>
<path d="M124.689 525.592L96.282 32.9234C95.7824 24.254 96.7775 15.5644 99.2266 7.232C100.782 1.93748 108.036 1.28955 110.508 6.22477L110.53 6.2712C114.892 14.981 117.534 24.4478 118.308 34.1547L157.062 519.954L124.685 525.594L124.689 525.592Z" fill="white"/>
<g opacity="0.35">
<path d="M118.312 34.155C117.538 24.4481 114.896 14.9813 110.534 6.27152L110.512 6.2251C109.163 3.5304 106.39 2.51308 103.896 2.99146C104.123 3.29827 104.333 3.62527 104.511 3.99062L104.533 4.03704C108.789 12.8175 111.311 22.3327 111.964 32.0659L143.235 497.945C144.007 509.461 135.871 519.67 124.456 521.511L124.691 525.59L157.068 519.951L118.312 34.155Z" fill="#371A45"/>
</g>
<path d="M124.689 528.461C124.046 528.461 123.415 528.245 122.903 527.839C122.262 527.33 121.866 526.573 121.819 525.756L93.4142 33.0891C92.8924 24.0685 93.9198 15.0983 96.4701 6.42479C97.5136 2.87224 100.576 0.365265 104.269 0.0342313C107.966 -0.288728 111.422 1.63086 113.08 4.9412C117.653 14.0688 120.369 23.8061 121.176 33.9248L159.932 519.724C160.049 521.2 159.022 522.522 157.562 522.778L125.185 528.416C125.021 528.444 124.855 528.459 124.691 528.459L124.689 528.461ZM105.059 5.73649C104.946 5.73649 104.851 5.74254 104.78 5.7486C104.271 5.79502 102.556 6.09376 101.985 8.03959C99.623 16.0793 98.6684 24.3975 99.1518 32.7601L127.373 522.215L153.994 517.579L115.447 34.383C114.698 25.001 112.18 15.9743 107.962 7.55515C107.161 5.95448 105.759 5.7385 105.057 5.7385L105.059 5.73649Z" fill="#371A45"/>
<path d="M392.593 543.747C392.182 561.061 384.422 583.626 351.115 596.365C298.867 616.356 157.406 612.745 124.693 611.607C119.607 611.433 114.632 610.139 110.142 607.771C109.104 607.229 107.994 606.613 106.803 605.935C91.4908 597.124 64.4408 576.497 53.0747 536.506C50.844 528.671 52.9311 520.249 58.4706 514.269C66.5987 505.478 79.6717 492.124 93.2059 481.426C97.9121 477.702 104.408 477.241 109.628 480.184C143.522 499.314 275.682 566.384 388.78 519.951C388.78 519.951 392.922 530.259 392.593 543.747Z" fill="#2492FF"/>
<g opacity="0.8">
<path d="M388.78 519.951C275.684 566.384 143.522 499.314 109.628 480.184C104.408 477.241 97.9121 477.702 93.2059 481.426C79.6718 492.124 66.5987 505.478 58.4706 514.269C55.0547 517.956 52.9574 522.573 52.3709 527.407C53.3943 525.213 54.7574 523.158 56.4482 521.333C64.5763 512.543 77.6493 499.188 91.1834 488.49C95.8896 484.766 102.386 484.306 107.606 487.249C141.5 506.378 273.659 573.449 386.758 527.015C386.758 527.015 390.9 537.324 390.57 550.812C390.489 554.205 390.121 557.802 389.339 561.483C391.571 555.363 392.461 549.286 392.593 543.747C392.922 530.259 388.78 519.951 388.78 519.951Z" fill="white"/>
</g>
<g opacity="0.35">
<path d="M392.593 543.747C392.182 561.061 384.422 583.626 351.115 596.365C298.867 616.356 157.406 612.745 124.693 611.606C119.607 611.433 114.632 610.139 110.142 607.771C109.104 607.228 107.994 606.613 106.803 605.934V605.924C106.803 605.924 82.8996 585.104 73.7015 563.308C72.4881 560.425 73.8451 557.113 76.7028 555.821C80.5454 554.077 86.3013 551.79 92.6012 550.426C92.6517 550.416 92.7144 550.406 92.7751 550.395C96.8442 584.726 121.087 608.143 121.9 608.912C103.761 584.141 102.59 562.961 103.791 551.689C123.142 556.376 163.409 571.362 233.989 580.625C313.441 591.046 381.667 582.572 392.593 543.751V543.747Z" fill="#371A45"/>
</g>
<path d="M104.267 479.415C103.132 481.956 102.084 484.786 101.13 487.542C100.163 490.319 99.3136 493.145 98.5148 495.985C96.9453 501.673 95.6874 507.458 94.7753 513.298C92.9834 524.973 92.4576 536.908 93.8733 548.678C95.204 560.444 98.444 572.04 103.686 582.74C104.012 583.408 104.307 584.096 104.659 584.75L105.741 586.706C106.479 588 107.149 589.338 107.943 590.6C109.567 593.101 111.098 595.674 112.941 598.032C116.393 602.927 120.497 607.317 124.689 611.61C120.333 607.493 116.037 603.25 112.368 598.466C110.417 596.165 108.773 593.638 107.031 591.173C106.178 589.93 105.448 588.608 104.649 587.326L103.474 585.388C103.09 584.738 102.764 584.056 102.406 583.392C96.6582 572.758 92.8681 561.055 91.0237 549.061C89.0922 537.063 89.1367 524.793 90.5019 512.718C91.1976 506.675 92.2553 500.674 93.6407 494.739C94.3485 491.776 95.109 488.821 95.9989 485.896C96.8948 482.949 97.8089 480.103 99.0001 477.116C99.5866 475.644 101.259 474.924 102.734 475.511C104.208 476.097 104.928 477.766 104.341 479.237C104.329 479.27 104.315 479.302 104.301 479.334L104.267 479.413V479.415Z" fill="#371A45"/>
<path d="M185.047 615.51C159.208 615.51 137.222 614.915 124.59 614.477C119.073 614.287 113.614 612.846 108.803 610.311C95.4568 603.278 63.0413 582.082 50.3101 537.288C47.8366 528.586 50.1564 519.018 56.3592 512.315C64.8999 503.088 77.9163 489.851 91.4241 479.171C97.0525 474.722 104.754 474.141 111.046 477.689C138.646 493.262 217.84 533.236 302.437 533.238C330.83 533.238 359.823 528.737 387.688 517.3C388.398 517.01 389.193 517.012 389.899 517.31C390.605 517.607 391.163 518.174 391.448 518.885C391.834 519.848 400.804 542.721 390.811 565.563C384.295 580.453 371.288 591.716 352.15 599.037C316.559 612.652 241.59 615.506 185.047 615.506V615.51ZM102.311 481.125C99.706 481.125 97.1274 481.985 94.9917 483.67C81.7731 494.12 68.9812 507.133 60.58 516.208C55.7241 521.452 53.908 528.931 55.8374 535.721C67.9639 578.384 98.7918 598.547 111.485 605.236C115.532 607.37 120.133 608.581 124.788 608.742C153.262 609.727 297.937 613.633 350.089 593.682C367.737 586.932 379.665 576.699 385.54 563.268C392.684 546.94 388.95 530.174 387.025 523.749C338.867 542.679 282.279 543.922 218.777 527.427C166.487 513.845 124.038 491.613 108.216 482.685C106.362 481.64 104.329 481.125 102.311 481.125Z" fill="#371A45"/>
<path d="M152.574 466.521C151.27 466.521 150.117 465.637 149.792 464.359C149.45 463.021 150.111 461.632 151.365 461.051L289.74 396.911C266.387 380.719 242.92 352.018 219.921 311.494C200.494 277.263 181.313 234.513 162.909 184.43C131.608 99.2472 113.145 21.2424 112.963 20.4653C112.601 18.9232 113.56 17.379 115.105 17.0177C116.654 16.6564 118.197 17.6131 118.559 19.1553C118.741 19.9304 137.139 97.6445 168.327 182.51C209.451 294.41 253.995 367.861 297.144 394.923C298.036 395.482 298.55 396.483 298.483 397.533C298.416 398.582 297.781 399.511 296.826 399.953L167.668 459.819L321.723 450.042C323.322 449.949 324.673 451.142 324.772 452.722C324.873 454.303 323.672 455.667 322.087 455.766L152.758 466.513C152.696 466.517 152.635 466.519 152.574 466.519V466.521Z" fill="#371A45"/>
<path d="M328.991 504.771C327.687 504.771 326.506 503.879 326.196 502.555L314.759 453.76L292.941 398.401C292.359 396.927 293.087 395.262 294.563 394.681C296.038 394.101 297.71 394.826 298.289 396.299L320.183 451.852C320.234 451.982 320.277 452.115 320.309 452.25L331.794 501.247C332.156 502.789 331.196 504.333 329.65 504.695C329.43 504.745 329.21 504.771 328.993 504.771H328.991Z" fill="#371A45"/>
<path d="M515.554 449.424C515.267 453.148 514.711 456.81 513.848 460.409C504.32 500.216 442.783 484.861 442.783 484.861L437.027 430.468L431.375 377.111L428.23 347.397C428.23 347.397 455.494 338.001 473.704 350.207C475.318 351.285 476.859 352.534 478.307 353.981C494.473 370.105 518.521 412.025 515.55 449.422L515.554 449.424Z" fill="white"/>
<g opacity="0.35">
<path d="M473.708 350.209C461.766 351.86 446.341 356.67 437.842 370.057C435.695 373.442 433.517 375.719 431.379 377.113L428.234 347.399C428.234 347.399 455.498 338.003 473.708 350.209Z" fill="#371A45"/>
</g>
<g opacity="0.35">
<path d="M515.554 449.424C515.267 453.148 514.711 456.81 513.848 460.409C504.32 500.215 442.783 484.861 442.783 484.861L437.027 430.468C448.867 409.688 462.955 393.215 462.955 393.215C462.955 393.215 486.017 457.31 510.116 451.711C512.068 451.259 513.878 450.48 515.552 449.424H515.554Z" fill="#371A45"/>
</g>
<path d="M475.543 354.316C473.559 354.326 471.401 354.405 469.322 354.522C467.228 354.667 465.123 354.809 463.034 355.077C460.955 355.372 458.862 355.659 456.803 356.125C454.74 356.571 452.707 357.148 450.679 357.881L450.667 357.885C450.458 357.96 450.23 357.853 450.155 357.645C450.094 357.481 450.151 357.302 450.28 357.199C452.012 355.81 453.957 354.688 455.961 353.695C457.99 352.778 460.069 351.942 462.199 351.288C464.326 350.641 466.478 350.049 468.658 349.613C470.855 349.159 472.994 348.794 475.32 348.584C476.904 348.44 478.301 349.605 478.445 351.186C478.588 352.766 477.421 354.161 475.838 354.304C475.757 354.312 475.678 354.316 475.597 354.316H475.545H475.543Z" fill="#371A45"/>
<path d="M468.371 490.666C454.489 490.666 442.925 487.85 442.088 487.64C440.917 487.347 440.053 486.356 439.928 485.159L425.378 347.696C425.239 346.367 426.034 345.118 427.298 344.684C428.689 344.206 461.535 333.183 480.348 351.959C497.915 369.491 526.593 419.498 516.643 461.081C514.331 470.741 508.969 478.177 500.706 483.183C491.113 488.994 479.056 490.666 468.369 490.666H468.371ZM445.425 482.503C452.942 484.049 480.512 488.72 497.735 478.274C504.631 474.092 509.111 467.859 511.05 459.748C520.475 420.37 493.057 372.755 476.283 356.016C462.553 342.312 438.639 347.462 431.342 349.462L445.423 482.503H445.425Z" fill="#371A45"/>
<path d="M482.773 425.085C483.173 428.785 483.954 433.674 485.457 438.498C487.649 445.528 491.368 452.403 497.686 455.197C503.61 457.821 510.464 455.57 514.177 450.253C516.24 447.286 518.21 442.965 519.045 436.794C519.624 432.533 519.65 427.402 518.807 421.221C518.353 417.913 515.36 415.557 512.035 415.893L488.314 418.274C484.894 418.622 482.395 421.672 482.773 425.085Z" fill="white"/>
<g opacity="0.35">
<path d="M485.457 438.498C487.649 445.528 491.368 452.403 497.686 455.197C503.61 457.821 510.464 455.57 514.177 450.254C516.24 447.287 518.21 442.965 519.045 436.794C517.247 439.485 509.483 448.615 492.341 437.105C492.341 437.105 490.064 441.841 485.457 438.498Z" fill="#371A45"/>
</g>
<path d="M505.895 453.968C505.331 453.968 504.771 453.909 504.211 453.794C496.341 452.167 491.388 439.224 489.7 431.833C487.386 421.704 489.671 417.663 489.77 417.497C490.066 416.993 490.719 416.825 491.225 417.12C491.728 417.415 491.898 418.056 491.609 418.561C491.562 418.65 489.694 422.265 491.773 431.362C493.239 437.785 497.816 450.308 504.643 451.719C508.169 452.454 512.003 450.029 516.04 444.533C516.388 444.061 517.051 443.958 517.524 444.305C517.998 444.65 518.101 445.314 517.753 445.787C513.759 451.224 509.778 453.97 505.893 453.97L505.895 453.968Z" fill="#371A45"/>
<path d="M502.844 458.822C500.748 458.822 498.643 458.4 496.651 457.518C484.87 452.298 481.313 435.129 480.239 425.359C479.984 423.038 480.655 420.759 482.13 418.943C483.61 417.118 485.713 415.983 488.057 415.747L511.783 413.363C516.485 412.893 520.685 416.191 521.329 420.878C523.559 437.149 519.802 446.624 516.258 451.709C513.077 456.271 507.993 458.824 502.844 458.824V458.822ZM512.292 418.412L488.567 420.796C487.584 420.894 486.702 421.369 486.082 422.134C485.467 422.891 485.188 423.839 485.293 424.804C486.061 431.798 488.907 448.534 498.714 452.878C503.373 454.942 508.998 453.233 512.082 448.808C515.11 444.466 518.297 436.213 516.289 421.565C516.018 419.599 514.262 418.208 512.29 418.412H512.292Z" fill="#371A45"/>
<path d="M363.664 400.771C363.664 400.771 333.445 420.33 315.311 427.275C297.18 434.221 305.056 462.373 331.246 456.523C357.437 450.674 383.445 430.769 383.445 430.769L363.664 400.771Z" fill="white"/>
<g opacity="0.35">
<path d="M376.298 419.934C369.735 424.637 347.99 439.328 326.107 444.217C316.818 446.292 309.847 444.079 305.509 440.065C304.989 449.814 314.26 460.318 331.244 456.525C357.435 450.676 383.443 430.771 383.443 430.771L376.298 419.934Z" fill="#371A45"/>
</g>
<path d="M324.487 460.177C312.973 460.177 305.614 453.441 303.379 446.061C300.618 436.94 305.102 428.115 314.28 424.599C331.922 417.841 361.799 398.558 362.1 398.364C363.429 397.506 365.197 397.88 366.064 399.194L385.844 429.193C386.673 430.45 386.388 432.132 385.192 433.046C384.11 433.874 358.377 453.403 331.873 459.323C329.252 459.908 326.785 460.177 324.487 460.177ZM362.822 404.712C355.248 409.508 331.764 424.046 316.341 429.954C309.018 432.759 307.319 439.233 308.882 444.402C310.882 451.011 318.379 456.459 330.617 453.724C351.618 449.033 372.844 434.824 379.538 430.065L362.82 404.712H362.822Z" fill="#371A45"/>
<path d="M403.496 508.616C390.218 514.658 397.546 543.171 383.352 546.096C369.161 549.019 353.867 536.496 353.867 536.496C356.076 532.209 358.573 528.454 361.245 525.172C368.665 516.135 377.451 510.73 385.284 507.757C399.938 502.188 411.181 505.13 403.493 508.618L403.496 508.616Z" fill="white"/>
<g opacity="0.35">
<path d="M403.496 508.616C390.218 514.658 397.546 543.171 383.352 546.096C369.161 549.019 353.867 536.496 353.867 536.496C356.076 532.209 358.573 528.454 361.245 525.172C367.235 528.137 373.104 530.711 376.053 531.05C380.802 531.593 381.089 519.849 385.281 507.757C399.936 502.188 411.179 505.13 403.491 508.618L403.496 508.616Z" fill="#371A45"/>
</g>
<path d="M378.88 549.406C365.274 549.406 352.635 539.203 352.041 538.714C350.995 537.858 350.69 536.389 351.307 535.188C366.542 505.556 395.121 500.528 403.825 502.05C407.633 502.716 408.649 504.561 408.833 505.99C409.102 508.096 407.708 509.86 404.689 511.23C399.594 513.544 398.203 520.729 396.73 528.335C395.036 537.089 393.114 547.01 383.931 548.902C382.246 549.249 380.553 549.404 378.876 549.404L378.88 549.406ZM357.57 535.67C361.876 538.676 372.829 545.331 382.772 543.286C387.834 542.243 389.292 536.532 391.088 527.249C392.502 519.948 394.081 511.791 399.752 507.526C397.349 507.585 393.99 508.011 389.854 509.24C381.906 511.604 367.417 518.15 357.57 535.672V535.67Z" fill="#371A45"/>
<path d="M473.975 450.213C471.314 491.948 437.493 509.559 397.289 509.089C394.041 509.058 390.815 509.694 387.854 511.026C380.527 514.339 367.68 522.114 361.914 537.664C359.603 543.879 353.446 547.797 346.837 547.194C335.358 546.158 319.12 542.701 311.823 531.839C308.718 527.213 307.537 523.131 307.681 519.674C308.091 509.878 319.233 505.191 327.761 507.888C327.761 507.888 332.644 466.337 372.445 460.972C372.445 460.972 368.787 433.667 372.208 413.688C372.208 413.688 345.345 423.196 314.082 420.509C282.829 417.832 282.582 383.708 312.375 380.292C332.632 377.975 354.807 373.072 372.69 366.641C381.107 363.616 388.568 360.241 394.425 356.662L436.18 349.585C436.18 349.585 468.501 387.71 473.506 433.496C473.803 436.215 474.01 438.952 474.103 441.721C474.206 444.654 474.153 447.486 473.969 450.213H473.975Z" fill="white"/>
<g opacity="0.35">
<path d="M474.149 446.055C474.173 444.636 474.159 443.193 474.109 441.721C474.064 440.393 473.989 439.071 473.896 437.751C473.89 437.67 473.886 437.589 473.88 437.509C473.783 436.185 473.662 434.867 473.518 433.554C473.516 433.534 473.514 433.514 473.512 433.494C468.499 387.706 436.188 349.583 436.188 349.583L394.433 356.66C388.576 360.239 381.113 363.614 372.698 366.639C388.279 373.3 407.399 372.475 420.336 370.709C429.822 369.415 439.072 374.297 443.445 382.797C453.767 402.869 458.712 419.837 459.923 434.017C447.251 435.823 434.505 436.302 424.585 436.302C413.569 436.302 406.026 435.716 405.872 435.706C399.758 435.204 394.136 438.978 393.345 444.137C392.544 449.287 396.86 453.881 402.984 454.373C404.135 454.466 426.179 456.21 451.49 453.861C451.516 453.859 451.54 453.857 451.567 453.855C455.424 453.495 458.425 457.173 457.213 460.845C449.666 483.714 429.522 493.853 414.947 494.725C387.476 496.366 371.444 505.966 362.195 515.199C352.947 524.429 350.9 541.948 342.052 533.117C334.098 525.168 313.606 516.89 307.687 519.67C307.543 523.125 308.724 527.209 311.829 531.835C319.126 542.697 335.364 546.154 346.843 547.19C353.45 547.795 359.607 543.877 361.92 537.66C367.686 522.112 380.533 514.337 387.86 511.022C390.819 509.688 394.047 509.052 397.295 509.085C438.801 509.571 473.51 490.777 474.155 446.051L474.149 446.055Z" fill="#371A45"/>
</g>
<g opacity="0.35">
<path d="M291.133 399.345C291.176 397.058 293.898 395.837 295.613 397.353C301.802 402.813 316.84 411.034 348.827 406.073C379.257 401.354 395.962 393.352 403.783 388.48C405.924 387.146 408.562 389.219 407.781 391.617C405.081 399.907 398.207 412.732 381.16 416.188C380.624 416.297 380.062 416.232 379.56 416.018L374.979 414.064C374.417 413.824 373.796 413.78 373.206 413.941C364.194 416.404 290.458 435.46 291.135 399.347L291.133 399.345Z" fill="#371A45"/>
</g>
<path d="M371.226 410.994L378.345 408.445L385.484 405.811C387.87 404.937 390.22 403.984 392.609 403.088C394.989 402.175 397.378 401.269 399.837 400.417C400.057 400.338 400.3 400.451 400.379 400.671C400.44 400.837 400.385 401.019 400.264 401.13C396.346 404.622 391.864 407.32 387.314 409.795C385.033 411.03 382.719 412.203 380.369 413.297C378.021 414.417 375.669 415.441 373.195 416.385C371.713 416.953 370.051 416.214 369.482 414.734C368.914 413.255 369.654 411.596 371.137 411.028C371.151 411.022 371.167 411.016 371.181 411.012L371.228 410.996L371.226 410.994Z" fill="#371A45"/>
<path d="M355.631 420.009C355.564 420.009 355.499 420.007 355.43 419.999C354.3 419.89 353.473 418.886 353.582 417.76C356.618 386.429 345.397 375.899 345.282 375.796C344.445 375.039 344.37 373.745 345.12 372.905C345.87 372.065 347.157 371.979 348.004 372.723C348.534 373.188 360.935 384.475 357.671 418.156C357.568 419.216 356.674 420.009 355.627 420.009H355.631Z" fill="#371A45"/>
<path d="M328.583 505.139C329.65 505.49 330.484 505.866 331.39 506.279C332.28 506.681 333.135 507.141 333.982 507.612C335.667 508.568 337.271 509.66 338.79 510.853C340.305 512.048 341.732 513.36 343.001 514.812C344.287 516.241 345.312 517.918 346.103 519.652C346.218 519.906 346.107 520.205 345.852 520.32C345.682 520.397 345.494 520.373 345.351 520.274L345.324 520.255C343.793 519.178 342.398 518.1 340.907 517.149C339.443 516.176 337.973 515.25 336.413 514.466C334.874 513.661 333.297 512.94 331.695 512.299C330.894 511.98 330.087 511.681 329.284 511.39C328.502 511.11 327.622 510.839 326.948 510.639L326.866 510.615C325.343 510.165 324.475 508.568 324.926 507.048C325.377 505.528 326.977 504.663 328.5 505.113C328.524 505.121 328.56 505.131 328.583 505.139Z" fill="#371A45"/>
<path d="M388.778 512.676C387.844 512.676 386.999 512.036 386.778 511.088C377.289 470.336 350.439 472.189 349.292 472.284C348.188 472.383 347.167 471.551 347.064 470.425C346.962 469.299 347.788 468.304 348.916 468.199C349.23 468.166 380.448 465.784 390.78 510.159C391.037 511.263 390.35 512.365 389.243 512.622C389.088 512.658 388.93 512.676 388.776 512.676H388.778Z" fill="#371A45"/>
<path d="M371.968 458.144C373.187 457.949 374.239 457.872 375.363 457.807C376.47 457.735 377.576 457.729 378.682 457.745C380.893 457.789 383.097 457.995 385.281 458.346C386.376 458.512 387.458 458.752 388.534 459.014C389.609 459.267 390.675 459.588 391.719 459.959C393.804 460.708 395.796 461.792 397.501 463.219C397.711 463.394 397.738 463.705 397.562 463.915C397.452 464.046 397.289 464.105 397.131 464.089L397.101 464.085C394.937 463.838 392.944 463.495 390.916 463.296C388.896 463.09 386.895 462.892 384.871 462.91C382.853 462.898 380.836 462.975 378.828 463.13C377.825 463.211 376.824 463.308 375.829 463.413C374.85 463.514 373.806 463.675 372.941 463.8L372.835 463.814C371.264 464.04 369.808 462.954 369.579 461.388C369.355 459.836 370.421 458.395 371.966 458.146L371.968 458.144Z" fill="#371A45"/>
<path d="M348.162 550.127C347.638 550.127 347.11 550.103 346.582 550.056C333.96 548.908 317.271 545.093 309.442 533.434C303.935 525.231 303.322 517.139 307.762 511.237C311.62 506.105 318.699 503.5 325.468 504.444C327.565 494.61 336.591 464.539 369.27 458.576C368.507 451.717 366.861 433.555 368.72 417.788C359.72 420.38 338.226 425.469 313.843 423.373C295.823 421.827 287.608 410.782 287.462 400.52C287.323 390.783 294.96 379.408 312.051 377.451C343.632 373.833 376.134 364.496 392.928 354.214C393.242 354.022 393.59 353.893 393.95 353.83L435.709 346.761C436.718 346.59 437.729 346.963 438.385 347.736C439.891 349.515 475.312 391.844 476.977 441.623C477.654 461.921 471.953 478.379 460.029 490.541C446.454 504.388 424.755 511.971 398.808 511.971C398.292 511.971 397.774 511.969 397.252 511.963C394.38 511.935 391.587 512.496 389.033 513.649C382.242 516.713 370.034 524.036 364.606 538.666C362.036 545.589 355.416 550.129 348.162 550.129V550.127ZM322.711 509.989C318.618 509.989 314.591 511.713 312.361 514.678C309.434 518.568 310.094 524.094 314.219 530.239C320.786 540.018 335.728 543.306 347.104 544.34C352.391 544.82 357.362 541.665 359.216 536.668C365.371 520.084 379.056 511.848 386.667 508.417C389.99 506.919 393.555 506.156 397.319 506.223C422.326 506.509 443.184 499.517 455.919 486.526C466.703 475.527 471.854 460.483 471.231 441.81C469.791 398.669 440.848 360.055 435.013 352.694L395.454 359.389C377.881 369.952 344.75 379.475 312.706 383.145C299.089 384.703 293.101 392.951 293.208 400.431C293.317 408.109 299.892 416.412 314.333 417.651C344.558 420.241 370.985 411.073 371.248 410.98C372.206 410.641 373.278 410.834 374.057 411.49C374.838 412.146 375.21 413.164 375.04 414.167C371.735 433.48 375.262 460.318 375.299 460.586C375.509 462.155 374.407 463.598 372.833 463.81C335.766 468.804 330.807 506.616 330.615 508.223C330.514 509.071 330.037 509.832 329.317 510.296C328.597 510.758 327.707 510.877 326.89 510.621C325.535 510.191 324.115 509.987 322.705 509.987L322.711 509.989Z" fill="#371A45"/>
<path d="M392.552 416.347H362.286C356.813 416.347 352.377 420.775 352.377 426.238V450.524C352.377 455.987 356.813 460.415 362.286 460.415H392.552C398.025 460.415 402.462 455.987 402.462 450.524V426.238C402.462 420.775 398.025 416.347 392.552 416.347Z" fill="white"/>
<g opacity="0.35">
<path d="M397.323 417.568V441.292C397.323 446.754 392.886 451.182 387.413 451.182H357.147C355.416 451.182 353.792 450.738 352.377 449.959V450.522C352.377 455.984 356.814 460.413 362.286 460.413H392.552C398.025 460.413 402.462 455.984 402.462 450.522V426.236C402.462 422.5 400.385 419.25 397.323 417.568Z" fill="#371A45"/>
</g>
<path d="M376.055 461.535C375.434 461.535 374.931 461.032 374.931 460.415V442.236L369.931 437.367C369.715 437.158 369.591 436.867 369.591 436.564V416.347C369.591 415.727 370.095 415.227 370.716 415.227C371.337 415.227 371.84 415.729 371.84 416.347V436.092L376.84 440.96C377.056 441.17 377.18 441.461 377.18 441.764V460.415C377.18 461.034 376.676 461.535 376.055 461.535Z" fill="#371A45"/>
<path d="M392.623 462.657C385.919 462.657 380.466 457.214 380.466 450.524V426.238C380.466 419.546 385.919 414.104 392.623 414.104C393.865 414.104 394.87 415.11 394.87 416.347C394.87 417.584 393.865 418.59 392.623 418.59C388.398 418.59 384.958 422.021 384.958 426.238V450.524C384.958 454.741 388.396 458.172 392.623 458.172C393.865 458.172 394.87 459.178 394.87 460.415C394.87 461.652 393.865 462.657 392.623 462.657Z" fill="#371A45"/>
<path d="M392.552 462.657H362.286C355.582 462.657 350.13 457.214 350.13 450.524V426.238C350.13 419.546 355.582 414.104 362.286 414.104H392.552C399.254 414.104 404.709 419.548 404.709 426.238V450.524C404.709 457.216 399.257 462.657 392.552 462.657ZM362.286 418.59C358.062 418.59 354.621 422.021 354.621 426.238V450.524C354.621 454.741 358.06 458.172 362.286 458.172H392.552C396.777 458.172 400.215 454.741 400.215 450.524V426.238C400.215 422.021 396.777 418.59 392.552 418.59H362.286Z" fill="#371A45"/>
<path d="M351.119 438.385C351.119 439.304 352.395 446.711 352.395 446.711C352.395 446.711 354.745 446.715 357.633 446.722C361.239 446.73 364.169 443.008 364.179 438.411C364.19 433.815 361.273 430.081 357.667 430.075C355.234 430.071 352.429 430.065 352.429 430.065C352.429 430.065 351.123 436.891 351.121 438.385H351.119Z" fill="#22A7F0"/>
<path d="M357.643 448.284H357.631L352.395 448.274C351.634 448.274 350.985 447.725 350.856 446.976C350.465 444.707 349.555 439.33 349.557 438.381C349.559 436.819 350.672 430.935 350.894 429.77C351.036 429.033 351.681 428.5 352.431 428.5H352.433L357.671 428.511C359.906 428.515 361.983 429.599 363.516 431.558C364.96 433.407 365.753 435.842 365.747 438.411C365.737 443.857 362.102 448.282 357.645 448.282L357.643 448.284ZM353.717 445.151L357.637 445.159H357.643C360.377 445.159 362.608 442.131 362.614 438.407C362.618 436.532 362.062 434.782 361.045 433.482C360.116 432.295 358.915 431.639 357.663 431.637L353.727 431.629C353.254 434.197 352.688 437.539 352.684 438.383C352.698 438.908 353.19 442.03 353.715 445.153L353.717 445.151Z" fill="#371A45"/>
<path d="M358.919 438.37C358.928 433.772 356.012 430.04 352.405 430.033C348.798 430.026 345.867 433.747 345.859 438.345C345.85 442.942 348.766 446.675 352.373 446.681C355.98 446.688 358.91 442.967 358.919 438.37Z" fill="#22A7F0"/>
<g opacity="0.35">
<path d="M358.941 438.401C358.933 442.995 356.003 446.719 352.397 446.711C348.787 446.705 345.87 442.971 345.882 438.371C345.882 437.751 345.939 437.142 346.044 436.558C346.966 439.717 349.351 441.972 352.15 441.974C355.265 441.98 357.88 439.207 358.533 435.48C358.8 436.389 358.939 437.374 358.939 438.401H358.941Z" fill="#371A45"/>
</g>
<path d="M358.941 438.401C358.941 438.714 358.927 439.023 358.895 439.325C358.185 435.722 355.629 433.054 352.583 433.05C349.224 433.046 346.445 436.278 346.085 440.442C345.951 439.776 345.884 439.085 345.882 438.371C345.891 433.777 348.821 430.052 352.427 430.061C356.033 430.073 358.947 433.801 358.941 438.401Z" fill="white"/>
<path d="M352.405 448.274H352.393C347.929 448.266 344.305 443.823 344.317 438.371C344.321 435.799 345.124 433.369 346.576 431.526C348.113 429.574 350.188 428.5 352.419 428.5H352.433C354.668 428.505 356.745 429.588 358.278 431.548C359.722 433.397 360.515 435.832 360.511 438.401C360.499 443.847 356.866 448.272 352.409 448.272L352.405 448.274ZM345.88 438.375H347.446C347.44 442.107 349.66 445.145 352.397 445.149H352.403C355.137 445.149 357.366 442.121 357.374 438.397C357.378 436.522 356.82 434.772 355.805 433.472C354.876 432.285 353.675 431.629 352.423 431.627C351.141 431.623 349.968 432.275 349.035 433.46C348.014 434.756 347.45 436.504 347.446 438.379H345.88V438.375Z" fill="#371A45"/>
<path d="M451.488 446.683C426.177 449.033 404.135 447.295 402.988 447.202C396.86 446.702 392.542 442.115 393.341 436.958C394.14 431.803 399.756 428.03 405.874 428.527C406.191 428.553 437.933 431.024 466.654 425.754C472.735 424.627 478.57 427.837 479.701 432.895C480.831 437.955 476.825 442.961 470.749 444.075C464.31 445.258 457.796 446.098 451.488 446.683Z" fill="white"/>
<g opacity="0.35">
<path d="M478.394 429.98C477.047 432.961 473.973 435.355 470.003 436.084C463.564 437.267 457.05 438.106 450.742 438.692C425.431 441.041 403.388 439.303 402.242 439.211C398.64 438.916 395.675 437.204 393.994 434.802C393.685 435.486 393.454 436.207 393.339 436.96C392.54 442.117 396.86 446.703 402.986 447.204C404.135 447.297 426.175 449.035 451.486 446.685C457.794 446.1 464.306 445.26 470.747 444.077C476.821 442.963 480.829 437.957 479.699 432.897C479.462 431.833 479.005 430.858 478.394 429.982V429.98Z" fill="#371A45"/>
</g>
<path d="M423.886 450.167C411.733 450.167 403.37 449.503 402.804 449.459C398.919 449.142 395.442 447.377 393.264 444.622C391.428 442.299 390.659 439.455 391.098 436.613C392.073 430.319 398.771 425.681 406.058 426.27C406.369 426.296 437.832 428.739 466.244 423.527C473.494 422.185 480.52 426.167 481.913 432.402C482.53 435.164 481.968 438.042 480.332 440.511C478.36 443.482 475.019 445.593 471.16 446.3C465.097 447.412 458.55 448.3 451.698 448.936C441.548 449.878 431.894 450.167 423.886 450.167ZM404.776 430.745C400.189 430.745 396.162 433.551 395.58 437.303C395.266 439.336 396.083 440.88 396.823 441.819C398.225 443.591 400.539 444.731 403.172 444.947C404.096 445.024 426.114 446.768 451.278 444.43C457.996 443.807 464.409 442.939 470.339 441.851C472.99 441.364 475.253 439.966 476.548 438.014C477.221 437 477.929 435.373 477.486 433.389C476.617 429.504 471.939 427.077 467.067 427.98C438.02 433.309 406.009 430.81 405.69 430.783C405.382 430.759 405.077 430.747 404.776 430.747V430.745Z" fill="#371A45"/>
<path d="M294.998 306.597C301.573 322.107 312.057 336.041 325.978 346.805C328.817 348.999 331.788 351.06 334.901 352.974C336.411 353.908 337.969 354.807 339.554 355.681C344.343 358.291 349.25 360.471 354.235 362.233C358.529 363.763 362.887 364.976 367.262 365.894C372.546 367.007 377.871 367.673 383.182 367.923C385.12 368.008 387.053 368.04 388.985 368.022C424.314 367.614 458.39 348.693 476.521 315.539C503.242 266.705 485.23 205.505 436.312 178.838C426.887 173.709 416.995 170.215 406.984 168.306C405.817 168.072 404.636 167.87 403.455 167.694C400.298 167.202 397.135 166.86 393.974 166.673C386.665 166.241 379.366 166.614 372.219 167.747C365.071 168.873 358.06 170.764 351.327 173.378C349.185 174.208 347.074 175.108 344.987 176.087C341.86 177.556 338.806 179.175 335.829 180.972C320.984 189.871 308.239 202.709 299.342 218.98C283.97 247.069 283.405 279.248 295 306.597H294.998Z" fill="white"/>
<path d="M387.983 368.294C386.382 368.294 384.768 368.26 383.17 368.189C377.784 367.937 372.415 367.253 367.205 366.157C362.752 365.222 358.357 363.987 354.144 362.485C349.11 360.705 344.157 358.495 339.425 355.915C337.688 354.956 336.161 354.068 334.759 353.2C331.705 351.323 328.696 349.242 325.814 347.015C312.217 336.501 301.476 322.559 294.753 306.7C282.625 278.092 284.212 246.072 299.108 218.853C307.717 203.107 320.367 189.93 335.691 180.744C338.592 178.994 341.68 177.347 344.873 175.847C346.928 174.884 349.066 173.97 351.232 173.132C357.981 170.512 365.027 168.611 372.178 167.486C379.394 166.342 386.734 165.978 393.99 166.408C397.151 166.596 400.351 166.941 403.498 167.434C404.733 167.617 405.926 167.825 407.037 168.047C417.25 169.995 427.144 173.548 436.439 178.606C485.414 205.305 503.501 266.79 476.756 315.67C459.234 347.706 425.605 367.871 388.987 368.292C388.653 368.294 388.317 368.296 387.983 368.296V368.294ZM388.064 166.768C382.786 166.768 377.493 167.184 372.263 168.013C365.15 169.133 358.14 171.023 351.428 173.631C349.274 174.464 347.146 175.375 345.104 176.331C341.929 177.823 338.857 179.462 335.971 181.202C320.727 190.338 308.144 203.446 299.581 219.109C284.763 246.185 283.185 278.035 295.249 306.494C301.937 322.269 312.62 336.136 326.146 346.596C329.011 348.81 332.007 350.879 335.044 352.748C336.438 353.612 337.957 354.494 339.686 355.449C344.392 358.014 349.319 360.212 354.326 361.983C358.519 363.476 362.889 364.706 367.318 365.636C372.5 366.726 377.843 367.406 383.198 367.659C385.118 367.741 387.065 367.778 388.985 367.758C425.407 367.338 458.862 347.282 476.289 315.414C502.892 266.792 484.902 205.632 436.184 179.076C426.938 174.046 417.096 170.512 406.936 168.572C405.829 168.35 404.646 168.144 403.417 167.963C400.284 167.474 397.103 167.131 393.96 166.943C392 166.826 390.034 166.77 388.064 166.77V166.768Z" fill="#371A45"/>
<g opacity="0.35">
<path d="M294.998 306.595C301.573 322.105 312.057 336.039 325.978 346.804C328.817 348.998 331.788 351.059 334.901 352.972C336.411 353.907 337.969 354.805 339.554 355.679C344.343 358.289 349.25 360.469 354.235 362.231C358.529 363.761 362.887 364.974 367.262 365.892C372.546 367.005 377.871 367.671 383.182 367.921C385.12 368.006 387.053 368.038 388.985 368.02C424.314 367.612 458.39 348.691 476.521 315.537C486.205 297.839 490.015 278.508 488.601 259.792C486.559 267.483 483.568 275.06 479.575 282.359C472.776 294.791 462.472 298.997 451.963 307.201C434.449 320.874 414.119 334.588 392.038 334.842C390.109 334.86 388.174 334.828 386.236 334.743C380.923 334.493 375.598 333.827 370.315 332.714C365.939 331.796 361.583 330.583 357.289 329.053C352.304 327.291 347.397 325.111 342.608 322.501C341.023 321.627 339.467 320.729 337.955 319.794C334.842 317.88 331.871 315.82 329.032 313.625C315.113 302.861 304.629 288.927 298.052 273.417C293.766 263.298 291.139 252.518 290.316 241.529C284.492 263.456 286.411 286.348 294.998 306.595Z" fill="#371A45"/>
</g>
<path d="M387.983 369.841C386.357 369.841 384.721 369.804 383.103 369.736C377.631 369.479 372.176 368.783 366.885 367.671C362.365 366.722 357.902 365.466 353.622 363.942C348.516 362.136 343.486 359.893 338.683 357.273C336.913 356.298 335.366 355.398 333.942 354.516C330.846 352.613 327.79 350.499 324.865 348.241C311.058 337.563 300.153 323.409 293.326 307.305C281.011 278.259 282.623 245.751 297.747 218.114C306.488 202.128 319.334 188.747 334.893 179.422C337.835 177.647 340.972 175.974 344.212 174.452C346.299 173.473 348.471 172.545 350.67 171.695C357.52 169.034 364.675 167.107 371.933 165.962C379.261 164.802 386.711 164.432 394.079 164.868C397.289 165.06 400.537 165.409 403.732 165.91C404.984 166.095 406.202 166.307 407.34 166.535C417.697 168.512 427.74 172.119 437.177 177.254C486.903 204.36 505.266 266.786 478.113 316.413C460.324 348.939 426.179 369.411 389.003 369.839C388.663 369.841 388.323 369.843 387.981 369.843L387.983 369.841ZM388.064 168.314C382.867 168.314 377.655 168.724 372.506 169.541C365.502 170.645 358.6 172.506 351.988 175.072C349.867 175.893 347.771 176.787 345.761 177.732C342.634 179.202 339.609 180.814 336.769 182.526C321.759 191.524 309.369 204.429 300.938 219.85C286.348 246.51 284.795 277.872 296.673 305.893C303.258 321.425 313.776 335.078 327.092 345.374C329.915 347.554 332.864 349.593 335.855 351.432C337.233 352.284 338.727 353.156 340.434 354.096C345.061 356.619 349.913 358.783 354.844 360.527C358.974 361.999 363.275 363.208 367.638 364.124C372.738 365.198 377.999 365.868 383.271 366.114C385.158 366.197 387.077 366.227 388.97 366.211C424.83 365.797 457.772 346.051 474.93 314.673C501.124 266.8 483.41 206.578 435.444 180.431C426.341 175.477 416.651 171.998 406.646 170.088C405.552 169.868 404.393 169.668 403.19 169.489C400.096 169.004 396.963 168.667 393.869 168.483C391.939 168.37 390.004 168.312 388.066 168.312L388.064 168.314Z" fill="#371A45"/>
<path d="M387.984 371.377C386.333 371.377 384.675 371.34 383.035 371.27C377.473 371.007 371.938 370.303 366.566 369.173C361.977 368.21 357.449 366.936 353.105 365.388C347.923 363.557 342.821 361.278 337.945 358.622C336.147 357.631 334.575 356.716 333.131 355.82C329.992 353.89 326.892 351.747 323.925 349.454C309.91 338.615 298.839 324.247 291.91 307.903C279.413 278.423 281.047 245.429 296.4 217.378C305.272 201.153 318.309 187.57 334.104 178.104C337.087 176.303 340.272 174.606 343.561 173.059C345.68 172.064 347.887 171.124 350.118 170.26C357.069 167.561 364.331 165.603 371.699 164.442C379.133 163.264 386.697 162.89 394.174 163.332C397.434 163.526 400.731 163.881 403.975 164.388C405.241 164.576 406.485 164.792 407.648 165.026C418.146 167.028 428.341 170.69 437.917 175.899C488.389 203.412 507.026 266.774 479.466 317.144C461.412 350.156 426.758 370.935 389.023 371.371C388.677 371.373 388.331 371.375 387.986 371.375L387.984 371.377ZM388.062 169.85C382.946 169.85 377.815 170.254 372.745 171.057C365.846 172.143 359.051 173.976 352.545 176.503C350.453 177.312 348.392 178.192 346.415 179.121C343.336 180.566 340.357 182.155 337.564 183.84C322.784 192.699 310.589 205.404 302.287 220.587C287.924 246.833 286.395 277.708 298.089 305.295C304.57 320.585 314.925 334.024 328.033 344.161C330.811 346.307 333.714 348.315 336.66 350.126C338.019 350.968 339.494 351.826 341.176 352.754C345.727 355.233 350.5 357.364 355.354 359.08C359.423 360.529 363.658 361.72 367.951 362.62C372.973 363.676 378.151 364.336 383.34 364.58C385.195 364.661 387.094 364.691 388.952 364.675C424.254 364.27 456.682 344.827 473.575 313.936C499.363 266.806 481.924 207.521 434.702 181.779C425.738 176.903 416.201 173.475 406.353 171.598C405.269 171.38 404.137 171.184 402.96 171.009C399.902 170.53 396.82 170.199 393.774 170.018C391.875 169.904 389.97 169.848 388.062 169.848V169.85Z" fill="#371A45"/>
<path d="M308.049 328.887C362.946 375.602 445.843 354.038 456.914 283.586C464.446 235.655 423.238 191.289 376.65 187.017C342.742 183.909 308.275 195.679 289.054 246.882C289.054 246.882 284.053 270.862 289.076 287.629C294.1 304.397 301.82 319.859 301.82 319.859L308.049 328.887Z" fill="#371A45"/>
<path d="M288.043 283.411C288.318 284.852 288.664 286.265 289.074 287.625C294.098 304.391 301.824 319.863 301.824 319.863L308.053 328.887C362.944 375.604 445.841 354.036 456.914 283.588C457.63 279.041 457.901 274.521 457.776 270.066C426.329 325.113 347.197 336.029 291.849 288.931L288.041 283.411H288.043Z" fill="#21102B"/>
<path d="M373.709 366.579C367.096 366.579 360.42 365.977 353.768 364.75C353.636 364.726 353.505 364.691 353.378 364.645C348.228 362.824 343.164 360.564 338.325 357.925C336.543 356.942 334.984 356.034 333.55 355.146C330.433 353.23 327.357 351.103 324.41 348.826C310.502 338.07 299.516 323.811 292.64 307.592C280.236 278.336 281.86 245.59 297.095 217.751C305.901 201.647 318.839 188.17 334.512 178.776C334.664 178.685 334.826 178.61 334.992 178.552C347.587 174.192 361.868 172.704 377.428 174.133C405.152 176.675 432.412 191.914 450.351 214.897C466.836 236.016 473.793 261.135 469.945 285.627C465.76 312.245 452.584 334.065 431.842 348.727C415.323 360.406 394.868 366.577 373.713 366.577L373.709 366.579ZM354.898 359.754C381.407 364.587 408.362 359.052 428.873 344.553C448.46 330.706 460.908 310.057 464.874 284.836C468.501 261.758 461.905 238.037 446.3 218.046C429.217 196.157 403.293 181.65 376.953 179.234C362.232 177.886 348.76 179.254 336.919 183.305C322.131 192.225 309.918 204.982 301.591 220.207C287.113 246.666 285.569 277.791 297.36 305.6C303.895 321.015 314.333 334.563 327.547 344.783C330.348 346.947 333.275 348.969 336.244 350.796C337.611 351.644 339.097 352.508 340.792 353.442C345.322 355.911 350.069 358.036 354.898 359.754Z" fill="#371A45"/>
<path d="M373.074 357.974C354.937 357.974 336.486 352.827 319.86 342.694C311.639 337.684 304.631 331.027 299.031 322.911C298.96 322.808 298.895 322.701 298.841 322.588C298.521 321.948 290.959 306.726 285.927 289.933C280.77 272.715 285.64 248.882 285.849 247.877C285.877 247.744 285.915 247.613 285.964 247.486C302.786 202.665 333.186 181.941 376.308 185.899C401.079 188.17 425.435 201.783 441.459 222.313C456.192 241.188 462.411 263.644 458.971 285.54C454.362 314.879 437.541 337.634 411.614 349.613C399.501 355.209 386.372 357.976 373.076 357.976L373.074 357.974ZM303.547 320.043C308.698 327.465 315.125 333.552 322.649 338.138C349.935 354.769 382.353 357.245 409.365 344.767C433.622 333.56 449.36 312.233 453.684 284.713C456.894 264.288 451.053 243.293 437.238 225.593C422.106 206.205 399.145 193.354 375.819 191.216C335.465 187.52 306.936 207.009 291.048 249.159C290.599 251.438 286.516 273.264 291.052 288.405C295.674 303.832 302.71 318.341 303.547 320.045V320.043Z" fill="#371A45"/>
<g opacity="0.5">
<path d="M431.817 266.619C432.871 258.017 427.73 250.312 420.333 249.41C412.937 248.507 406.087 254.749 405.034 263.351C403.98 271.954 409.121 279.659 416.518 280.561C423.914 281.464 430.764 275.222 431.817 266.619Z" fill="white"/>
</g>
<g opacity="0.5">
<path d="M422.901 299.169C423.635 295.667 421.788 292.318 418.776 291.689C415.764 291.06 412.727 293.39 411.993 296.893C411.259 300.396 413.106 303.745 416.118 304.373C419.13 305.002 422.167 302.672 422.901 299.169Z" fill="white"/>
</g>
<g opacity="0.5">
<path d="M295.9 276.116C295.9 276.116 296.06 195.711 378.278 199.26C378.278 199.26 318.76 214.356 295.9 276.116Z" fill="white"/>
</g>
<path d="M447.032 285.038C447.008 285.179 446.984 285.33 446.97 285.474C444.086 304.924 453.257 321.873 467.584 323.44C482.016 325.022 496.214 310.378 499.302 290.742C501.679 275.595 496.742 261.892 487.722 255.709C485.064 253.874 482.041 252.697 478.752 252.34C464.318 250.766 450.113 265.41 447.034 285.038H447.032Z" fill="white"/>
<g opacity="0.35">
<path d="M446.968 285.471C444.084 304.922 453.255 321.871 467.582 323.437C482.014 325.02 496.212 310.376 499.3 290.74C499.816 287.451 499.988 284.23 499.846 281.14C499.248 267.997 482.277 263.005 474.406 273.558L465.936 284.914C465.936 284.914 460.924 292.639 452.766 291.281C449.997 290.82 448.171 288.43 446.968 285.471Z" fill="#371A45"/>
</g>
<path d="M469.67 326.901C468.852 326.901 468.033 326.857 467.212 326.768C460.706 326.057 454.96 322.676 450.6 316.99C444.278 308.745 441.766 296.91 443.714 284.521C447.067 263.179 462.951 247.243 479.11 249.015C485.618 249.726 491.362 253.107 495.723 258.795C502.045 267.043 504.554 278.875 502.609 291.263C499.428 311.52 484.955 326.901 469.668 326.901H469.67ZM476.58 255.574C464.553 255.574 453.015 268.546 450.341 285.558C448.701 295.992 450.79 306.222 455.929 312.921C459.147 317.12 463.303 319.606 467.94 320.111C468.541 320.176 469.144 320.21 469.742 320.21C481.77 320.21 493.31 307.239 495.981 290.225C497.622 279.793 495.532 269.564 490.395 262.864C487.176 258.666 483.022 256.179 478.382 255.672C477.781 255.608 477.179 255.574 476.58 255.574Z" fill="#371A45"/>
<path d="M501.915 296.898C505.655 281.791 499.398 267.253 487.94 264.427C476.482 261.601 464.161 271.557 460.421 286.664C456.681 301.771 462.937 316.308 474.396 319.134C485.854 321.96 498.175 312.004 501.915 296.898Z" fill="white"/>
<path d="M478.326 319.867C474.746 319.867 471.298 318.743 468.333 316.569C458.423 309.3 456.083 292.264 463.119 278.595C467.03 270.995 473.15 265.727 479.911 264.138C484.894 262.966 489.886 263.969 493.963 266.96C503.873 274.229 506.213 291.265 499.175 304.934C495.263 312.534 489.146 317.802 482.385 319.391C481.025 319.71 479.664 319.869 478.324 319.869L478.326 319.867ZM484.043 264.197C482.73 264.197 481.392 264.354 480.039 264.673C473.435 266.226 467.449 271.391 463.61 278.845C456.694 292.284 458.959 309.008 468.66 316.125C472.663 319.06 477.365 320.002 482.261 318.854C488.862 317.302 494.851 312.136 498.687 304.682C505.604 291.243 503.341 274.52 493.639 267.402C490.743 265.279 487.481 264.197 484.045 264.197H484.043Z" fill="#371A45"/>
<g opacity="0.35">
<path d="M459.027 299.837C458.536 294.442 459.525 288.893 461.606 283.863C463.766 296.071 473.581 302.449 484.433 298.23C491.447 295.507 497.278 288.982 500.493 281.196C500.635 281.965 500.736 282.767 500.813 283.584C502.059 297.322 494.281 313.684 482.741 318.169C471.2 322.656 460.277 313.567 459.03 299.835L459.027 299.837Z" fill="#371A45"/>
</g>
<path d="M478.032 323.833C477.446 323.833 476.857 323.803 476.269 323.744C471.368 323.25 467.022 320.706 463.699 316.391C458.562 309.72 456.51 299.45 458.206 288.919C461.107 270.928 473.449 257.854 486.276 259.152C491.176 259.647 495.522 262.19 498.845 266.506C503.982 273.177 506.035 283.447 504.338 293.977C501.571 311.143 490.221 323.833 478.03 323.833H478.032ZM484.559 265.761C475.878 265.761 467.002 276.509 464.832 289.981C463.422 298.725 464.99 307.073 469.02 312.309C470.533 314.273 473.136 316.696 476.944 317.081C485.976 318 495.458 306.924 497.715 292.914C499.124 284.168 497.557 275.821 493.526 270.585C492.013 268.621 489.413 266.199 485.602 265.813C485.256 265.779 484.906 265.761 484.559 265.761Z" fill="#371A45"/>
<path d="M186.126 618.663C186.126 618.663 186.371 587.954 201.756 575.524C217.14 563.094 231.061 570.649 232.28 587.223C233.502 603.797 251.253 597.647 261.941 586.979C272.63 576.311 287.226 586.735 283.076 600.628C278.924 614.521 295.285 614.033 310.427 611.839C310.427 611.839 234.236 642.427 186.128 618.663H186.126Z" fill="#371A45"/>
<path d="M333.627 605.747C333.627 605.747 356.211 579.983 376.055 569.345C395.899 558.708 414.702 555.783 417.632 563.338C420.563 570.893 401.758 579.547 408.72 587.833C415.679 596.119 424.715 585.273 432.04 585.273C439.365 585.273 445.35 597.217 435.092 603.066C435.092 603.066 450.843 604.651 442.785 618.665L333.627 605.747Z" fill="#371A45"/>
<path d="M39.9605 574.465C42.4854 570.577 40.9192 565.088 36.4624 562.205C32.0056 559.322 26.3458 560.136 23.8209 564.024C21.2961 567.912 22.8622 573.401 27.3191 576.284C31.7759 579.167 37.4357 578.353 39.9605 574.465Z" fill="#371A45"/>
<path d="M258.917 572.422C261.806 567.974 260.99 562.325 257.094 559.805C253.199 557.285 247.699 558.848 244.811 563.297C241.922 567.745 242.738 573.393 246.633 575.913C250.529 578.433 256.028 576.87 258.917 572.422Z" fill="#371A45"/>
<path d="M250.899 564.665L252.875 564.97C253.271 565.03 253.581 565.341 253.641 565.735L253.947 567.707L254.252 565.735C254.313 565.339 254.624 565.03 255.019 564.97L256.995 564.665L255.019 564.36C254.622 564.3 254.313 563.989 254.252 563.595L253.947 561.623L253.641 563.595C253.581 563.991 253.269 564.3 252.875 564.36L250.899 564.665Z" fill="#FFD985"/>
<path d="M449.221 571.96C446.464 571.376 444.881 568.462 445.862 565.825C447.615 561.116 451.278 554.397 458.36 551.944C469.716 548.014 478.049 555.053 477.132 562.82C476.289 569.975 467.057 575.734 449.219 571.958L449.221 571.96Z" fill="#371A45"/>
<path d="M455.12 563.339L457.096 563.644C457.492 563.704 457.802 564.015 457.863 564.409L458.168 566.381L458.473 564.409C458.534 564.013 458.846 563.704 459.24 563.644L461.216 563.339L459.24 563.034C458.843 562.973 458.534 562.663 458.473 562.269L458.168 560.297L457.863 562.269C457.802 562.665 457.49 562.973 457.096 563.034L455.12 563.339Z" fill="#FFD985"/>
<path d="M41.4093 627.706L45.2964 628.305C46.0751 628.424 46.6858 629.036 46.8072 629.813L47.4078 633.692L48.0085 629.813C48.1278 629.036 48.7406 628.426 49.5193 628.305L53.4064 627.706L49.5193 627.106C48.7406 626.987 48.1298 626.375 48.0085 625.598L47.4078 621.719L46.8072 625.598C46.6879 626.375 46.0751 626.985 45.2964 627.106L41.4093 627.706Z" fill="#FFD985"/>
<path d="M242.585 608.926L246.472 609.526C247.25 609.645 247.861 610.256 247.983 611.034L248.583 614.913L249.184 611.034C249.303 610.256 249.916 609.647 250.695 609.526L254.582 608.926L250.695 608.327C249.916 608.208 249.305 607.596 249.184 606.819L248.583 602.939L247.983 606.819C247.863 607.596 247.25 608.206 246.472 608.327L242.585 608.926Z" fill="#FFD985"/>
<path d="M405.987 629.854L409.874 630.454C410.653 630.573 411.264 631.184 411.385 631.961L411.986 635.841L412.586 631.961C412.706 631.184 413.318 630.575 414.097 630.454L417.984 629.854L414.097 629.255C413.318 629.135 412.708 628.524 412.586 627.747L411.986 623.867L411.385 627.747C411.266 628.524 410.653 629.133 409.874 629.255L405.987 629.854Z" fill="#FFD985"/>
<path d="M166.082 635.838L169.969 636.438C170.748 636.557 171.359 637.169 171.48 637.946L172.081 641.825L172.681 637.946C172.801 637.169 173.413 636.559 174.192 636.438L178.079 635.838L174.192 635.239C173.413 635.12 172.803 634.508 172.681 633.731L172.081 629.852L171.48 633.731C171.361 634.508 170.748 635.118 169.969 635.239L166.082 635.838Z" fill="#FFD985"/>
<path d="M323.735 638.939L327.622 639.538C328.401 639.658 329.011 640.269 329.133 641.046L329.733 644.926L330.334 641.046C330.453 640.269 331.066 639.66 331.845 639.538L335.732 638.939L331.845 638.34C331.066 638.22 330.455 637.609 330.334 636.832L329.733 632.952L329.133 636.832C329.013 637.609 328.401 638.218 327.622 638.34L323.735 638.939Z" fill="#FFD985"/>
<path d="M83.1401 602.582L85.6702 602.972C86.1778 603.051 86.5742 603.446 86.6531 603.953L87.0434 606.478L87.4338 603.953C87.5126 603.446 87.909 603.051 88.4167 602.972L90.9467 602.582L88.4167 602.193C87.909 602.114 87.5126 601.718 87.4338 601.212L87.0434 598.687L86.6531 601.212C86.5742 601.718 86.1778 602.114 85.6702 602.193L83.1401 602.582Z" fill="#FFD985"/>
<path d="M252.555 648.821L255.085 649.211C255.593 649.29 255.99 649.685 256.068 650.192L256.459 652.717L256.849 650.192C256.928 649.685 257.324 649.29 257.832 649.211L260.362 648.821L257.832 648.432C257.324 648.353 256.928 647.958 256.849 647.451L256.459 644.926L256.068 647.451C255.99 647.958 255.593 648.353 255.085 648.432L252.555 648.821Z" fill="#FFD985"/>
<path d="M385.449 580.618L387.979 581.008C388.487 581.087 388.883 581.482 388.962 581.989L389.353 584.514L389.743 581.989C389.822 581.482 390.218 581.087 390.726 581.008L393.256 580.618L390.726 580.229C390.218 580.15 389.822 579.754 389.743 579.248L389.353 576.723L388.962 579.248C388.883 579.754 388.487 580.15 387.979 580.229L385.449 580.618Z" fill="#FFD985"/>
<path d="M206.252 584.514L208.782 584.903C209.289 584.982 209.686 585.378 209.765 585.884L210.155 588.41L210.545 585.884C210.624 585.378 211.021 584.982 211.528 584.903L214.058 584.514L211.528 584.124C211.021 584.046 210.624 583.65 210.545 583.143L210.155 580.618L209.765 583.143C209.686 583.65 209.289 584.046 208.782 584.124L206.252 584.514Z" fill="#FFD985"/>
<path d="M111.855 640.957L114.385 641.347C114.892 641.426 115.289 641.821 115.368 642.328L115.758 644.853L116.148 642.328C116.227 641.821 116.624 641.426 117.131 641.347L119.661 640.957L117.131 640.568C116.624 640.489 116.227 640.093 116.148 639.587L115.758 637.062L115.368 639.587C115.289 640.093 114.892 640.489 114.385 640.568L111.855 640.957Z" fill="#FFD985"/>
<path d="M360.274 608.926L362.804 609.316C363.312 609.394 363.708 609.79 363.787 610.297L364.177 612.822L364.568 610.297C364.647 609.79 365.043 609.394 365.551 609.316L368.081 608.926L365.551 608.536C365.043 608.458 364.647 608.062 364.568 607.555L364.177 605.03L363.787 607.555C363.708 608.062 363.312 608.458 362.804 608.536L360.274 608.926Z" fill="#FFD985"/>
<path d="M26.7972 567.706L28.7732 568.011C29.1696 568.071 29.479 568.382 29.5397 568.776L29.845 570.748L30.1504 568.776C30.2111 568.38 30.5226 568.071 30.9169 568.011L32.8929 567.706L30.9169 567.401C30.5205 567.341 30.2111 567.03 30.1504 566.636L29.845 564.664L29.5397 566.636C29.479 567.032 29.1675 567.341 28.7732 567.401L26.7972 567.706Z" fill="#FFD985"/>
</svg>
