<svg width="183" height="128" viewBox="0 0 183 128" fill="none" xmlns="http://www.w3.org/2000/svg">
<path d="M144.248 54.1148C143.211 54.1148 142.231 53.7214 141.478 53.0018C140.703 52.2603 140.263 51.2609 140.239 50.1881C140.215 49.1153 140.609 48.0968 141.349 47.3207C142.878 45.7183 145.422 45.6607 147.022 47.1913C147.797 47.9329 148.237 48.9322 148.262 50.005C148.286 51.0778 147.892 52.0963 147.151 52.8724C146.411 53.6485 145.413 54.0893 144.342 54.1136C144.31 54.1142 144.279 54.1148 144.248 54.1148ZM144.251 47.2648C143.505 47.2648 142.76 47.5576 142.205 48.1392C141.683 48.6863 141.405 49.4042 141.422 50.161C141.439 50.9178 141.75 51.6221 142.296 52.145C142.843 52.6678 143.559 52.9481 144.315 52.9289C145.07 52.9114 145.774 52.6011 146.296 52.054C146.818 51.5068 147.096 50.789 147.079 50.0321C147.062 49.2753 146.752 48.571 146.205 48.0482C145.658 47.5248 144.955 47.2648 144.252 47.2648H144.251Z" fill="#000072"/>
<path d="M53.2016 35.2515C53.2016 35.2515 25.9413 35.815 18.6129 46.083C11.2851 56.3509 22.7902 60.5081 15.7547 65.5127C8.71977 70.5172 -9.3958 85.9304 6.08168 89.2675C18.3194 91.9065 29.8245 99.8926 23.4494 104.684C17.0737 109.475 6.49709 125.257 73.4292 127.601C138.867 129.893 121.449 116.559 138.427 114.476C148.864 113.195 168.546 112.185 171.843 100.726C175.141 89.2675 164.148 87.5514 167.666 81.43C171.183 75.3086 192.728 68.1127 177.778 52.6486C167.882 42.4107 151.728 44.8813 157.553 39.5167C165.834 31.8907 130.705 19.8745 106.902 19.2669C83.0988 18.6592 82.6913 32.9522 53.2016 35.2515Z" fill="#371A45"/>
<path d="M135.349 34.7888C135.349 34.6039 135.783 34.4434 136.426 34.358C136.746 34.3157 136.999 34.063 137.04 33.7431C137.125 33.0993 137.286 32.6641 137.47 32.6641C137.655 32.6641 137.815 33.0987 137.901 33.7431C137.943 34.063 138.195 34.3162 138.515 34.358C139.158 34.4428 139.592 34.6039 139.592 34.7888C139.592 34.9736 139.158 35.1341 138.515 35.2195C138.195 35.2618 137.942 35.5145 137.901 35.8344C137.816 36.4782 137.655 36.9134 137.47 36.9134C137.286 36.9134 137.126 36.4788 137.04 35.8344C136.998 35.5145 136.746 35.2613 136.426 35.2195C135.783 35.1347 135.349 34.9736 135.349 34.7888Z" fill="#FFD400"/>
<path d="M40.4034 113.339C40.4034 113.154 40.8375 112.993 41.4809 112.908C41.8004 112.865 42.0532 112.613 42.095 112.293C42.1797 111.649 42.3405 111.214 42.5251 111.214C42.7097 111.214 42.8699 111.649 42.9552 112.293C42.9975 112.613 43.2498 112.866 43.5693 112.908C44.2121 112.993 44.6467 113.154 44.6467 113.339C44.6467 113.523 44.2127 113.684 43.5693 113.769C43.2498 113.812 42.9969 114.064 42.9552 114.384C42.8705 115.028 42.7097 115.463 42.5251 115.463C42.3405 115.463 42.1802 115.029 42.095 114.384C42.0527 114.064 41.8004 113.811 41.4809 113.769C40.838 113.684 40.4034 113.523 40.4034 113.339Z" fill="#FFD400"/>
<path d="M59.978 106.984C59.978 106.799 60.4121 106.638 61.0555 106.553C61.375 106.51 61.6278 106.258 61.6696 105.938C61.7543 105.294 61.9151 104.859 62.0997 104.859C62.2842 104.859 62.4445 105.294 62.5298 105.938C62.5721 106.258 62.8244 106.511 63.1438 106.553C63.7867 106.638 64.2213 106.799 64.2213 106.984C64.2213 107.168 63.7873 107.329 63.1438 107.414C62.8244 107.457 62.5715 107.709 62.5298 108.029C62.4451 108.673 62.2842 109.108 62.0997 109.108C61.9151 109.108 61.7548 108.674 61.6696 108.029C61.6273 107.709 61.375 107.456 61.0555 107.414C60.4126 107.329 59.978 107.168 59.978 106.984Z" fill="#FFD400"/>
<path d="M24.3745 72.3503C24.3745 72.1654 24.8085 72.0049 25.452 71.9196C25.7714 71.8772 26.0243 71.6245 26.0661 71.3046C26.1507 70.6608 26.3116 70.2256 26.4962 70.2256C26.6807 70.2256 26.841 70.6602 26.9262 71.3046C26.9686 71.6245 27.2209 71.8777 27.5403 71.9196C28.1832 72.0044 28.6178 72.1654 28.6178 72.3503C28.6178 72.5351 28.1838 72.6956 27.5403 72.781C27.2209 72.8234 26.968 73.076 26.9262 73.3959C26.8416 74.0397 26.6807 74.475 26.4962 74.475C26.3116 74.475 26.1513 74.0403 26.0661 73.3959C26.0237 73.076 25.7714 72.8228 25.452 72.781C24.8091 72.6962 24.3745 72.5351 24.3745 72.3503Z" fill="#FFD400"/>
<path d="M15.5561 81.5382C15.5561 81.4172 15.8406 81.3115 16.2622 81.2561C16.4716 81.2284 16.637 81.0628 16.6646 80.8531C16.7199 80.4309 16.8255 80.146 16.9463 80.146C17.067 80.146 17.1726 80.4309 17.2279 80.8531C17.2556 81.0628 17.4209 81.2284 17.6303 81.2561C18.052 81.3115 18.3364 81.4172 18.3364 81.5382C18.3364 81.6591 18.052 81.7648 17.6303 81.8202C17.4209 81.8479 17.2556 82.0135 17.2279 82.2232C17.1726 82.6454 17.067 82.9303 16.9463 82.9303C16.8255 82.9303 16.7199 82.6454 16.6646 82.2232C16.637 82.0135 16.4716 81.8479 16.2622 81.8202C15.8406 81.7648 15.5561 81.6591 15.5561 81.5382Z" fill="#FFD400"/>
<path d="M83.9213 112.594C83.9213 112.473 84.2057 112.367 84.6274 112.312C84.8368 112.284 85.0021 112.118 85.0298 111.909C85.0851 111.487 85.1906 111.202 85.3114 111.202C85.4322 111.202 85.5378 111.487 85.5931 111.909C85.6207 112.118 85.7861 112.284 85.9955 112.312C86.4171 112.367 86.7016 112.473 86.7016 112.594C86.7016 112.715 86.4171 112.82 85.9955 112.876C85.7861 112.904 85.6207 113.069 85.5931 113.279C85.5378 113.701 85.4322 113.986 85.3114 113.986C85.1906 113.986 85.0851 113.701 85.0298 113.279C85.0021 113.069 84.8368 112.904 84.6274 112.876C84.2057 112.82 83.9213 112.715 83.9213 112.594Z" fill="#FFD400"/>
<path d="M26.6785 48.1817C26.6785 48.0607 26.963 47.9551 27.3846 47.8997C27.594 47.872 27.7594 47.7064 27.787 47.4967C27.8424 47.0744 27.9479 46.7896 28.0687 46.7896C28.1895 46.7896 28.295 47.0744 28.3503 47.4967C28.378 47.7064 28.5434 47.872 28.7528 47.8997C29.1744 47.9551 29.4589 48.0607 29.4589 48.1817C29.4589 48.3027 29.1744 48.4084 28.7528 48.4638C28.5434 48.4915 28.378 48.6571 28.3503 48.8668C28.295 49.289 28.1895 49.5739 28.0687 49.5739C27.9479 49.5739 27.8424 49.289 27.787 48.8668C27.7594 48.6571 27.594 48.4915 27.3846 48.4638C26.963 48.4084 26.6785 48.3027 26.6785 48.1817Z" fill="#FFD400"/>
<path d="M125.588 105.31C125.588 105.189 125.872 105.083 126.294 105.028C126.503 105 126.669 104.834 126.696 104.625C126.752 104.202 126.857 103.917 126.978 103.917C127.099 103.917 127.204 104.202 127.26 104.625C127.287 104.834 127.453 105 127.662 105.028C128.084 105.083 128.368 105.189 128.368 105.31C128.368 105.431 128.084 105.536 127.662 105.592C127.453 105.619 127.287 105.785 127.26 105.995C127.204 106.417 127.099 106.702 126.978 106.702C126.857 106.702 126.752 106.417 126.696 105.995C126.669 105.785 126.503 105.619 126.294 105.592C125.872 105.536 125.588 105.431 125.588 105.31Z" fill="#FFD400"/>
<path d="M32.1098 95.0379C32.4409 95.0379 32.7093 94.7692 32.7093 94.4377C32.7093 94.1062 32.4409 93.8374 32.1098 93.8374C31.7788 93.8374 31.5104 94.1062 31.5104 94.4377C31.5104 94.7692 31.7788 95.0379 32.1098 95.0379Z" fill="#FFD400"/>
<path d="M169.864 58.0811C169.864 57.9602 169.579 57.8545 169.157 57.7991C168.948 57.7714 168.783 57.6058 168.755 57.3961C168.7 56.9738 168.594 56.689 168.473 56.689C168.353 56.689 168.247 56.9738 168.192 57.3961C168.164 57.6058 167.999 57.7714 167.789 57.7991C167.368 57.8545 167.083 57.9602 167.083 58.0811C167.083 58.2021 167.368 58.3078 167.789 58.3632C167.999 58.3909 168.164 58.5565 168.192 58.7662C168.247 59.1884 168.353 59.4733 168.473 59.4733C168.594 59.4733 168.7 59.1884 168.755 58.7662C168.783 58.5565 168.948 58.3909 169.157 58.3632C169.579 58.3078 169.864 58.2021 169.864 58.0811Z" fill="#FFD400"/>
<path d="M161.211 68.7547C161.542 68.7547 161.81 68.486 161.81 68.1545C161.81 67.8229 161.542 67.5542 161.211 67.5542C160.88 67.5542 160.612 67.8229 160.612 68.1545C160.612 68.486 160.88 68.7547 161.211 68.7547Z" fill="#FFD400"/>
<path d="M144.042 42.6966C144.373 42.6966 144.641 42.4279 144.641 42.0964C144.641 41.7648 144.373 41.4961 144.042 41.4961C143.711 41.4961 143.443 41.7648 143.443 42.0964C143.443 42.4279 143.711 42.6966 144.042 42.6966Z" fill="#FFD400"/>
<path d="M104.575 119.599C104.906 119.599 105.174 119.331 105.174 118.999C105.174 118.668 104.906 118.399 104.575 118.399C104.244 118.399 103.976 118.668 103.976 118.999C103.976 119.331 104.244 119.599 104.575 119.599Z" fill="#FFD400"/>
<path d="M41.0909 47.7538C41.422 47.7538 41.6903 47.485 41.6903 47.1535C41.6903 46.822 41.422 46.5532 41.0909 46.5532C40.7599 46.5532 40.4915 46.822 40.4915 47.1535C40.4915 47.485 40.7599 47.7538 41.0909 47.7538Z" fill="#FFD400"/>
<path d="M145.902 105.688C146.233 105.688 146.502 105.42 146.502 105.088C146.502 104.757 146.233 104.488 145.902 104.488C145.571 104.488 145.303 104.757 145.303 105.088C145.303 105.42 145.571 105.688 145.902 105.688Z" fill="#FFD400"/>
<path d="M156.776 96.8163C157.107 96.8163 157.376 96.5475 157.376 96.216C157.376 95.8845 157.107 95.6157 156.776 95.6157C156.445 95.6157 156.177 95.8845 156.177 96.216C156.177 96.5475 156.445 96.8163 156.776 96.8163Z" fill="#FFD400"/>
<path d="M151.214 86.0753C151.214 85.9329 151.549 85.8086 152.046 85.743C152.293 85.7102 152.488 85.5152 152.52 85.2682C152.586 84.7708 152.71 84.4351 152.852 84.4351C152.994 84.4351 153.118 84.7708 153.184 85.2682C153.217 85.5152 153.411 85.7108 153.658 85.743C154.155 85.8086 154.49 85.9329 154.49 86.0753C154.49 86.2178 154.155 86.3421 153.658 86.4077C153.411 86.4405 153.216 86.6355 153.184 86.8825C153.118 87.3799 152.994 87.7156 152.852 87.7156C152.71 87.7156 152.586 87.3799 152.52 86.8825C152.487 86.6355 152.293 86.4399 152.046 86.4077C151.549 86.3421 151.214 86.2178 151.214 86.0753Z" fill="#FFD400"/>
<g opacity="0.3">
<path d="M150.844 73.4902C150.844 82.7401 146.03 91.1501 137.082 97.4044C130.531 101.984 121.766 105.408 111.048 107.158C105.831 108.011 100.149 108.467 94.0368 108.467C87.9241 108.467 82.2427 108.011 77.0252 107.158C66.1263 105.379 57.2446 101.867 50.6584 97.1698C41.9229 90.9416 37.2275 82.6259 37.2275 73.4907C37.2275 64.9303 41.3506 57.8605 49.0611 52.6451C58.7471 46.093 74.0947 42.4614 94.0368 42.4614C113.979 42.4614 129.149 46.0495 138.843 52.5326C146.662 57.7576 150.844 64.867 150.844 73.4907L150.844 73.4902Z" fill="#371A45"/>
</g>
<path d="M150.844 67.5663C150.844 76.8163 146.03 85.2263 137.082 91.4805C130.531 96.06 121.766 99.4842 111.048 101.234C105.831 102.087 100.149 102.543 94.0368 102.543C87.9241 102.543 82.2427 102.087 77.0252 101.234C66.1263 99.4548 57.2446 95.9436 50.6584 91.246C41.9229 85.0177 37.2275 76.7021 37.2275 67.5669C37.2275 59.0065 41.3506 51.9367 49.0611 46.7213C58.7471 40.1692 74.0947 36.5376 94.0368 36.5376C113.979 36.5376 129.149 40.1257 138.843 46.6088C146.662 51.8338 150.844 58.9432 150.844 67.5669L150.844 67.5663Z" fill="white"/>
<path d="M111.048 101.233C105.831 102.086 100.149 102.542 94.0367 102.542C87.9241 102.542 82.2426 102.086 77.0251 101.233C77.5201 85.8737 80.4783 70.4684 84.6781 55.0908C91.0278 56.6232 97.0422 56.6232 103.394 55.0908C107.598 70.478 110.556 85.7827 111.049 101.233H111.048Z" fill="#F42222"/>
<path d="M75.9895 59.0133C62.8346 62.4397 53.1232 76.5528 50.6584 91.2454C41.9229 85.0171 37.2275 76.7015 37.2275 67.5663C37.2275 59.0059 41.3506 51.9361 49.0611 46.7207C58.6189 52.1333 71.5532 60.0838 75.9895 59.0133Z" fill="#F42222"/>
<path d="M150.844 67.566C150.844 76.8159 146.03 85.2259 137.082 91.4802C134.684 76.7051 124.939 62.4575 111.713 59.0135C116.181 60.092 129.267 52.0211 138.842 46.6079C146.661 51.8329 150.844 58.9423 150.844 67.566Z" fill="#F42222"/>
<g opacity="0.5">
<path d="M62.9147 59.7819C62.9147 59.7819 69.0917 68.7554 95.1441 68.7554C95.1441 68.7554 116.292 68.5395 124.569 60.251V58.0816L114.501 55.2007L92.1233 58.3015L80.1509 59.4738L72.6565 57.5356L62.9147 59.7813V59.7819Z" fill="white"/>
</g>
<path d="M94.0357 103.334C76.8113 103.334 62.1962 99.7467 51.7703 92.9612C41.8834 86.5261 36.4379 77.5067 36.4379 67.5655C36.4379 47.6412 57.9693 35.7466 94.0351 35.7466C130.101 35.7466 151.632 47.6412 151.632 67.5655C151.632 77.5067 146.187 86.5261 136.3 92.9612C125.875 99.7467 111.259 103.334 94.0345 103.334H94.0357ZM94.0357 37.3258C58.9576 37.3258 38.016 48.6304 38.016 67.5649C38.016 76.9534 43.2064 85.5024 52.6305 91.6363C62.7996 98.2551 77.1172 101.754 94.0357 101.754C110.954 101.754 125.272 98.2551 135.441 91.6363C144.865 85.5024 150.056 76.9534 150.056 67.5649C150.056 48.6298 129.114 37.3258 94.0362 37.3258H94.0357Z" fill="#371A45"/>
<path d="M119.716 60.9988C117.347 62.1083 113.25 63.7379 107.657 64.8813C103.802 65.6732 99.235 66.2322 94.0351 66.2322C88.8351 66.2322 84.2683 65.6732 80.4128 64.8813C74.868 63.7481 70.7917 62.1343 68.4155 61.0265C66.8244 60.2838 68.4155 58.2817 68.4155 58.2817L85.3882 58.3134L102.725 58.3428L119.716 58.3744C119.716 58.3744 121.268 60.2719 119.716 60.9988Z" fill="white"/>
<path d="M94.0356 66.3701C89.3503 66.3701 84.7577 65.9145 80.3857 65.0164C74.8826 63.8916 70.8075 62.2937 68.3579 61.1514C67.947 60.9597 67.6936 60.6715 67.605 60.2956C67.3866 59.3675 68.2699 58.2421 68.3077 58.1947L68.3495 58.1421L119.782 58.2354L119.823 58.2862C119.859 58.3309 120.716 59.3907 120.514 60.282C120.43 60.6506 120.182 60.9337 119.775 61.1242C117.321 62.2739 113.231 63.8831 107.686 65.017C103.313 65.9151 98.7208 66.3707 94.0362 66.3707L94.0356 66.3701ZM68.4849 58.4196C68.3207 58.6434 67.7105 59.5371 67.8748 60.2323C67.9442 60.5257 68.1401 60.7438 68.4742 60.8998C70.9102 62.0359 74.9644 63.6248 80.4404 64.7445C84.7949 65.6393 89.3684 66.0926 94.035 66.0926C98.7016 66.0926 103.275 65.6393 107.629 64.7445C113.148 63.6163 117.216 62.0162 119.656 60.8727C119.986 60.7184 120.177 60.5053 120.242 60.2204C120.392 59.5602 119.807 58.7243 119.647 58.5123L68.4844 58.4196H68.4849Z" fill="#371A45"/>
<path d="M94.0356 67.0209C81.2933 67.0209 72.3055 63.7137 68.0819 61.7422C67.3346 61.3934 67.066 60.8446 66.9717 60.4461C66.6867 59.2348 67.6829 57.9343 67.7975 57.7901C68.0684 57.4487 68.5645 57.3916 68.9054 57.6635C69.2463 57.9348 69.3033 58.4322 69.0318 58.7736C68.7632 59.1161 68.4302 59.7639 68.5069 60.0849C68.516 60.1234 68.5374 60.2127 68.7479 60.311C72.8529 62.2272 81.5975 65.4416 94.035 65.4416C106.473 65.4416 115.272 62.2096 119.381 60.2833C119.582 60.1889 119.601 60.107 119.608 60.0765C119.677 59.7707 119.323 59.141 119.105 58.8742C118.829 58.5368 118.878 58.0388 119.215 57.7624C119.553 57.486 120.05 57.5363 120.326 57.8738C120.508 58.0976 121.408 59.2727 121.146 60.4263C121.057 60.8214 120.794 61.3652 120.05 61.7139C115.823 63.6962 106.821 67.0209 94.0356 67.0209Z" fill="#000072"/>
<path d="M116.704 60.0526C124.975 55.8145 131.049 67.9228 138.862 66.7087C140.721 66.4199 140.785 64.718 140.785 64.718C140.785 64.718 142.869 65.8095 144.2 64.9644C145.621 64.0618 145.209 62.1496 145.209 62.1496C145.209 62.1496 149.566 63.6593 147.464 57.933C146.396 55.0221 143.106 51.5646 140.043 49.2008C125.15 37.7058 114.011 47.4842 114.011 47.4842H72.3811C72.3811 47.4842 61.2429 37.7058 46.349 49.2008C43.2859 51.5652 39.9965 55.0221 38.9281 57.933C36.8256 63.6593 41.1829 62.1496 41.1829 62.1496C41.1829 62.1496 40.7709 64.0612 42.1921 64.9644C43.523 65.81 45.6068 64.718 45.6068 64.718C45.6068 64.718 45.6712 66.4193 47.5304 66.7087C55.3442 67.9228 61.4167 55.8145 69.6877 60.0526" fill="white"/>
<path d="M137.755 66.9329C134.636 66.9329 131.76 64.9857 128.967 63.0956C125.177 60.5294 121.257 57.8762 116.768 60.1762L116.641 59.9291C121.276 57.5541 125.265 60.2542 129.123 62.8655C132.204 64.9512 135.39 67.1075 138.841 66.5717C140.567 66.3032 140.647 64.7291 140.648 64.7132L140.656 64.4939L140.85 64.5957C140.87 64.6058 142.879 65.6396 144.127 64.8478C145.448 64.0084 145.079 62.198 145.075 62.1793L145.023 61.9391L145.255 62.0188C145.27 62.0239 146.763 62.5275 147.489 61.7848C148.08 61.1811 148.027 59.8658 147.335 57.9808C146.209 54.9133 142.657 51.3931 139.959 49.3102C132.314 43.4092 125.693 43.2549 121.486 44.1644C116.923 45.1501 114.131 47.5642 114.103 47.5885L114.064 47.623H72.3303L72.2914 47.5885C72.2637 47.5642 69.471 45.1507 64.9088 44.1644C60.7005 43.2544 54.0798 43.4098 46.4354 49.3102C43.7363 51.3931 40.1855 54.9139 39.0601 57.9808C38.3676 59.8658 38.3145 61.1817 38.906 61.7848C39.6347 62.5286 41.1242 62.0233 41.14 62.0182L41.372 61.938L41.3206 62.1787C41.3166 62.1968 40.9475 64.0078 42.2688 64.8472C43.5162 65.6396 45.5249 64.6058 45.5453 64.5951L45.7389 64.4939L45.7479 64.7121C45.7507 64.7771 45.8342 66.3038 47.5546 66.5711C51.0054 67.107 54.1916 64.9501 57.2728 62.8649C61.1306 60.2536 65.1199 57.5546 69.7537 59.9286L69.6273 60.1756C65.1385 57.8757 61.2186 60.5289 57.4274 63.0944C54.3017 65.2101 51.0675 67.3986 47.5117 66.8453C45.9567 66.6039 45.5842 65.4085 45.4967 64.9258C44.9532 65.1733 43.287 65.8222 42.1204 65.0812C40.9306 64.3255 40.9571 62.8932 41.0169 62.3432C40.54 62.467 39.3846 62.6699 38.7085 61.9792C38.0272 61.284 38.0583 59.9065 38.8005 57.8847C39.9468 54.763 43.5393 51.1958 46.2672 49.0903C54.0031 43.1198 60.714 42.9701 64.9821 43.8959C69.3095 44.8347 72.0712 47.0425 72.4342 47.3449H113.962C114.325 47.0425 117.087 44.8342 121.415 43.8959C125.683 42.9701 132.394 43.1204 140.13 49.0903C142.858 51.1958 146.45 54.7618 147.597 57.8847C148.338 59.906 148.369 61.2834 147.689 61.9792C147.012 62.6694 145.857 62.467 145.38 62.3432C145.44 62.8932 145.467 64.3255 144.277 65.0812C143.11 65.8222 141.444 65.1739 140.9 64.9258C140.813 65.4085 140.441 66.6034 138.885 66.8453C138.506 66.9041 138.13 66.9323 137.757 66.9323L137.755 66.9329Z" fill="#371A45"/>
<g opacity="0.3">
<path d="M69.1712 59.8078C61.1633 56.3164 55.1804 67.8985 47.5314 66.7098C45.6717 66.4193 45.6068 64.7191 45.6068 64.7191C45.6068 64.7191 43.5246 65.8111 42.1932 64.9638C40.7714 64.0612 41.1834 62.1496 41.1834 62.1496C41.1834 62.1496 37.3047 63.4942 38.6317 58.8379C39.0804 61.2005 43.024 59.9802 43.024 59.9802C43.024 59.9802 41.9934 63.1591 43.6753 63.0664C44.9154 62.998 46.3902 62.067 46.3902 62.067C46.3902 62.067 46.8485 64.3059 48.7083 64.5942C55.1195 65.5907 59.1827 56.9026 65.4258 56.3509C67.4413 56.1728 69.1712 57.7809 69.1712 59.8073V59.8078Z" fill="#371A45"/>
</g>
<g opacity="0.3">
<path d="M145.209 62.1495C145.209 62.1495 145.621 64.0611 144.199 64.9638C142.87 65.811 140.785 64.719 140.785 64.719C140.785 64.719 140.72 66.4192 138.861 66.7097C131.17 67.9046 125.164 56.188 117.089 59.8671V59.7953C117.089 57.843 118.699 56.2383 120.646 56.3299C127.032 56.6289 131.463 65.2 137.983 64.1871C139.843 63.8989 139.308 61.9613 139.308 61.9613C139.308 61.9613 141.313 63.2285 142.642 62.3829C144.064 61.4786 143.657 59.7671 143.657 59.7671C143.657 59.7671 147.259 61.3192 147.76 58.8389C149.087 63.4953 145.209 62.1506 145.209 62.1506V62.1495Z" fill="#371A45"/>
</g>
<g opacity="0.6">
<path d="M147.771 61.6502C147.69 61.3619 147.589 61.0516 147.465 60.7142C146.396 57.8032 143.107 54.3474 140.042 51.982C125.15 40.4886 114.011 47.4856 114.011 47.4856H72.3817C72.3817 47.4856 61.244 40.4892 46.3501 51.982C43.2859 54.3474 39.9965 57.8038 38.928 60.7142C38.8039 61.0522 38.7034 61.3619 38.6221 61.6502C38.2473 61.042 38.196 59.924 38.928 57.9338C39.997 55.0229 43.2859 51.5654 46.3501 49.2016C61.244 37.7066 72.3817 47.4856 72.3817 47.4856H114.011C114.011 47.4856 125.15 37.7066 140.042 49.2016C143.107 51.5654 146.396 55.0235 147.465 57.9338C148.196 59.9245 148.145 61.042 147.771 61.6502Z" fill="white"/>
</g>
<path d="M137.742 67.5853C134.439 67.5853 131.478 65.581 128.603 63.6349C124.801 61.062 121.21 58.6309 117.064 60.7562C116.676 60.9546 116.201 60.8014 116.002 60.4125C115.804 60.0242 115.957 59.5483 116.345 59.3493C121.322 56.7996 125.473 59.6088 129.487 62.3258C132.601 64.4341 135.543 66.4249 138.741 65.9286C139.871 65.7528 139.987 64.8569 139.998 64.6789L140.076 63.4676L141.151 64.0187C141.588 64.2448 143.013 64.784 143.777 64.2979C144.707 63.7067 144.448 62.3688 144.437 62.3123L144.162 60.9563L145.467 61.4039C145.83 61.526 146.692 61.6702 147.025 61.3282C147.169 61.1801 147.572 60.5177 146.724 58.2059C145.645 55.269 142.192 51.8567 139.562 49.827C133.604 45.2294 127.591 43.5343 121.684 44.788C117.269 45.7262 114.557 48.0555 114.53 48.0793L114.307 48.2737H114.011L72.0842 48.2743L71.8613 48.0781C71.8359 48.0555 69.1244 45.7257 64.7084 44.788C58.8034 43.5332 52.7879 45.2288 46.831 49.827C44.2008 51.8573 40.7471 55.2695 39.6691 58.2059C38.8208 60.5177 39.2238 61.1801 39.3671 61.3282C39.6996 61.6702 40.5626 61.526 40.9283 61.4028L42.244 60.9591L41.9544 62.3168C41.9437 62.3688 41.6846 63.7067 42.6154 64.2979C43.388 64.7891 44.8064 64.247 45.2416 64.0187L46.3484 63.4388L46.3953 64.6885C46.4066 64.8564 46.5211 65.7528 47.6517 65.928C50.8457 66.4254 53.7914 64.4336 56.9059 62.3258C60.92 59.6088 65.0702 56.7996 70.0472 59.3493C70.435 59.5483 70.5885 60.0242 70.3898 60.4125C70.1917 60.8014 69.7165 60.9546 69.3282 60.7562C65.1814 58.6309 61.5905 61.062 57.7892 63.6349C54.5596 65.8212 51.221 68.0815 47.409 67.4898C46.1108 67.288 45.4143 66.5221 45.0802 65.7884C44.2031 66.0784 42.8564 66.322 41.7693 65.6319C40.7144 64.9615 40.4113 63.9136 40.3515 63.1121C39.6855 63.1595 38.8501 63.0572 38.2417 62.4361C37.3572 61.5328 37.3392 59.9711 38.1875 57.661C39.3801 54.4121 42.9365 50.8376 45.867 48.5755C53.8004 42.4524 60.714 42.3055 65.1165 43.2601C69.1871 44.143 71.8731 46.0705 72.6622 46.6945H113.728C114.517 46.0705 117.203 44.143 121.274 43.2601C125.678 42.3055 132.59 42.4524 140.523 48.5755C143.454 50.837 147.01 54.4115 148.203 57.661C149.051 59.9711 149.034 61.5328 148.149 62.4361C147.54 63.0572 146.705 63.1601 146.039 63.1121C145.98 63.9136 145.676 64.9615 144.622 65.6319C143.535 66.322 142.188 66.0784 141.311 65.7884C140.977 66.5215 140.28 67.288 138.982 67.4898C138.563 67.5548 138.149 67.5853 137.741 67.5853H137.742Z" fill="#371A45"/>
<g opacity="0.3">
<path d="M150.844 65.0225C150.844 74.2725 146.03 82.6825 137.082 88.9367C130.531 93.5162 121.766 96.9403 111.048 98.6903C105.831 99.5432 100.149 99.9994 94.0368 99.9994C87.9241 99.9994 82.2427 99.5432 77.0252 98.6903C66.1263 96.911 57.2446 93.3998 50.6584 88.7022C41.9229 82.4739 37.2275 74.1583 37.2275 65.0231C37.2275 63.601 37.3421 62.2207 37.5667 60.8839C38.7892 68.3523 43.2854 75.0983 50.6584 80.3549C57.2446 85.053 66.1263 88.5637 77.0252 90.343C82.2427 91.1959 87.9241 91.6521 94.0368 91.6521C100.149 91.6521 105.831 91.1959 111.048 90.343C121.766 88.5936 130.531 85.1689 137.082 80.5894C144.654 75.2972 149.264 68.4602 150.505 60.8794C150.729 62.2184 150.844 63.6004 150.844 65.0225Z" fill="#371A45"/>
</g>
<path d="M94.0356 67.0211C76.3354 67.0211 66.01 60.7064 65.5793 60.4373C65.2096 60.2067 65.0967 59.7195 65.327 59.3493C65.5573 58.979 66.0438 58.866 66.4135 59.0966C66.5151 59.1599 76.8192 65.4413 94.0362 65.4413C111.253 65.4413 121.557 59.1593 121.659 59.096C122.03 58.8666 122.516 58.9796 122.745 59.3498C122.976 59.7201 122.863 60.2067 122.493 60.4373C122.062 60.7064 111.737 67.0211 94.0367 67.0211H94.0356Z" fill="#371A45"/>
<path d="M121.94 38.5076C121.617 38.5087 121.353 38.247 121.352 37.9232L121.293 21.0246C121.292 20.7007 121.553 20.4367 121.877 20.4356C125.271 20.4237 128.032 23.1696 128.044 26.5689L128.064 32.3314C128.076 35.7306 125.334 38.4957 121.94 38.5076H121.94Z" fill="white"/>
<path d="M121.938 38.6464C121.746 38.6464 121.565 38.5718 121.428 38.4356C121.291 38.2994 121.215 38.1174 121.214 37.9235L121.155 21.0249C121.154 20.831 121.229 20.6484 121.365 20.5111C121.502 20.3737 121.683 20.2974 121.877 20.2969H121.899C125.355 20.2969 128.172 23.1055 128.183 26.5681L128.204 32.3306C128.216 35.8011 125.407 38.634 121.942 38.6464H121.939H121.938ZM121.899 20.5744H121.878C121.758 20.5744 121.646 20.6219 121.562 20.7067C121.478 20.7914 121.432 20.9039 121.432 21.0238L121.492 37.9224C121.492 38.0422 121.539 38.1547 121.624 38.2389C121.708 38.3225 121.82 38.3689 121.939 38.3689H121.94C125.253 38.357 127.938 35.649 127.927 32.3317L127.906 26.5692C127.901 24.9623 127.271 23.4537 126.132 22.3215C124.998 21.1945 123.496 20.5744 121.899 20.5744Z" fill="#371A45"/>
<g opacity="0.2">
<path d="M128.055 29.629L128.066 32.3319C128.077 35.7301 125.335 38.4957 121.94 38.5087C121.617 38.5104 121.354 38.2464 121.352 37.9226L121.335 33.4301C121.426 33.6348 121.632 33.7755 121.869 33.7761L122.27 33.7738C124.952 33.7648 127.229 32.0352 128.055 29.6284V29.629Z" fill="#371A45"/>
</g>
<path d="M121.938 39.2798C121.577 39.2798 121.238 39.1396 120.982 38.8853C120.725 38.6292 120.582 38.2889 120.581 37.9255L120.522 21.0269C120.52 20.664 120.66 20.3226 120.916 20.0649C121.171 19.8077 121.511 19.6647 121.874 19.6636C121.882 19.6636 121.89 19.6636 121.898 19.6636C125.701 19.6636 128.802 22.7548 128.815 26.5661L128.835 32.3286C128.849 36.1484 125.756 39.2662 121.943 39.2798C121.943 39.2798 121.94 39.2798 121.938 39.2798ZM122.065 21.21L122.123 37.7316C125.001 37.6237 127.304 35.2401 127.294 32.3337L127.274 26.5712C127.263 23.6654 124.944 21.2976 122.065 21.21Z" fill="#371A45"/>
<path d="M66.1776 20.6314C66.501 20.6302 66.7646 20.8919 66.7657 21.2158L66.825 38.1144C66.8261 38.4383 66.5648 38.7022 66.2413 38.7034C62.8469 38.7152 60.0858 35.9694 60.0739 32.5701L60.0536 26.8076C60.0418 23.4083 62.7837 20.6432 66.1781 20.6314H66.1776Z" fill="white"/>
<path d="M66.2193 38.8422C62.764 38.8422 59.9469 36.0336 59.9351 32.571L59.9148 26.8085C59.9029 23.338 62.712 20.5051 66.1776 20.4927H66.1804C66.3728 20.4927 66.554 20.5673 66.6906 20.7035C66.8278 20.8397 66.904 21.0217 66.9045 21.2156L66.9638 38.1142C66.9649 38.5144 66.6415 38.8405 66.2419 38.8422H66.2193ZM66.1781 20.7702C62.8656 20.7821 60.18 23.4901 60.1919 26.8074L60.2122 32.5699C60.2235 35.8799 62.9163 38.5647 66.2193 38.5647H66.2408C66.4874 38.5636 66.6878 38.3618 66.6867 38.1148L66.6274 21.2162C66.6274 21.0963 66.5806 20.9839 66.4953 20.8996C66.4112 20.816 66.2989 20.7696 66.1804 20.7696H66.1787L66.1781 20.7702Z" fill="#371A45"/>
<g opacity="0.2">
<path d="M66.8097 33.427L66.8255 38.115C66.8272 38.4388 66.5636 38.7022 66.2402 38.7039C64.4589 38.7096 62.8498 37.9561 61.7226 36.746C60.705 35.6528 60.0796 34.1855 60.074 32.5718L60.0655 30.1436C61.0363 32.2705 63.1884 33.7469 65.6769 33.739L66.2927 33.7367C66.5174 33.7356 66.7081 33.6101 66.8097 33.427Z" fill="#371A45"/>
</g>
<path d="M66.2194 39.4751C62.4163 39.4751 59.316 36.3839 59.3024 32.5726L59.2821 26.8101C59.2685 22.9902 62.361 19.8725 66.1748 19.8589C66.1748 19.8589 66.1782 19.8589 66.1804 19.8589C66.5411 19.8589 66.8803 19.9991 67.136 20.2534C67.3933 20.5095 67.5356 20.8497 67.5367 21.2132L67.596 38.1118C67.5982 38.8607 66.992 39.4723 66.2442 39.4751C66.2357 39.4751 66.2278 39.4751 66.2199 39.4751H66.2194ZM65.9953 21.4065C63.1167 21.5144 60.8139 23.898 60.8241 26.8044L60.8444 32.5669C60.8546 35.4727 63.1743 37.8405 66.0534 37.9281L65.9953 21.4065Z" fill="#371A45"/>
<path d="M94.0626 58.3664C109.944 58.3664 122.819 45.4734 122.819 29.5692C122.819 13.6649 109.944 0.771973 94.0626 0.771973C78.1811 0.771973 65.3066 13.6649 65.3066 29.5692C65.3066 45.4734 78.1811 58.3664 94.0626 58.3664Z" fill="white"/>
<path d="M94.0824 58.506C93.4294 58.506 92.7752 58.484 92.1143 58.4393C76.218 57.3637 64.1597 43.5371 65.2338 27.618C66.3079 11.6995 80.1142 -0.377685 96.0104 0.699639C111.907 1.77527 123.965 15.6019 122.891 31.5209C121.861 46.7781 109.133 58.5066 94.0824 58.5066V58.506ZM94.0429 0.910469C79.1343 0.910469 66.5297 12.5253 65.5098 27.6372C64.4459 43.4037 76.389 57.0975 92.1329 58.1629C107.878 59.2295 121.551 47.2682 122.615 31.5023C123.679 15.7358 111.736 2.04205 95.9918 0.9766C95.3382 0.932513 94.688 0.910469 94.0429 0.910469Z" fill="#371A45"/>
<g opacity="0.2">
<path d="M122.746 27.5151C122.841 28.8264 122.845 30.1604 122.754 31.5113C121.681 47.3789 107.968 59.3725 92.1234 58.3019C76.2784 57.2274 64.302 43.4952 65.371 27.6276C65.4015 27.1715 65.4427 26.7153 65.4952 26.2671C66.4858 40.3842 77.7425 51.9635 92.2402 52.9453C107.63 53.9853 121.005 42.7028 122.746 27.5151Z" fill="#371A45"/>
</g>
<path d="M94.083 59.1392C93.4159 59.1392 92.747 59.1165 92.072 59.0713C75.828 57.972 63.5056 43.843 64.6034 27.5757C65.7006 11.3085 79.8162 -1.02875 96.0534 0.06779C112.297 1.16716 124.62 15.2961 123.522 31.5634C122.47 47.1546 109.463 59.1397 94.0824 59.1397L94.083 59.1392ZM94.0435 1.5436C79.4646 1.5436 67.1388 12.9018 66.1415 27.6797C65.1012 43.0974 76.7802 56.4888 92.1758 57.5305C107.566 58.5745 120.943 46.8771 121.984 31.4588C123.024 16.0411 111.345 2.64975 95.9495 1.60804C95.3106 1.56451 94.6751 1.5436 94.0435 1.5436Z" fill="#371A45"/>
<path d="M122.612 32.2427C122.317 37.8701 120.22 42.999 116.874 47.158C114.365 50.2758 104.454 55.4431 92.576 54.9264C81.5625 54.4477 71.8545 48.0442 69.6854 44.6806C66.7922 40.1944 65.2412 34.8739 65.5358 29.2465C66.3153 14.3544 79.4149 8.85192 95.1763 9.67942C110.938 10.5069 123.391 17.3513 122.612 32.2427Z" fill="#371A45"/>
<path d="M94.2862 55.736C93.711 55.736 93.1297 55.7236 92.5427 55.6982C81.1234 55.2019 71.3183 48.6362 69.0375 45.1001C65.9495 40.3121 64.4725 34.8158 64.7659 29.2065C65.1486 21.893 68.3726 16.4075 74.3481 12.9025C79.5577 9.84691 86.776 8.46549 95.2169 8.90863C103.659 9.35177 110.692 11.481 115.554 15.0657C121.13 19.1771 123.764 24.9701 123.381 32.2836C123.088 37.8929 121.045 43.2038 117.474 47.6425C115.112 50.5783 106.044 55.736 94.2862 55.736ZM92.1719 10.3714C85.3125 10.3714 79.464 11.6907 75.127 14.2348C69.6273 17.4605 66.6596 22.525 66.3051 29.2873C66.0286 34.57 67.4215 39.7486 70.3322 44.2625C72.3991 47.4668 81.8712 53.6888 92.6087 54.1557C104.507 54.6717 114.038 49.4518 116.273 46.6737C119.639 42.4894 121.565 37.4854 121.841 32.2022C122.799 13.8855 103.485 10.8886 95.1356 10.45C94.1287 10.3969 93.1393 10.3709 92.1719 10.3709V10.3714Z" fill="#371A45"/>
<g opacity="0.7">
<path d="M117.029 30.5799C117.674 27.8406 116.59 25.2404 114.608 24.7723C112.626 24.3042 110.496 26.1454 109.851 28.8847C109.206 31.624 110.29 34.2242 112.272 34.6923C114.254 35.1605 116.384 33.3193 117.029 30.5799Z" fill="white"/>
</g>
<g opacity="0.7">
<path d="M110.267 40.2997C110.734 39.0954 110.275 37.7941 109.243 37.393C108.211 36.992 106.997 37.6431 106.53 38.8474C106.063 40.0516 106.521 41.3529 107.553 41.754C108.585 42.155 109.8 41.5039 110.267 40.2997Z" fill="white"/>
</g>
<g opacity="0.35">
<path d="M117.788 18.0586C121.102 21.5754 122.923 26.2606 122.611 32.2418C122.316 37.8704 120.218 42.9987 116.874 47.1576C114.364 50.2754 104.452 55.4422 92.5743 54.9273C88.3801 54.7458 84.3773 53.7041 80.9055 52.2972C95.5194 52.6189 107.596 46.2725 110.706 42.4052C114.953 37.1265 117.615 30.6168 117.988 23.4757C118.089 21.5675 118.015 19.7628 117.787 18.0586H117.788Z" fill="#111A28"/>
</g>
<path d="M120.84 19.7612C120.669 19.7612 120.497 19.6984 120.361 19.5724L120.281 19.504L120.242 19.4305C115.756 12.3765 106.605 7.98577 95.1362 7.38324C83.6063 6.77845 74.0467 10.3139 68.9162 17.0837L68.8693 17.1396C68.6046 17.4262 68.1587 17.4443 67.8725 17.1798C67.5971 16.9248 67.57 16.5015 67.8037 16.2144C73.2238 9.0761 83.2095 5.3422 95.2102 5.97243C107.121 6.59814 116.668 11.2127 121.41 18.6364C121.607 18.9043 121.593 19.283 121.359 19.5356C121.22 19.6854 121.031 19.7612 120.841 19.7612H120.84ZM68.3122 16.6258L68.35 16.6609L68.3122 16.6258Z" fill="#371A45"/>
<g opacity="0.7">
<path d="M71.4808 38.442C71.4808 38.442 67.6439 23.5093 75.8568 18.0701C84.069 12.6309 95.4426 13.2515 95.1384 13.9682C95.1384 13.9682 82.3859 16.3603 76.937 26.0709C72.7355 33.559 71.4808 38.442 71.4808 38.442Z" fill="white"/>
</g>
<path d="M59.4086 62.3567C59.3944 62.3567 59.3803 62.3567 59.3657 62.3555C58.9305 62.3324 58.5969 61.9599 58.6206 61.5247C59.2409 49.9658 48.2195 48.7974 47.7505 48.7539C47.317 48.7132 46.9981 48.3289 47.0382 47.8948C47.0783 47.4607 47.4621 47.1424 47.8944 47.1809C48.0242 47.1927 60.8986 48.5171 60.1959 61.61C60.1733 62.0311 59.8251 62.3578 59.4086 62.3578V62.3567Z" fill="#371A45"/>
<path d="M127.446 62.6046C127.034 62.6046 126.687 62.2846 126.66 61.8675C125.772 48.5349 138.814 47.1919 138.946 47.1801C139.382 47.1405 139.763 47.461 139.803 47.8951C139.842 48.3292 139.523 48.7135 139.089 48.7531C138.606 48.7989 127.45 49.9864 128.234 61.7618C128.263 62.197 127.934 62.5735 127.499 62.6023C127.481 62.6034 127.463 62.604 127.446 62.604V62.6046Z" fill="#371A45"/>
</svg>
