<svg width="316" height="64" viewBox="0 0 316 64" fill="none" xmlns="http://www.w3.org/2000/svg">
<g clip-path="url(#clip0_13_734)">
<path d="M25.7341 27.2271C25.6451 26.5145 25.6005 25.4901 25.9865 25.0151C26.5952 24.2728 27.6789 24.154 28.4212 24.7478C29.1635 25.3565 29.2823 26.4403 28.6884 27.1825C28.3173 27.6576 27.2929 27.8358 26.5803 27.8951C26.1647 27.9397 25.7787 27.6279 25.7341 27.2122V27.2271ZM45.093 39.5787C44.5437 38.6731 43.8905 37.8418 43.1779 37.0401C42.1981 35.9564 40.7729 35.3032 40.1345 33.9225C39.5555 32.6309 39.8821 30.9979 40.8471 29.9735C41.4409 29.35 42.2426 28.9492 42.9552 28.4444C46.7557 25.7722 48.8341 20.5762 48.8341 16.0631C48.8341 15.5732 48.8044 15.0833 48.7747 14.6082C48.0473 6.42819 41.1589 0.0148315 32.7859 0.0148315C29.312 0.0148315 25.8826 1.15795 23.1064 3.26605C21.0874 4.79516 19.4247 6.81418 18.3261 9.10043C17.762 10.2732 17.3463 11.5054 17.0791 12.7673C16.7673 14.2667 16.99 15.9146 16.5001 17.3695C16.0547 18.6462 14.8522 19.6112 13.5161 19.7745C12.462 19.9081 11.4228 19.5667 10.3836 19.5518C5.05402 19.4628 0.644836 24.3173 0.644836 29.4985C0.644836 34.9766 5.08371 39.4154 10.5618 39.4154C14.4068 39.4154 17.7323 37.2331 19.3802 34.0413L18.9199 33.6701C18.7715 33.5514 18.8457 33.3287 19.0239 33.299L19.5732 33.2396L19.1575 32.913C18.9645 32.7497 18.9199 32.4676 19.0536 32.2598L19.4099 31.7105C19.4099 31.7105 19.2911 31.7105 19.2317 31.7105C17.6284 31.8886 16.5001 33.6256 16.3219 32.0223C16.1438 30.4189 17.3018 28.9789 18.9199 28.8007C19.6771 28.7117 20.4045 28.9343 20.9687 29.3649L25.2739 22.907C25.3778 22.7288 25.4818 22.5655 25.6154 22.4022C26.417 21.4075 28.5697 21.0364 30.0691 20.8879C30.9598 20.7989 31.7467 21.4372 31.8654 22.328C32.0436 23.8274 32.1327 26.0097 31.3458 26.9895C31.2271 27.1529 31.0786 27.3013 30.945 27.4201L25.556 33.0169C26.0904 33.4771 26.4616 34.1452 26.5358 34.9023C26.714 36.5057 25.556 37.9457 23.9378 38.1239C22.3345 38.302 23.7893 36.8174 23.626 35.2141C23.626 35.1547 23.6112 35.0953 23.5964 35.0359L23.1361 35.511C22.958 35.6892 22.6759 35.7188 22.4681 35.5555L22.0524 35.2289L22.1118 35.7782C22.1266 35.9564 21.9188 36.0751 21.7703 35.9564L21.2507 35.5407C18.2519 38.0051 16.1586 41.5384 15.55 45.5616C15.4312 46.3484 15.3718 47.1352 15.3718 47.9517C15.3718 56.8146 22.5572 64 31.4201 64C40.283 64 47.4683 56.8146 47.4683 47.9517C47.4683 47.1352 47.4089 46.3335 47.2902 45.5616C46.9784 43.4535 46.2361 41.4048 45.1227 39.5787H45.093Z" fill="#F2F2F2"/>
<path d="M69.7518 18.1266C71.1027 18.1266 72.6764 18.379 73.6117 18.7056C75.1853 19.2698 75.7049 19.5518 75.7049 20.0714C75.7049 20.4129 75.5565 20.9028 75.1111 21.8826C74.5915 22.9961 74.443 23.5008 73.7898 23.5008C73.4781 23.5008 73.1811 23.4266 72.4834 23.2187C71.9193 23.0703 71.1918 22.8773 70.2714 22.8773C68.8462 22.8773 68.1336 23.8126 68.1336 25.4308V26.4848H72.5279C74.1313 26.4848 74.9329 27.2667 74.9329 28.8304C74.9329 30.3942 74.1313 31.1563 72.5279 31.1167H68.1336V43.4683C68.1336 45.1805 67.2577 46.0366 65.5059 46.0366C63.7541 46.0366 62.8782 45.1805 62.8782 43.4683V31.1167H61.9726C60.3594 31.1167 59.5527 30.3546 59.5527 28.8304C59.5527 26.47 59.5528 26.4848 61.9726 26.4848H62.8782V25.2526C62.8782 20.5465 65.595 18.1415 69.7518 18.1415V18.1266ZM84.0779 21.1997V43.5129C84.0779 45.1954 83.202 46.0366 81.4502 46.0366C78.7928 46.0366 78.8374 46.0366 78.8374 43.5129V21.1997C78.8374 19.3786 79.7083 18.4681 81.4502 18.4681C84.0482 18.4681 84.0779 18.4681 84.0779 21.1997Z" fill="#F2F2F2"/>
<path d="M91.8868 25.4011C93.6683 25.4011 94.559 26.3314 94.559 28.1921V37.7973C94.559 40.0687 96.0139 41.2415 98.1962 41.2415C99.8293 41.2415 101.076 40.7664 101.863 40.2617V28.1327C101.863 26.3116 102.734 25.4011 104.476 25.4011C106.218 25.4011 107.094 26.3116 107.104 28.1327V42.3697C107.104 43.5871 107.089 43.6019 106.183 44.2403C104.996 45.0717 102.19 46.3929 98.0775 46.3929C92.5251 46.3929 89.3185 43.3941 89.3185 37.9754V28.1921C89.3185 26.3314 90.1746 25.4011 91.8868 25.4011Z" fill="#F2F2F2"/>
<path d="M115.343 23.1891C113.512 23.1891 112.597 22.2488 112.597 20.3684C112.597 18.4879 113.512 17.5675 115.343 17.6071C117.174 17.6466 118.094 18.5671 118.104 20.3684C118.114 22.1697 117.194 23.1099 115.343 23.1891ZM118 28.0882V43.498C118 45.1806 117.115 46.0218 115.343 46.0218C113.611 46.0218 112.745 45.1806 112.745 43.498V28.0882C112.745 26.2968 113.611 25.4011 115.343 25.4011C117.115 25.4011 118 26.2968 118 28.0882Z" fill="#F2F2F2"/>
<path d="M131.451 25.0448C132.965 25.0448 134.761 25.4456 135.904 25.9504V21.2146C135.904 19.4034 136.78 18.4978 138.532 18.4978C140.284 18.4978 141.16 19.4034 141.16 21.2146V42.1768C141.16 43.0378 140.922 43.5277 140.239 44.0028C139.141 44.7896 136.083 46.393 132.134 46.393C126.789 46.393 123.434 43.0527 123.018 38.3466C122.9 36.9956 122.87 34.2491 123.018 32.8833C123.434 28.1178 126.344 25.0448 131.436 25.0448H131.451ZM132.252 41.286C133.603 41.286 135.296 40.618 135.904 40.1132V31.0573C135.251 30.6416 133.618 30.0626 131.941 30.0626C129.536 30.0626 128.378 31.3691 128.244 33.6553C128.155 34.5609 128.155 36.5057 128.244 37.5449C128.392 39.9796 129.788 41.286 132.238 41.286H132.252Z" fill="#F2F2F2"/>
<path d="M159.153 26.8857C159.153 27.138 159.093 27.5389 158.707 28.8304C158.292 30.2408 158.069 30.6565 157.342 30.6565C157.104 30.6565 156.629 30.5822 155.976 30.4189C155.471 30.3002 154.922 30.1814 154.105 30.1814C152.68 30.1814 151.908 30.8792 151.908 32.6161V43.5574C151.908 45.2004 151.037 46.0218 149.295 46.0218C147.553 46.0218 146.668 45.2004 146.638 43.5574V31.6214C146.638 27.5834 148.984 25.0299 153.422 25.0299C154.714 25.0299 156.213 25.2229 157.401 25.5495C158.47 25.8316 159.138 26.1434 159.138 26.8708L159.153 26.8857Z" fill="#F2F2F2"/>
<path d="M179.952 32.9724C180.1 34.5312 180.1 36.8917 179.952 38.4505C179.536 43.0378 175.795 46.3929 170.703 46.3929C165.611 46.3929 161.899 43.0527 161.484 38.4505C161.335 36.9065 161.335 34.5609 161.484 33.0169C161.899 28.3702 165.64 25.0448 170.703 25.0448C175.765 25.0448 179.521 28.3554 179.952 32.9872V32.9724ZM166.665 33.7741C166.576 35.0211 166.576 36.3127 166.665 37.6191C166.873 39.846 168.283 41.3454 170.703 41.3454C173.123 41.3454 174.548 39.846 174.756 37.6191C174.845 36.3127 174.845 35.036 174.756 33.7889C174.548 31.562 173.123 30.0626 170.703 30.0626C168.283 30.0626 166.873 31.562 166.665 33.7741Z" fill="#F2F2F2"/>
<path d="M201.404 29.7657C201.671 30.4635 201.805 31.0573 201.805 31.5027C201.805 32.0965 201.33 32.245 199.993 32.72C198.939 33.106 198.242 33.3584 197.885 33.3584C197.41 33.3584 197.321 32.8982 196.95 32.245C196.148 30.7307 194.842 30.0775 193.179 30.0775C190.715 30.0775 189.29 31.5324 189.082 33.7147C189.008 34.7093 188.978 36.5354 189.082 37.5449C189.319 39.9054 190.715 41.4048 193.179 41.4048C194.916 41.4048 196.134 40.707 196.965 39.1779C197.247 38.6583 197.425 38.0645 197.93 38.0645C198.257 38.0645 198.539 38.1387 199.934 38.6435C201.627 39.2521 201.909 39.4155 201.909 39.9351C201.909 40.3062 201.701 41.0039 201.374 41.7611C200.587 43.5277 198.375 46.4375 193.031 46.4375C187.968 46.4375 184.272 42.8745 183.901 38.3466C183.767 36.7878 183.782 34.4867 183.901 32.9427C184.183 28.3257 188.028 25.0745 193.164 25.0745C198.301 25.0745 200.721 27.8952 201.404 29.7954V29.7657Z" fill="#F2F2F2"/>
<path d="M211.202 21.2146V33.1357H211.588C212.508 33.1357 212.701 33.0763 213.503 32.245L219.382 26.1582C220.08 25.3862 220.347 25.119 220.822 25.119C221.297 25.119 221.549 25.312 222.722 26.3809C223.94 27.4498 224.34 27.7319 224.34 28.1921C224.34 28.4445 224.281 28.7117 223.45 29.543L217.259 35.4665L223.182 41.5978C223.969 42.3846 224.177 42.7261 224.177 43.1566C224.177 43.498 223.925 43.8543 222.782 44.9232C221.49 46.1406 221.327 46.3336 220.822 46.3336C220.317 46.3336 219.976 45.9327 219.441 45.3092L213.622 38.9998C212.835 38.1536 212.687 38.1387 211.647 38.1387H211.202V43.5277C211.202 45.2102 210.326 46.0515 208.574 46.0515C206.822 46.0515 205.952 45.2102 205.961 43.5277V21.2146C205.961 18.4978 205.947 18.4978 208.574 18.4978C211.202 18.4978 211.202 18.4978 211.202 21.2146Z" fill="#F2F2F2"/>
<path d="M242.155 37.634H231.808V38.0199C231.808 40.4546 233.723 41.7611 236.262 41.7611C237.761 41.7611 239.082 41.479 240.24 41.0188C240.908 40.7516 241.428 40.4992 241.814 40.4992C242.348 40.4992 242.616 40.9 243.209 42.251C243.625 43.1714 243.729 43.6019 243.729 43.884C243.729 44.27 243.492 44.5818 242.408 45.1014C241.042 45.7397 238.741 46.4078 236.291 46.4078C230.694 46.4078 227.235 42.9933 226.82 38.2129C226.716 36.7135 226.716 34.4273 226.835 33.2099C227.25 28.2069 230.858 25.0448 235.89 25.0448C240.923 25.0448 244.753 28.5038 244.753 33.9374V34.932C244.753 37.3519 244.338 37.6191 242.141 37.6191L242.155 37.634ZM240.003 33.5811C240.077 31.0573 238.518 29.3946 235.98 29.3946C233.099 29.3946 231.793 31.2354 231.808 34.071H239.557C239.854 34.071 240.003 33.9126 240.003 33.5959V33.5811Z" fill="#F2F2F2"/>
<path d="M256.11 46.393C251.33 46.393 249.133 43.1121 249.133 38.7771V23.0555C249.133 20.309 249.118 20.309 251.731 20.309C254.344 20.309 254.388 20.309 254.388 23.0555V25.4011H259.005C261.485 25.4011 261.485 25.4902 261.485 27.8358C261.485 30.1814 261.485 30.1814 259.005 30.1814H254.388V38.7029C254.388 40.5734 255.19 41.5236 256.912 41.5236C257.773 41.5236 258.59 41.3306 259.302 41.1227C259.837 40.9743 260.327 40.8407 260.623 40.8407C261.232 40.8407 261.425 41.3454 261.885 42.6073C262.346 43.8692 262.346 44.1513 262.346 44.3146C262.346 44.7302 262.019 45.042 261.128 45.4131C259.54 46.1109 257.877 46.393 256.11 46.393Z" fill="#F2F2F2"/>
<path d="M292.764 29.7657C293.032 30.4635 293.165 31.0573 293.165 31.5027C293.165 32.0965 292.69 32.245 291.354 32.72C290.3 33.106 289.602 33.3584 289.246 33.3584C288.771 33.3584 288.682 32.8982 288.311 32.245C287.509 30.7307 286.203 30.0775 284.54 30.0775C282.076 30.0775 280.65 31.5324 280.443 33.7147C280.368 34.7093 280.353 36.5354 280.443 37.5449C280.68 39.9054 282.076 41.4048 284.54 41.4048C286.277 41.4048 287.494 40.707 288.326 39.1779C288.608 38.6583 288.786 38.0645 289.291 38.0645C289.617 38.0645 289.899 38.1387 291.295 38.6435C292.987 39.2521 293.269 39.4155 293.269 39.9351C293.269 40.3062 293.061 41.0039 292.735 41.7611C291.948 43.5277 289.736 46.4375 284.391 46.4375C279.329 46.4375 275.632 42.8745 275.261 38.3466C275.128 36.7878 275.143 34.4867 275.261 32.9427C275.543 28.3257 279.388 25.0745 284.525 25.0745C289.662 25.0745 292.082 27.8952 292.764 29.7954V29.7657Z" fill="#F2F2F2"/>
<path d="M315.211 32.9724C315.36 34.5312 315.36 36.8917 315.211 38.4505C314.796 43.0378 311.054 46.3929 305.962 46.3929C300.87 46.3929 297.159 43.0527 296.743 38.4505C296.595 36.9065 296.595 34.5609 296.743 33.0169C297.159 28.3702 300.9 25.0448 305.962 25.0448C311.025 25.0448 314.781 28.3554 315.211 32.9872V32.9724ZM301.924 33.7741C301.835 35.0211 301.835 36.3127 301.924 37.6191C302.132 39.846 303.543 41.3454 305.962 41.3454C308.382 41.3454 309.807 39.846 310.015 37.6191C310.119 36.3127 310.119 35.036 310.015 33.7889C309.807 31.562 308.382 30.0626 305.962 30.0626C303.543 30.0626 302.132 31.562 301.924 33.7741Z" fill="#F2F2F2"/>
<path d="M266.502 44.9975C266.339 43.6465 266.265 41.6572 266.977 40.7516C268.135 39.3116 270.229 39.0889 271.669 40.2468C273.109 41.4048 273.331 43.4981 272.173 44.9381C271.446 45.8437 269.486 46.1851 268.135 46.3187C267.319 46.393 266.606 45.814 266.502 45.0123V44.9975Z" fill="#F2F2F2"/>
</g>
<defs>
<clipPath id="clip0_13_734">
<rect width="314.67" height="64" fill="white" transform="translate(0.644836)"/>
</clipPath>
</defs>
</svg>
