<svg width="700" height="717" viewBox="0 0 700 717" fill="none" xmlns="http://www.w3.org/2000/svg">
<g clip-path="url(#clip0_152_2)">
<path d="M689.653 311.274C689.291 303.067 688.583 294.861 687.459 286.691C682.565 251.321 668.938 216.024 642.806 190.745C582.747 132.652 461.479 113.276 385.84 156.42C379.368 160.115 373.243 164.254 367.492 168.873C343.033 188.573 325.501 214.896 305.521 238.844C249.621 305.863 179.184 297.98 100.858 321.016C40.1033 338.893 12.4475 385.648 10.2008 444.34C7.94076 503.141 24.6974 555.595 54.3591 598.391C115.635 686.862 232.049 734.145 349.733 711.277C381.775 705.062 414.312 694.744 445.873 680.887C567.422 627.581 674.862 521.701 686.122 393.518C687.473 378.101 688.823 362.612 689.532 347.135C690.067 335.161 690.214 323.2 689.666 311.274H689.653Z" fill="#9640AC"/>
</g>
<g clip-path="url(#clip1_152_2)">
<path d="M699.642 261.628C693.306 269.512 686.777 276.431 680.083 282.524C614.465 232.158 503.695 218.319 432.347 260.553C425.68 264.481 419.372 268.919 413.463 273.854C388.284 294.902 370.241 323.006 349.663 348.575C292.115 420.154 219.61 411.746 138.978 436.363C76.4448 455.44 47.9743 505.378 45.6603 568.066V568.301C15.1237 522.58 -2.12116 466.563 0.206623 403.751C2.52063 341.063 30.9911 291.125 93.5243 272.034C174.156 247.431 246.662 255.839 304.209 184.26C324.787 158.678 342.831 130.573 368.009 109.525C373.918 104.59 380.227 100.166 386.893 96.2238C464.757 50.1312 589.589 70.8342 651.42 132.888C678.32 159.891 692.342 197.589 697.383 235.37C698.54 244.095 699.27 252.861 699.642 261.628Z" fill="#150718"/>
<path d="M395.653 481.091C393.147 548.935 413.449 608.852 448.683 656.42C416.19 671.223 382.706 682.236 349.718 688.88C228.577 713.305 108.744 662.801 45.6603 568.301V568.066C47.9743 505.378 76.4448 455.44 138.978 436.363C219.61 411.746 292.115 420.154 349.663 348.575C370.241 323.006 388.284 294.902 413.463 273.854C419.372 268.919 425.68 264.481 432.347 260.553C503.695 218.32 614.465 232.158 680.083 282.524C626.021 331.718 560.719 327.472 488.971 349.375C426.438 368.451 397.981 418.403 395.653 481.091Z" fill="#290D30"/>
<path d="M699.504 299.933C698.774 316.459 697.383 333 695.992 349.471C684.408 486.384 573.804 599.479 448.683 656.419C413.449 608.852 393.147 548.934 395.653 481.091C397.981 418.403 426.438 368.451 488.971 349.375C560.719 327.472 626.021 331.718 680.083 282.524C686.777 276.431 693.306 269.512 699.642 261.628C700.207 274.364 700.055 287.141 699.504 299.933Z" fill="#4B2056"/>
<g opacity="0.5">
<path d="M516.174 438.417C520.092 438.417 523.268 435.239 523.268 431.318C523.268 427.398 520.092 424.22 516.174 424.22C512.257 424.22 509.081 427.398 509.081 431.318C509.081 435.239 512.257 438.417 516.174 438.417Z" fill="white"/>
<path d="M593.611 413.538C593.611 417.452 590.429 420.636 586.517 420.636C582.606 420.636 579.424 417.452 579.424 413.538C579.424 409.623 582.606 406.439 586.517 406.439C590.429 406.439 593.611 409.623 593.611 413.538Z" fill="white"/>
</g>
<g style="mix-blend-mode:overlay">
<path d="M332.004 286.879C335.778 286.879 338.836 283.819 338.836 280.043C338.836 276.267 335.778 273.206 332.004 273.206C328.231 273.206 325.173 276.267 325.173 280.043C325.173 283.819 328.231 286.879 332.004 286.879Z" fill="white"/>
<path d="M124.295 376.887C124.295 380.663 121.237 383.723 117.463 383.723C113.689 383.723 110.631 380.663 110.631 376.887C110.631 373.11 113.689 370.05 117.463 370.05C121.237 370.05 124.295 373.11 124.295 376.887Z" fill="white"/>
<path d="M141.085 456.336C144.859 456.336 147.917 453.275 147.917 449.499C147.917 445.723 144.859 442.662 141.085 442.662C137.312 442.662 134.254 445.723 134.254 449.499C134.254 453.275 137.312 456.336 141.085 456.336Z" fill="white"/>
<path d="M309.03 558.641C309.897 554.966 307.622 551.284 303.95 550.417C300.278 549.549 296.598 551.825 295.732 555.5C294.865 559.175 297.139 562.857 300.811 563.724C304.484 564.592 308.163 562.316 309.03 558.641Z" fill="white"/>
<path d="M547.531 260.036C548.135 256.309 545.606 252.798 541.882 252.193C538.158 251.588 534.648 254.119 534.044 257.846C533.439 261.573 535.968 265.084 539.693 265.689C543.417 266.294 546.926 263.763 547.531 260.036Z" fill="white"/>
<path d="M354.607 122.551C358.381 122.551 361.439 119.49 361.439 115.714C361.439 111.938 358.381 108.877 354.607 108.877C350.834 108.877 347.776 111.938 347.776 115.714C347.776 119.49 350.834 122.551 354.607 122.551Z" fill="white"/>
<path d="M182.087 558.834C182.398 555.071 179.602 551.768 175.842 551.457C172.081 551.146 168.781 553.944 168.47 557.707C168.159 561.47 170.955 564.772 174.715 565.084C178.475 565.395 181.776 562.597 182.087 558.834Z" fill="white"/>
<path d="M690.152 239.919C693.925 239.919 696.984 236.858 696.984 233.082C696.984 229.306 693.925 226.245 690.152 226.245C686.379 226.245 683.32 229.306 683.32 233.082C683.32 236.858 686.379 239.919 690.152 239.919Z" fill="white"/>
<path d="M517.373 580.458C517.373 584.235 514.315 587.294 510.541 587.294C506.767 587.294 503.709 584.235 503.709 580.458C503.709 576.681 506.767 573.621 510.541 573.621C514.315 573.621 517.373 576.681 517.373 580.458Z" fill="white"/>
<path d="M206.249 679.342C210.023 679.342 213.081 676.281 213.081 672.505C213.081 668.729 210.023 665.668 206.249 665.668C202.476 665.668 199.418 668.729 199.418 672.505C199.418 676.281 202.476 679.342 206.249 679.342Z" fill="white"/>
</g>
<path d="M318.793 326.356C386.122 258.979 386.122 149.739 318.793 82.3619C251.464 14.9847 142.301 14.9847 74.9723 82.3619C7.64313 149.739 7.64313 258.979 74.9723 326.356C142.301 393.734 251.464 393.734 318.793 326.356Z" fill="#E6E7E8"/>
<path d="M176.319 254.281C176.319 277.741 157.311 296.749 133.882 296.749C110.452 296.749 91.4445 277.727 91.4445 254.281C91.4445 230.821 110.439 211.814 133.882 211.814C157.311 211.814 176.319 230.821 176.319 254.281Z" fill="#D1D3D4"/>
<path d="M95.7695 125.059C95.7695 111.868 106.458 101.172 119.64 101.172C132.821 101.172 143.51 111.868 143.51 125.059C143.51 138.264 132.821 148.946 119.64 148.946C106.458 148.946 95.7695 138.25 95.7695 125.059Z" fill="#A7A9AC"/>
<path d="M79.6954 218.457C79.6954 244.674 63.0842 266.962 39.8477 275.535C29.9994 253.826 24.4899 229.746 24.4899 204.357C24.4899 188.561 26.6524 173.274 30.633 158.746C58.5939 164.232 79.7092 188.878 79.7092 218.457H79.6954Z" fill="#D1D3D4"/>
<path d="M312.432 248.147C312.432 242.827 316.743 238.526 322.046 238.526C327.349 238.526 331.66 242.827 331.66 248.147C331.66 253.468 327.349 257.768 322.046 257.768C316.729 257.768 312.432 253.468 312.432 248.147Z" fill="#D1D3D4"/>
<path d="M86.1553 175.99C86.1553 170.669 90.4528 166.369 95.7695 166.369C101.086 166.369 105.384 170.669 105.384 175.99C105.384 181.31 101.072 185.611 95.7695 185.611C90.4665 185.611 86.1553 181.31 86.1553 175.99Z" fill="#D1D3D4"/>
<path d="M302.473 291.442C302.473 304.633 291.785 315.329 278.603 315.329C265.422 315.329 254.733 304.647 254.733 291.442C254.733 278.251 265.422 267.555 278.603 267.555C291.785 267.555 302.473 278.251 302.473 291.442Z" fill="#D1D3D4"/>
<path d="M210.657 88.8908C210.657 97.3264 203.825 104.149 195.409 104.149C186.98 104.149 180.162 97.3127 180.162 88.8908C180.162 80.469 186.994 73.6323 195.409 73.6323C203.825 73.6323 210.657 80.469 210.657 88.8908Z" fill="#D1D3D4"/>
<path d="M140.466 367.39C145.369 338.692 170.3 316.831 200.368 316.831C229.596 316.831 253.99 337.479 259.843 364.964C240.326 372.628 219.114 376.887 196.883 376.887C177.118 376.887 158.151 373.524 140.466 367.39Z" fill="#A7A9AC"/>
<path d="M294.361 200.373C276.413 200.373 261.868 185.818 261.868 167.857C261.868 149.897 276.427 135.342 294.361 135.342C312.294 135.342 326.853 149.897 326.853 167.857C326.853 185.818 312.294 200.373 294.361 200.373Z" fill="#A7A9AC"/>
<path d="M193.715 171.51C193.715 166.19 198.013 161.889 203.329 161.889C208.646 161.889 212.943 166.19 212.943 171.51C212.943 176.831 208.646 181.131 203.329 181.131C198.013 181.131 193.715 176.831 193.715 171.51Z" fill="#D1D3D4"/>
<path d="M224.252 239.863C232.681 239.863 239.499 246.686 239.499 255.122C239.499 263.557 232.668 270.38 224.252 270.38C215.836 270.38 209.004 263.557 209.004 255.122C209.004 246.7 215.836 239.863 224.252 239.863Z" fill="#D1D3D4"/>
<path opacity="0.1" d="M57.5054 102.854C104.984 175.177 212.392 317.727 323.561 321.352C292.06 355.495 246.978 376.887 196.883 376.887C101.664 376.887 24.4758 299.643 24.4758 204.357C24.4758 166.41 36.7483 131.345 57.5054 102.854Z" fill="#212A3C"/>
<path opacity="0.1" d="M24.8205 193.922C75.4118 262.041 173.454 361.904 302.418 340.746C273.245 363.393 236.648 376.887 196.869 376.887C101.651 376.887 24.4623 299.643 24.4623 204.357C24.4623 200.842 24.6001 197.368 24.8067 193.922H24.8205Z" fill="#212A3C"/>
<path opacity="0.3" d="M191.911 69.0562C178.302 91.496 195.272 126.699 229.83 147.706C264.389 168.698 303.438 167.54 317.046 145.101C330.668 122.675 313.685 87.4574 279.127 66.4648C244.568 45.4585 205.519 46.6301 191.897 69.07L191.911 69.0562Z" fill="white"/>
<path opacity="0.3" d="M110.397 77.9328C113.111 78.622 116.072 78.112 118.262 76.0858C121.113 73.4393 117.078 67.9396 119.984 64.4524C121.94 62.0954 126.196 61.6956 128.964 62.8259C131.554 63.8872 131.278 65.624 134.405 67.3607C135.273 67.8432 138.606 69.6764 142.339 68.6013C145.7 67.6364 149.226 64.5764 148.799 62.1505C148.165 58.5668 139.157 57.5881 137.284 57.3951C127.408 56.32 115.976 59.9038 108.51 66.5199C106.375 68.4083 103.318 71.7991 105.384 74.7626C105.824 75.3828 106.403 75.8928 107.023 76.3477C108.042 77.1058 109.199 77.6433 110.411 77.9466L110.397 77.9328Z" fill="black"/>
<path d="M151.705 13.5493C151.705 13.5493 149.446 13.0118 147.339 14.2247C145.08 15.5342 143.647 17.2847 140.493 18.2909C136.595 19.5314 132.339 16.4439 132.339 16.4439C132.339 16.4439 132.105 7.91181 130.92 4.94832C131.402 4.81048 131.912 4.76913 132.422 4.78291C134.694 4.86562 137.119 6.20263 139.295 5.87182C139.612 5.83047 139.915 5.74777 140.218 5.62372C140.534 5.49966 140.824 5.33426 141.085 5.15507C143.041 3.81806 144.061 1.24051 147.628 0.441059C147.876 0.385925 148.138 0.33079 148.427 0.303223C148.427 0.303223 151.636 13.508 151.705 13.5631V13.5493Z" fill="white"/>
<path d="M141.223 18.4977C140.934 18.6217 140.617 18.732 140.287 18.8285C136.237 20.1241 131.94 17.0504 131.761 16.9125C131.65 16.8298 131.595 16.7196 131.581 16.5817C131.581 16.499 131.347 8.09099 130.19 5.22398C130.149 5.11371 130.149 4.98966 130.19 4.87939C130.245 4.76912 130.342 4.7002 130.452 4.65885C131.995 4.23156 133.606 4.65885 135.163 5.07236C136.788 5.49966 138.317 5.91317 139.68 5.3756C139.68 5.3756 139.694 5.3756 139.708 5.3756C140.7 4.96209 141.43 4.19021 142.215 3.36319C143.51 1.98482 144.97 0.427268 148.027 0.0137578C148.234 -0.0138095 148.441 0.124027 148.496 0.330782C149.722 5.3756 151.581 12.998 151.746 13.5218C151.788 13.632 151.788 13.7561 151.746 13.8801C151.664 14.0593 151.457 14.142 151.278 14.1007C151.264 14.1007 149.143 13.6182 147.229 14.7347C146.485 15.1758 145.837 15.6444 145.149 16.1544C144.019 16.9815 142.862 17.836 141.223 18.4977ZM132.422 16.3612C133.221 16.8987 136.802 19.0628 140.039 18.0428C142.063 17.395 143.372 16.4301 144.653 15.479C145.328 14.9828 146.016 14.4728 146.802 14.018C148.33 13.122 149.928 13.1082 150.796 13.1909C150.576 12.3777 150.162 10.6823 149.295 7.1537C148.647 4.50723 148.014 1.87455 147.779 0.92348C145.273 1.37834 144.033 2.68779 142.848 3.95589C142.008 4.85182 141.209 5.69263 140.052 6.17506C140.052 6.17506 140.039 6.17506 140.025 6.17506C138.413 6.82289 136.664 6.35424 134.984 5.91317C133.634 5.55479 132.353 5.2102 131.168 5.40317C132.146 8.44936 132.408 15.0655 132.449 16.375L132.422 16.3612Z" fill="#371A45"/>
<path d="M118.331 34.8864L118.841 36.7334L119.102 37.6707L123.579 53.9217C123.579 53.9217 124.667 53.5495 126.086 52.943C126.361 52.819 126.65 52.6949 126.953 52.5571C129.171 51.5371 131.788 50.0485 132.422 48.4909C133.372 46.1615 130.59 37.4502 127.973 34.5418C126.774 33.2048 123.248 33.6873 120.81 34.2248C120.535 34.28 120.273 34.3489 120.039 34.404C119.02 34.6521 118.345 34.8727 118.345 34.8727L118.331 34.8864Z" fill="white"/>
<g opacity="0.35">
<path d="M118.841 36.7335L119.102 37.6707L122.656 50.5723L123.579 53.9217C123.579 53.9217 123.606 53.9217 123.648 53.8941C123.648 53.8941 123.675 53.8941 123.689 53.8803C123.689 53.8803 123.717 53.8803 123.73 53.8666H123.758C123.772 53.8666 123.799 53.8528 123.827 53.839C123.827 53.839 123.827 53.839 123.841 53.839C123.854 53.839 123.882 53.8252 123.896 53.8114C123.923 53.8114 123.951 53.7838 123.978 53.7838C124.006 53.7838 124.02 53.7701 124.047 53.7563C124.075 53.7563 124.102 53.7425 124.116 53.7287C124.144 53.7287 124.185 53.7011 124.212 53.6874C124.281 53.6598 124.35 53.6322 124.433 53.6047C124.502 53.5771 124.571 53.5495 124.639 53.522C124.722 53.4944 124.819 53.453 124.901 53.4117C125.246 53.2739 125.631 53.1222 126.058 52.943C126.141 52.9017 126.223 52.8741 126.306 52.8328C126.361 52.8052 126.43 52.7776 126.485 52.7501C126.623 52.6812 126.774 52.626 126.926 52.5571C129.144 51.5371 131.761 50.0485 132.394 48.4909C133.179 46.575 131.43 40.331 129.323 36.5543C130.672 40.0002 131.526 43.901 130.934 45.3482C130.645 46.065 129.874 46.7817 128.909 47.4434C128.496 47.7328 127.945 47.4434 127.918 46.9472C127.863 46.0374 127.683 45.0312 127.298 43.901C126.471 41.4888 124.942 38.1532 121.375 36.251C121.292 36.2097 120.177 36.444 118.827 36.7335H118.841Z" fill="#371A45"/>
</g>
<path d="M125.411 53.6874C124.46 54.0733 123.799 54.2938 123.703 54.3214L123.276 54.4592L117.808 34.597L118.193 34.4729C119.006 34.211 126.237 32.0057 128.262 34.2662C129.515 35.6583 130.92 38.4702 131.912 41.6129C132.298 42.8258 133.51 46.9058 132.78 48.6563C131.898 50.7928 127.766 52.7225 125.383 53.6736L125.411 53.6874ZM123.854 53.3841C126.196 52.5433 131.196 50.3931 132.036 48.3393C132.931 46.1753 130.135 37.588 127.656 34.8313C126.32 33.3565 121.168 34.4729 118.841 35.1621L123.854 53.3841Z" fill="#371A45"/>
<path d="M130.108 42.1366L127.036 43.3909C126.761 43.5012 126.595 43.7907 126.637 44.0801C126.788 45.1553 127.256 47.6225 128.496 48.0774C129.529 48.4633 130.824 47.9533 131.389 47.0436C132.022 46.0236 131.347 43.6804 130.962 42.5364C130.838 42.178 130.452 41.9988 130.094 42.1504L130.108 42.1366Z" fill="white"/>
<g opacity="0.35">
<path d="M126.637 44.0939C126.788 45.1691 127.243 47.6363 128.482 48.0912C129.515 48.4771 130.81 47.9671 131.375 47.0574C131.761 46.4234 131.664 45.2931 131.43 44.2593C131.457 44.8107 131.361 45.2931 131.168 45.6515C130.08 47.7053 128.317 46.2718 128.317 46.2718C128.317 46.2718 128.262 46.7817 128.097 46.8507C127.449 47.1815 126.898 44.9899 126.637 43.8458C126.623 43.9285 126.609 43.9974 126.637 44.0939Z" fill="#371A45"/>
</g>
<path d="M130.314 48.3255C129.694 48.5736 128.978 48.615 128.372 48.3945C127.009 47.8845 126.499 45.5137 126.306 44.1353C126.251 43.6942 126.499 43.2669 126.912 43.1015L129.984 41.8472C130.232 41.7507 130.507 41.7507 130.755 41.861C131.003 41.9713 131.196 42.178 131.278 42.4399C131.816 44.0388 132.325 46.1753 131.678 47.2366C131.361 47.7466 130.879 48.1188 130.328 48.3393L130.314 48.3255ZM130.218 42.4399L127.146 43.6942C127.009 43.7494 126.926 43.8872 126.953 44.025C127.229 46.0788 127.849 47.4847 128.593 47.7604C129.447 48.0774 130.59 47.6639 131.099 46.8507C131.499 46.2166 131.32 44.6315 130.645 42.6191C130.617 42.5364 130.562 42.4675 130.48 42.4261C130.397 42.3848 130.314 42.3848 130.232 42.4261L130.218 42.4399Z" fill="#371A45"/>
<path d="M130.149 48.3531C130.066 48.3393 130.025 48.3255 129.97 48.298C129.915 48.2842 129.86 48.2566 129.818 48.229C129.722 48.1877 129.626 48.1326 129.529 48.0774C129.35 47.9672 129.185 47.8431 129.033 47.6915C128.73 47.402 128.496 47.0574 128.331 46.7128C128.152 46.3545 128.028 45.9823 127.931 45.6101C127.876 45.431 127.835 45.238 127.807 45.045C127.78 44.852 127.739 44.6729 127.752 44.4523C127.752 44.3972 127.794 44.3558 127.849 44.3558C127.904 44.3558 127.945 44.3972 127.945 44.4523C127.945 44.6315 128 44.8245 128.055 44.9899C128.11 45.1691 128.166 45.3483 128.234 45.5137C128.372 45.8583 128.524 46.2028 128.703 46.5061C128.896 46.8093 129.13 47.085 129.391 47.2918C129.529 47.402 129.667 47.4847 129.818 47.5674C129.887 47.6088 129.97 47.6363 130.039 47.6639C130.08 47.6639 130.108 47.6915 130.149 47.6915C130.177 47.6915 130.232 47.7053 130.245 47.7053C130.424 47.7053 130.59 47.8431 130.59 48.0361C130.59 48.2153 130.452 48.3807 130.259 48.3807C130.232 48.3807 130.204 48.3807 130.19 48.3807H130.149V48.3531Z" fill="#371A45"/>
<path d="M123.042 35.6584C123.414 35.4792 123.785 35.3 124.157 35.1346C124.529 34.9692 124.915 34.8038 125.301 34.6659C125.686 34.5143 126.072 34.3765 126.471 34.2524C126.871 34.1284 127.27 34.0181 127.711 33.9492C127.945 33.9078 128.152 34.0732 128.193 34.2938C128.234 34.5281 128.069 34.7348 127.849 34.7762C127.849 34.7762 127.821 34.7762 127.807 34.7762C127.436 34.8038 127.05 34.8727 126.664 34.9554C126.279 35.0381 125.893 35.1484 125.507 35.2586C125.122 35.3689 124.736 35.4929 124.364 35.6308C123.978 35.7686 123.606 35.9065 123.235 36.0443C123.124 36.0856 123 36.0443 122.959 35.9202C122.918 35.81 122.959 35.6997 123.069 35.6446L123.042 35.6584Z" fill="#371A45"/>
<path d="M137.931 31.4405C137.931 31.4405 139.143 43.0601 125.066 42.7845C124.474 42.7845 123.841 42.7431 123.193 42.688L121.485 38.7872L121.017 37.7121L119.405 34.018C119.405 34.018 120.025 34.1835 121.017 34.3213C121.54 34.404 122.174 34.4591 122.876 34.5005C125.149 34.6107 128.124 34.3351 130.576 32.7362C131.526 32.1159 132.394 31.3027 133.11 30.2275L137.931 31.4267V31.4405Z" fill="white"/>
<g opacity="0.25">
<path d="M137.931 31.4405C137.931 31.4405 139.143 43.0601 125.066 42.7845C124.474 42.7845 123.841 42.7431 123.193 42.688L121.485 38.7872C124.006 39.4488 129.061 42.2882 132.945 37.8913C134.928 35.6445 132.105 35.6583 130.576 32.7362C131.526 32.1159 132.394 31.3027 133.11 30.2275L137.931 31.4267V31.4405Z" fill="#371A45"/>
</g>
<path d="M131.898 42.1505C129.557 43.0877 126.637 43.4186 123.166 43.1153C122.932 43.1015 122.766 42.8948 122.78 42.6605C122.794 42.4261 123 42.2607 123.235 42.2745C128.51 42.7294 132.408 41.6956 134.832 39.2283C137.49 36.5267 137.573 32.8189 137.532 31.7714L133.289 30.71C131.471 33.26 128.496 34.7073 124.695 34.914C121.761 35.0794 119.392 34.4454 119.295 34.4316C119.075 34.3765 118.937 34.1421 118.992 33.9216C119.047 33.7011 119.281 33.5632 119.502 33.6184C119.598 33.6459 128.744 35.9892 132.752 30.007C132.849 29.8554 133.028 29.7865 133.207 29.8279L138.028 31.027C138.193 31.0684 138.331 31.22 138.344 31.3854C138.372 31.5922 138.827 36.3475 135.438 39.7935C134.46 40.7859 133.276 41.5578 131.898 42.1229V42.1505Z" fill="#371A45"/>
<path d="M132.794 41.7369C132.794 41.7369 132.738 41.7507 132.711 41.7645C131.788 41.9161 130.962 41.7094 130.259 41.1304C127.986 39.2559 127.821 34.1008 127.821 33.8802C127.821 33.6459 128 33.4529 128.234 33.4529C128.469 33.4529 128.661 33.6321 128.661 33.8665C128.661 33.9216 128.813 38.8561 130.796 40.4826C131.306 40.9099 131.898 41.0615 132.587 40.9375C132.821 40.8961 133.028 41.0477 133.069 41.2821C133.097 41.475 132.986 41.668 132.807 41.7369H132.794Z" fill="#371A45"/>
<path d="M131.278 4.54857L134.763 30.1173L135.769 37.5053L138.386 56.7197L139.061 61.6681L137.504 61.8748L136.636 55.4792L134.212 37.7259L133.248 30.6135L129.722 4.76911C129.667 4.41073 129.874 4.06614 130.204 3.92831C130.259 3.90074 130.328 3.88696 130.397 3.87317C130.824 3.81804 131.223 4.12128 131.278 4.54857Z" fill="#DDDDDD"/>
<g opacity="0.26">
<path d="M138.386 56.7198L139.061 61.6681L137.504 61.8749L136.636 55.4792C137.091 56.0168 137.67 56.4992 138.386 56.7198Z" fill="#371A45"/>
</g>
<g opacity="0.25">
<path d="M134.763 30.1173L135.769 37.5054C135.218 37.7672 134.694 37.8086 134.212 37.7259L133.248 30.6135L134.763 30.1173Z" fill="#371A45"/>
</g>
<path d="M139.543 62.0265L137.16 62.3573L129.309 4.82428C129.212 4.16266 129.681 3.55618 130.342 3.47348C130.659 3.43213 130.975 3.51483 131.237 3.7078C131.499 3.90077 131.664 4.19023 131.705 4.50725L139.543 62.0403V62.0265ZM137.876 61.4062L138.606 61.3097L130.865 4.60374C130.865 4.50725 130.796 4.42455 130.728 4.35563C130.645 4.3005 130.548 4.27293 130.452 4.28671C130.259 4.31428 130.108 4.49347 130.135 4.70022L137.862 61.4062H137.876Z" fill="#371A45"/>
<path d="M133.592 27.0573C133.592 27.0573 133.634 27.1676 133.648 27.2227C134.033 28.6149 133.179 31.9781 133.179 31.9781C133.179 31.9781 131.981 33.0394 131.196 32.9016C130.879 32.8465 130.301 31.8816 129.874 30.903C129.515 30.1035 129.267 29.2903 129.35 28.9595C129.571 27.9946 133.276 26.2441 133.606 27.0573H133.592Z" fill="white"/>
<g opacity="0.25">
<path d="M133.648 27.2227C134.033 28.6149 133.179 31.9781 133.179 31.9781C133.179 31.9781 131.981 33.0394 131.196 32.9016C130.879 32.8465 130.3 31.8816 129.874 30.903C130.273 31.1235 130.686 31.22 130.879 30.903C131.292 30.2138 130.204 29.0697 131.32 27.9395C131.664 27.5811 132.752 27.3468 133.661 27.2227H133.648Z" fill="#371A45"/>
</g>
<path d="M132.105 33.1772C131.774 33.3013 131.444 33.384 131.127 33.3289C130.851 33.2737 130.59 33.0394 130.259 32.5294C129.722 31.7024 128.758 29.6762 128.951 28.8905C129.199 27.8154 131.884 26.5473 133 26.4646C133.689 26.4095 133.923 26.7265 134.006 26.9332C134.543 28.284 133.716 31.7299 133.606 32.1159L133.579 32.2399L133.482 32.3226C133.331 32.4605 132.766 32.9429 132.119 33.191L132.105 33.1772ZM131.306 32.5018C131.678 32.5432 132.38 32.1159 132.807 31.7575C133.055 30.71 133.537 28.2289 133.221 27.2778C133.014 27.2365 132.325 27.3605 131.347 27.8567C130.328 28.3667 129.791 28.8767 129.736 29.0697C129.626 29.5659 130.81 32.1848 131.292 32.5018H131.306Z" fill="#371A45"/>
<path d="M138.041 31.6748C138.069 33.9216 136.719 34.9553 136.223 35.1483C135.507 35.4378 135.108 35.2586 133.62 35.4791C132.132 35.6997 131.32 29.9794 131.402 29.0697C131.485 28.16 132.518 27.0711 133.193 26.6576C133.289 26.6024 133.372 26.5611 133.441 26.5335C134.061 26.2854 136.678 27.2641 136.995 27.8981C137.752 29.4281 138.041 30.6686 138.055 31.6748H138.041Z" fill="white"/>
<g opacity="0.25">
<path d="M138.041 31.6748C138.069 33.9216 136.719 34.9554 136.223 35.1483C135.507 35.4378 135.108 35.2586 133.62 35.4791C132.132 35.6997 131.32 29.9795 131.402 29.0697C131.485 28.16 132.518 27.0711 133.193 26.6576C133.138 27.4708 133.138 29.2627 133.73 31.6473C134.446 34.5418 136.788 33.2738 138.041 31.6748Z" fill="#371A45"/>
</g>
<path d="M136.375 35.5343C135.906 35.7272 135.548 35.741 135.08 35.7548C134.736 35.7686 134.309 35.7962 133.675 35.8789C133.441 35.9202 133.097 35.8789 132.738 35.5481C131.458 34.3351 130.907 29.7589 130.975 29.0146C131.099 27.7741 132.546 26.4233 133.276 26.12C134.13 25.7754 136.953 26.8643 137.353 27.6776C138.758 30.5032 138.565 32.3916 138.138 33.4805C137.67 34.7073 136.802 35.3413 136.375 35.5067V35.5343ZM133.579 26.9195C133.042 27.14 131.884 28.2841 131.816 29.1111C131.747 29.8416 132.353 34.0319 133.317 34.9554C133.455 35.0794 133.524 35.0794 133.551 35.0656C134.226 34.9691 134.681 34.9416 135.052 34.9278C135.493 34.914 135.727 34.9002 136.072 34.7624C136.306 34.6659 136.995 34.211 137.366 33.2048C137.876 31.8678 137.614 30.0897 136.609 28.0773C136.375 27.65 134.061 26.7679 133.592 26.9195H133.579Z" fill="#371A45"/>
<path d="M90.7696 42.0264C90.7696 42.0264 90.3426 45.1691 88.1113 46.065C86.9956 46.5199 85.4254 45.8583 84.5576 44.9485C84.2546 44.6315 84.048 44.2869 83.9516 43.9423C83.8001 43.3496 84.1719 42.5226 84.7229 41.7094C85.6733 40.2759 87.1333 38.8699 87.1333 38.8699L90.7834 42.0264H90.7696Z" fill="white"/>
<g opacity="0.25">
<path d="M90.7696 42.0263C90.7696 42.0263 90.3426 45.169 88.1112 46.065C86.9956 46.5198 85.4253 45.8582 84.5576 44.9485C84.8331 44.8933 85.1636 44.7142 85.3289 44.1904C85.9763 42.1917 84.7229 41.7231 84.7229 41.7231C85.6733 40.2896 87.1333 38.8837 87.1333 38.8837L90.7834 42.0401L90.7696 42.0263Z" fill="#371A45"/>
</g>
<path d="M88.249 46.4509C87.4776 46.768 86.4722 46.6577 85.508 46.1615C84.4887 45.6515 83.7312 44.8383 83.5245 44.0388C83.07 42.2607 86.1967 39.1594 86.8165 38.5529C86.9818 38.3875 87.2435 38.4013 87.4088 38.5529C87.5741 38.7183 87.5603 38.9802 87.4088 39.1456C86.0865 40.4137 84.0893 42.8121 84.3372 43.8183C84.4749 44.3696 85.0948 45.0037 85.8799 45.4034C86.6237 45.7755 87.395 45.872 87.9322 45.6653C89.9156 44.8658 90.3288 41.985 90.3426 41.9575C90.3701 41.7231 90.5905 41.5715 90.8109 41.5991C91.0451 41.6267 91.1966 41.8472 91.169 42.0677C91.1553 42.2056 90.6869 45.4585 88.249 46.4372V46.4509Z" fill="#371A45"/>
<path d="M89.3371 44.7142C89.3371 44.7142 89.2958 44.7142 89.282 44.728C89.1718 44.728 89.0617 44.659 89.0479 44.535C89.0203 44.2731 88.9101 44.0526 88.6898 43.9009C87.8496 43.2531 85.8799 43.5839 85.8661 43.5839C85.7559 43.5977 85.6457 43.5288 85.6182 43.4185C85.5906 43.3082 85.6595 43.198 85.7697 43.1704C87.6154 42.7293 87.9184 40.9237 87.9322 40.841C87.946 40.7307 88.0562 40.648 88.1664 40.6618C88.2765 40.6756 88.3592 40.7858 88.3454 40.8961C88.3454 40.9099 88.125 42.2469 86.9818 43.0601C87.643 43.0601 88.4143 43.1566 88.9239 43.5426C89.2269 43.7769 89.406 44.0939 89.4473 44.4799C89.4473 44.5763 89.406 44.659 89.3234 44.7004L89.3371 44.7142Z" fill="#371A45"/>
<path d="M113.083 42.8672C112.78 43.5839 112.353 44.3007 111.816 44.9623C110.976 45.9823 109.86 46.8507 108.483 47.4158C107.946 47.6363 107.422 47.8155 106.913 47.9671C99.4884 50.2277 93.6621 46.9196 92.6704 46.8231C91.596 46.7128 86.9818 48.5323 86.4722 46.2442C86.4308 46.065 86.4722 45.8582 86.5273 45.6515C86.9542 44.3834 88.8964 42.564 88.5658 42.0953C88.0424 41.3372 84.778 40.0829 83.9102 39.2697C82.1334 37.6018 83.0012 35.5205 84.227 36.1959C86.2931 37.3124 88.2352 37.5329 91.5409 38.4978C92.6291 38.8148 95.1497 39.3799 96.3618 39.6005C98.0146 39.8899 99.5573 40.0278 101.059 39.9588C103.386 39.8486 105.632 39.2697 108.18 38.0429C108.262 38.0016 108.345 37.9602 108.441 37.9189C113.18 35.5619 114.626 39.311 113.097 42.9085L113.083 42.8672Z" fill="white"/>
<g opacity="0.25">
<path d="M111.816 44.9623C110.976 45.9823 109.86 46.8507 108.483 47.4158C107.946 47.6363 107.422 47.8155 106.913 47.9671C99.4884 50.2277 93.6621 46.9196 92.6704 46.8231C91.596 46.7128 86.9818 48.5323 86.4722 46.2442C86.4308 46.065 86.4722 45.8582 86.5273 45.6515C86.7201 45.9685 87.1333 46.2166 87.9597 46.1339C89.8743 45.9547 92.3536 44.9209 93.2627 45.0312C94.461 45.1691 99.8741 48.0498 104.475 46.189C107.491 44.9761 107.587 42.1229 107.587 42.1229L111.816 44.9761V44.9623Z" fill="#371A45"/>
</g>
<path d="M108.634 47.8017C108.097 48.0222 107.56 48.2014 107.023 48.3668C100.866 50.2414 95.7557 48.3668 93.5795 47.5536C93.1525 47.402 92.753 47.2504 92.6153 47.2366C92.3949 47.209 91.8164 47.3331 91.2517 47.4433C89.3647 47.8293 86.5135 48.4082 86.0452 46.3269C85.8523 45.486 86.6237 44.4523 87.3812 43.4461C87.6705 43.0601 88.0975 42.495 88.1663 42.2469C87.8633 41.9161 86.8027 41.3785 85.9488 40.9237C84.9846 40.4274 84.0617 39.9588 83.621 39.5453C82.34 38.3461 82.2436 36.8988 82.7946 36.1269C83.1802 35.5894 83.8138 35.4653 84.4199 35.7961C85.7835 36.5404 87.0782 36.8575 88.8688 37.3123C89.6815 37.5191 90.6043 37.7534 91.6511 38.0567C92.7117 38.3599 95.2186 38.9388 96.4306 39.1456C98.1386 39.4488 99.6399 39.5591 101.031 39.4902C103.345 39.3799 105.563 38.7872 107.987 37.6156C108.07 37.5742 108.138 37.5467 108.221 37.5053H108.235C111.003 36.1132 112.45 36.885 113.069 37.464C114.24 38.5666 114.406 40.7996 113.455 43.0188C112.532 45.1828 110.783 46.9195 108.62 47.7879L108.634 47.8017ZM83.6485 36.4991C83.6485 36.4991 83.5246 36.568 83.4832 36.6369C83.194 37.0367 83.2215 38.0291 84.1995 38.9526C84.5576 39.2834 85.4529 39.752 86.3344 40.1931C87.7256 40.9099 88.5933 41.3785 88.9101 41.8472C89.2545 42.3434 88.7724 42.9912 88.0562 43.9561C87.5465 44.6452 86.7614 45.6928 86.8716 46.1477C87.1333 47.3193 89.103 47.0298 91.1002 46.6163C91.8026 46.4785 92.3536 46.3544 92.7117 46.3958C92.9596 46.4233 93.304 46.5474 93.8825 46.7541C95.9899 47.526 100.907 49.3455 106.802 47.5536C107.312 47.402 107.835 47.2228 108.345 47.016C110.301 46.2304 111.885 44.659 112.725 42.7017C113.524 40.8134 113.455 38.9526 112.532 38.0842C111.747 37.3399 110.37 37.395 108.648 38.2496H108.634C108.552 38.3048 108.469 38.3323 108.4 38.3737C105.866 39.6004 103.552 40.2207 101.128 40.331C99.6675 40.3999 98.1111 40.2758 96.3342 39.9726C95.067 39.752 92.5602 39.1731 91.4583 38.8561C90.4253 38.5529 89.5162 38.3185 88.7035 38.1256C86.9267 37.6707 85.5218 37.3261 84.0617 36.5267C83.9102 36.444 83.8 36.4302 83.6898 36.4715L83.6485 36.4991Z" fill="#371A45"/>
<path d="M100.701 49.1112C100.59 49.1525 100.466 49.1525 100.356 49.0974C100.15 48.9871 100.067 48.739 100.177 48.5322C101.789 45.3896 99.1441 40.1793 99.1165 40.1242C99.0063 39.9174 99.089 39.6693 99.2956 39.5591C99.5022 39.4488 99.7501 39.5315 99.8603 39.7383C99.9843 39.9726 102.725 45.3896 100.921 48.9182C100.88 49.0147 100.797 49.0836 100.701 49.1112Z" fill="#371A45"/>
<path d="M124.874 52.2538C121.155 54.5144 109.957 59.9727 108.676 58.1946C108.29 57.657 107.257 53.0671 106.899 47.9671C106.789 46.2855 106.747 44.5488 106.83 42.8809C106.885 41.7645 106.995 40.6893 107.174 39.6831C107.243 39.3248 107.601 38.7321 108.166 38.0153C111.196 34.1697 120.039 26.6851 120.604 32.3364C120.673 33.0118 120.797 33.6735 120.962 34.3351C121.155 35.0932 121.403 35.8237 121.692 36.5405C122.56 38.6907 123.785 40.6893 124.874 42.5226C127.229 46.5198 128.937 49.7866 124.874 52.2538Z" fill="white"/>
<path d="M123.028 38.8561C124.144 40.4688 125.177 42.1229 126.155 43.8596C126.403 44.2869 126.623 44.7418 126.843 45.1966C127.064 45.6515 127.256 46.1201 127.422 46.6163C127.587 47.1126 127.711 47.6226 127.752 48.1601C127.794 48.6977 127.752 49.249 127.601 49.7866C127.436 50.3242 127.16 50.8204 126.816 51.2339C126.471 51.6474 126.072 52.0058 125.645 52.309C125.535 52.3917 125.425 52.4468 125.314 52.5295C125.204 52.5985 125.094 52.6674 124.984 52.7363C124.763 52.8603 124.557 52.9844 124.336 53.1085C123.909 53.3566 123.469 53.5909 123.042 53.8252C122.174 54.2939 121.292 54.7487 120.411 55.1898C119.529 55.6309 118.634 56.0444 117.725 56.4441C116.816 56.8438 115.907 57.2298 114.984 57.5881C114.061 57.9465 113.125 58.2773 112.16 58.553C111.678 58.6908 111.182 58.8149 110.673 58.8976C110.411 58.9389 110.163 58.9665 109.888 58.9803C109.612 58.9803 109.337 58.9803 109.02 58.8976C108.868 58.8562 108.689 58.7873 108.538 58.6633C108.497 58.6357 108.455 58.5944 108.428 58.5668C108.386 58.5254 108.359 58.4841 108.317 58.4427C108.29 58.4014 108.262 58.36 108.235 58.3049L108.18 58.1946C108.07 57.919 108.001 57.6846 107.918 57.4365C107.78 56.9541 107.67 56.4579 107.56 55.9755C107.353 54.9968 107.174 54.032 107.036 53.0533C106.885 52.0747 106.761 51.096 106.665 50.1036C106.472 48.1326 106.417 46.1477 106.568 44.1629C106.568 44.0526 106.678 43.9561 106.789 43.9699C106.899 43.9699 106.981 44.0664 106.981 44.1629C107.092 46.1201 107.257 48.0636 107.477 50.0071C107.698 51.9506 107.987 53.8803 108.414 55.7825C108.524 56.2511 108.634 56.7336 108.758 57.1884C108.827 57.409 108.896 57.6433 108.979 57.8225L109.006 57.8776C109.006 57.8776 109.006 57.8914 109.006 57.9052C109.006 57.9052 109.006 57.9052 109.02 57.919C109.02 57.919 109.034 57.919 109.047 57.9327C109.089 57.9603 109.144 57.9879 109.227 58.0154C109.392 58.0568 109.612 58.0706 109.819 58.0568C110.039 58.0568 110.273 58.0154 110.494 57.9741C110.948 57.8914 111.417 57.7811 111.871 57.6433C112.794 57.3676 113.703 57.0368 114.612 56.6784C115.521 56.32 116.416 55.9341 117.298 55.5344C119.075 54.7211 120.838 53.8666 122.56 52.9431C122.987 52.7087 123.414 52.4744 123.841 52.2401C124.047 52.116 124.268 51.992 124.474 51.8679C124.584 51.8128 124.681 51.7439 124.777 51.675C124.874 51.606 124.97 51.5509 125.066 51.482C125.81 50.9444 126.458 50.2828 126.692 49.4558C126.953 48.6426 126.829 47.7053 126.54 46.8231C126.251 45.9272 125.824 45.0726 125.356 44.218C124.887 43.3634 124.378 42.5226 123.896 41.668C123.414 40.8134 122.959 39.9175 122.601 38.994C122.56 38.8837 122.601 38.7597 122.725 38.7183C122.821 38.677 122.918 38.7183 122.973 38.801L123.028 38.8561Z" fill="#371A45"/>
<path d="M108.716 32.984C108.716 32.984 108.579 32.9291 108.51 32.9016L108.702 32.9291V32.9703L108.716 32.984Z" fill="white"/>
<path d="M98.4829 36.7886C112.064 50.0209 131.113 31.7989 119.474 17.7258C105.893 3.84561 86.2242 22.7017 98.4829 36.7886Z" fill="white"/>
<path d="M98.4829 36.7886C112.064 50.0209 131.113 31.7989 119.474 17.7258C105.893 3.84561 86.2242 22.7017 98.4829 36.7886Z" fill="white"/>
<g opacity="0.25">
<path d="M122.766 34.4867C122.463 35.1896 122.119 35.8788 121.706 36.5267C121.471 36.8988 121.224 37.2572 120.962 37.6018C119.02 40.1656 116.224 42.0815 113.083 42.8672C111.1 43.3634 108.979 43.4047 106.83 42.8672C104.888 42.3847 102.932 41.4336 101.059 39.9174C103.386 39.8072 105.632 39.2283 108.18 38.0015C111.21 34.1559 120.053 26.6713 120.617 32.3226C120.686 32.998 120.81 33.6597 120.976 34.3213C121.485 34.3902 122.091 34.4591 122.766 34.4867Z" fill="#371A45"/>
</g>
<path d="M98.4829 36.7886C112.064 50.0209 131.113 31.7989 119.474 17.7258C105.893 3.84561 86.2242 22.7017 98.4829 36.7886Z" fill="white"/>
<path d="M114.034 40.6618C112.45 41.2958 110.783 41.6404 109.103 41.668C105.218 41.7369 101.486 40.1104 98.2764 36.9953H98.2626C95.3425 33.6321 94.0065 29.7727 94.3921 25.8443C94.7365 22.3295 96.4169 19.0076 99.1441 16.499C101.858 13.9904 105.287 12.5844 108.786 12.5706C112.725 12.5431 116.499 14.2522 119.708 17.519H119.722C122.491 20.896 123.744 24.7141 123.331 28.5735C122.959 32.0332 121.292 35.2999 118.607 37.7672C117.243 39.0215 115.7 40.0001 114.047 40.6618H114.034ZM98.7034 36.5818C105.521 43.2255 113.4 41.7369 118.18 37.3261C122.849 33.0118 125.177 25.1 119.24 17.9187C112.45 10.9993 104.268 12.5569 99.5298 16.9401C94.7503 21.3646 92.45 29.4005 98.6896 36.5818H98.7034Z" fill="#371A45"/>
<g opacity="0.25">
<path d="M98.483 36.7886C110.025 48.422 127.959 35.7961 121.788 21.2957C122.188 26.4232 120.549 27.0711 118.648 30.2413C112.932 40.5101 98.9513 37.8361 94.7365 28.3943C95.0257 31.5783 96.3756 34.5143 98.483 36.7748V36.7886Z" fill="#371A45"/>
</g>
<path d="M114.075 40.772C112.477 41.4061 110.797 41.7645 109.103 41.792C105.191 41.8609 101.417 40.2345 98.1937 37.0918L98.1661 37.0642C95.2323 33.6872 93.8825 29.8002 94.2682 25.8305C94.6125 22.2881 96.3067 18.9387 99.0477 16.4025C101.789 13.8663 105.232 12.4604 108.772 12.4328C112.753 12.4053 116.554 14.1282 119.777 17.4225L119.805 17.4501C122.601 20.8271 123.854 24.6727 123.441 28.5873C123.069 32.0745 121.375 35.3688 118.689 37.8637C117.312 39.1318 115.755 40.1104 114.102 40.7858L114.075 40.772ZM98.786 36.4991C105.549 43.0739 113.359 41.6128 118.097 37.2434C122.725 32.9705 125.039 25.1276 119.157 18.0014C112.436 11.1372 104.309 12.6809 99.6124 17.0228C94.8742 21.406 92.5878 29.3729 98.786 36.4991Z" fill="#293856"/>
<path d="M114.075 40.772C112.477 41.4061 110.797 41.7645 109.103 41.792C105.191 41.8609 101.417 40.2345 98.1937 37.0918L98.1661 37.0642C95.2323 33.6872 93.8825 29.8002 94.2682 25.8305C94.6125 22.2881 96.3067 18.9387 99.0477 16.4025C101.789 13.8663 105.232 12.4604 108.772 12.4328C112.753 12.4053 116.554 14.1282 119.777 17.4225L119.805 17.4501C122.601 20.8271 123.854 24.6727 123.441 28.5873C123.069 32.0745 121.375 35.3688 118.689 37.8637C117.312 39.1318 115.755 40.1104 114.102 40.7858L114.075 40.772ZM98.786 36.4991C105.549 43.0739 113.359 41.6128 118.097 37.2434C122.725 32.9705 125.039 25.1276 119.157 18.0014C112.436 11.1372 104.309 12.6809 99.6124 17.0228C94.8742 21.406 92.5878 29.3729 98.786 36.4991Z" fill="#371A45"/>
<path d="M101.265 39.118C117.023 44.4798 125.535 25.61 112.904 18.3184C98.2626 11.0131 87.3675 29.4143 101.265 39.118Z" fill="#371A45"/>
<path d="M95.5078 30.2413C98.5105 44.9898 119.832 41.8334 119.309 27.8981C114.213 37.2434 100.948 36.5542 95.5078 30.2413Z" fill="#21102B"/>
<path d="M112.532 40.7583C110.893 41.4199 109.158 41.7231 107.422 41.6266C104.116 41.4612 100.921 39.8899 98.1799 37.078C93.6897 32.4054 92.45 23.5149 97.7529 17.7396L97.808 17.6982C100.852 15.3412 104.929 14.3763 109.006 15.0517C113.069 15.7134 116.609 17.9187 118.73 21.089C120.7 24.2179 121.361 27.65 120.645 31.0546C119.998 34.1283 118.262 36.9126 115.755 38.8975C114.764 39.6831 113.675 40.3172 112.546 40.7721L112.532 40.7583ZM98.786 36.4991C104.764 42.6329 111.389 41.2683 115.232 38.2221C119.653 34.7348 122.036 27.8705 118.028 21.5301C116.045 18.5666 112.711 16.499 108.868 15.865C105.039 15.2447 101.21 16.1406 98.3452 18.3323C93.3866 23.763 94.5574 32.1021 98.786 36.4991Z" fill="#371A45"/>
<path d="M111.692 39.5315C108.552 40.7996 104.902 40.7858 101.141 39.5039H101.086L101.031 39.4488C97.6841 37.1194 95.5078 34.1007 94.7502 30.7513C94.0615 27.7465 94.5574 24.6314 96.1276 21.9849C97.6703 19.3936 100.081 17.519 102.946 16.692C106.127 15.7685 109.64 16.2095 113.111 17.9463H113.138C116.1 19.6692 118.111 22.109 118.978 25.0173C119.764 27.65 119.543 30.5446 118.359 33.1497C117.078 35.9753 114.805 38.2083 111.954 39.4212C111.871 39.4626 111.788 39.4902 111.692 39.5315ZM101.458 38.7321C109.516 41.4474 115.356 37.7121 117.587 32.8051C119.612 28.3392 118.882 22.2468 112.711 18.6768C105.425 15.0517 99.4884 17.9325 96.8301 22.4122C94.1855 26.8643 94.5161 33.8526 101.458 38.7321Z" fill="#371A45"/>
<path d="M125.177 26.6989C125.645 33.3702 118.992 34.404 117.904 28.0773C117.16 21.1028 124.268 20.0001 125.177 26.6989Z" fill="white"/>
<g opacity="0.35">
<path d="M122.064 32.2951C120.08 32.6121 118.124 30.5308 117.877 27.7327C119.736 30.3102 121.692 24.9622 121.609 23.57C126.94 23.7354 125.728 31.7713 122.064 32.2951Z" fill="#371A45"/>
</g>
<path d="M122.876 32.488C122.601 32.5983 122.325 32.6672 122.036 32.7086C120.204 32.9291 118.097 31.6059 117.505 28.1462V28.1186C117.091 24.3143 118.965 22.0676 121.031 21.8195C122.89 21.5989 125.108 23.0049 125.604 26.6438V26.6713C125.838 29.9243 124.46 31.8402 122.876 32.488ZM118.331 28.0221C118.827 30.9167 120.507 32.047 121.94 31.8678C123.455 31.6886 124.998 30.007 124.763 26.7403C124.35 23.6803 122.587 22.4673 121.127 22.6465C119.474 22.8395 117.987 24.7554 118.331 28.0083V28.0221Z" fill="#371A45"/>
<path d="M125.507 27.0021C125.879 32.4053 120.907 33.2599 120.039 28.1462C119.405 22.426 124.805 21.5162 125.507 27.0021Z" fill="white"/>
<path d="M123.772 31.7989C123.565 31.8816 123.359 31.9367 123.152 31.9643C121.747 32.1297 120.108 31.0408 119.626 28.2151V28.1875C119.268 24.9897 120.728 23.1289 122.353 22.9222C123.799 22.743 125.535 23.9284 125.92 26.9332V26.9608C126.113 29.69 125.025 31.2751 123.772 31.7851V31.7989ZM120.452 28.0911C120.838 30.3654 122.036 31.2475 123.055 31.1235C124.157 30.9856 125.273 29.6624 125.094 27.0435C124.777 24.6176 123.51 23.6389 122.463 23.763C121.251 23.9146 120.177 25.4446 120.466 28.0773L120.452 28.0911Z" fill="#371A45"/>
<g opacity="0.5">
<path d="M116.031 25.5273C115.866 28.3392 112.67 28.2013 112.408 25.7478C112.243 22.6327 116.017 22.7292 116.031 25.5273Z" fill="white"/>
</g>
<g opacity="0.5">
<path d="M115.342 30.0483C115.218 31.1235 113.813 31.0821 113.841 29.9105C113.965 28.8354 115.37 28.8767 115.342 30.0483Z" fill="white"/>
</g>
<g opacity="0.5">
<path d="M97.4775 30.6273C93.5932 21.2406 103.428 17.6568 106.968 19.0352C100.577 20.9649 98.6207 25.6238 97.4775 30.6273Z" fill="white"/>
</g>
<g opacity="0.25">
<path d="M120.039 29.3867C119.777 28.67 119.708 27.8843 119.805 27.1262C121.54 30.4481 124.736 28.0773 124.984 25.3619C126.953 30.4067 122.202 34.0594 120.039 29.4005V29.3867Z" fill="#371A45"/>
</g>
<path d="M139.309 63.8459C137.518 64.921 133.827 65.5 131.485 63.1981C131.485 63.1981 128.083 58.8149 123.51 56.899C120.135 55.4792 114.667 57.0506 114.199 59.1319C113.744 61.1443 117.684 64.5213 117.243 67.347C117.064 68.4635 114.405 71.3718 109.654 72.5159C107.67 72.9983 106.83 71.7164 106.651 70.7102C106.637 70.6275 106.623 70.5448 106.623 70.4759C106.458 68.491 108.758 67.0851 108.758 67.0851C108.758 67.0851 103.676 63.7219 103.345 59.38C103.07 55.7549 105.149 53.4944 107.216 52.6398C108.152 52.2539 109.089 52.1574 109.805 52.3503L119.226 46.4234L125.011 42.7845C125.521 43.7631 126.044 44.6591 126.582 45.5136C127.105 46.3407 127.642 47.1126 128.207 47.8707C130.535 50.972 133.345 53.6874 137.366 57.8362C139.612 58.236 141.017 58.8976 141.623 59.697C142.545 60.8962 141.705 62.4124 139.295 63.8459H139.309Z" fill="white"/>
<g opacity="0.26">
<path d="M139.309 63.8459C137.518 64.9211 133.827 65.5 131.485 63.1981C131.485 63.1981 128.083 58.8149 123.51 56.899C120.135 55.4792 114.667 57.0506 114.199 59.1319C113.744 61.1443 117.684 64.5213 117.243 67.347C117.064 68.4635 114.405 71.3718 109.654 72.5159C107.67 72.9983 106.83 71.7164 106.651 70.7102C107.353 70.8342 108.538 70.7102 110.563 69.828C114.956 67.8845 115.893 66.0375 113.827 62.9086C111.912 60.0003 111.21 57.726 112.023 56.196L111.775 56.2649L111.651 56.2925C111.651 56.2925 111.527 56.32 111.472 56.3338C111.444 56.3338 111.417 56.3338 111.403 56.3338C111.375 56.3338 111.348 56.3338 111.32 56.3338C110.466 56.4027 109.64 55.8514 109.419 54.983L109.323 54.6109C109.227 54.3903 109.144 54.156 109.075 53.9355C108.717 53.9906 108.345 53.9355 108.042 53.7563C107.698 53.5771 107.436 53.2601 107.284 52.8741C107.271 52.819 107.243 52.7639 107.229 52.7087C107.229 52.7087 107.229 52.6812 107.229 52.6674C107.229 52.6674 107.229 52.6398 107.229 52.626C108.166 52.2401 109.103 52.1436 109.819 52.3366L119.24 46.4096C119.24 46.4096 119.364 46.4923 119.419 46.5474C119.419 46.5474 119.447 46.5612 119.447 46.575C119.474 46.6026 119.502 46.6301 119.543 46.6577C119.543 46.6715 119.571 46.6853 119.584 46.699C119.612 46.7266 119.64 46.7542 119.653 46.7817C119.653 46.7955 119.681 46.8093 119.695 46.8369C119.722 46.8644 119.736 46.892 119.764 46.9196C119.764 46.9334 119.791 46.9609 119.791 46.9747C119.805 47.0023 119.832 47.0436 119.846 47.0712C119.846 47.085 119.86 47.1126 119.874 47.1263C119.887 47.1677 119.915 47.1953 119.929 47.2366C119.929 47.2504 119.929 47.2642 119.943 47.278C119.97 47.3331 119.984 47.3882 119.998 47.4434L120.204 48.2015C121.127 48.0085 124.777 47.1815 126.609 45.4861C127.133 46.3131 127.67 47.085 128.234 47.8431C128.166 47.9809 128.11 48.0498 128.11 48.0498C128.11 48.0498 125.769 50.4069 120.948 50.9858L121.168 51.8266C121.21 51.9506 121.224 52.0885 121.224 52.2125C121.224 52.2676 121.224 52.3366 121.224 52.3917C121.224 52.3917 121.224 52.4055 121.224 52.4193C121.224 52.4744 121.224 52.5295 121.21 52.5847C121.21 52.5985 121.21 52.6122 121.21 52.626C121.21 52.6812 121.182 52.7363 121.168 52.7776C121.168 52.8052 121.168 52.819 121.155 52.8466C121.155 52.8741 121.141 52.9017 121.127 52.9293C121.127 52.9568 121.113 52.9844 121.1 52.9982C121.1 53.0257 121.086 53.0395 121.072 53.0671C121.058 53.1085 121.031 53.1498 121.017 53.1912C121.017 53.1912 121.017 53.1912 121.017 53.2049C121.017 53.2049 121.003 53.2325 120.989 53.2463C120.976 53.2739 120.948 53.3014 120.934 53.329C120.934 53.3428 120.907 53.3703 120.893 53.3841C120.879 53.4117 120.852 53.4393 120.838 53.4668C120.838 53.4806 120.81 53.4944 120.797 53.5082C120.769 53.5495 120.728 53.5771 120.7 53.6184C120.686 53.6322 120.673 53.646 120.659 53.6598C120.659 53.6598 120.631 53.6874 120.617 53.6874C121.843 53.7011 122.945 53.8666 123.717 54.2249C128 56.1684 130.438 60.1933 133.51 62.4538C135.121 63.6392 140.176 62.1919 141.664 59.6695C142.587 60.8687 141.747 62.3849 139.336 63.8184L139.309 63.8459Z" fill="#371A45"/>
</g>
<path d="M138.661 64.6178C136.568 65.4586 133.358 65.6102 131.196 63.4875L131.154 63.4462C131.154 63.4462 127.766 59.1319 123.345 57.2849C121.086 56.3338 117.932 56.8162 116.113 57.7535C115.246 58.1946 114.709 58.7184 114.598 59.2284C114.419 60.014 115.136 61.1994 115.907 62.4537C116.843 64.0113 117.918 65.7618 117.656 67.4159C117.45 68.7667 114.626 71.7577 109.75 72.9293C108.538 73.2188 107.753 72.9018 107.312 72.571C106.389 71.8956 106.238 70.8204 106.21 70.5172C106.072 68.9045 107.312 67.6778 108.042 67.0988C106.72 66.1064 103.221 63.1429 102.932 59.4213C102.67 56.0443 104.364 54.1146 105.384 53.2738C106.775 52.1298 108.593 51.606 109.915 51.9644C110.136 52.0333 110.273 52.2538 110.204 52.4882C110.136 52.7087 109.915 52.8465 109.681 52.7776C108.634 52.4882 107.092 52.9568 105.921 53.9217C105.012 54.666 103.538 56.3614 103.772 59.3662C104.089 63.4462 108.951 66.7129 108.992 66.7542L109.543 67.1264L108.979 67.471C108.979 67.471 106.899 68.7529 107.036 70.4621C107.078 70.9169 107.298 71.551 107.794 71.9093C108.235 72.2264 108.827 72.3091 109.543 72.1299C114.24 70.9996 116.678 68.1877 116.816 67.3056C117.023 65.9548 116.086 64.411 115.177 62.9086C114.323 61.5027 113.524 60.1794 113.772 59.063C113.951 58.3049 114.612 57.6019 115.714 57.0368C117.697 56.0168 121.155 55.493 123.648 56.5406C128.138 58.4289 131.471 62.5502 131.774 62.9362C133.909 65.0175 137.394 64.5075 139.061 63.5013C140.782 62.4675 141.678 61.3924 141.526 60.524C141.347 59.5454 139.791 58.7184 137.256 58.2635L137.119 58.2359L137.022 58.1395C136.375 57.4641 135.741 56.83 135.149 56.2235C130.287 51.2476 127.339 48.2566 124.598 42.9912C124.488 42.7845 124.571 42.5363 124.777 42.4261C124.984 42.3158 125.232 42.3985 125.342 42.6053C128.042 47.7466 130.948 50.7238 135.755 55.6308C136.32 56.2097 136.912 56.8162 137.532 57.4503C141.182 58.1395 142.16 59.4076 142.339 60.3724C142.504 61.2546 142.132 62.6329 139.474 64.2181C139.212 64.3697 138.923 64.5213 138.606 64.6453L138.661 64.6178Z" fill="#371A45"/>
<path d="M107.932 52.8741C108.829 52.8741 109.557 52.1459 109.557 51.2476C109.557 50.3494 108.829 49.6212 107.932 49.6212C107.034 49.6212 106.306 50.3494 106.306 51.2476C106.306 52.1459 107.034 52.8741 107.932 52.8741Z" fill="white"/>
<g opacity="0.26">
<path d="M106.403 51.7852C106.706 52.626 107.629 53.0809 108.483 52.7777C109.323 52.4744 109.778 51.5509 109.474 50.6963C109.392 50.462 109.254 50.2552 109.089 50.0898C109.02 50.6963 108.62 51.2339 108.014 51.4544C107.408 51.675 106.747 51.4958 106.32 51.0685C106.293 51.3028 106.32 51.5371 106.403 51.7715V51.7852Z" fill="#371A45"/>
</g>
<path d="M108.662 53.0671C108.662 53.0671 108.607 53.0809 108.579 53.0947C108.083 53.2738 107.56 53.2463 107.092 53.0119C106.623 52.7914 106.265 52.3917 106.086 51.8955C105.728 50.8755 106.265 49.759 107.271 49.4006C108.29 49.0423 109.406 49.5798 109.764 50.586C109.943 51.0822 109.915 51.606 109.681 52.0747C109.474 52.5157 109.103 52.8603 108.648 53.0533L108.662 53.0671ZM107.45 50.0485C106.816 50.3104 106.486 51.0271 106.72 51.6749C106.83 52.0057 107.064 52.2676 107.381 52.4055C107.698 52.5571 108.042 52.5709 108.373 52.4606C108.703 52.3503 108.965 52.116 109.103 51.799C109.254 51.482 109.268 51.1374 109.158 50.8066C108.924 50.1312 108.18 49.7866 107.505 50.0209C107.491 50.0209 107.463 50.0209 107.45 50.0347V50.0485Z" fill="#371A45"/>
<g opacity="0.35">
<path d="M108.317 52.6811C108.014 50.8617 107.546 49.2352 107.009 47.8293C107.243 48.6701 107.45 49.566 107.601 50.5033C107.78 51.6198 108.097 52.7363 108.552 53.7976C108.455 53.4255 108.386 53.0533 108.331 52.6811H108.317Z" fill="#371A45"/>
</g>
<path d="M110.783 55.1898L118.978 52.9844C119.943 52.7225 120.535 51.7163 120.273 50.7377L119.102 46.3683C118.868 45.5137 118.069 44.9623 117.229 45.0175C117.105 45.0175 116.981 45.045 116.871 45.0726L108.676 47.278C107.698 47.5399 107.119 48.5461 107.381 49.5247L108.317 52.9844L108.565 53.8941C108.827 54.8728 109.833 55.4517 110.811 55.1898H110.783Z" fill="white"/>
<g opacity="0.26">
<path d="M110.783 55.1898L118.978 52.9844C119.943 52.7225 120.535 51.7163 120.273 50.7377L119.102 46.3683C118.868 45.5137 118.069 44.9623 117.229 45.0175C116.843 45.4585 116.609 45.7342 116.609 45.7342C117.16 49.3455 116.623 51.3579 112.298 52.6123C110.425 53.1498 109.171 53.1774 108.317 52.9982L108.565 53.9079C108.827 54.8866 109.833 55.4655 110.811 55.2036L110.783 55.1898Z" fill="#371A45"/>
</g>
<path d="M119.199 53.2463C119.116 53.2738 119.033 53.3152 118.937 53.329L110.99 55.4792C109.777 55.81 108.51 55.0795 108.193 53.8665L107.078 49.7452C106.926 49.1525 106.995 48.5461 107.312 48.0085C107.615 47.4709 108.111 47.0988 108.703 46.9334L116.651 44.7831C117.243 44.6177 117.849 44.7004 118.386 45.0174C118.923 45.3207 119.295 45.8169 119.46 46.4096L120.576 50.5309C120.879 51.6612 120.287 52.819 119.226 53.2463H119.199ZM118.772 52.6949C119.64 52.4606 120.149 51.5647 119.915 50.6963L118.799 46.575C118.689 46.1615 118.414 45.8031 118.042 45.5963C117.67 45.3758 117.229 45.3207 116.816 45.4309L108.868 47.5812C108.455 47.6915 108.097 47.9671 107.89 48.3393C107.67 48.7115 107.615 49.1525 107.725 49.566L108.841 53.6874C109.075 54.5557 109.97 55.0657 110.838 54.8314L118.786 52.6811L118.772 52.6949Z" fill="#371A45"/>
<path d="M110.439 55.2449C110.549 55.2449 110.659 55.2174 110.783 55.1898L118.978 52.9844C119.695 52.7915 120.19 52.1988 120.301 51.5096C120.342 51.2615 120.328 50.9996 120.259 50.7377L119.736 48.7942L119.571 48.1601L119.089 46.3683C118.827 45.3896 117.821 44.8107 116.843 45.0726L115.067 45.555C115.921 45.4861 116.747 46.0375 116.967 46.9058L117.601 49.2628L118.138 51.2753C118.4 52.2401 117.821 53.2601 116.843 53.522L110.411 55.2587L110.439 55.2449Z" fill="white"/>
<g opacity="0.35">
<path d="M110.439 55.2449C110.549 55.2449 110.659 55.2173 110.783 55.1898L118.978 52.9844C119.943 52.7225 120.535 51.7163 120.273 50.7376L119.584 48.1601C119.502 48.6701 119.281 49.3317 118.703 49.5522C118.386 49.6763 118 49.5247 117.629 49.2628L118.166 51.2752C118.427 52.2401 117.849 53.2601 116.871 53.5219L110.439 55.2587V55.2449Z" fill="#371A45"/>
</g>
<path d="M119.309 53.2187C119.226 53.2463 119.144 53.2738 119.061 53.3014L110.866 55.5068C110.742 55.5482 110.604 55.5619 110.466 55.5757L110.356 54.9279L116.788 53.1911C117.174 53.0947 117.491 52.8328 117.697 52.4882C117.904 52.1436 117.945 51.7301 117.849 51.3579L116.678 46.9885C116.485 46.2993 115.838 45.8307 115.122 45.8858L115.012 45.238L116.788 44.7555C117.945 44.4523 119.13 45.1277 119.433 46.2855L120.604 50.6549C120.755 51.2063 120.673 51.799 120.383 52.2952C120.135 52.7225 119.764 53.0395 119.323 53.2187H119.309ZM118.262 52.8328L118.896 52.6674C119.281 52.5571 119.598 52.309 119.805 51.9644C120.011 51.6198 120.053 51.2063 119.956 50.8341L118.786 46.4647C118.565 45.6653 117.753 45.1966 116.954 45.4034L116.389 45.555C116.843 45.8307 117.174 46.2855 117.326 46.8231L118.496 51.1925C118.648 51.7439 118.565 52.3366 118.276 52.8328H118.262Z" fill="#371A45"/>
<path d="M114.35 49.9933C114.392 50.1587 114.984 51.3993 114.984 51.3993C114.984 51.3993 115.397 51.289 115.907 51.1512C116.54 50.972 116.871 50.1863 116.651 49.3731C116.43 48.5598 115.742 48.0498 115.108 48.229C114.681 48.3531 114.185 48.4771 114.185 48.4771C114.185 48.4771 114.295 49.7452 114.364 50.0071L114.35 49.9933Z" fill="#22A7F0"/>
<path d="M114.35 49.9933C114.392 50.1587 114.984 51.3993 114.984 51.3993C114.984 51.3993 115.397 51.289 115.907 51.1512C116.54 50.972 116.871 50.1863 116.651 49.3731C116.43 48.5598 115.742 48.0498 115.108 48.229C114.681 48.3531 114.185 48.4771 114.185 48.4771C114.185 48.4771 114.295 49.7452 114.364 50.0071L114.35 49.9933Z" fill="#BC514A"/>
<path d="M116.1 51.3579C116.1 51.3579 116.017 51.3855 115.976 51.3993L115.342 51.5784C115.053 51.6611 114.75 51.5233 114.626 51.2476C114.144 50.2276 114.116 50.1174 114.102 50.0622C114.061 49.9106 114.006 49.4695 113.937 48.7804C113.91 48.4909 114.102 48.2152 114.378 48.1325L115.025 47.9533C115.797 47.7466 116.637 48.3393 116.899 49.2904C117.146 50.1863 116.788 51.0684 116.1 51.3579ZM114.612 49.9244C114.612 49.9244 114.764 50.3103 115.108 51.0133C115.122 51.0547 115.163 51.0685 115.204 51.0547L115.838 50.8755C116.334 50.7376 116.582 50.0898 116.389 49.4282C116.21 48.7666 115.659 48.3255 115.163 48.4633L114.516 48.6425C114.516 48.6425 114.447 48.6839 114.461 48.7252C114.543 49.6487 114.585 49.8693 114.598 49.9106L114.612 49.9244Z" fill="#371A45"/>
<path d="M114.965 51.3929C115.596 51.2189 115.927 50.4235 115.705 49.6162C115.482 48.8089 114.791 48.2955 114.16 48.4695C113.529 48.6435 113.198 49.4389 113.421 50.2462C113.643 51.0535 114.335 51.5668 114.965 51.3929Z" fill="#FC6C63"/>
<g opacity="0.7">
<path d="M113.538 50.5447C113.469 49.8555 113.786 49.2214 114.337 49.0698C114.888 48.9182 115.494 49.2904 115.783 49.9244C115.783 49.8279 115.755 49.7176 115.728 49.6074C115.507 48.7941 114.805 48.2841 114.185 48.4633C113.552 48.6425 113.221 49.4282 113.441 50.2414C113.469 50.3517 113.51 50.4482 113.552 50.5309L113.538 50.5447Z" fill="white"/>
</g>
<path d="M114.984 51.3993C115.618 51.2201 115.948 50.4344 115.728 49.6212C115.673 49.442 115.604 49.2628 115.507 49.1112C115.507 49.7039 115.191 50.2139 114.695 50.338C114.213 50.4758 113.689 50.2001 113.372 49.6901C113.372 49.8693 113.386 50.0485 113.441 50.2415C113.662 51.0547 114.35 51.5647 114.984 51.3855V51.3993Z" fill="#BC514A"/>
<path d="M115.177 51.606C115.177 51.606 115.094 51.6336 115.053 51.6474C114.282 51.8541 113.441 51.2614 113.18 50.3104C112.918 49.3593 113.331 48.422 114.102 48.2015C114.874 47.9947 115.714 48.5874 115.976 49.5385C116.224 50.4344 115.866 51.3166 115.177 51.606ZM113.689 50.1725C113.868 50.8341 114.419 51.2752 114.915 51.1374C115.411 50.9995 115.659 50.3517 115.466 49.6901C115.287 49.0285 114.736 48.5874 114.24 48.7252C113.744 48.8631 113.496 49.5109 113.689 50.1725Z" fill="#371A45"/>
<path d="M113.414 54.7212C113.414 54.7212 113.4 54.7212 113.386 54.7212C113.248 54.7625 113.097 54.6798 113.056 54.542L112.408 52.3504C112.284 51.9231 111.954 51.5923 111.527 51.4682C110.921 51.2752 110.452 50.8066 110.287 50.1863L109.433 47.0712C109.392 46.9334 109.474 46.7818 109.612 46.7404C109.75 46.6991 109.901 46.7818 109.943 46.9196L110.797 50.0347C110.921 50.4758 111.251 50.8066 111.678 50.9444C112.271 51.1236 112.725 51.5923 112.904 52.185L113.552 54.3766C113.593 54.5144 113.524 54.6522 113.4 54.6936L113.414 54.7212Z" fill="#371A45"/>
<path d="M126.072 44.0112C126.072 44.0112 127.009 44.3558 127.339 45.2655C127.725 46.3131 127.201 46.9609 127.201 46.9609C127.201 46.9609 124.791 49.3869 119.805 49.9244C119.805 49.9244 117.876 48.6425 119.075 47.1677C119.075 47.1677 124.212 46.2442 126.058 44.025L126.072 44.0112Z" fill="white"/>
<g opacity="0.26">
<path d="M127.339 45.2793C127.725 46.3269 127.201 46.9747 127.201 46.9747C127.201 46.9747 124.791 49.4006 119.805 49.9382C119.805 49.9382 119.171 49.5109 118.854 48.8768C118.882 48.9044 118.91 48.9182 118.91 48.9182C122.546 48.5322 124.818 47.1263 125.769 46.4096C126.43 45.8996 126.719 45.0588 126.444 44.3007V44.2731C126.444 44.2593 126.444 44.2317 126.416 44.218C126.719 44.4109 127.133 44.7555 127.339 45.2931V45.2793Z" fill="#371A45"/>
</g>
<path d="M124.102 49.2215C122.973 49.6763 121.568 50.0761 119.846 50.2552H119.722L119.626 50.2001C119.584 50.1725 118.524 49.4558 118.372 48.422C118.29 47.912 118.441 47.4158 118.827 46.9472L118.91 46.8507L119.034 46.8231C119.034 46.8231 124.075 45.8996 125.824 43.7907L125.976 43.6115L126.196 43.6942C126.196 43.6942 127.284 44.1077 127.656 45.1415C128.097 46.3545 127.491 47.1263 127.463 47.1539L127.436 47.1815C127.436 47.1815 126.279 48.3255 124.102 49.1939V49.2215ZM119.901 49.5798C124.419 49.0698 126.747 46.9334 126.953 46.7404C127.009 46.6577 127.325 46.1615 127.036 45.3758C126.843 44.852 126.416 44.5488 126.155 44.411C124.281 46.3958 120.067 47.3055 119.268 47.4572C119.061 47.7466 118.978 48.0223 119.034 48.3117C119.116 48.9044 119.681 49.4007 119.901 49.5661V49.5798Z" fill="#371A45"/>
<path d="M125.962 58.4841C125.741 58.5668 125.507 58.4703 125.411 58.2498C125.328 58.0292 125.425 57.7949 125.645 57.6984C128.166 56.6784 132.229 54.5282 132.367 53.0671C132.394 52.8328 132.601 52.6674 132.821 52.695C133.055 52.7225 133.221 52.9293 133.193 53.1498C132.959 55.5757 126.664 58.1809 125.948 58.4703L125.962 58.4841Z" fill="#371A45"/>
<path d="M114.323 59.8762C114.199 59.9314 114.047 59.9176 113.937 59.8349C110.549 57.5881 107.932 57.2849 106.32 57.4365C104.585 57.6019 103.634 58.2911 103.621 58.2911C103.442 58.4289 103.166 58.3876 103.028 58.2084C102.891 58.0292 102.932 57.7673 103.111 57.6157C103.29 57.4916 107.422 54.4868 114.392 59.1319C114.585 59.256 114.64 59.5178 114.502 59.7108C114.447 59.7797 114.392 59.8349 114.309 59.8624L114.323 59.8762Z" fill="#371A45"/>
<path d="M108.772 67.0851C108.772 67.0851 110.714 67.4297 113.207 65.5413L108.772 67.0851Z" fill="white"/>
<path d="M108.841 66.6716C108.841 66.6716 108.91 66.6716 108.951 66.6854C108.992 66.6854 109.034 66.6854 109.075 66.6854C109.158 66.6854 109.254 66.6854 109.351 66.6854C109.53 66.6854 109.722 66.6716 109.901 66.644C110.273 66.6027 110.645 66.5062 111.003 66.3959C111.182 66.327 111.361 66.2718 111.541 66.1891C111.72 66.1202 111.899 66.0237 112.064 65.941C112.243 65.8583 112.408 65.7481 112.574 65.6654C112.739 65.5689 112.904 65.4586 113.069 65.3483C113.166 65.2794 113.29 65.307 113.359 65.4035C113.414 65.5 113.4 65.6102 113.304 65.6792C113.138 65.8032 112.987 65.9273 112.822 66.0513C112.656 66.1616 112.491 66.2856 112.312 66.3959C112.133 66.5062 111.954 66.6164 111.775 66.6991C111.596 66.7956 111.403 66.8783 111.21 66.9748C110.824 67.1402 110.425 67.2781 110.012 67.3608C109.805 67.4021 109.585 67.4435 109.378 67.4572C109.268 67.4572 109.158 67.471 109.047 67.471C108.992 67.471 108.937 67.471 108.882 67.471C108.827 67.471 108.772 67.471 108.689 67.4572H108.676C108.441 67.4297 108.276 67.2091 108.304 66.9886C108.331 66.7543 108.538 66.5889 108.772 66.6164C108.786 66.6164 108.813 66.6164 108.827 66.6164L108.841 66.6716Z" fill="#371A45"/>
<path d="M134.157 60.7032C134.502 60.5654 134.846 60.3862 135.163 60.1932C135.479 60.0002 135.782 59.7797 136.058 59.5454C136.333 59.2973 136.568 59.0354 136.733 58.7321C136.898 58.4427 136.981 58.1257 136.967 57.8224C136.967 57.5881 137.146 57.3951 137.366 57.3813C137.601 57.3813 137.793 57.5605 137.807 57.7811C137.807 57.7811 137.807 57.8086 137.807 57.8224C137.793 58.0567 137.738 58.2911 137.67 58.5116C137.587 58.7321 137.477 58.9251 137.353 59.1181C137.105 59.4902 136.788 59.7797 136.457 60.0278C136.127 60.2759 135.769 60.4827 135.411 60.6481C135.052 60.8273 134.681 60.9651 134.295 61.0892C134.185 61.1167 134.061 61.0616 134.033 60.9513C134.006 60.841 134.061 60.7308 134.157 60.6894V60.7032Z" fill="#371A45"/>
<path d="M140.369 10.5169C140.328 10.448 140.273 10.3239 140.3 10.255C140.328 10.1448 140.452 10.0758 140.562 10.1172C140.672 10.1448 140.741 10.2688 140.7 10.3791C140.672 10.448 140.576 10.5169 140.493 10.5583C140.452 10.5858 140.397 10.5583 140.369 10.5169ZM143.096 11.0269C143 10.9442 142.876 10.8891 142.766 10.8339C142.614 10.7512 142.421 10.7512 142.284 10.6272C142.16 10.5031 142.118 10.3102 142.187 10.1585C142.229 10.0621 142.298 9.97935 142.353 9.89665C142.656 9.428 142.656 8.75261 142.449 8.24261C142.421 8.18747 142.408 8.13234 142.38 8.07721C141.926 7.19505 140.865 6.78154 139.928 7.16748C139.543 7.3191 139.212 7.60856 138.992 7.96694C138.84 8.22883 138.744 8.53207 138.716 8.83531C138.716 8.98693 138.716 9.15233 138.744 9.30395C138.771 9.48314 138.882 9.66233 138.882 9.84151C138.882 10.0069 138.799 10.1723 138.661 10.2412C138.551 10.3102 138.413 10.3102 138.303 10.3515C137.697 10.5858 137.422 11.3302 137.656 11.9091C137.904 12.5293 138.606 12.8188 139.212 12.5707C139.639 12.3915 139.915 12.0055 139.956 11.5783L139.887 11.5507C139.887 11.5507 139.86 11.5093 139.887 11.5093L139.942 11.4818H139.887C139.887 11.4818 139.846 11.4266 139.846 11.3991V11.3164C139.68 11.4129 139.625 11.661 139.529 11.4818C139.433 11.3164 139.501 11.0958 139.68 10.9993C139.763 10.958 139.846 10.9442 139.928 10.9718L140.121 10.0483C140.121 10.0483 140.121 9.99313 140.135 9.97935C140.176 9.82773 140.41 9.68989 140.562 9.60719C140.658 9.55206 140.769 9.59341 140.824 9.68989C140.906 9.8553 141.017 10.0896 140.975 10.2412C140.975 10.2688 140.961 10.2826 140.948 10.3102L140.59 11.1785C140.672 11.2061 140.741 11.2612 140.782 11.3439C140.879 11.5093 140.81 11.7299 140.631 11.8264C140.466 11.9228 140.562 11.6885 140.466 11.5093C140.466 11.5093 140.466 11.5093 140.466 11.4956L140.438 11.5645C140.438 11.5645 140.397 11.6058 140.369 11.6058H140.314L140.342 11.6472C140.342 11.661 140.342 11.6885 140.314 11.6885L140.231 11.661C140.011 12.0745 139.928 12.5569 140.039 13.0393C140.066 13.1358 140.094 13.2185 140.121 13.315C140.521 14.3074 141.65 14.7899 142.642 14.3901C143.634 13.9904 144.116 12.8601 143.716 11.8677C143.675 11.7712 143.634 11.6885 143.592 11.6058C143.468 11.3853 143.289 11.1923 143.083 11.0407L143.096 11.0269Z" fill="#BC514A"/>
<g opacity="0.2">
<path d="M151.443 13.5631C151.443 13.5631 149.253 13.0118 147.256 14.2247C145.121 15.5204 143.785 17.2572 140.755 18.2496C137.022 19.4763 132.835 16.3612 132.835 16.3612C132.835 16.3612 132.38 7.84291 131.141 4.87942C131.609 4.74158 132.091 4.70023 132.587 4.7278C133.441 7.62237 133.785 15.7547 136.375 16.6782C140.934 18.3047 140.548 10.2826 139.254 5.85806C139.557 5.81671 139.846 5.73401 140.135 5.60995C140.438 5.4859 140.714 5.3205 140.961 5.14131C141.251 8.91803 142.242 15.1069 145.562 13.3012C149.336 11.2475 146.209 5.00347 147.146 0.468647C147.38 0.413513 147.642 0.372162 147.903 0.330811C147.903 0.330811 151.361 13.5218 151.43 13.5769L151.443 13.5631Z" fill="#371A45"/>
</g>
</g>
<defs>
<clipPath id="clip0_152_2">
<rect width="680" height="584" fill="white" transform="translate(10 133)"/>
</clipPath>
<clipPath id="clip1_152_2">
<rect width="700" height="695" fill="white"/>
</clipPath>
</defs>
</svg>
